<?xml version="1.0" encoding="utf-8" standalone="no"?>
<!DOCTYPE svg PUBLIC "-//W3C//DTD SVG 1.1//EN"
  "http://www.w3.org/Graphics/SVG/1.1/DTD/svg11.dtd">
<svg xmlns:xlink="http://www.w3.org/1999/xlink" width="864pt" height="432pt" viewBox="0 0 864 432" xmlns="http://www.w3.org/2000/svg" version="1.1">
 <metadata>
  <rdf:RDF xmlns:dc="http://purl.org/dc/elements/1.1/" xmlns:cc="http://creativecommons.org/ns#" xmlns:rdf="http://www.w3.org/1999/02/22-rdf-syntax-ns#">
   <cc:Work>
    <dc:type rdf:resource="http://purl.org/dc/dcmitype/StillImage"/>
    <dc:date>2026-02-16T13:22:51.891244</dc:date>
    <dc:format>image/svg+xml</dc:format>
    <dc:creator>
     <cc:Agent>
      <dc:title>Matplotlib v3.10.8, https://matplotlib.org/</dc:title>
     </cc:Agent>
    </dc:creator>
   </cc:Work>
  </rdf:RDF>
 </metadata>
 <defs>
  <style type="text/css">*{stroke-linejoin: round; stroke-linecap: butt}</style>
 </defs>
 <g id="figure_1">
  <g id="patch_1">
   <path d="M 0 432 
L 864 432 
L 864 0 
L 0 0 
z
" style="fill: #ffffff"/>
  </g>
  <g id="axes_1">
   <g id="text_1">
    <!-- 全台建物買賣移轉棟數 -->
    <g style="fill: #0d3b66" transform="translate(312 161.435625) scale(0.24 -0.24)">
     <defs>
      <path id="NotoSansCJKjp-Bold-5168" d="M 1574 3117 
C 2240 3610 2810 4186 3174 4704 
C 3546 4186 4160 3603 4826 3117 
L 1574 3117 
z
M 3578 1043 
L 5370 1043 
L 5370 1709 
L 3578 1709 
L 3578 2445 
L 5075 2445 
L 5075 2944 
C 5306 2784 5536 2643 5766 2515 
C 5907 2752 6074 2995 6272 3200 
C 5261 3629 4218 4467 3533 5440 
L 2746 5440 
C 2272 4659 1242 3674 147 3123 
C 320 2963 531 2688 627 2509 
C 870 2643 1107 2790 1338 2950 
L 1338 2445 
L 2784 2445 
L 2784 1709 
L 1011 1709 
L 1011 1043 
L 2784 1043 
L 2784 282 
L 499 282 
L 499 -403 
L 5946 -403 
L 5946 282 
L 3578 282 
L 3578 1043 
z
" transform="scale(0.015625)"/>
      <path id="NotoSansCJKjp-Bold-53f0" d="M 4512 1542 
L 4512 435 
L 1850 435 
L 1850 1542 
L 4512 1542 
z
M 1069 -550 
L 1850 -550 
L 1850 -294 
L 4512 -294 
L 4512 -544 
L 5331 -544 
L 5331 2266 
L 1069 2266 
L 1069 -550 
z
M 3853 4333 
C 4051 4160 4262 3968 4467 3763 
C 3731 3731 2989 3699 2298 3674 
C 2605 4141 2925 4678 3194 5184 
L 2317 5466 
C 2099 4902 1734 4198 1376 3642 
C 1018 3635 685 3622 390 3616 
L 435 2848 
C 1626 2893 3411 2963 5101 3053 
C 5274 2842 5414 2643 5510 2470 
L 6170 2976 
C 5843 3526 5082 4262 4448 4781 
L 3853 4333 
z
" transform="scale(0.015625)"/>
      <path id="NotoSansCJKjp-Bold-5efa" d="M 4941 4435 
L 4941 4173 
L 4358 4173 
L 4358 4435 
L 4941 4435 
z
M 4941 3328 
L 4358 3328 
L 4358 3590 
L 4941 3590 
L 4941 3328 
z
M 3616 4173 
L 2010 4173 
L 2010 3590 
L 3616 3590 
L 3616 3328 
L 2413 3328 
L 2413 2752 
L 3616 2752 
L 3616 2470 
L 2374 2470 
L 2374 1920 
L 3616 1920 
L 3616 1619 
L 2099 1619 
L 2099 1024 
L 3616 1024 
L 3616 506 
L 4358 506 
L 4358 1024 
L 6035 1024 
L 6035 1619 
L 4358 1619 
L 4358 1920 
L 5741 1920 
L 5741 2470 
L 4358 2470 
L 4358 2752 
L 5690 2752 
L 5690 3590 
L 6170 3590 
L 6170 4173 
L 5690 4173 
L 5690 5011 
L 4358 5011 
L 4358 5376 
L 3616 5376 
L 3616 5011 
L 2445 5011 
L 2445 4435 
L 3616 4435 
L 3616 4173 
z
M 1773 3283 
L 1638 3264 
L 1318 3264 
C 1581 3846 1843 4454 2035 4954 
L 1517 5094 
L 1402 5069 
L 230 5069 
L 230 4403 
L 1062 4403 
C 826 3846 518 3155 243 2592 
L 934 2413 
L 1018 2598 
L 1453 2598 
C 1402 2202 1325 1843 1229 1523 
C 1107 1728 998 1965 915 2246 
L 320 2029 
C 486 1517 685 1107 922 787 
C 723 422 474 141 173 -70 
C 333 -166 627 -429 742 -582 
C 1018 -371 1254 -102 1453 243 
C 2131 -269 3002 -397 4083 -397 
L 5952 -397 
C 6003 -186 6125 173 6246 346 
C 5779 326 4480 326 4102 326 
C 3168 333 2362 429 1766 902 
C 1990 1510 2144 2266 2221 3181 
L 1773 3283 
z
" transform="scale(0.015625)"/>
      <path id="NotoSansCJKjp-Bold-7269" d="M 2618 2598 
L 2029 2432 
L 2029 3462 
L 2560 3462 
L 2560 4186 
L 2029 4186 
L 2029 5414 
L 1331 5414 
L 1331 4186 
L 1030 4186 
C 1069 4442 1101 4691 1126 4947 
L 493 5056 
C 435 4301 326 3501 128 2995 
C 269 2912 550 2739 666 2643 
C 755 2874 832 3149 902 3462 
L 1331 3462 
L 1331 2240 
C 896 2118 506 2016 186 1946 
L 371 1222 
C 666 1299 986 1402 1331 1504 
L 1331 -563 
L 2029 -563 
L 2029 1715 
C 2266 1786 2490 1862 2720 1926 
L 2618 2598 
z
M 3757 4429 
C 3846 4710 3930 4998 3994 5293 
L 3302 5421 
C 3110 4480 2758 3565 2253 3008 
C 2406 2912 2707 2701 2829 2579 
C 3078 2886 3302 3283 3488 3725 
L 3814 3725 
C 3533 2797 3034 1850 2400 1350 
C 2598 1242 2842 1069 2982 922 
C 3629 1536 4166 2682 4448 3725 
L 4749 3725 
C 4429 2227 3789 774 2765 38 
C 2976 -70 3238 -256 3386 -403 
C 4416 448 5075 2112 5389 3725 
L 5421 3725 
C 5318 1427 5203 557 5043 352 
C 4966 256 4902 230 4806 230 
C 4685 230 4474 230 4237 256 
C 4352 45 4429 -269 4448 -486 
C 4723 -499 4992 -499 5171 -467 
C 5382 -422 5523 -352 5670 -134 
C 5914 186 6029 1229 6150 4083 
C 6157 4173 6163 4429 6163 4429 
L 3757 4429 
z
" transform="scale(0.015625)"/>
      <path id="NotoSansCJKjp-Bold-8cb7" d="M 5011 4147 
L 4205 4147 
L 4205 4589 
L 5011 4589 
L 5011 4147 
z
M 3571 4147 
L 2797 4147 
L 2797 4589 
L 3571 4589 
L 3571 4147 
z
M 2163 4147 
L 1395 4147 
L 1395 4589 
L 2163 4589 
L 2163 4147 
z
M 5747 5158 
L 691 5158 
L 691 3584 
L 5747 3584 
L 5747 5158 
z
M 1805 1312 
L 4608 1312 
L 4608 992 
L 1805 992 
L 1805 1312 
z
M 1805 2080 
L 4608 2080 
L 4608 1760 
L 1805 1760 
L 1805 2080 
z
M 1805 2842 
L 4608 2842 
L 4608 2528 
L 1805 2528 
L 1805 2842 
z
M 5408 512 
L 5408 3322 
L 1037 3322 
L 1037 512 
L 2022 512 
C 1568 294 870 90 243 -26 
C 403 -154 678 -429 806 -582 
C 1472 -397 2310 -90 2848 262 
L 2291 512 
L 4077 512 
L 3558 179 
C 4256 -58 4960 -352 5357 -563 
L 6182 -186 
C 5734 13 4998 294 4320 512 
L 5408 512 
z
" transform="scale(0.015625)"/>
      <path id="NotoSansCJKjp-Bold-8ce3" d="M 2810 4422 
L 909 4422 
L 909 3974 
L 5562 3974 
L 5562 4422 
L 3558 4422 
L 3558 4621 
L 5978 4621 
L 5978 5114 
L 3558 5114 
L 3558 5421 
L 2810 5421 
L 2810 5114 
L 435 5114 
L 435 4621 
L 2810 4621 
L 2810 4422 
z
M 1414 3379 
L 2182 3379 
L 2182 3098 
L 1414 3098 
L 1414 3379 
z
M 2790 3379 
L 3571 3379 
L 3571 3098 
L 2790 3098 
L 2790 3379 
z
M 4179 3379 
L 4986 3379 
L 4986 3098 
L 4179 3098 
L 4179 3379 
z
M 742 2682 
L 5696 2682 
L 5696 3795 
L 742 3795 
L 742 2682 
z
M 1856 909 
L 4608 909 
L 4608 685 
L 1856 685 
L 1856 909 
z
M 1856 1504 
L 4608 1504 
L 4608 1286 
L 1856 1286 
L 1856 1504 
z
M 1856 2099 
L 4608 2099 
L 4608 1882 
L 1856 1882 
L 1856 2099 
z
M 5382 288 
L 5382 2496 
L 1114 2496 
L 1114 288 
L 2074 288 
C 1606 141 883 19 243 -51 
C 403 -166 659 -416 787 -563 
C 1440 -442 2291 -230 2842 19 
L 2272 288 
L 4186 288 
L 3552 -58 
C 4243 -224 4909 -429 5280 -582 
L 6176 -250 
C 5709 -90 4909 128 4224 288 
L 5382 288 
z
" transform="scale(0.015625)"/>
      <path id="NotoSansCJKjp-Bold-79fb" d="M 2752 1894 
C 2630 2035 2106 2592 1933 2733 
L 1933 2918 
L 2618 2918 
L 2618 3629 
L 1933 3629 
L 1933 4531 
C 2208 4602 2464 4685 2694 4774 
L 2189 5357 
C 1696 5133 909 4947 205 4826 
C 288 4672 378 4416 416 4243 
C 666 4275 928 4320 1197 4371 
L 1197 3629 
L 282 3629 
L 282 2918 
L 1094 2918 
C 858 2298 506 1619 147 1203 
C 269 1011 429 698 499 480 
C 749 800 992 1254 1197 1747 
L 1197 -550 
L 1933 -550 
L 1933 1946 
C 2086 1715 2240 1466 2317 1299 
L 2752 1894 
z
M 5203 1760 
C 5069 1510 4896 1293 4698 1101 
C 4512 1261 4262 1434 4038 1568 
C 4109 1632 4179 1696 4243 1760 
L 5203 1760 
z
M 4896 4250 
C 4762 4038 4589 3853 4390 3680 
C 4218 3840 3987 4006 3776 4134 
C 3821 4173 3866 4211 3904 4250 
L 4896 4250 
z
M 5702 2406 
L 5568 2381 
L 4762 2381 
C 4858 2522 4947 2662 5024 2810 
L 4506 2899 
C 5126 3322 5626 3898 5907 4672 
L 5421 4890 
L 5299 4858 
L 4442 4858 
C 4544 4992 4634 5133 4717 5280 
L 3974 5414 
C 3699 4922 3181 4390 2374 4019 
C 2522 3910 2746 3654 2848 3494 
C 3008 3578 3155 3674 3296 3763 
C 3488 3635 3706 3462 3866 3309 
C 3475 3078 3027 2906 2554 2797 
C 2688 2650 2867 2368 2944 2195 
C 3360 2317 3757 2470 4122 2669 
C 3814 2208 3309 1754 2586 1414 
C 2739 1299 2950 1050 3046 883 
C 3206 973 3360 1062 3507 1158 
C 3725 1018 3955 838 4134 672 
C 3654 378 3072 186 2432 70 
C 2566 -83 2733 -384 2810 -576 
C 4429 -211 5677 557 6189 2214 
L 5702 2406 
z
" transform="scale(0.015625)"/>
      <path id="NotoSansCJKjp-Bold-8f49" d="M 4806 2483 
L 5242 2483 
L 5062 2400 
C 5114 2342 5165 2285 5216 2221 
L 4806 2214 
L 4806 2483 
z
M 3642 2893 
L 3642 3149 
L 4160 3149 
L 4160 2893 
L 3642 2893 
z
M 3642 3789 
L 4160 3789 
L 4160 3539 
L 3642 3539 
L 3642 3789 
z
M 5350 3789 
L 5350 3539 
L 4806 3539 
L 4806 3789 
L 5350 3789 
z
M 5350 2893 
L 4806 2893 
L 4806 3149 
L 5350 3149 
L 5350 2893 
z
M 2918 1638 
C 3622 1651 4608 1677 5568 1709 
C 5619 1626 5658 1549 5690 1485 
L 6221 1747 
C 6112 1958 5920 2240 5709 2483 
L 5978 2483 
L 5978 4198 
L 4806 4198 
L 4806 4435 
L 6093 4435 
L 6093 4992 
L 4806 4992 
L 4806 5414 
L 4160 5414 
L 4160 4992 
L 2938 4992 
L 2938 4435 
L 4160 4435 
L 4160 4198 
L 3046 4198 
L 3046 2483 
L 4160 2483 
L 4160 2202 
C 3674 2189 3232 2182 2880 2182 
L 2918 1638 
z
M 4762 122 
C 4762 51 4730 32 4640 26 
C 4557 26 4262 26 4006 38 
L 4269 205 
C 4179 384 4000 627 3802 826 
L 4762 826 
L 4762 122 
z
M 954 2406 
L 1318 2406 
L 1318 2029 
L 954 2029 
L 954 2406 
z
M 954 3283 
L 1318 3283 
L 1318 2906 
L 954 2906 
L 954 3283 
z
M 2202 2906 
L 1811 2906 
L 1811 3283 
L 2202 3283 
L 2202 2906 
z
M 2202 2029 
L 1811 2029 
L 1811 2406 
L 2202 2406 
L 2202 2029 
z
M 5453 1632 
L 4762 1632 
L 4762 1382 
L 2886 1382 
L 2886 1120 
L 1901 1120 
L 1901 1504 
L 2752 1504 
L 2752 3814 
L 1901 3814 
L 1901 4147 
L 2810 4147 
L 2810 4806 
L 1901 4806 
L 1901 5414 
L 1229 5414 
L 1229 4806 
L 288 4806 
L 288 4147 
L 1229 4147 
L 1229 3814 
L 410 3814 
L 410 1504 
L 1229 1504 
L 1229 1120 
L 198 1120 
L 198 454 
L 1229 454 
L 1229 -557 
L 1901 -557 
L 1901 454 
L 2886 454 
L 2886 826 
L 3488 826 
L 3174 640 
C 3405 410 3622 83 3725 -141 
L 3981 19 
C 4058 -154 4147 -390 4166 -576 
C 4614 -576 4922 -570 5158 -480 
C 5402 -384 5453 -224 5453 102 
L 5453 826 
L 6182 826 
L 6182 1382 
L 5453 1382 
L 5453 1632 
z
" transform="scale(0.015625)"/>
      <path id="NotoSansCJKjp-Bold-68df" d="M 2611 1901 
C 2496 2080 1990 2842 1811 3078 
L 1811 3405 
L 2509 3405 
L 2509 4109 
L 1811 4109 
L 1811 5421 
L 1107 5421 
L 1107 4109 
L 307 4109 
L 307 3405 
L 1050 3405 
C 877 2643 525 1766 147 1254 
C 262 1069 429 774 493 563 
C 723 883 934 1344 1107 1843 
L 1107 -550 
L 1811 -550 
L 1811 2131 
C 1958 1843 2112 1536 2195 1331 
L 2611 1901 
z
M 3392 2387 
L 3942 2387 
L 3942 2054 
L 3392 2054 
L 3392 2387 
z
M 3392 3219 
L 3942 3219 
L 3942 2886 
L 3392 2886 
L 3392 3219 
z
M 5261 3219 
L 5261 2886 
L 4678 2886 
L 4678 3219 
L 5261 3219 
z
M 5261 2054 
L 4678 2054 
L 4678 2387 
L 5261 2387 
L 5261 2054 
z
M 5965 1517 
L 5965 3750 
L 4678 3750 
L 4678 4109 
L 6080 4109 
L 6080 4749 
L 4678 4749 
L 4678 5414 
L 3942 5414 
L 3942 4749 
L 2541 4749 
L 2541 4109 
L 3942 4109 
L 3942 3750 
L 2714 3750 
L 2714 1517 
L 3635 1517 
C 3283 1018 2707 525 2157 256 
C 2317 122 2554 -154 2669 -333 
C 3123 -58 3584 384 3942 877 
L 3942 -557 
L 4678 -557 
L 4678 979 
C 4998 493 5395 19 5754 -275 
C 5875 -90 6112 173 6278 314 
C 5843 582 5338 1050 5005 1517 
L 5965 1517 
z
" transform="scale(0.015625)"/>
      <path id="NotoSansCJKjp-Bold-6578" d="M 3731 1075 
L 3750 1613 
C 3155 1606 2541 1594 1965 1587 
L 2093 1824 
L 2035 1837 
L 3456 1837 
L 3456 2310 
C 3590 2176 3731 2029 3795 1933 
C 3885 2061 3968 2202 4045 2355 
C 4147 1907 4275 1485 4429 1114 
C 4154 672 3789 314 3302 51 
C 3149 141 2963 237 2765 339 
C 2931 538 3053 774 3142 1062 
L 3731 1075 
z
M 1645 1030 
L 2458 1043 
C 2381 877 2285 730 2170 608 
C 1958 698 1747 781 1536 851 
L 1645 1030 
z
M 1114 2560 
L 1619 2560 
L 1619 2291 
L 1114 2291 
L 1114 2560 
z
M 2797 2560 
L 2797 2291 
L 2266 2291 
L 2266 2560 
L 2797 2560 
z
M 5139 3552 
C 5075 2976 4979 2464 4838 2010 
C 4685 2470 4576 2982 4493 3514 
L 4506 3552 
L 5139 3552 
z
M 1242 3699 
L 1242 3936 
L 1619 3936 
L 1619 3699 
L 1242 3699 
z
M 1619 4627 
L 1619 4397 
L 1242 4397 
L 1242 4627 
L 1619 4627 
z
M 2669 4627 
L 2669 4397 
L 2266 4397 
L 2266 4627 
L 2669 4627 
z
M 2266 3699 
L 2266 3936 
L 2669 3936 
L 2669 3699 
L 2266 3699 
z
M 6189 3552 
L 6189 4256 
L 4685 4256 
C 4755 4602 4819 4960 4864 5325 
L 4141 5421 
C 4026 4442 3821 3494 3456 2816 
L 3456 3021 
L 2266 3021 
L 2266 3219 
L 3328 3219 
L 3328 3898 
L 3744 3898 
L 3744 4435 
L 3328 4435 
L 3328 5107 
L 2266 5107 
L 2266 5421 
L 1619 5421 
L 1619 5107 
L 614 5107 
L 614 4435 
L 211 4435 
L 211 3898 
L 614 3898 
L 614 3219 
L 1619 3219 
L 1619 3021 
L 486 3021 
L 486 1837 
L 1395 1837 
C 1350 1754 1306 1670 1254 1581 
C 877 1574 525 1574 230 1574 
L 256 1011 
L 941 1018 
C 813 806 691 608 582 448 
L 1190 301 
L 1242 384 
C 1357 339 1472 288 1587 243 
C 1274 115 870 45 378 0 
C 486 -147 602 -384 646 -582 
C 1331 -467 1862 -314 2266 -77 
C 2528 -218 2765 -358 2938 -486 
L 3379 -51 
C 3501 -218 3654 -454 3706 -582 
C 4147 -314 4506 13 4794 397 
C 5043 6 5350 -320 5728 -570 
C 5837 -378 6054 -102 6221 38 
C 5805 288 5478 653 5222 1107 
C 5542 1779 5728 2592 5850 3552 
L 6189 3552 
z
" transform="scale(0.015625)"/>
     </defs>
     <use xlink:href="#NotoSansCJKjp-Bold-5168"/>
     <use xlink:href="#NotoSansCJKjp-Bold-53f0" transform="translate(99.999985 0)"/>
     <use xlink:href="#NotoSansCJKjp-Bold-5efa" transform="translate(199.999969 0)"/>
     <use xlink:href="#NotoSansCJKjp-Bold-7269" transform="translate(299.999954 0)"/>
     <use xlink:href="#NotoSansCJKjp-Bold-8cb7" transform="translate(399.999939 0)"/>
     <use xlink:href="#NotoSansCJKjp-Bold-8ce3" transform="translate(499.999924 0)"/>
     <use xlink:href="#NotoSansCJKjp-Bold-79fb" transform="translate(599.999908 0)"/>
     <use xlink:href="#NotoSansCJKjp-Bold-8f49" transform="translate(699.999893 0)"/>
     <use xlink:href="#NotoSansCJKjp-Bold-68df" transform="translate(799.999878 0)"/>
     <use xlink:href="#NotoSansCJKjp-Bold-6578" transform="translate(899.999863 0)"/>
    </g>
   </g>
   <g id="text_2">
    <!-- 目前無法取得資料，已保留上次可用輸出或等待下次更新。 -->
    <g style="fill: #444444" transform="translate(250 228.176125) scale(0.14 -0.14)">
     <defs>
      <path id="NotoSansCJKjp-Regular-76ee" d="M 1498 448 
L 1498 1498 
L 4845 1498 
L 4845 448 
L 1498 448 
z
M 4845 3002 
L 4845 1952 
L 1498 1952 
L 1498 3002 
L 4845 3002 
z
M 4845 4493 
L 4845 3456 
L 1498 3456 
L 1498 4493 
L 4845 4493 
z
M 1030 4954 
L 1030 -454 
L 1498 -454 
L 1498 -19 
L 4845 -19 
L 4845 -454 
L 5338 -454 
L 5338 4954 
L 1030 4954 
z
" transform="scale(0.015625)"/>
      <path id="NotoSansCJKjp-Regular-524d" d="M 1216 1293 
L 1216 1933 
L 2630 1933 
L 2630 1293 
L 1216 1293 
z
M 2630 2931 
L 2630 2304 
L 1216 2304 
L 1216 2931 
L 2630 2931 
z
M 3091 3341 
L 762 3341 
L 762 -461 
L 1216 -461 
L 1216 915 
L 2630 915 
L 2630 64 
C 2630 -19 2605 -45 2509 -51 
C 2426 -58 2138 -58 1818 -45 
C 1882 -160 1946 -339 1971 -461 
C 2406 -461 2682 -461 2861 -384 
C 3034 -307 3091 -186 3091 58 
L 3091 3341 
z
M 5152 109 
C 5152 13 5120 -13 5011 -19 
C 4915 -26 4570 -26 4179 -13 
C 4250 -141 4326 -339 4352 -467 
C 4838 -474 5158 -461 5363 -384 
C 5555 -307 5619 -179 5619 109 
L 5619 3469 
L 5152 3469 
L 5152 109 
z
M 4307 3277 
L 3866 3277 
L 3866 678 
L 4307 678 
L 4307 3277 
z
M 4550 4346 
C 4736 4608 4947 4922 5120 5216 
L 4621 5382 
C 4480 5075 4237 4653 4019 4346 
L 2112 4346 
L 2426 4467 
C 2304 4717 2035 5094 1786 5363 
L 1350 5197 
C 1568 4941 1818 4595 1933 4346 
L 365 4346 
L 365 3910 
L 6042 3910 
L 6042 4346 
L 4550 4346 
z
" transform="scale(0.015625)"/>
      <path id="NotoSansCJKjp-Regular-7121" d="M 4698 3117 
L 3949 3117 
L 3949 4198 
L 4698 4198 
L 4698 3117 
z
M 4698 1600 
L 3949 1600 
L 3949 2694 
L 4698 2694 
L 4698 1600 
z
M 1683 2694 
L 2394 2694 
L 2394 1600 
L 1683 1600 
L 1683 2694 
z
M 3539 2694 
L 3539 1600 
L 2797 1600 
L 2797 2694 
L 3539 2694 
z
M 2797 3117 
L 2797 4198 
L 3539 4198 
L 3539 3117 
L 2797 3117 
z
M 1683 4198 
L 2394 4198 
L 2394 3117 
L 1683 3117 
L 1683 4198 
z
M 1254 3117 
L 365 3117 
L 365 2694 
L 1254 2694 
L 1254 1600 
L 467 1600 
L 467 1171 
L 5952 1171 
L 5952 1600 
L 5146 1600 
L 5146 2694 
L 6042 2694 
L 6042 3117 
L 5146 3117 
L 5146 4198 
L 5805 4198 
L 5805 4621 
L 1766 4621 
C 1894 4813 2010 5018 2106 5222 
L 1651 5357 
C 1350 4710 838 4090 288 3686 
C 403 3622 589 3462 678 3373 
C 870 3533 1069 3731 1254 3942 
L 1254 3117 
z
M 768 -493 
C 1114 -192 1402 314 1555 794 
L 1114 902 
C 954 442 653 -45 320 -307 
L 768 -493 
z
M 2221 742 
C 2298 358 2349 -134 2355 -429 
L 2810 -365 
C 2803 -77 2733 410 2656 787 
L 2221 742 
z
M 3514 736 
C 3674 358 3840 -134 3904 -435 
L 4365 -339 
C 4301 -38 4128 454 3955 819 
L 3514 736 
z
M 4813 781 
C 5126 384 5491 -160 5645 -499 
L 6118 -326 
C 5946 19 5568 544 5248 928 
L 4813 781 
z
" transform="scale(0.015625)"/>
      <path id="NotoSansCJKjp-Regular-6cd5" d="M 2118 4653 
C 1850 4883 1306 5152 864 5312 
L 608 4960 
C 1050 4787 1587 4486 1850 4262 
L 2118 4653 
z
M 1786 2982 
C 1504 3187 947 3430 518 3571 
L 269 3206 
C 710 3053 1261 2784 1530 2579 
L 1786 2982 
z
M 1638 1952 
C 1293 1222 819 397 493 -102 
L 896 -410 
C 1254 186 1677 973 1997 1645 
L 1638 1952 
z
M 6170 -250 
C 5952 256 5427 1024 4947 1587 
L 4544 1376 
C 4768 1101 4998 781 5203 467 
C 4448 416 3686 371 3027 339 
C 3309 896 3610 1626 3846 2234 
L 6061 2234 
L 6061 2688 
L 4243 2688 
L 4243 3859 
L 5760 3859 
L 5760 4307 
L 4243 4307 
L 4243 5350 
L 3757 5350 
L 3757 4307 
L 2298 4307 
L 2298 3859 
L 3757 3859 
L 3757 2688 
L 1978 2688 
L 1978 2234 
L 3283 2234 
C 3091 1626 2784 851 2515 307 
L 1984 282 
L 2054 -192 
C 2938 -134 4224 -51 5459 45 
C 5574 -154 5664 -339 5728 -499 
L 6170 -250 
z
" transform="scale(0.015625)"/>
      <path id="NotoSansCJKjp-Regular-53d6" d="M 2522 3661 
L 1274 3661 
L 1274 4512 
L 2522 4512 
L 2522 3661 
z
M 1274 1914 
L 2522 1914 
L 2522 1126 
C 2093 1062 1664 998 1274 947 
L 1274 1914 
z
M 2522 2349 
L 1274 2349 
L 1274 3238 
L 2522 3238 
L 2522 2349 
z
M 3430 4512 
L 3430 4954 
L 326 4954 
L 326 4512 
L 826 4512 
L 826 883 
C 595 851 384 826 205 806 
L 288 326 
C 896 429 1715 550 2522 685 
L 2522 -474 
L 2982 -474 
L 2982 4512 
L 3430 4512 
z
M 5645 4499 
L 5555 4480 
L 3270 4480 
L 3270 4013 
L 5427 4013 
C 5280 3072 5005 2272 4634 1619 
C 4269 2298 4013 3104 3846 3987 
L 3392 3904 
C 3603 2854 3904 1926 4346 1171 
C 3962 646 3507 250 3002 -13 
C 3104 -102 3245 -275 3315 -397 
C 3802 -115 4243 262 4621 742 
C 4966 262 5389 -128 5894 -416 
C 5971 -294 6125 -115 6234 -26 
C 5702 243 5267 653 4915 1165 
C 5427 1978 5786 3040 5952 4410 
L 5645 4499 
z
" transform="scale(0.015625)"/>
      <path id="NotoSansCJKjp-Regular-5f97" d="M 5190 4282 
L 3085 4282 
L 3085 4794 
L 5190 4794 
L 5190 4282 
z
M 5190 3418 
L 3085 3418 
L 3085 3936 
L 5190 3936 
L 5190 3418 
z
M 5664 5152 
L 2624 5152 
L 2624 3053 
L 5664 3053 
L 5664 5152 
z
M 1619 5331 
C 1338 4883 768 4352 262 4026 
C 346 3930 461 3750 512 3642 
C 1075 4019 1696 4614 2074 5158 
L 1619 5331 
z
M 1734 3936 
C 1357 3277 736 2630 160 2208 
C 243 2093 371 1850 410 1754 
C 659 1946 915 2182 1158 2445 
L 1158 -486 
L 1626 -486 
L 1626 2982 
C 1818 3238 2003 3507 2150 3770 
L 1734 3936 
z
M 2637 934 
C 2931 653 3270 262 3424 6 
L 3789 262 
C 3622 512 3270 890 2976 1152 
L 2637 934 
z
M 6080 1670 
L 5126 1670 
L 5126 2214 
L 5965 2214 
L 5965 2624 
L 2234 2624 
L 2234 2214 
L 4653 2214 
L 4653 1670 
L 2086 1670 
L 2086 1261 
L 4653 1261 
L 4653 45 
C 4653 -38 4627 -64 4525 -70 
C 4435 -77 4115 -77 3757 -64 
C 3821 -192 3891 -365 3910 -499 
C 4390 -499 4691 -493 4883 -422 
C 5069 -346 5126 -224 5126 32 
L 5126 1261 
L 6080 1261 
L 6080 1670 
z
" transform="scale(0.015625)"/>
      <path id="NotoSansCJKjp-Regular-8cc7" d="M 3789 4531 
C 3635 3949 3251 3629 2208 3443 
C 2285 3360 2394 3206 2432 3104 
C 3341 3283 3814 3584 4064 4058 
C 4301 3597 4768 3187 5856 2995 
C 5901 3110 6010 3290 6099 3379 
C 4787 3571 4429 4038 4288 4531 
L 5312 4531 
C 5197 4346 5056 4166 4922 4038 
L 5299 3904 
C 5530 4128 5766 4486 5946 4813 
L 5626 4909 
L 5549 4890 
L 3360 4890 
C 3443 5024 3514 5152 3578 5286 
L 3149 5357 
C 2982 4973 2662 4544 2182 4211 
C 2298 4166 2451 4064 2541 3974 
C 2765 4147 2950 4333 3110 4531 
L 3789 4531 
z
M 1632 1293 
L 4838 1293 
L 4838 845 
L 1632 845 
L 1632 1293 
z
M 1632 2042 
L 4838 2042 
L 4838 1600 
L 1632 1600 
L 1632 2042 
z
M 1632 2778 
L 4838 2778 
L 4838 2349 
L 1632 2349 
L 1632 2778 
z
M 1171 531 
L 5312 531 
L 5312 3098 
L 1171 3098 
L 1171 531 
z
M 2182 4723 
C 1875 4883 1286 5094 845 5216 
L 634 4890 
C 1088 4749 1677 4525 1971 4352 
L 2182 4723 
z
M 2106 4026 
C 1453 3846 781 3654 320 3546 
L 506 3130 
C 986 3283 1587 3469 2163 3654 
L 2106 4026 
z
M 2240 467 
C 1786 211 1018 -13 365 -147 
C 474 -230 634 -416 717 -506 
C 1350 -333 2150 -38 2669 262 
L 2240 467 
z
M 3731 205 
C 4429 -26 5120 -294 5517 -499 
L 6042 -262 
C 5574 -51 4813 224 4122 448 
L 3731 205 
z
" transform="scale(0.015625)"/>
      <path id="NotoSansCJKjp-Regular-6599" d="M 4550 4122 
C 4346 4358 3904 4685 3546 4902 
L 3302 4582 
C 3667 4346 4102 4000 4307 3757 
L 4550 4122 
z
M 4275 2592 
C 4051 2822 3578 3110 3200 3309 
L 2976 2976 
C 3360 2771 3814 2445 4038 2208 
L 4275 2592 
z
M 2426 4973 
C 2330 4544 2150 3910 2003 3533 
L 2310 3430 
C 2483 3789 2682 4390 2835 4870 
L 2426 4973 
z
M 1094 3546 
C 1050 3930 902 4506 717 4947 
L 371 4864 
C 538 4416 685 3827 717 3443 
L 1094 3546 
z
M 1792 2771 
L 2835 2771 
L 2835 3219 
L 1792 3219 
L 1792 5331 
L 1350 5331 
L 1350 3219 
L 326 3219 
L 326 2771 
L 1222 2771 
C 998 2054 595 1229 224 781 
C 301 666 416 454 467 320 
C 787 749 1114 1459 1350 2144 
L 1350 -486 
L 1792 -486 
L 1792 2138 
C 2022 1779 2323 1286 2438 1050 
L 2752 1421 
C 2611 1638 1971 2483 1792 2682 
L 1792 2771 
z
M 6157 1459 
L 6086 1894 
L 5331 1760 
L 5331 5350 
L 4883 5350 
L 4883 1677 
L 2822 1312 
L 2899 870 
L 4883 1229 
L 4883 -486 
L 5331 -486 
L 5331 1312 
L 6157 1459 
z
" transform="scale(0.015625)"/>
      <path id="NotoSansCJKjp-Regular-ff0c" d="M 1005 -685 
C 1677 -448 2112 77 2112 768 
C 2112 1216 1920 1504 1568 1504 
C 1306 1504 1082 1344 1082 1043 
C 1082 742 1299 589 1562 589 
C 1600 589 1632 589 1670 595 
C 1638 160 1357 -141 864 -346 
L 1005 -685 
z
" transform="scale(0.015625)"/>
      <path id="NotoSansCJKjp-Regular-5df2" d="M 2266 160 
C 1574 160 1434 250 1434 653 
L 1434 2342 
L 4774 2342 
L 4774 2029 
L 5261 2029 
L 5261 4954 
L 614 4954 
L 614 4486 
L 4774 4486 
L 4774 2810 
L 1434 2810 
L 1434 3859 
L 954 3859 
L 954 659 
C 954 -128 1274 -307 2298 -307 
L 4691 -307 
C 5734 -307 5946 38 6067 1210 
C 5926 1235 5715 1312 5587 1402 
C 5498 371 5395 160 4698 160 
L 2266 160 
z
" transform="scale(0.015625)"/>
      <path id="NotoSansCJKjp-Regular-4fdd" d="M 1779 5338 
C 1414 4371 800 3424 166 2816 
C 250 2707 384 2458 435 2355 
C 666 2592 902 2867 1120 3174 
L 1120 -474 
L 1574 -474 
L 1574 3872 
C 1824 4288 2042 4742 2227 5203 
L 1779 5338 
z
M 2886 4627 
L 5261 4627 
L 5261 3456 
L 2886 3456 
L 2886 4627 
z
M 6086 1805 
L 6086 2240 
L 4294 2240 
L 4294 3034 
L 5734 3034 
L 5734 5056 
L 2438 5056 
L 2438 3034 
L 3821 3034 
L 3821 2240 
L 1965 2240 
L 1965 1805 
L 3546 1805 
C 3117 1126 2438 493 1779 166 
C 1888 77 2029 -96 2112 -211 
C 2733 147 3373 787 3821 1491 
L 3821 -493 
L 4294 -493 
L 4294 1510 
C 4730 813 5344 147 5914 -224 
C 5997 -102 6150 70 6253 154 
C 5638 486 4992 1133 4570 1805 
L 6086 1805 
z
" transform="scale(0.015625)"/>
      <path id="NotoSansCJKjp-Regular-7559" d="M 3155 2925 
C 3014 3290 2643 3802 2278 4173 
L 1901 3974 
C 2061 3802 2227 3603 2368 3392 
C 2003 3302 1645 3213 1312 3130 
L 1254 4486 
C 1850 4608 2502 4787 2982 4986 
L 2656 5331 
C 2304 5158 1722 4979 1190 4845 
L 781 4960 
L 845 3021 
C 640 2970 448 2925 282 2886 
L 410 2432 
C 1011 2592 1818 2810 2592 3021 
C 2656 2906 2707 2803 2739 2707 
L 3155 2925 
z
M 2963 1786 
L 2963 1158 
L 1574 1158 
L 1574 1786 
L 2963 1786 
z
M 4858 1158 
L 3411 1158 
L 3411 1786 
L 4858 1786 
L 4858 1158 
z
M 3411 141 
L 3411 794 
L 4858 794 
L 4858 141 
L 3411 141 
z
M 1574 141 
L 1574 794 
L 2963 794 
L 2963 141 
L 1574 141 
z
M 1126 -486 
L 1574 -486 
L 1574 -256 
L 4858 -256 
L 4858 -461 
L 5325 -461 
L 5325 2176 
L 1126 2176 
L 1126 -486 
z
M 3206 4998 
L 3206 4595 
L 3955 4595 
C 3866 3738 3629 3066 2790 2701 
C 2893 2624 3021 2464 3066 2362 
C 4013 2797 4294 3578 4403 4595 
L 5376 4595 
C 5325 3526 5267 3117 5178 3014 
C 5126 2950 5069 2944 4973 2950 
C 4877 2950 4614 2950 4339 2976 
C 4410 2854 4454 2688 4467 2554 
C 4749 2541 5030 2534 5184 2547 
C 5350 2566 5466 2611 5562 2726 
C 5722 2906 5779 3411 5843 4800 
C 5850 4870 5850 4998 5850 4998 
L 3206 4998 
z
" transform="scale(0.015625)"/>
      <path id="NotoSansCJKjp-Regular-4e0a" d="M 3238 288 
L 3238 2822 
L 5619 2822 
L 5619 3296 
L 3238 3296 
L 3238 5254 
L 2739 5254 
L 2739 288 
L 352 288 
L 352 -186 
L 6054 -186 
L 6054 288 
L 3238 288 
z
" transform="scale(0.015625)"/>
      <path id="NotoSansCJKjp-Regular-6b21" d="M 1978 3987 
C 1728 4269 1210 4659 806 4928 
L 467 4589 
C 877 4301 1382 3885 1619 3610 
L 1978 3987 
z
M 1754 2317 
C 1210 1754 634 1165 262 819 
L 570 429 
C 1005 838 1536 1395 2010 1907 
L 1754 2317 
z
M 4147 3738 
L 5466 3738 
C 5338 3315 5133 2842 4973 2547 
C 5088 2502 5267 2400 5370 2355 
C 5606 2778 5901 3430 6074 4045 
L 5728 4237 
L 5632 4211 
L 3053 4211 
C 3168 4544 3264 4890 3354 5248 
L 2854 5338 
C 2637 4320 2246 3334 1709 2707 
C 1837 2650 2067 2515 2163 2438 
C 2426 2790 2669 3238 2874 3738 
L 3654 3738 
L 3654 2931 
C 3654 2336 3322 666 1382 -102 
C 1472 -186 1619 -384 1677 -486 
C 3206 160 3789 1440 3898 2042 
C 3987 1446 4538 128 5869 -486 
C 5946 -371 6093 -173 6176 -64 
C 4448 685 4141 2374 4147 2931 
L 4147 3738 
z
" transform="scale(0.015625)"/>
      <path id="NotoSansCJKjp-Regular-53ef" d="M 3162 3034 
L 3162 1574 
L 1491 1574 
L 1491 3034 
L 3162 3034 
z
M 3629 1120 
L 3629 3494 
L 1030 3494 
L 1030 608 
L 1491 608 
L 1491 1120 
L 3629 1120 
z
M 6042 4902 
L 378 4902 
L 378 4429 
L 4768 4429 
L 4768 198 
C 4768 64 4723 19 4582 13 
C 4435 6 3910 0 3398 26 
C 3475 -109 3571 -346 3603 -480 
C 4230 -480 4672 -480 4928 -390 
C 5171 -320 5254 -147 5254 192 
L 5254 4429 
L 6042 4429 
L 6042 4902 
z
" transform="scale(0.015625)"/>
      <path id="NotoSansCJKjp-Regular-7528" d="M 3469 1914 
L 3469 2976 
L 5190 2976 
L 5190 1914 
L 3469 1914 
z
M 1440 1914 
C 1459 2150 1466 2387 1466 2598 
L 1466 2976 
L 2995 2976 
L 2995 1914 
L 1440 1914 
z
M 2995 4448 
L 2995 3424 
L 1466 3424 
L 1466 4448 
L 2995 4448 
z
M 5190 3424 
L 3469 3424 
L 3469 4448 
L 5190 4448 
L 5190 3424 
z
M 5658 4902 
L 998 4902 
L 998 2598 
C 998 1709 934 582 230 -211 
C 333 -269 525 -429 595 -525 
C 1082 19 1299 749 1395 1459 
L 2995 1459 
L 2995 -429 
L 3469 -429 
L 3469 1459 
L 5190 1459 
L 5190 160 
C 5190 38 5146 0 5018 -6 
C 4902 -6 4467 -13 4019 6 
C 4083 -122 4160 -326 4179 -454 
C 4781 -461 5152 -454 5370 -378 
C 5574 -294 5658 -154 5658 154 
L 5658 4902 
z
" transform="scale(0.015625)"/>
      <path id="NotoSansCJKjp-Regular-8f38" d="M 806 2496 
L 1376 2496 
L 1376 1914 
L 806 1914 
L 806 2496 
z
M 806 3411 
L 1376 3411 
L 1376 2835 
L 806 2835 
L 806 3411 
z
M 2272 2835 
L 1696 2835 
L 1696 3411 
L 2272 3411 
L 2272 2835 
z
M 2272 1914 
L 1696 1914 
L 1696 2496 
L 2272 2496 
L 2272 1914 
z
M 1747 1555 
L 2637 1555 
L 2637 3770 
L 1747 3770 
L 1747 4256 
L 2771 4256 
L 2771 4666 
L 1747 4666 
L 1747 5357 
L 1325 5357 
L 1325 4666 
L 352 4666 
L 352 4256 
L 1325 4256 
L 1325 3770 
L 448 3770 
L 448 1555 
L 1325 1555 
L 1325 1043 
L 275 1043 
L 275 621 
L 1325 621 
L 1325 -493 
L 1747 -493 
L 1747 621 
L 2752 621 
L 2752 1043 
L 1747 1043 
L 1747 1555 
z
M 3283 1126 
L 3283 1658 
L 4006 1658 
L 4006 1126 
L 3283 1126 
z
M 4006 2490 
L 4006 1997 
L 3283 1997 
L 3283 2490 
L 4006 2490 
z
M 4358 2848 
L 2931 2848 
L 2931 -467 
L 3283 -467 
L 3283 768 
L 4006 768 
L 4006 -77 
C 4006 -122 3994 -141 3949 -141 
L 3629 -141 
C 3667 -237 3718 -390 3725 -480 
C 3962 -480 4115 -480 4224 -416 
C 4326 -352 4358 -250 4358 -77 
L 4358 2848 
z
M 5312 3725 
L 3552 3725 
L 3552 3341 
L 5312 3341 
L 5312 3725 
z
M 5069 2714 
L 4717 2714 
L 4717 474 
L 5069 474 
L 5069 2714 
z
M 5574 -19 
C 5574 -90 5549 -102 5478 -109 
C 5408 -115 5171 -115 4909 -109 
C 4960 -211 5011 -371 5030 -467 
C 5402 -467 5626 -461 5779 -410 
C 5920 -339 5965 -230 5965 -26 
L 5965 2950 
L 5574 2950 
L 5574 -19 
z
M 4205 5331 
C 3904 4730 3296 4032 2650 3654 
C 2726 3546 2835 3379 2886 3264 
C 3533 3674 4115 4326 4435 4890 
C 4794 4320 5414 3686 6003 3315 
C 6074 3443 6176 3622 6259 3725 
C 5664 4051 5024 4685 4627 5331 
L 4205 5331 
z
" transform="scale(0.015625)"/>
      <path id="NotoSansCJKjp-Regular-51fa" d="M 5210 2150 
L 5210 378 
L 3411 378 
L 3411 2560 
L 5440 2560 
L 5440 4749 
L 4947 4749 
L 4947 3021 
L 3411 3021 
L 3411 5318 
L 2925 5318 
L 2925 3021 
L 1459 3021 
L 1459 4749 
L 986 4749 
L 986 2560 
L 2925 2560 
L 2925 378 
L 1216 378 
L 1216 2150 
L 742 2150 
L 742 -486 
L 1216 -486 
L 1216 -90 
L 5210 -90 
L 5210 -474 
L 5696 -474 
L 5696 2150 
L 5210 2150 
z
" transform="scale(0.015625)"/>
      <path id="NotoSansCJKjp-Regular-6216" d="M 5792 4672 
C 5555 4883 5082 5158 4691 5331 
L 4416 5037 
C 4806 4851 5274 4557 5498 4339 
L 5792 4672 
z
M 3232 998 
C 2195 781 1107 563 416 429 
L 506 -51 
C 1248 115 2291 339 3270 550 
L 3232 998 
z
M 2560 1779 
L 1261 1779 
L 1261 2886 
L 2560 2886 
L 2560 1779 
z
M 819 3302 
L 819 1370 
L 3027 1370 
L 3027 3302 
L 819 3302 
z
M 5242 3411 
C 5037 2746 4762 2157 4416 1632 
C 4256 2253 4147 3021 4083 3866 
L 5971 3866 
L 5971 4333 
L 4051 4333 
C 4038 4659 4032 4992 4032 5338 
L 3533 5338 
C 3539 4998 3546 4666 3565 4333 
L 448 4333 
L 448 3866 
L 3590 3866 
C 3674 2829 3814 1882 4038 1133 
C 3616 621 3104 198 2502 -122 
C 2611 -205 2797 -390 2874 -486 
C 3379 -186 3827 179 4224 614 
C 4512 -77 4896 -493 5376 -493 
C 5869 -493 6048 -179 6131 915 
C 5997 960 5824 1069 5715 1184 
C 5677 333 5600 0 5421 0 
C 5107 0 4819 397 4582 1056 
C 5062 1690 5440 2438 5722 3296 
L 5242 3411 
z
" transform="scale(0.015625)"/>
      <path id="NotoSansCJKjp-Regular-7b49" d="M 1498 4416 
C 1613 4173 1728 3885 1773 3693 
L 2189 3846 
C 2157 3994 2067 4218 1965 4416 
L 3123 4416 
L 3123 4819 
L 1459 4819 
C 1536 4966 1600 5114 1658 5267 
L 1210 5382 
C 992 4826 634 4262 237 3898 
C 346 3834 544 3699 627 3622 
C 845 3840 1050 4115 1229 4416 
L 1498 4416 
z
M 1446 819 
C 1856 544 2317 134 2522 -160 
L 2886 141 
C 2675 435 2195 832 1792 1088 
L 1446 819 
z
M 6093 2074 
L 6093 2490 
L 3430 2490 
L 3430 3059 
L 5491 3059 
L 5491 3462 
L 3430 3462 
L 3430 3904 
L 3328 3904 
C 3469 4051 3603 4230 3725 4416 
L 4160 4416 
C 4352 4173 4538 3866 4608 3654 
L 5018 3834 
C 4947 3994 4813 4218 4666 4416 
L 6029 4416 
L 6029 4819 
L 3955 4819 
C 4032 4973 4090 5120 4147 5280 
L 3693 5382 
C 3514 4851 3168 4333 2778 4000 
C 2816 3974 2886 3936 2950 3891 
L 2950 3462 
L 954 3462 
L 954 3059 
L 2950 3059 
L 2950 2490 
L 326 2490 
L 326 2074 
L 4250 2074 
L 4250 1510 
L 531 1510 
L 531 1094 
L 4250 1094 
L 4250 77 
C 4250 -13 4224 -38 4109 -38 
C 3994 -51 3616 -51 3181 -38 
C 3251 -166 3328 -346 3354 -486 
C 3885 -486 4237 -480 4448 -410 
C 4666 -333 4730 -211 4730 70 
L 4730 1094 
L 5926 1094 
L 5926 1510 
L 4730 1510 
L 4730 2074 
L 6093 2074 
z
" transform="scale(0.015625)"/>
      <path id="NotoSansCJKjp-Regular-5f85" d="M 1645 5338 
C 1370 4890 800 4352 301 4026 
C 378 3930 493 3750 544 3642 
C 1107 4019 1722 4621 2093 5165 
L 1645 5338 
z
M 1754 3936 
C 1389 3277 774 2624 205 2208 
C 288 2093 416 1850 461 1741 
C 710 1939 960 2182 1197 2445 
L 1197 -486 
L 1658 -486 
L 1658 2989 
C 1850 3238 2029 3501 2170 3770 
L 1754 3936 
z
M 2669 1306 
C 2963 973 3283 493 3418 186 
L 3821 422 
C 3680 730 3347 1190 3053 1523 
L 2669 1306 
z
M 6131 2842 
L 6131 3283 
L 4346 3283 
L 4346 4096 
L 5798 4096 
L 5798 4531 
L 4346 4531 
L 4346 5325 
L 3878 5325 
L 3878 4531 
L 2477 4531 
L 2477 4096 
L 3878 4096 
L 3878 3283 
L 2106 3283 
L 2106 2842 
L 4768 2842 
L 4768 2138 
L 2176 2138 
L 2176 1702 
L 4768 1702 
L 4768 90 
C 4768 0 4736 -26 4634 -32 
C 4538 -38 4186 -38 3802 -26 
C 3866 -160 3936 -346 3955 -480 
C 4454 -480 4774 -480 4973 -403 
C 5171 -326 5235 -198 5235 90 
L 5235 1702 
L 6086 1702 
L 6086 2138 
L 5235 2138 
L 5235 2842 
L 6131 2842 
z
" transform="scale(0.015625)"/>
      <path id="NotoSansCJKjp-Regular-4e0b" d="M 6029 4410 
L 6029 4883 
L 378 4883 
L 378 4410 
L 2822 4410 
L 2822 -480 
L 3328 -480 
L 3328 2886 
C 4058 2496 4915 1971 5350 1613 
L 5683 2042 
C 5178 2426 4173 3002 3411 3366 
L 3328 3270 
L 3328 4410 
L 6029 4410 
z
" transform="scale(0.015625)"/>
      <path id="NotoSansCJKjp-Regular-66f4" d="M 1472 1984 
L 1472 2630 
L 2995 2630 
L 2995 2374 
C 2995 2246 2995 2112 2982 1984 
L 1472 1984 
z
M 1472 3648 
L 2995 3648 
L 2995 3008 
L 1472 3008 
L 1472 3648 
z
M 5094 3648 
L 5094 3008 
L 3482 3008 
L 3482 3648 
L 5094 3648 
z
M 5094 1984 
L 3469 1984 
C 3475 2106 3482 2240 3482 2368 
L 3482 2630 
L 5094 2630 
L 5094 1984 
z
M 5562 1587 
L 5562 4045 
L 3482 4045 
L 3482 4582 
L 5965 4582 
L 5965 5011 
L 435 5011 
L 435 4582 
L 2995 4582 
L 2995 4045 
L 1018 4045 
L 1018 1587 
L 2918 1587 
C 2842 1280 2694 992 2400 742 
C 2099 941 1843 1203 1626 1536 
L 1229 1376 
C 1446 1005 1709 710 2016 474 
C 1626 250 1082 70 320 -77 
C 422 -186 550 -384 602 -493 
C 1434 -320 2029 -83 2458 198 
C 3328 -262 4493 -403 5971 -467 
C 5997 -314 6086 -115 6170 0 
C 4749 38 3648 134 2842 499 
C 3162 826 3334 1190 3411 1587 
L 5562 1587 
z
" transform="scale(0.015625)"/>
      <path id="NotoSansCJKjp-Regular-65b0" d="M 3219 4685 
L 2054 4685 
L 2054 5331 
L 1594 5331 
L 1594 4685 
L 416 4685 
L 416 4288 
L 3219 4288 
L 3219 4685 
z
M 2483 3264 
C 2605 3494 2733 3853 2854 4173 
L 2419 4275 
C 2362 4000 2214 3603 2099 3347 
L 2483 3264 
z
M 1446 3354 
C 1414 3597 1306 3974 1171 4262 
L 800 4166 
C 922 3878 1024 3494 1050 3245 
L 1446 3354 
z
M 3066 787 
C 2918 922 2298 1427 2054 1606 
L 2054 1760 
L 3245 1760 
L 3245 2163 
L 2054 2163 
L 2054 2835 
L 3296 2835 
L 3296 3238 
L 326 3238 
L 326 2835 
L 1594 2835 
L 1594 2163 
L 346 2163 
L 346 1760 
L 1491 1760 
C 1171 1197 666 621 205 320 
C 307 237 448 83 525 -26 
C 883 256 1280 710 1594 1203 
L 1594 -474 
L 2054 -474 
L 2054 1152 
C 2323 909 2650 595 2784 435 
L 3066 787 
z
M 6118 3213 
L 3981 3213 
L 3981 4352 
C 4691 4493 5491 4685 6035 4928 
L 5651 5280 
C 5242 5075 4525 4870 3872 4730 
L 3526 4838 
L 3526 2611 
C 3526 1715 3437 608 2624 -186 
C 2733 -250 2906 -416 2963 -518 
C 3859 371 3981 1651 3981 2605 
L 3981 2765 
L 4934 2765 
L 4934 -448 
L 5402 -448 
L 5402 2765 
L 6118 2765 
L 6118 3213 
z
" transform="scale(0.015625)"/>
      <path id="NotoSansCJKjp-Regular-3002" d="M 1242 1562 
C 710 1562 269 1126 269 589 
C 269 45 710 -390 1242 -390 
C 1786 -390 2221 45 2221 589 
C 2221 1126 1786 1562 1242 1562 
z
M 1242 -64 
C 890 -64 595 224 595 589 
C 595 941 890 1235 1242 1235 
C 1606 1235 1894 941 1894 589 
C 1894 224 1606 -64 1242 -64 
z
" transform="scale(0.015625)"/>
     </defs>
     <use xlink:href="#NotoSansCJKjp-Regular-76ee"/>
     <use xlink:href="#NotoSansCJKjp-Regular-524d" transform="translate(99.999985 0)"/>
     <use xlink:href="#NotoSansCJKjp-Regular-7121" transform="translate(199.999969 0)"/>
     <use xlink:href="#NotoSansCJKjp-Regular-6cd5" transform="translate(299.999954 0)"/>
     <use xlink:href="#NotoSansCJKjp-Regular-53d6" transform="translate(399.999939 0)"/>
     <use xlink:href="#NotoSansCJKjp-Regular-5f97" transform="translate(499.999924 0)"/>
     <use xlink:href="#NotoSansCJKjp-Regular-8cc7" transform="translate(599.999908 0)"/>
     <use xlink:href="#NotoSansCJKjp-Regular-6599" transform="translate(699.999893 0)"/>
     <use xlink:href="#NotoSansCJKjp-Regular-ff0c" transform="translate(799.999878 0)"/>
     <use xlink:href="#NotoSansCJKjp-Regular-5df2" transform="translate(899.999863 0)"/>
     <use xlink:href="#NotoSansCJKjp-Regular-4fdd" transform="translate(999.999847 0)"/>
     <use xlink:href="#NotoSansCJKjp-Regular-7559" transform="translate(1099.999832 0)"/>
     <use xlink:href="#NotoSansCJKjp-Regular-4e0a" transform="translate(1199.999817 0)"/>
     <use xlink:href="#NotoSansCJKjp-Regular-6b21" transform="translate(1299.999802 0)"/>
     <use xlink:href="#NotoSansCJKjp-Regular-53ef" transform="translate(1399.999786 0)"/>
     <use xlink:href="#NotoSansCJKjp-Regular-7528" transform="translate(1499.999771 0)"/>
     <use xlink:href="#NotoSansCJKjp-Regular-8f38" transform="translate(1599.999756 0)"/>
     <use xlink:href="#NotoSansCJKjp-Regular-51fa" transform="translate(1699.999741 0)"/>
     <use xlink:href="#NotoSansCJKjp-Regular-6216" transform="translate(1799.999725 0)"/>
     <use xlink:href="#NotoSansCJKjp-Regular-7b49" transform="translate(1899.99971 0)"/>
     <use xlink:href="#NotoSansCJKjp-Regular-5f85" transform="translate(1999.999695 0)"/>
     <use xlink:href="#NotoSansCJKjp-Regular-4e0b" transform="translate(2099.99968 0)"/>
     <use xlink:href="#NotoSansCJKjp-Regular-6b21" transform="translate(2199.999664 0)"/>
     <use xlink:href="#NotoSansCJKjp-Regular-66f4" transform="translate(2299.999649 0)"/>
     <use xlink:href="#NotoSansCJKjp-Regular-65b0" transform="translate(2399.999634 0)"/>
     <use xlink:href="#NotoSansCJKjp-Regular-3002" transform="translate(2499.999619 0)"/>
    </g>
   </g>
   <g id="text_3">
    <!-- 錯誤訊息: Message: session not created: Chrome instance exited. Examine ChromeDriver verbose log to determine the cause.; For documentation on this error, please -->
    <g style="fill: #666666" transform="translate(10.121641 278.319484) scale(0.11 -0.11)">
     <defs>
      <path id="NotoSansCJKjp-Regular-932f" d="M 1805 410 
L 1805 2285 
L 2733 2285 
L 2733 2701 
L 1805 2701 
L 1805 3373 
L 2534 3373 
L 2534 3782 
L 858 3782 
C 1197 4166 1453 4563 1638 4909 
C 2003 4570 2400 4090 2605 3782 
L 2925 4141 
C 2688 4486 2189 4992 1779 5350 
L 1350 5350 
C 1146 4845 749 4198 186 3712 
C 275 3654 422 3501 486 3405 
C 557 3469 627 3533 691 3603 
L 691 3373 
L 1389 3373 
L 1389 2701 
L 365 2701 
L 365 2285 
L 1389 2285 
L 1389 333 
C 973 250 595 186 301 134 
L 410 -294 
C 1075 -166 1997 19 2854 205 
L 2829 608 
L 1805 410 
z
M 506 1837 
C 634 1459 742 973 762 646 
L 1114 749 
C 1082 1062 973 1549 838 1920 
L 506 1837 
z
M 2323 710 
C 2432 1011 2573 1485 2694 1882 
L 2317 1997 
C 2253 1645 2118 1133 2016 813 
L 2323 710 
z
M 5293 1837 
L 5293 1216 
L 3648 1216 
L 3648 1837 
L 5293 1837 
z
M 3648 205 
L 3648 845 
L 5293 845 
L 5293 205 
L 3648 205 
z
M 3206 -486 
L 3648 -486 
L 3648 -198 
L 5293 -198 
L 5293 -474 
L 5754 -474 
L 5754 2234 
L 3206 2234 
L 3206 -486 
z
M 3994 4154 
L 4851 4154 
L 4851 3206 
L 3994 3206 
L 3994 4154 
z
M 5286 3206 
L 5286 4154 
L 5984 4154 
L 5984 4563 
L 5286 4563 
L 5286 5357 
L 4851 5357 
L 4851 4563 
L 3994 4563 
L 3994 5357 
L 3565 5357 
L 3565 4563 
L 2957 4563 
L 2957 4154 
L 3565 4154 
L 3565 3206 
L 2714 3206 
L 2714 2784 
L 6131 2784 
L 6131 3206 
L 5286 3206 
z
" transform="scale(0.015625)"/>
      <path id="NotoSansCJKjp-Regular-8aa4" d="M 5370 3693 
L 4134 3693 
L 4134 4768 
L 5370 4768 
L 5370 3693 
z
M 5811 5171 
L 3712 5171 
L 3712 3290 
L 5811 3290 
L 5811 5171 
z
M 6144 1581 
L 5613 1581 
L 5613 2790 
L 3219 2790 
L 3219 4666 
L 2784 4666 
L 2784 2054 
L 3219 2054 
L 3219 2374 
L 5152 2374 
L 5152 1581 
L 2502 1581 
L 2502 1146 
L 6144 1146 
L 6144 1581 
z
M 2234 5133 
L 576 5133 
L 576 4749 
L 2234 4749 
L 2234 5133 
z
M 2438 4294 
L 269 4294 
L 269 3904 
L 2438 3904 
L 2438 4294 
z
M 1856 1338 
L 1856 269 
L 934 269 
L 934 1338 
L 1856 1338 
z
M 2259 1728 
L 531 1728 
L 531 -416 
L 934 -416 
L 934 -115 
L 2259 -115 
L 2259 1728 
z
M 538 2202 
L 2259 2202 
L 2259 2586 
L 538 2586 
L 538 2202 
z
M 538 3053 
L 2259 3053 
L 2259 3430 
L 538 3430 
L 538 3053 
z
M 3546 1030 
C 3296 627 2797 115 2342 -179 
C 2445 -262 2605 -403 2688 -493 
C 3149 -173 3667 346 3981 806 
L 3546 1030 
z
M 4672 794 
C 5082 403 5549 -141 5754 -493 
L 6170 -250 
C 5946 109 5466 634 5062 1005 
L 4672 794 
z
" transform="scale(0.015625)"/>
      <path id="NotoSansCJKjp-Regular-8a0a" d="M 2406 5133 
L 589 5133 
L 589 4749 
L 2406 4749 
L 2406 5133 
z
M 2637 4294 
L 269 4294 
L 269 3904 
L 2637 3904 
L 2637 4294 
z
M 2419 3430 
L 563 3430 
L 563 3053 
L 2419 3053 
L 2419 3430 
z
M 563 2202 
L 2419 2202 
L 2419 2586 
L 563 2586 
L 563 2202 
z
M 2016 1338 
L 2016 262 
L 973 262 
L 973 1338 
L 2016 1338 
z
M 2426 -122 
L 2426 1728 
L 557 1728 
L 557 -416 
L 973 -416 
L 973 -122 
L 2426 -122 
z
M 2720 5030 
L 2720 4582 
L 3520 4582 
L 3520 3245 
C 3520 3117 3520 2989 3514 2861 
L 2650 2861 
L 2650 2413 
L 3494 2413 
C 3418 1517 3174 589 2413 -173 
C 2515 -243 2682 -410 2752 -499 
C 3622 352 3878 1402 3949 2413 
L 4781 2413 
L 4781 2861 
L 3968 2861 
C 3974 2989 3974 3117 3974 3238 
L 3974 4582 
L 4992 4582 
C 4992 1856 4973 -237 5690 -454 
C 6010 -582 6221 -365 6298 691 
C 6214 749 6086 915 5997 1030 
C 5978 493 5926 19 5875 32 
C 5434 134 5453 2323 5478 5030 
L 2720 5030 
z
" transform="scale(0.015625)"/>
      <path id="NotoSansCJKjp-Regular-606f" d="M 4723 3936 
L 1754 3936 
L 1754 4454 
L 4723 4454 
L 4723 3936 
z
M 4723 3040 
L 1754 3040 
L 1754 3571 
L 4723 3571 
L 4723 3040 
z
M 4723 2150 
L 1754 2150 
L 1754 2682 
L 4723 2682 
L 4723 2150 
z
M 5203 4832 
L 3270 4832 
C 3354 4979 3443 5152 3533 5325 
L 2982 5421 
C 2938 5261 2848 5024 2771 4832 
L 1293 4832 
L 1293 1773 
L 5203 1773 
L 5203 4832 
z
M 2579 1453 
C 2950 1190 3360 806 3546 518 
L 3910 794 
C 3718 1082 3302 1446 2931 1690 
L 2579 1453 
z
M 646 -275 
C 1069 70 1318 621 1472 1120 
L 1062 1274 
C 922 813 653 294 262 -6 
L 646 -275 
z
M 2790 -26 
C 2445 -26 2394 6 2394 173 
L 2394 1222 
L 1926 1222 
L 1926 173 
C 1926 -320 2099 -448 2758 -448 
L 4000 -448 
C 4531 -448 4672 -282 4736 422 
C 4608 454 4410 518 4301 589 
C 4282 51 4237 -26 3968 -26 
L 2790 -26 
z
M 4634 1101 
C 5094 698 5574 122 5773 -275 
L 6176 -13 
C 5971 397 5472 947 5005 1338 
L 4634 1101 
z
" transform="scale(0.015625)"/>
      <path id="NotoSansCJKjp-Regular-3a" d="M 890 2496 
C 1120 2496 1312 2682 1312 2938 
C 1312 3206 1120 3392 890 3392 
C 659 3392 467 3206 467 2938 
C 467 2682 659 2496 890 2496 
z
M 890 -83 
C 1120 -83 1312 96 1312 358 
C 1312 627 1120 813 890 813 
C 659 813 467 627 467 358 
C 467 96 659 -83 890 -83 
z
" transform="scale(0.015625)"/>
      <path id="NotoSansCJKjp-Regular-20" transform="scale(0.015625)"/>
      <path id="NotoSansCJKjp-Regular-4d" d="M 640 0 
L 1178 0 
L 1178 2598 
C 1178 3002 1133 3571 1107 3981 
L 1133 3981 
L 1504 2912 
L 2394 474 
L 2790 474 
L 3680 2912 
L 4051 3981 
L 4077 3981 
C 4045 3571 4000 3002 4000 2598 
L 4000 0 
L 4557 0 
L 4557 4698 
L 3840 4698 
L 2944 2182 
C 2835 1856 2733 1530 2624 1203 
L 2592 1203 
C 2477 1530 2368 1856 2259 2182 
L 1357 4698 
L 640 4698 
L 640 0 
z
" transform="scale(0.015625)"/>
      <path id="NotoSansCJKjp-Regular-65" d="M 1990 -83 
C 2464 -83 2835 77 3142 275 
L 2931 659 
C 2675 486 2400 384 2061 384 
C 1402 384 947 858 909 1600 
L 3251 1600 
C 3264 1683 3277 1805 3277 1933 
C 3277 2925 2778 3565 1894 3565 
C 1088 3565 326 2861 326 1734 
C 326 589 1069 -83 1990 -83 
z
M 902 2022 
C 973 2701 1408 3098 1901 3098 
C 2445 3098 2765 2720 2765 2022 
L 902 2022 
z
" transform="scale(0.015625)"/>
      <path id="NotoSansCJKjp-Regular-73" d="M 1498 -83 
C 2317 -83 2765 384 2765 947 
C 2765 1606 2208 1811 1702 2003 
C 1312 2150 954 2272 954 2605 
C 954 2874 1158 3104 1600 3104 
C 1907 3104 2150 2976 2387 2797 
L 2669 3174 
C 2400 3386 2022 3565 1594 3565 
C 838 3565 390 3130 390 2579 
C 390 1990 922 1754 1408 1574 
C 1792 1427 2202 1274 2202 915 
C 2202 614 1978 371 1517 371 
C 1101 371 787 538 486 781 
L 198 397 
C 531 122 1005 -83 1498 -83 
z
" transform="scale(0.015625)"/>
      <path id="NotoSansCJKjp-Regular-61" d="M 1389 -83 
C 1818 -83 2208 141 2541 416 
L 2560 416 
L 2611 0 
L 3091 0 
L 3091 2138 
C 3091 2995 2733 3565 1888 3565 
C 1331 3565 838 3315 518 3110 
L 749 2707 
C 1024 2893 1389 3078 1792 3078 
C 2362 3078 2509 2650 2509 2202 
C 1030 2035 371 1658 371 902 
C 371 275 806 -83 1389 -83 
z
M 1555 384 
C 1210 384 941 544 941 941 
C 941 1389 1338 1677 2509 1818 
L 2509 845 
C 2170 544 1894 384 1555 384 
z
" transform="scale(0.015625)"/>
      <path id="NotoSansCJKjp-Regular-67" d="M 1760 -1600 
C 2835 -1600 3520 -1043 3520 -397 
C 3520 173 3110 429 2304 429 
L 1626 429 
C 1158 429 1018 582 1018 806 
C 1018 998 1114 1114 1242 1222 
C 1395 1146 1587 1101 1760 1101 
C 2464 1101 3027 1568 3027 2310 
C 3027 2611 2912 2867 2746 3027 
L 3456 3027 
L 3456 3475 
L 2246 3475 
C 2125 3520 1952 3565 1760 3565 
C 1056 3565 454 3085 454 2323 
C 454 1907 678 1574 909 1389 
L 909 1363 
C 730 1235 518 1005 518 717 
C 518 442 653 256 838 147 
L 838 122 
C 512 -90 326 -371 326 -666 
C 326 -1267 909 -1600 1760 -1600 
z
M 1760 1498 
C 1357 1498 1018 1818 1018 2323 
C 1018 2835 1350 3136 1760 3136 
C 2170 3136 2502 2829 2502 2323 
C 2502 1818 2157 1498 1760 1498 
z
M 1843 -1203 
C 1216 -1203 838 -960 838 -589 
C 838 -384 941 -179 1190 0 
C 1344 -38 1510 -58 1638 -58 
L 2240 -58 
C 2701 -58 2950 -166 2950 -486 
C 2950 -851 2509 -1203 1843 -1203 
z
" transform="scale(0.015625)"/>
      <path id="NotoSansCJKjp-Regular-69" d="M 589 0 
L 1171 0 
L 1171 3475 
L 589 3475 
L 589 0 
z
M 883 4192 
C 1114 4192 1274 4346 1274 4582 
C 1274 4806 1114 4960 883 4960 
C 653 4960 493 4806 493 4582 
C 493 4346 653 4192 883 4192 
z
" transform="scale(0.015625)"/>
      <path id="NotoSansCJKjp-Regular-6f" d="M 1939 -83 
C 2790 -83 3552 582 3552 1734 
C 3552 2893 2790 3565 1939 3565 
C 1088 3565 326 2893 326 1734 
C 326 582 1088 -83 1939 -83 
z
M 1939 403 
C 1338 403 934 934 934 1734 
C 934 2534 1338 3078 1939 3078 
C 2541 3078 2950 2534 2950 1734 
C 2950 934 2541 403 1939 403 
z
" transform="scale(0.015625)"/>
      <path id="NotoSansCJKjp-Regular-6e" d="M 589 0 
L 1171 0 
L 1171 2522 
C 1523 2874 1766 3053 2125 3053 
C 2586 3053 2784 2778 2784 2125 
L 2784 0 
L 3366 0 
L 3366 2202 
C 3366 3091 3034 3565 2304 3565 
C 1830 3565 1472 3302 1139 2976 
L 1120 2976 
L 1069 3475 
L 589 3475 
L 589 0 
z
" transform="scale(0.015625)"/>
      <path id="NotoSansCJKjp-Regular-74" d="M 1683 -83 
C 1894 -83 2125 -19 2323 45 
L 2208 480 
C 2093 435 1933 390 1811 390 
C 1408 390 1274 634 1274 1062 
L 1274 3002 
L 2214 3002 
L 2214 3475 
L 1274 3475 
L 1274 4454 
L 787 4454 
L 717 3475 
L 173 3443 
L 173 3002 
L 691 3002 
L 691 1075 
C 691 384 941 -83 1683 -83 
z
" transform="scale(0.015625)"/>
      <path id="NotoSansCJKjp-Regular-63" d="M 1958 -83 
C 2374 -83 2771 77 3085 358 
L 2829 749 
C 2611 550 2330 403 2010 403 
C 1370 403 934 934 934 1734 
C 934 2534 1395 3078 2029 3078 
C 2304 3078 2515 2950 2720 2771 
L 3021 3155 
C 2771 3373 2458 3565 2003 3565 
C 1114 3565 326 2893 326 1734 
C 326 582 1037 -83 1958 -83 
z
" transform="scale(0.015625)"/>
      <path id="NotoSansCJKjp-Regular-72" d="M 589 0 
L 1171 0 
L 1171 2234 
C 1402 2829 1760 3034 2048 3034 
C 2189 3034 2272 3021 2387 2976 
L 2496 3488 
C 2387 3546 2278 3565 2125 3565 
C 1734 3565 1382 3283 1139 2842 
L 1120 2842 
L 1069 3475 
L 589 3475 
L 589 0 
z
" transform="scale(0.015625)"/>
      <path id="NotoSansCJKjp-Regular-64" d="M 1773 -83 
C 2189 -83 2554 141 2829 410 
L 2848 410 
L 2899 0 
L 3373 0 
L 3373 5094 
L 2797 5094 
L 2797 3757 
L 2822 3155 
C 2515 3411 2253 3565 1843 3565 
C 1050 3565 339 2861 339 1734 
C 339 576 902 -83 1773 -83 
z
M 1901 403 
C 1286 403 941 902 941 1741 
C 941 2534 1382 3072 1946 3072 
C 2234 3072 2496 2970 2797 2707 
L 2797 883 
C 2502 563 2221 403 1901 403 
z
" transform="scale(0.015625)"/>
      <path id="NotoSansCJKjp-Regular-43" d="M 2413 -83 
C 3021 -83 3482 160 3853 589 
L 3526 960 
C 3226 634 2886 435 2438 435 
C 1542 435 979 1178 979 2362 
C 979 3533 1568 4262 2458 4262 
C 2861 4262 3174 4077 3418 3814 
L 3738 4198 
C 3469 4499 3021 4781 2451 4781 
C 1261 4781 371 3859 371 2342 
C 371 819 1248 -83 2413 -83 
z
" transform="scale(0.015625)"/>
      <path id="NotoSansCJKjp-Regular-68" d="M 589 0 
L 1171 0 
L 1171 2522 
C 1523 2874 1766 3053 2125 3053 
C 2586 3053 2784 2778 2784 2125 
L 2784 0 
L 3366 0 
L 3366 2202 
C 3366 3091 3034 3565 2304 3565 
C 1830 3565 1472 3302 1152 2982 
L 1171 3699 
L 1171 5094 
L 589 5094 
L 589 0 
z
" transform="scale(0.015625)"/>
      <path id="NotoSansCJKjp-Regular-6d" d="M 589 0 
L 1171 0 
L 1171 2522 
C 1491 2880 1786 3053 2048 3053 
C 2490 3053 2694 2778 2694 2125 
L 2694 0 
L 3277 0 
L 3277 2522 
C 3603 2880 3885 3053 4154 3053 
C 4595 3053 4800 2778 4800 2125 
L 4800 0 
L 5382 0 
L 5382 2202 
C 5382 3091 5043 3565 4326 3565 
C 3904 3565 3539 3290 3181 2899 
C 3040 3309 2752 3565 2221 3565 
C 1805 3565 1440 3302 1139 2970 
L 1120 2970 
L 1069 3475 
L 589 3475 
L 589 0 
z
" transform="scale(0.015625)"/>
      <path id="NotoSansCJKjp-Regular-78" d="M 96 0 
L 710 0 
L 1178 813 
C 1299 1024 1414 1235 1536 1434 
L 1568 1434 
C 1696 1235 1824 1024 1939 813 
L 2451 0 
L 3091 0 
L 1946 1754 
L 3002 3475 
L 2394 3475 
L 1965 2714 
C 1862 2515 1760 2323 1651 2131 
L 1626 2131 
C 1510 2323 1389 2515 1280 2714 
L 813 3475 
L 186 3475 
L 1242 1811 
L 96 0 
z
" transform="scale(0.015625)"/>
      <path id="NotoSansCJKjp-Regular-2e" d="M 890 -83 
C 1120 -83 1312 96 1312 358 
C 1312 627 1120 813 890 813 
C 659 813 467 627 467 358 
C 467 96 659 -83 890 -83 
z
" transform="scale(0.015625)"/>
      <path id="NotoSansCJKjp-Regular-45" d="M 640 0 
L 3418 0 
L 3418 506 
L 1235 506 
L 1235 2214 
L 3014 2214 
L 3014 2720 
L 1235 2720 
L 1235 4192 
L 3347 4192 
L 3347 4698 
L 640 4698 
L 640 0 
z
" transform="scale(0.015625)"/>
      <path id="NotoSansCJKjp-Regular-44" d="M 640 0 
L 1843 0 
C 3258 0 4032 877 4032 2362 
C 4032 3853 3258 4698 1818 4698 
L 640 4698 
L 640 0 
z
M 1235 486 
L 1235 4211 
L 1766 4211 
C 2874 4211 3418 3552 3418 2362 
C 3418 1178 2874 486 1766 486 
L 1235 486 
z
" transform="scale(0.015625)"/>
      <path id="NotoSansCJKjp-Regular-76" d="M 1338 0 
L 2016 0 
L 3251 3475 
L 2675 3475 
L 2016 1498 
C 1914 1158 1805 800 1696 474 
L 1670 474 
C 1562 800 1453 1158 1344 1498 
L 691 3475 
L 83 3475 
L 1338 0 
z
" transform="scale(0.015625)"/>
      <path id="NotoSansCJKjp-Regular-62" d="M 2118 -83 
C 2918 -83 3629 602 3629 1798 
C 3629 2861 3142 3565 2240 3565 
C 1856 3565 1466 3347 1152 3072 
L 1171 3699 
L 1171 5094 
L 589 5094 
L 589 0 
L 1056 0 
L 1107 358 
L 1133 358 
C 1434 83 1798 -83 2118 -83 
z
M 2022 403 
C 1792 403 1478 499 1171 768 
L 1171 2592 
C 1504 2906 1811 3072 2106 3072 
C 2765 3072 3021 2554 3021 1786 
C 3021 922 2598 403 2022 403 
z
" transform="scale(0.015625)"/>
      <path id="NotoSansCJKjp-Regular-6c" d="M 1203 -83 
C 1363 -83 1459 -64 1542 -32 
L 1459 416 
C 1395 403 1370 403 1338 403 
C 1248 403 1171 474 1171 653 
L 1171 5094 
L 589 5094 
L 589 691 
C 589 198 768 -83 1203 -83 
z
" transform="scale(0.015625)"/>
      <path id="NotoSansCJKjp-Regular-75" d="M 1600 -83 
C 2080 -83 2426 166 2752 544 
L 2771 544 
L 2816 0 
L 3302 0 
L 3302 3475 
L 2720 3475 
L 2720 1011 
C 2387 595 2138 422 1779 422 
C 1318 422 1126 698 1126 1344 
L 1126 3475 
L 544 3475 
L 544 1274 
C 544 390 870 -83 1600 -83 
z
" transform="scale(0.015625)"/>
      <path id="NotoSansCJKjp-Regular-3b" d="M 890 2496 
C 1120 2496 1312 2682 1312 2938 
C 1312 3206 1120 3392 890 3392 
C 659 3392 467 3206 467 2938 
C 467 2682 659 2496 890 2496 
z
M 480 -1216 
C 1056 -973 1414 -493 1414 122 
C 1414 550 1229 813 922 813 
C 685 813 480 653 480 403 
C 480 134 685 -6 909 -6 
C 934 -6 954 -6 979 0 
C 979 -378 742 -691 339 -870 
L 480 -1216 
z
" transform="scale(0.015625)"/>
      <path id="NotoSansCJKjp-Regular-46" d="M 640 0 
L 1235 0 
L 1235 2106 
L 3027 2106 
L 3027 2605 
L 1235 2605 
L 1235 4192 
L 3347 4192 
L 3347 4698 
L 640 4698 
L 640 0 
z
" transform="scale(0.015625)"/>
      <path id="NotoSansCJKjp-Regular-2c" d="M 480 -1216 
C 1056 -973 1414 -493 1414 122 
C 1414 550 1229 813 922 813 
C 685 813 480 653 480 403 
C 480 134 685 -6 909 -6 
C 934 -6 954 -6 979 0 
C 979 -378 742 -691 339 -870 
L 480 -1216 
z
" transform="scale(0.015625)"/>
      <path id="NotoSansCJKjp-Regular-70" d="M 589 -1466 
L 1171 -1466 
L 1171 -288 
L 1158 320 
C 1472 64 1805 -83 2118 -83 
C 2918 -83 3629 602 3629 1792 
C 3629 2861 3142 3565 2246 3565 
C 1843 3565 1453 3334 1139 3078 
L 1120 3078 
L 1069 3475 
L 589 3475 
L 589 -1466 
z
M 2022 403 
C 1792 403 1485 499 1171 768 
L 1171 2592 
C 1510 2906 1811 3072 2106 3072 
C 2765 3072 3021 2554 3021 1786 
C 3021 922 2598 403 2022 403 
z
" transform="scale(0.015625)"/>
     </defs>
     <use xlink:href="#NotoSansCJKjp-Regular-932f"/>
     <use xlink:href="#NotoSansCJKjp-Regular-8aa4" transform="translate(99.999985 0)"/>
     <use xlink:href="#NotoSansCJKjp-Regular-8a0a" transform="translate(199.999969 0)"/>
     <use xlink:href="#NotoSansCJKjp-Regular-606f" transform="translate(299.999954 0)"/>
     <use xlink:href="#NotoSansCJKjp-Regular-3a" transform="translate(399.999939 0)"/>
     <use xlink:href="#NotoSansCJKjp-Regular-20" transform="translate(427.799927 0)"/>
     <use xlink:href="#NotoSansCJKjp-Regular-4d" transform="translate(450.199921 0)"/>
     <use xlink:href="#NotoSansCJKjp-Regular-65" transform="translate(531.399902 0)"/>
     <use xlink:href="#NotoSansCJKjp-Regular-73" transform="translate(586.799896 0)"/>
     <use xlink:href="#NotoSansCJKjp-Regular-73" transform="translate(633.599884 0)"/>
     <use xlink:href="#NotoSansCJKjp-Regular-61" transform="translate(680.399872 0)"/>
     <use xlink:href="#NotoSansCJKjp-Regular-67" transform="translate(736.799866 0)"/>
     <use xlink:href="#NotoSansCJKjp-Regular-65" transform="translate(793.099854 0)"/>
     <use xlink:href="#NotoSansCJKjp-Regular-3a" transform="translate(848.499847 0)"/>
     <use xlink:href="#NotoSansCJKjp-Regular-20" transform="translate(876.299835 0)"/>
     <use xlink:href="#NotoSansCJKjp-Regular-73" transform="translate(898.699829 0)"/>
     <use xlink:href="#NotoSansCJKjp-Regular-65" transform="translate(945.499817 0)"/>
     <use xlink:href="#NotoSansCJKjp-Regular-73" transform="translate(1000.899811 0)"/>
     <use xlink:href="#NotoSansCJKjp-Regular-73" transform="translate(1047.699799 0)"/>
     <use xlink:href="#NotoSansCJKjp-Regular-69" transform="translate(1094.499786 0)"/>
     <use xlink:href="#NotoSansCJKjp-Regular-6f" transform="translate(1121.999771 0)"/>
     <use xlink:href="#NotoSansCJKjp-Regular-6e" transform="translate(1182.599762 0)"/>
     <use xlink:href="#NotoSansCJKjp-Regular-20" transform="translate(1243.699753 0)"/>
     <use xlink:href="#NotoSansCJKjp-Regular-6e" transform="translate(1266.099747 0)"/>
     <use xlink:href="#NotoSansCJKjp-Regular-6f" transform="translate(1327.199738 0)"/>
     <use xlink:href="#NotoSansCJKjp-Regular-74" transform="translate(1387.799728 0)"/>
     <use xlink:href="#NotoSansCJKjp-Regular-20" transform="translate(1425.499725 0)"/>
     <use xlink:href="#NotoSansCJKjp-Regular-63" transform="translate(1447.899719 0)"/>
     <use xlink:href="#NotoSansCJKjp-Regular-72" transform="translate(1498.799713 0)"/>
     <use xlink:href="#NotoSansCJKjp-Regular-65" transform="translate(1537.599701 0)"/>
     <use xlink:href="#NotoSansCJKjp-Regular-61" transform="translate(1592.999695 0)"/>
     <use xlink:href="#NotoSansCJKjp-Regular-74" transform="translate(1649.399689 0)"/>
     <use xlink:href="#NotoSansCJKjp-Regular-65" transform="translate(1687.099686 0)"/>
     <use xlink:href="#NotoSansCJKjp-Regular-64" transform="translate(1742.49968 0)"/>
     <use xlink:href="#NotoSansCJKjp-Regular-3a" transform="translate(1804.499664 0)"/>
     <use xlink:href="#NotoSansCJKjp-Regular-20" transform="translate(1832.299652 0)"/>
     <use xlink:href="#NotoSansCJKjp-Regular-43" transform="translate(1854.699646 0)"/>
     <use xlink:href="#NotoSansCJKjp-Regular-68" transform="translate(1918.499634 0)"/>
     <use xlink:href="#NotoSansCJKjp-Regular-72" transform="translate(1979.199631 0)"/>
     <use xlink:href="#NotoSansCJKjp-Regular-6f" transform="translate(2017.999619 0)"/>
     <use xlink:href="#NotoSansCJKjp-Regular-6d" transform="translate(2078.599609 0)"/>
     <use xlink:href="#NotoSansCJKjp-Regular-65" transform="translate(2171.1996 0)"/>
     <use xlink:href="#NotoSansCJKjp-Regular-20" transform="translate(2226.599594 0)"/>
     <use xlink:href="#NotoSansCJKjp-Regular-69" transform="translate(2248.999588 0)"/>
     <use xlink:href="#NotoSansCJKjp-Regular-6e" transform="translate(2276.499573 0)"/>
     <use xlink:href="#NotoSansCJKjp-Regular-73" transform="translate(2337.599564 0)"/>
     <use xlink:href="#NotoSansCJKjp-Regular-74" transform="translate(2384.399551 0)"/>
     <use xlink:href="#NotoSansCJKjp-Regular-61" transform="translate(2422.099548 0)"/>
     <use xlink:href="#NotoSansCJKjp-Regular-6e" transform="translate(2478.499542 0)"/>
     <use xlink:href="#NotoSansCJKjp-Regular-63" transform="translate(2539.599533 0)"/>
     <use xlink:href="#NotoSansCJKjp-Regular-65" transform="translate(2590.499527 0)"/>
     <use xlink:href="#NotoSansCJKjp-Regular-20" transform="translate(2645.899521 0)"/>
     <use xlink:href="#NotoSansCJKjp-Regular-65" transform="translate(2668.299515 0)"/>
     <use xlink:href="#NotoSansCJKjp-Regular-78" transform="translate(2723.699509 0)"/>
     <use xlink:href="#NotoSansCJKjp-Regular-69" transform="translate(2773.499496 0)"/>
     <use xlink:href="#NotoSansCJKjp-Regular-74" transform="translate(2800.999481 0)"/>
     <use xlink:href="#NotoSansCJKjp-Regular-65" transform="translate(2838.699478 0)"/>
     <use xlink:href="#NotoSansCJKjp-Regular-64" transform="translate(2894.099472 0)"/>
     <use xlink:href="#NotoSansCJKjp-Regular-2e" transform="translate(2956.099457 0)"/>
     <use xlink:href="#NotoSansCJKjp-Regular-20" transform="translate(2983.899445 0)"/>
     <use xlink:href="#NotoSansCJKjp-Regular-45" transform="translate(3006.299438 0)"/>
     <use xlink:href="#NotoSansCJKjp-Regular-78" transform="translate(3065.099426 0)"/>
     <use xlink:href="#NotoSansCJKjp-Regular-61" transform="translate(3114.899414 0)"/>
     <use xlink:href="#NotoSansCJKjp-Regular-6d" transform="translate(3171.299408 0)"/>
     <use xlink:href="#NotoSansCJKjp-Regular-69" transform="translate(3263.899399 0)"/>
     <use xlink:href="#NotoSansCJKjp-Regular-6e" transform="translate(3291.399384 0)"/>
     <use xlink:href="#NotoSansCJKjp-Regular-65" transform="translate(3352.499374 0)"/>
     <use xlink:href="#NotoSansCJKjp-Regular-20" transform="translate(3407.899368 0)"/>
     <use xlink:href="#NotoSansCJKjp-Regular-43" transform="translate(3430.299362 0)"/>
     <use xlink:href="#NotoSansCJKjp-Regular-68" transform="translate(3494.09935 0)"/>
     <use xlink:href="#NotoSansCJKjp-Regular-72" transform="translate(3554.799347 0)"/>
     <use xlink:href="#NotoSansCJKjp-Regular-6f" transform="translate(3593.599335 0)"/>
     <use xlink:href="#NotoSansCJKjp-Regular-6d" transform="translate(3654.199326 0)"/>
     <use xlink:href="#NotoSansCJKjp-Regular-65" transform="translate(3746.799316 0)"/>
     <use xlink:href="#NotoSansCJKjp-Regular-44" transform="translate(3802.19931 0)"/>
     <use xlink:href="#NotoSansCJKjp-Regular-72" transform="translate(3870.899292 0)"/>
     <use xlink:href="#NotoSansCJKjp-Regular-69" transform="translate(3909.69928 0)"/>
     <use xlink:href="#NotoSansCJKjp-Regular-76" transform="translate(3937.199265 0)"/>
     <use xlink:href="#NotoSansCJKjp-Regular-65" transform="translate(3989.299255 0)"/>
     <use xlink:href="#NotoSansCJKjp-Regular-72" transform="translate(4044.699249 0)"/>
     <use xlink:href="#NotoSansCJKjp-Regular-20" transform="translate(4083.499237 0)"/>
     <use xlink:href="#NotoSansCJKjp-Regular-76" transform="translate(4105.899231 0)"/>
     <use xlink:href="#NotoSansCJKjp-Regular-65" transform="translate(4157.999222 0)"/>
     <use xlink:href="#NotoSansCJKjp-Regular-72" transform="translate(4213.399216 0)"/>
     <use xlink:href="#NotoSansCJKjp-Regular-62" transform="translate(4252.199203 0)"/>
     <use xlink:href="#NotoSansCJKjp-Regular-6f" transform="translate(4313.999191 0)"/>
     <use xlink:href="#NotoSansCJKjp-Regular-73" transform="translate(4374.599182 0)"/>
     <use xlink:href="#NotoSansCJKjp-Regular-65" transform="translate(4421.39917 0)"/>
     <use xlink:href="#NotoSansCJKjp-Regular-20" transform="translate(4476.799164 0)"/>
     <use xlink:href="#NotoSansCJKjp-Regular-6c" transform="translate(4499.199158 0)"/>
     <use xlink:href="#NotoSansCJKjp-Regular-6f" transform="translate(4527.699142 0)"/>
     <use xlink:href="#NotoSansCJKjp-Regular-67" transform="translate(4588.299133 0)"/>
     <use xlink:href="#NotoSansCJKjp-Regular-20" transform="translate(4644.599121 0)"/>
     <use xlink:href="#NotoSansCJKjp-Regular-74" transform="translate(4666.999115 0)"/>
     <use xlink:href="#NotoSansCJKjp-Regular-6f" transform="translate(4704.699112 0)"/>
     <use xlink:href="#NotoSansCJKjp-Regular-20" transform="translate(4765.299103 0)"/>
     <use xlink:href="#NotoSansCJKjp-Regular-64" transform="translate(4787.699097 0)"/>
     <use xlink:href="#NotoSansCJKjp-Regular-65" transform="translate(4849.699081 0)"/>
     <use xlink:href="#NotoSansCJKjp-Regular-74" transform="translate(4905.099075 0)"/>
     <use xlink:href="#NotoSansCJKjp-Regular-65" transform="translate(4942.799072 0)"/>
     <use xlink:href="#NotoSansCJKjp-Regular-72" transform="translate(4998.199066 0)"/>
     <use xlink:href="#NotoSansCJKjp-Regular-6d" transform="translate(5036.999054 0)"/>
     <use xlink:href="#NotoSansCJKjp-Regular-69" transform="translate(5129.599045 0)"/>
     <use xlink:href="#NotoSansCJKjp-Regular-6e" transform="translate(5157.09903 0)"/>
     <use xlink:href="#NotoSansCJKjp-Regular-65" transform="translate(5218.19902 0)"/>
     <use xlink:href="#NotoSansCJKjp-Regular-20" transform="translate(5273.599014 0)"/>
     <use xlink:href="#NotoSansCJKjp-Regular-74" transform="translate(5295.999008 0)"/>
     <use xlink:href="#NotoSansCJKjp-Regular-68" transform="translate(5333.699005 0)"/>
     <use xlink:href="#NotoSansCJKjp-Regular-65" transform="translate(5394.399002 0)"/>
     <use xlink:href="#NotoSansCJKjp-Regular-20" transform="translate(5449.798996 0)"/>
     <use xlink:href="#NotoSansCJKjp-Regular-63" transform="translate(5472.19899 0)"/>
     <use xlink:href="#NotoSansCJKjp-Regular-61" transform="translate(5523.098984 0)"/>
     <use xlink:href="#NotoSansCJKjp-Regular-75" transform="translate(5579.498978 0)"/>
     <use xlink:href="#NotoSansCJKjp-Regular-73" transform="translate(5640.198975 0)"/>
     <use xlink:href="#NotoSansCJKjp-Regular-65" transform="translate(5686.998962 0)"/>
     <use xlink:href="#NotoSansCJKjp-Regular-2e" transform="translate(5742.398956 0)"/>
     <use xlink:href="#NotoSansCJKjp-Regular-3b" transform="translate(5770.198944 0)"/>
     <use xlink:href="#NotoSansCJKjp-Regular-20" transform="translate(5797.998932 0)"/>
     <use xlink:href="#NotoSansCJKjp-Regular-46" transform="translate(5820.398926 0)"/>
     <use xlink:href="#NotoSansCJKjp-Regular-6f" transform="translate(5875.598923 0)"/>
     <use xlink:href="#NotoSansCJKjp-Regular-72" transform="translate(5936.198914 0)"/>
     <use xlink:href="#NotoSansCJKjp-Regular-20" transform="translate(5974.998901 0)"/>
     <use xlink:href="#NotoSansCJKjp-Regular-64" transform="translate(5997.398895 0)"/>
     <use xlink:href="#NotoSansCJKjp-Regular-6f" transform="translate(6059.39888 0)"/>
     <use xlink:href="#NotoSansCJKjp-Regular-63" transform="translate(6119.998871 0)"/>
     <use xlink:href="#NotoSansCJKjp-Regular-75" transform="translate(6170.898865 0)"/>
     <use xlink:href="#NotoSansCJKjp-Regular-6d" transform="translate(6231.598862 0)"/>
     <use xlink:href="#NotoSansCJKjp-Regular-65" transform="translate(6324.198853 0)"/>
     <use xlink:href="#NotoSansCJKjp-Regular-6e" transform="translate(6379.598846 0)"/>
     <use xlink:href="#NotoSansCJKjp-Regular-74" transform="translate(6440.698837 0)"/>
     <use xlink:href="#NotoSansCJKjp-Regular-61" transform="translate(6478.398834 0)"/>
     <use xlink:href="#NotoSansCJKjp-Regular-74" transform="translate(6534.798828 0)"/>
     <use xlink:href="#NotoSansCJKjp-Regular-69" transform="translate(6572.498825 0)"/>
     <use xlink:href="#NotoSansCJKjp-Regular-6f" transform="translate(6599.99881 0)"/>
     <use xlink:href="#NotoSansCJKjp-Regular-6e" transform="translate(6660.598801 0)"/>
     <use xlink:href="#NotoSansCJKjp-Regular-20" transform="translate(6721.698792 0)"/>
     <use xlink:href="#NotoSansCJKjp-Regular-6f" transform="translate(6744.098785 0)"/>
     <use xlink:href="#NotoSansCJKjp-Regular-6e" transform="translate(6804.698776 0)"/>
     <use xlink:href="#NotoSansCJKjp-Regular-20" transform="translate(6865.798767 0)"/>
     <use xlink:href="#NotoSansCJKjp-Regular-74" transform="translate(6888.198761 0)"/>
     <use xlink:href="#NotoSansCJKjp-Regular-68" transform="translate(6925.898758 0)"/>
     <use xlink:href="#NotoSansCJKjp-Regular-69" transform="translate(6986.598755 0)"/>
     <use xlink:href="#NotoSansCJKjp-Regular-73" transform="translate(7014.09874 0)"/>
     <use xlink:href="#NotoSansCJKjp-Regular-20" transform="translate(7060.898727 0)"/>
     <use xlink:href="#NotoSansCJKjp-Regular-65" transform="translate(7083.298721 0)"/>
     <use xlink:href="#NotoSansCJKjp-Regular-72" transform="translate(7138.698715 0)"/>
     <use xlink:href="#NotoSansCJKjp-Regular-72" transform="translate(7177.498703 0)"/>
     <use xlink:href="#NotoSansCJKjp-Regular-6f" transform="translate(7216.298691 0)"/>
     <use xlink:href="#NotoSansCJKjp-Regular-72" transform="translate(7276.898682 0)"/>
     <use xlink:href="#NotoSansCJKjp-Regular-2c" transform="translate(7315.698669 0)"/>
     <use xlink:href="#NotoSansCJKjp-Regular-20" transform="translate(7343.498657 0)"/>
     <use xlink:href="#NotoSansCJKjp-Regular-70" transform="translate(7365.898651 0)"/>
     <use xlink:href="#NotoSansCJKjp-Regular-6c" transform="translate(7427.898636 0)"/>
     <use xlink:href="#NotoSansCJKjp-Regular-65" transform="translate(7456.398621 0)"/>
     <use xlink:href="#NotoSansCJKjp-Regular-61" transform="translate(7511.798615 0)"/>
     <use xlink:href="#NotoSansCJKjp-Regular-73" transform="translate(7568.198608 0)"/>
     <use xlink:href="#NotoSansCJKjp-Regular-65" transform="translate(7614.998596 0)"/>
    </g>
    <!-- visit: https://www.selenium.dev/documentation/webdriver/troubleshooting/errors#sessionnotcreatedexception -->
    <g style="fill: #666666" transform="translate(143.217344 291.575859) scale(0.11 -0.11)">
     <defs>
      <path id="NotoSansCJKjp-Regular-2f" d="M 70 -1146 
L 499 -1146 
L 2413 5082 
L 1990 5082 
L 70 -1146 
z
" transform="scale(0.015625)"/>
      <path id="NotoSansCJKjp-Regular-77" d="M 1139 0 
L 1824 0 
L 2310 1862 
C 2400 2195 2470 2522 2547 2874 
L 2579 2874 
C 2662 2522 2726 2202 2816 1875 
L 3322 0 
L 4026 0 
L 4960 3475 
L 4410 3475 
L 3898 1466 
C 3821 1133 3757 819 3680 493 
L 3654 493 
C 3571 819 3494 1133 3411 1466 
L 2867 3475 
L 2298 3475 
L 1760 1466 
C 1670 1139 1600 819 1523 493 
L 1491 493 
C 1427 819 1357 1133 1286 1466 
L 768 3475 
L 173 3475 
L 1139 0 
z
" transform="scale(0.015625)"/>
      <path id="NotoSansCJKjp-Regular-23" d="M 646 0 
L 1024 0 
L 1203 1459 
L 2150 1459 
L 1978 0 
L 2362 0 
L 2534 1459 
L 3194 1459 
L 3194 1869 
L 2586 1869 
L 2720 2931 
L 3341 2931 
L 3341 3334 
L 2765 3334 
L 2931 4653 
L 2554 4653 
L 2381 3334 
L 1434 3334 
L 1594 4653 
L 1216 4653 
L 1050 3334 
L 397 3334 
L 397 2931 
L 1005 2931 
L 870 1869 
L 256 1869 
L 256 1459 
L 819 1459 
L 646 0 
z
M 1254 1869 
L 1382 2931 
L 2336 2931 
L 2202 1869 
L 1254 1869 
z
" transform="scale(0.015625)"/>
     </defs>
     <use xlink:href="#NotoSansCJKjp-Regular-76"/>
     <use xlink:href="#NotoSansCJKjp-Regular-69" transform="translate(52.099991 0)"/>
     <use xlink:href="#NotoSansCJKjp-Regular-73" transform="translate(79.599976 0)"/>
     <use xlink:href="#NotoSansCJKjp-Regular-69" transform="translate(126.399963 0)"/>
     <use xlink:href="#NotoSansCJKjp-Regular-74" transform="translate(153.899948 0)"/>
     <use xlink:href="#NotoSansCJKjp-Regular-3a" transform="translate(191.599945 0)"/>
     <use xlink:href="#NotoSansCJKjp-Regular-20" transform="translate(219.399933 0)"/>
     <use xlink:href="#NotoSansCJKjp-Regular-68" transform="translate(241.799927 0)"/>
     <use xlink:href="#NotoSansCJKjp-Regular-74" transform="translate(302.499924 0)"/>
     <use xlink:href="#NotoSansCJKjp-Regular-74" transform="translate(340.199921 0)"/>
     <use xlink:href="#NotoSansCJKjp-Regular-70" transform="translate(377.899918 0)"/>
     <use xlink:href="#NotoSansCJKjp-Regular-73" transform="translate(439.899902 0)"/>
     <use xlink:href="#NotoSansCJKjp-Regular-3a" transform="translate(486.69989 0)"/>
     <use xlink:href="#NotoSansCJKjp-Regular-2f" transform="translate(514.499878 0)"/>
     <use xlink:href="#NotoSansCJKjp-Regular-2f" transform="translate(553.699875 0)"/>
     <use xlink:href="#NotoSansCJKjp-Regular-77" transform="translate(592.899872 0)"/>
     <use xlink:href="#NotoSansCJKjp-Regular-77" transform="translate(673.099854 0)"/>
     <use xlink:href="#NotoSansCJKjp-Regular-77" transform="translate(753.299835 0)"/>
     <use xlink:href="#NotoSansCJKjp-Regular-2e" transform="translate(833.499817 0)"/>
     <use xlink:href="#NotoSansCJKjp-Regular-73" transform="translate(861.299805 0)"/>
     <use xlink:href="#NotoSansCJKjp-Regular-65" transform="translate(908.099792 0)"/>
     <use xlink:href="#NotoSansCJKjp-Regular-6c" transform="translate(963.499786 0)"/>
     <use xlink:href="#NotoSansCJKjp-Regular-65" transform="translate(991.999771 0)"/>
     <use xlink:href="#NotoSansCJKjp-Regular-6e" transform="translate(1047.399765 0)"/>
     <use xlink:href="#NotoSansCJKjp-Regular-69" transform="translate(1108.499756 0)"/>
     <use xlink:href="#NotoSansCJKjp-Regular-75" transform="translate(1135.999741 0)"/>
     <use xlink:href="#NotoSansCJKjp-Regular-6d" transform="translate(1196.699738 0)"/>
     <use xlink:href="#NotoSansCJKjp-Regular-2e" transform="translate(1289.299728 0)"/>
     <use xlink:href="#NotoSansCJKjp-Regular-64" transform="translate(1317.099716 0)"/>
     <use xlink:href="#NotoSansCJKjp-Regular-65" transform="translate(1379.099701 0)"/>
     <use xlink:href="#NotoSansCJKjp-Regular-76" transform="translate(1434.499695 0)"/>
     <use xlink:href="#NotoSansCJKjp-Regular-2f" transform="translate(1486.599686 0)"/>
     <use xlink:href="#NotoSansCJKjp-Regular-64" transform="translate(1525.799683 0)"/>
     <use xlink:href="#NotoSansCJKjp-Regular-6f" transform="translate(1587.799667 0)"/>
     <use xlink:href="#NotoSansCJKjp-Regular-63" transform="translate(1648.399658 0)"/>
     <use xlink:href="#NotoSansCJKjp-Regular-75" transform="translate(1699.299652 0)"/>
     <use xlink:href="#NotoSansCJKjp-Regular-6d" transform="translate(1759.999649 0)"/>
     <use xlink:href="#NotoSansCJKjp-Regular-65" transform="translate(1852.59964 0)"/>
     <use xlink:href="#NotoSansCJKjp-Regular-6e" transform="translate(1907.999634 0)"/>
     <use xlink:href="#NotoSansCJKjp-Regular-74" transform="translate(1969.099625 0)"/>
     <use xlink:href="#NotoSansCJKjp-Regular-61" transform="translate(2006.799622 0)"/>
     <use xlink:href="#NotoSansCJKjp-Regular-74" transform="translate(2063.199615 0)"/>
     <use xlink:href="#NotoSansCJKjp-Regular-69" transform="translate(2100.899612 0)"/>
     <use xlink:href="#NotoSansCJKjp-Regular-6f" transform="translate(2128.399597 0)"/>
     <use xlink:href="#NotoSansCJKjp-Regular-6e" transform="translate(2188.999588 0)"/>
     <use xlink:href="#NotoSansCJKjp-Regular-2f" transform="translate(2250.099579 0)"/>
     <use xlink:href="#NotoSansCJKjp-Regular-77" transform="translate(2289.299576 0)"/>
     <use xlink:href="#NotoSansCJKjp-Regular-65" transform="translate(2369.499557 0)"/>
     <use xlink:href="#NotoSansCJKjp-Regular-62" transform="translate(2424.899551 0)"/>
     <use xlink:href="#NotoSansCJKjp-Regular-64" transform="translate(2486.699539 0)"/>
     <use xlink:href="#NotoSansCJKjp-Regular-72" transform="translate(2548.699524 0)"/>
     <use xlink:href="#NotoSansCJKjp-Regular-69" transform="translate(2587.499512 0)"/>
     <use xlink:href="#NotoSansCJKjp-Regular-76" transform="translate(2614.999496 0)"/>
     <use xlink:href="#NotoSansCJKjp-Regular-65" transform="translate(2667.099487 0)"/>
     <use xlink:href="#NotoSansCJKjp-Regular-72" transform="translate(2722.499481 0)"/>
     <use xlink:href="#NotoSansCJKjp-Regular-2f" transform="translate(2761.299469 0)"/>
     <use xlink:href="#NotoSansCJKjp-Regular-74" transform="translate(2800.499466 0)"/>
     <use xlink:href="#NotoSansCJKjp-Regular-72" transform="translate(2838.199463 0)"/>
     <use xlink:href="#NotoSansCJKjp-Regular-6f" transform="translate(2876.999451 0)"/>
     <use xlink:href="#NotoSansCJKjp-Regular-75" transform="translate(2937.599442 0)"/>
     <use xlink:href="#NotoSansCJKjp-Regular-62" transform="translate(2998.299438 0)"/>
     <use xlink:href="#NotoSansCJKjp-Regular-6c" transform="translate(3060.099426 0)"/>
     <use xlink:href="#NotoSansCJKjp-Regular-65" transform="translate(3088.599411 0)"/>
     <use xlink:href="#NotoSansCJKjp-Regular-73" transform="translate(3143.999405 0)"/>
     <use xlink:href="#NotoSansCJKjp-Regular-68" transform="translate(3190.799393 0)"/>
     <use xlink:href="#NotoSansCJKjp-Regular-6f" transform="translate(3251.49939 0)"/>
     <use xlink:href="#NotoSansCJKjp-Regular-6f" transform="translate(3312.09938 0)"/>
     <use xlink:href="#NotoSansCJKjp-Regular-74" transform="translate(3372.699371 0)"/>
     <use xlink:href="#NotoSansCJKjp-Regular-69" transform="translate(3410.399368 0)"/>
     <use xlink:href="#NotoSansCJKjp-Regular-6e" transform="translate(3437.899353 0)"/>
     <use xlink:href="#NotoSansCJKjp-Regular-67" transform="translate(3498.999344 0)"/>
     <use xlink:href="#NotoSansCJKjp-Regular-2f" transform="translate(3555.299332 0)"/>
     <use xlink:href="#NotoSansCJKjp-Regular-65" transform="translate(3594.499329 0)"/>
     <use xlink:href="#NotoSansCJKjp-Regular-72" transform="translate(3649.899323 0)"/>
     <use xlink:href="#NotoSansCJKjp-Regular-72" transform="translate(3688.69931 0)"/>
     <use xlink:href="#NotoSansCJKjp-Regular-6f" transform="translate(3727.499298 0)"/>
     <use xlink:href="#NotoSansCJKjp-Regular-72" transform="translate(3788.099289 0)"/>
     <use xlink:href="#NotoSansCJKjp-Regular-73" transform="translate(3826.899277 0)"/>
     <use xlink:href="#NotoSansCJKjp-Regular-23" transform="translate(3873.699265 0)"/>
     <use xlink:href="#NotoSansCJKjp-Regular-73" transform="translate(3929.199249 0)"/>
     <use xlink:href="#NotoSansCJKjp-Regular-65" transform="translate(3975.999237 0)"/>
     <use xlink:href="#NotoSansCJKjp-Regular-73" transform="translate(4031.399231 0)"/>
     <use xlink:href="#NotoSansCJKjp-Regular-73" transform="translate(4078.199219 0)"/>
     <use xlink:href="#NotoSansCJKjp-Regular-69" transform="translate(4124.999207 0)"/>
     <use xlink:href="#NotoSansCJKjp-Regular-6f" transform="translate(4152.499191 0)"/>
     <use xlink:href="#NotoSansCJKjp-Regular-6e" transform="translate(4213.099182 0)"/>
     <use xlink:href="#NotoSansCJKjp-Regular-6e" transform="translate(4274.199173 0)"/>
     <use xlink:href="#NotoSansCJKjp-Regular-6f" transform="translate(4335.299164 0)"/>
     <use xlink:href="#NotoSansCJKjp-Regular-74" transform="translate(4395.899155 0)"/>
     <use xlink:href="#NotoSansCJKjp-Regular-63" transform="translate(4433.599152 0)"/>
     <use xlink:href="#NotoSansCJKjp-Regular-72" transform="translate(4484.499146 0)"/>
     <use xlink:href="#NotoSansCJKjp-Regular-65" transform="translate(4523.299133 0)"/>
     <use xlink:href="#NotoSansCJKjp-Regular-61" transform="translate(4578.699127 0)"/>
     <use xlink:href="#NotoSansCJKjp-Regular-74" transform="translate(4635.099121 0)"/>
     <use xlink:href="#NotoSansCJKjp-Regular-65" transform="translate(4672.799118 0)"/>
     <use xlink:href="#NotoSansCJKjp-Regular-64" transform="translate(4728.199112 0)"/>
     <use xlink:href="#NotoSansCJKjp-Regular-65" transform="translate(4790.199097 0)"/>
     <use xlink:href="#NotoSansCJKjp-Regular-78" transform="translate(4845.599091 0)"/>
     <use xlink:href="#NotoSansCJKjp-Regular-63" transform="translate(4895.399078 0)"/>
     <use xlink:href="#NotoSansCJKjp-Regular-65" transform="translate(4946.299072 0)"/>
     <use xlink:href="#NotoSansCJKjp-Regular-70" transform="translate(5001.699066 0)"/>
     <use xlink:href="#NotoSansCJKjp-Regular-74" transform="translate(5063.699051 0)"/>
     <use xlink:href="#NotoSansCJKjp-Regular-69" transform="translate(5101.399048 0)"/>
     <use xlink:href="#NotoSansCJKjp-Regular-6f" transform="translate(5128.899033 0)"/>
     <use xlink:href="#NotoSansCJKjp-Regular-6e" transform="translate(5189.499023 0)"/>
    </g>
   </g>
  </g>
 </g>
</svg>
