<?xml version="1.0" encoding="utf-8" standalone="no"?>
<!DOCTYPE svg PUBLIC "-//W3C//DTD SVG 1.1//EN"
  "http://www.w3.org/Graphics/SVG/1.1/DTD/svg11.dtd">
<svg xmlns:xlink="http://www.w3.org/1999/xlink" width="864pt" height="432pt" viewBox="0 0 864 432" xmlns="http://www.w3.org/2000/svg" version="1.1">
 <metadata>
  <rdf:RDF xmlns:dc="http://purl.org/dc/elements/1.1/" xmlns:cc="http://creativecommons.org/ns#" xmlns:rdf="http://www.w3.org/1999/02/22-rdf-syntax-ns#">
   <cc:Work>
    <dc:type rdf:resource="http://purl.org/dc/dcmitype/StillImage"/>
    <dc:date>2026-02-16T11:26:14.068389</dc:date>
    <dc:format>image/svg+xml</dc:format>
    <dc:creator>
     <cc:Agent>
      <dc:title>Matplotlib v3.10.8, https://matplotlib.org/</dc:title>
     </cc:Agent>
    </dc:creator>
   </cc:Work>
  </rdf:RDF>
 </metadata>
 <defs>
  <style type="text/css">*{stroke-linejoin: round; stroke-linecap: butt}</style>
 </defs>
 <g id="figure_1">
  <g id="patch_1">
   <path d="M 0 432 
L 864 432 
L 864 0 
L 0 0 
z
" style="fill: #ffffff"/>
  </g>
  <g id="axes_1">
   <g id="text_1">
    <!-- 全台建物買賣移轉棟數 -->
    <g style="fill: #0d3b66" transform="translate(312 161.435625) scale(0.24 -0.24)">
     <defs>
      <path id="NotoSansCJKjp-Bold-5168" d="M 486 262 
L 486 -422 
L 5958 -422 
L 5958 262 
L 3584 262 
L 3584 1037 
L 5382 1037 
L 5382 1702 
L 3584 1702 
L 3584 2445 
L 5088 2445 
L 5088 2944 
C 5318 2784 5549 2643 5779 2515 
C 5920 2752 6093 3002 6291 3200 
C 5267 3635 4224 4480 3539 5459 
L 2739 5459 
C 2272 4672 1235 3686 128 3123 
C 301 2970 518 2688 614 2509 
C 858 2643 1101 2797 1331 2957 
L 1331 2445 
L 2778 2445 
L 2778 1702 
L 1005 1702 
L 1005 1037 
L 2778 1037 
L 2778 262 
L 486 262 
z
M 3174 4710 
C 3552 4192 4173 3610 4838 3123 
L 1568 3123 
C 2234 3616 2816 4192 3174 4710 
z
" transform="scale(0.015625)"/>
      <path id="NotoSansCJKjp-Bold-53f0" d="M 1062 2272 
L 1062 -570 
L 1850 -570 
L 1850 -314 
L 4518 -314 
L 4518 -563 
L 5344 -563 
L 5344 2272 
L 1062 2272 
z
M 1850 429 
L 1850 1536 
L 4518 1536 
L 4518 429 
L 1850 429 
z
M 378 3622 
L 422 2848 
C 1619 2899 3418 2963 5114 3053 
C 5286 2842 5427 2643 5523 2470 
L 6189 2982 
C 5856 3533 5088 4275 4461 4794 
L 3853 4346 
C 4051 4173 4262 3974 4467 3770 
L 2298 3686 
C 2605 4154 2925 4691 3194 5197 
L 2317 5485 
C 2093 4915 1722 4211 1370 3654 
L 378 3622 
z
" transform="scale(0.015625)"/>
      <path id="NotoSansCJKjp-Bold-5efa" d="M 2438 5024 
L 2438 4448 
L 3622 4448 
L 3622 4186 
L 2003 4186 
L 2003 3597 
L 3622 3597 
L 3622 3334 
L 2406 3334 
L 2406 2752 
L 3622 2752 
L 3622 2470 
L 2374 2470 
L 2374 1914 
L 3622 1914 
L 3622 1619 
L 2093 1619 
L 2093 1018 
L 3622 1018 
L 3622 499 
L 4365 499 
L 4365 1018 
L 6048 1018 
L 6048 1619 
L 4365 1619 
L 4365 1914 
L 5754 1914 
L 5754 2470 
L 4365 2470 
L 4365 2752 
L 5702 2752 
L 5702 3597 
L 6189 3597 
L 6189 4186 
L 5702 4186 
L 5702 5024 
L 4365 5024 
L 4365 5389 
L 3622 5389 
L 3622 5024 
L 2438 5024 
z
M 4365 3597 
L 4954 3597 
L 4954 3334 
L 4365 3334 
L 4365 3597 
z
M 4365 4186 
L 4365 4448 
L 4954 4448 
L 4954 4186 
L 4365 4186 
z
M 896 2240 
L 294 2029 
C 461 1510 666 1101 902 774 
C 704 416 454 128 154 -83 
C 314 -179 614 -448 730 -595 
C 1005 -390 1242 -115 1440 224 
C 2118 -288 3002 -416 4083 -416 
L 5965 -416 
C 6016 -198 6144 160 6266 333 
C 5792 314 4486 314 4102 314 
C 3162 320 2355 416 1754 890 
C 1984 1504 2138 2266 2214 3187 
L 1766 3290 
L 1632 3270 
L 1312 3270 
C 1574 3859 1837 4467 2029 4966 
L 1504 5114 
L 1389 5082 
L 211 5082 
L 211 4410 
L 1050 4410 
C 813 3853 499 3155 224 2592 
L 915 2413 
L 1005 2598 
L 1440 2598 
C 1382 2195 1312 1837 1210 1517 
C 1088 1722 986 1958 896 2240 
z
" transform="scale(0.015625)"/>
      <path id="NotoSansCJKjp-Bold-7269" d="M 3302 5440 
C 3110 4493 2752 3571 2246 3014 
C 2406 2918 2701 2701 2822 2579 
C 3072 2893 3302 3283 3494 3731 
L 3821 3731 
C 3533 2797 3034 1843 2394 1344 
C 2598 1235 2842 1056 2989 915 
C 3635 1523 4179 2682 4454 3731 
L 4762 3731 
C 4429 2227 3789 762 2765 26 
C 2976 -83 3245 -275 3386 -422 
C 4422 429 5088 2106 5408 3731 
L 5434 3731 
C 5331 1421 5216 544 5050 339 
C 4973 243 4915 218 4819 218 
C 4698 218 4480 218 4243 243 
C 4365 32 4442 -288 4454 -506 
C 4736 -518 5005 -518 5184 -486 
C 5402 -442 5536 -371 5690 -154 
C 5933 173 6048 1222 6170 4096 
C 6176 4186 6182 4442 6182 4442 
L 3763 4442 
C 3853 4723 3936 5011 4000 5306 
L 3302 5440 
z
M 474 5069 
C 422 4314 314 3514 109 2995 
C 256 2918 538 2746 653 2650 
C 742 2880 826 3162 896 3469 
L 1318 3469 
L 1318 2240 
C 890 2118 486 2016 173 1946 
L 358 1210 
L 1318 1498 
L 1318 -576 
L 2022 -576 
L 2022 1709 
L 2714 1926 
L 2618 2598 
L 2022 2432 
L 2022 3469 
L 2560 3469 
L 2560 4198 
L 2022 4198 
L 2022 5434 
L 1318 5434 
L 1318 4198 
L 1024 4198 
C 1062 4454 1094 4710 1120 4966 
L 474 5069 
z
" transform="scale(0.015625)"/>
      <path id="NotoSansCJKjp-Bold-8cb7" d="M 4211 4602 
L 5018 4602 
L 5018 4160 
L 4211 4160 
L 4211 4602 
z
M 2790 4602 
L 3571 4602 
L 3571 4160 
L 2790 4160 
L 2790 4602 
z
M 1389 4602 
L 2150 4602 
L 2150 4160 
L 1389 4160 
L 1389 4602 
z
M 678 5171 
L 678 3590 
L 5766 3590 
L 5766 5171 
L 678 5171 
z
M 1798 2074 
L 4608 2074 
L 4608 1760 
L 1798 1760 
L 1798 2074 
z
M 1798 1306 
L 4608 1306 
L 4608 986 
L 1798 986 
L 1798 1306 
z
M 1798 2835 
L 4608 2835 
L 4608 2528 
L 1798 2528 
L 1798 2835 
z
M 3558 166 
C 4262 -70 4973 -371 5370 -582 
L 6202 -198 
C 5747 6 5005 282 4333 506 
L 5414 506 
L 5414 3322 
L 1024 3322 
L 1024 506 
L 2029 506 
C 1574 282 858 77 224 -38 
C 390 -166 666 -448 794 -602 
C 1459 -416 2304 -102 2842 250 
L 2272 506 
L 4090 506 
L 3558 166 
z
" transform="scale(0.015625)"/>
      <path id="NotoSansCJKjp-Bold-8ce3" d="M 4186 3386 
L 4992 3386 
L 4992 3104 
L 4186 3104 
L 4186 3386 
z
M 2784 3386 
L 3578 3386 
L 3578 3104 
L 2784 3104 
L 2784 3386 
z
M 1408 3386 
L 2176 3386 
L 2176 3104 
L 1408 3104 
L 1408 3386 
z
M 730 3802 
L 730 2682 
L 5709 2682 
L 5709 3802 
L 730 3802 
z
M 1850 1498 
L 4614 1498 
L 4614 1280 
L 1850 1280 
L 1850 1498 
z
M 1850 896 
L 4614 896 
L 4614 672 
L 1850 672 
L 1850 896 
z
M 1850 2093 
L 4614 2093 
L 4614 1882 
L 1850 1882 
L 1850 2093 
z
M 2803 5440 
L 2803 5126 
L 422 5126 
L 422 4627 
L 2803 4627 
L 2803 4429 
L 896 4429 
L 896 3981 
L 5581 3981 
L 5581 4429 
L 3565 4429 
L 3565 4627 
L 5990 4627 
L 5990 5126 
L 3565 5126 
L 3565 5440 
L 2803 5440 
z
M 3558 -70 
C 4250 -237 4922 -448 5286 -602 
L 6202 -262 
C 5734 -109 4947 109 4269 269 
L 5389 269 
L 5389 2496 
L 1101 2496 
L 1101 269 
L 2067 269 
C 1600 122 870 6 224 -64 
C 390 -179 646 -435 768 -582 
C 1434 -461 2291 -243 2842 0 
L 2266 269 
L 4186 269 
L 3558 -70 
z
" transform="scale(0.015625)"/>
      <path id="NotoSansCJKjp-Bold-79fb" d="M 3910 4262 
L 4909 4262 
C 4768 4051 4595 3859 4397 3693 
C 4230 3846 3994 4013 3782 4147 
L 3910 4262 
z
M 3981 5434 
C 3699 4934 3181 4403 2368 4026 
C 2522 3917 2746 3661 2842 3494 
C 3002 3584 3155 3674 3296 3770 
C 3488 3642 3706 3462 3866 3309 
C 3469 3078 3021 2906 2547 2797 
C 2688 2656 2867 2374 2944 2189 
C 3360 2310 3757 2464 4122 2662 
C 3808 2202 3302 1741 2579 1408 
C 2733 1293 2950 1043 3046 870 
C 3213 960 3360 1050 3507 1146 
C 3725 1011 3962 826 4141 659 
C 3654 365 3072 166 2426 58 
C 2566 -96 2733 -403 2803 -595 
C 4442 -230 5696 550 6208 2208 
L 5715 2406 
L 5581 2381 
L 4768 2381 
C 4864 2522 4954 2662 5030 2810 
L 4512 2906 
C 5139 3328 5632 3910 5920 4685 
L 5434 4902 
L 5306 4877 
L 4454 4877 
C 4550 5011 4640 5152 4723 5293 
L 3981 5434 
z
M 4250 1754 
L 5210 1754 
C 5075 1504 4909 1286 4704 1088 
C 4525 1254 4275 1427 4045 1562 
L 4250 1754 
z
M 2176 5370 
C 1683 5152 896 4960 186 4845 
C 269 4685 365 4429 403 4256 
C 653 4288 915 4333 1184 4378 
L 1184 3635 
L 262 3635 
L 262 2925 
L 1082 2925 
C 851 2304 486 1613 128 1197 
C 250 1005 416 685 486 467 
C 736 787 979 1242 1184 1734 
L 1184 -570 
L 1926 -570 
L 1926 1939 
C 2080 1702 2234 1453 2310 1286 
L 2752 1894 
C 2630 2035 2099 2592 1926 2733 
L 1926 2925 
L 2611 2925 
L 2611 3635 
L 1926 3635 
L 1926 4544 
C 2202 4608 2464 4691 2694 4781 
L 2176 5370 
z
" transform="scale(0.015625)"/>
      <path id="NotoSansCJKjp-Bold-8f49" d="M 2874 2182 
L 2918 1632 
L 5581 1702 
C 5632 1619 5670 1542 5702 1472 
L 6240 1747 
C 6131 1958 5933 2240 5722 2483 
L 5990 2483 
L 5990 4211 
L 4826 4211 
L 4826 4442 
L 6112 4442 
L 6112 5011 
L 4826 5011 
L 4826 5434 
L 4166 5434 
L 4166 5011 
L 2938 5011 
L 2938 4442 
L 4166 4442 
L 4166 4211 
L 3046 4211 
L 3046 2483 
L 4166 2483 
L 4166 2202 
L 2874 2182 
z
M 4768 813 
L 4768 109 
C 4768 38 4736 19 4646 13 
C 4570 13 4269 13 4006 26 
L 4275 192 
C 4186 371 4006 614 3814 813 
L 4768 813 
z
M 397 3821 
L 397 1491 
L 1216 1491 
L 1216 1114 
L 179 1114 
L 179 442 
L 1216 442 
L 1216 -570 
L 1894 -570 
L 1894 442 
L 2886 442 
L 2886 813 
L 3494 813 
L 3174 627 
C 3405 397 3629 70 3725 -154 
L 3981 6 
C 4064 -166 4147 -410 4173 -595 
C 4621 -595 4934 -589 5171 -493 
C 5408 -403 5472 -237 5472 90 
L 5472 813 
L 6202 813 
L 6202 1376 
L 5472 1376 
L 5472 1632 
L 4768 1632 
L 4768 1376 
L 2880 1376 
L 2880 1114 
L 1894 1114 
L 1894 1491 
L 2752 1491 
L 2752 3821 
L 1894 3821 
L 1894 4160 
L 2810 4160 
L 2810 4819 
L 1894 4819 
L 1894 5434 
L 1216 5434 
L 1216 4819 
L 269 4819 
L 269 4160 
L 1216 4160 
L 1216 3821 
L 397 3821 
z
M 3648 3155 
L 4166 3155 
L 4166 2899 
L 3648 2899 
L 3648 3155 
z
M 4826 3155 
L 5357 3155 
L 5357 2899 
L 4826 2899 
L 4826 3155 
z
M 3648 3795 
L 4166 3795 
L 4166 3552 
L 3648 3552 
L 3648 3795 
z
M 4826 3795 
L 5357 3795 
L 5357 3552 
L 4826 3552 
L 4826 3795 
z
M 5075 2400 
L 5229 2221 
L 4826 2214 
L 4826 2483 
L 5254 2483 
L 5075 2400 
z
M 934 2406 
L 1306 2406 
L 1306 2029 
L 934 2029 
L 934 2406 
z
M 1805 2406 
L 2189 2406 
L 2189 2029 
L 1805 2029 
L 1805 2406 
z
M 934 3283 
L 1306 3283 
L 1306 2912 
L 934 2912 
L 934 3283 
z
M 1805 3283 
L 2189 3283 
L 2189 2912 
L 1805 2912 
L 1805 3283 
z
" transform="scale(0.015625)"/>
      <path id="NotoSansCJKjp-Bold-68df" d="M 2707 3757 
L 2707 1510 
L 3635 1510 
C 3277 1005 2701 518 2150 243 
C 2317 109 2547 -166 2669 -352 
C 3123 -70 3584 365 3942 858 
L 3942 -576 
L 4685 -576 
L 4685 973 
C 5005 480 5402 6 5766 -288 
C 5888 -109 6131 160 6298 294 
C 5862 570 5350 1050 5018 1510 
L 5978 1510 
L 5978 3757 
L 4685 3757 
L 4685 4115 
L 6099 4115 
L 6099 4762 
L 4685 4762 
L 4685 5434 
L 3942 5434 
L 3942 4762 
L 2534 4762 
L 2534 4115 
L 3942 4115 
L 3942 3757 
L 2707 3757 
z
M 3392 2387 
L 3942 2387 
L 3942 2048 
L 3392 2048 
L 3392 2387 
z
M 4685 2387 
L 5267 2387 
L 5267 2048 
L 4685 2048 
L 4685 2387 
z
M 3392 3219 
L 3942 3219 
L 3942 2893 
L 3392 2893 
L 3392 3219 
z
M 4685 3219 
L 5267 3219 
L 5267 2893 
L 4685 2893 
L 4685 3219 
z
M 1094 5440 
L 1094 4115 
L 288 4115 
L 288 3405 
L 1037 3405 
C 858 2637 512 1760 128 1248 
C 243 1062 416 762 480 557 
C 710 877 922 1331 1094 1837 
L 1094 -570 
L 1805 -570 
L 1805 2125 
C 1958 1837 2106 1530 2189 1325 
L 2605 1894 
C 2496 2086 1978 2861 1805 3085 
L 1805 3405 
L 2502 3405 
L 2502 4115 
L 1805 4115 
L 1805 5440 
L 1094 5440 
z
" transform="scale(0.015625)"/>
      <path id="NotoSansCJKjp-Bold-6578" d="M 4512 3558 
L 5152 3558 
C 5088 2982 4992 2464 4845 2003 
C 4691 2470 4582 2976 4506 3514 
L 4512 3558 
z
M 192 4448 
L 192 3904 
L 602 3904 
L 602 3226 
L 1606 3226 
L 1606 3021 
L 474 3021 
L 474 1830 
L 1382 1830 
L 1248 1574 
L 211 1568 
L 237 998 
L 922 1011 
C 800 800 678 602 570 442 
L 1184 288 
L 1235 371 
L 1581 230 
C 1261 109 858 32 365 -13 
C 474 -160 589 -403 627 -602 
C 1318 -486 1856 -333 2259 -96 
C 2528 -237 2765 -378 2944 -506 
L 3379 -64 
C 3507 -230 3661 -474 3712 -602 
C 4160 -326 4518 0 4806 384 
C 5056 -6 5363 -339 5741 -589 
C 5850 -397 6074 -115 6240 26 
C 5818 275 5491 640 5235 1094 
C 5562 1773 5747 2592 5869 3558 
L 6208 3558 
L 6208 4269 
L 4691 4269 
C 4768 4614 4826 4973 4877 5338 
L 4147 5440 
C 4026 4461 3821 3507 3456 2822 
L 3456 3021 
L 2259 3021 
L 2259 3226 
L 3328 3226 
L 3328 3904 
L 3750 3904 
L 3750 4448 
L 3328 4448 
L 3328 5120 
L 2259 5120 
L 2259 5440 
L 1606 5440 
L 1606 5120 
L 602 5120 
L 602 4448 
L 192 4448 
z
M 4051 2349 
C 4154 1901 4282 1478 4435 1101 
C 4160 659 3795 301 3302 38 
C 3149 128 2963 230 2765 326 
C 2925 525 3053 762 3136 1050 
L 3731 1062 
L 3757 1606 
L 1952 1581 
L 2086 1824 
L 2061 1830 
L 3456 1830 
L 3456 2304 
C 3590 2176 3738 2022 3802 1926 
C 3891 2054 3974 2202 4051 2349 
z
M 1235 4640 
L 1606 4640 
L 1606 4410 
L 1235 4410 
L 1235 4640 
z
M 1606 3712 
L 1235 3712 
L 1235 3942 
L 1606 3942 
L 1606 3712 
z
M 2259 4640 
L 2662 4640 
L 2662 4410 
L 2259 4410 
L 2259 4640 
z
M 2259 3712 
L 2259 3942 
L 2662 3942 
L 2662 3712 
L 2259 3712 
z
M 1101 2560 
L 1606 2560 
L 1606 2291 
L 1101 2291 
L 1101 2560 
z
M 2259 2560 
L 2790 2560 
L 2790 2291 
L 2259 2291 
L 2259 2560 
z
M 1638 1018 
L 2451 1037 
C 2374 864 2278 723 2163 602 
C 1952 685 1741 768 1530 845 
L 1638 1018 
z
" transform="scale(0.015625)"/>
     </defs>
     <use xlink:href="#NotoSansCJKjp-Bold-5168"/>
     <use xlink:href="#NotoSansCJKjp-Bold-53f0" transform="translate(99.999985 0)"/>
     <use xlink:href="#NotoSansCJKjp-Bold-5efa" transform="translate(199.999969 0)"/>
     <use xlink:href="#NotoSansCJKjp-Bold-7269" transform="translate(299.999954 0)"/>
     <use xlink:href="#NotoSansCJKjp-Bold-8cb7" transform="translate(399.999939 0)"/>
     <use xlink:href="#NotoSansCJKjp-Bold-8ce3" transform="translate(499.999924 0)"/>
     <use xlink:href="#NotoSansCJKjp-Bold-79fb" transform="translate(599.999908 0)"/>
     <use xlink:href="#NotoSansCJKjp-Bold-8f49" transform="translate(699.999893 0)"/>
     <use xlink:href="#NotoSansCJKjp-Bold-68df" transform="translate(799.999878 0)"/>
     <use xlink:href="#NotoSansCJKjp-Bold-6578" transform="translate(899.999863 0)"/>
    </g>
   </g>
   <g id="text_2">
    <!-- 目前無法取得資料，已保留上次可用輸出或等待下次更新。 -->
    <g style="fill: #444444" transform="translate(250 228.176125) scale(0.14 -0.14)">
     <defs>
      <path id="NotoSansCJKjp-Regular-76ee" d="M 1491 3008 
L 4858 3008 
L 4858 1952 
L 1491 1952 
L 1491 3008 
z
M 1491 3469 
L 1491 4506 
L 4858 4506 
L 4858 3469 
L 1491 3469 
z
M 1491 1491 
L 4858 1491 
L 4858 429 
L 1491 429 
L 1491 1491 
z
M 1011 4979 
L 1011 -474 
L 1491 -474 
L 1491 -38 
L 4858 -38 
L 4858 -474 
L 5357 -474 
L 5357 4979 
L 1011 4979 
z
" transform="scale(0.015625)"/>
      <path id="NotoSansCJKjp-Regular-524d" d="M 3866 3290 
L 3866 666 
L 4314 666 
L 4314 3290 
L 3866 3290 
z
M 5165 3482 
L 5165 90 
C 5165 -6 5133 -32 5030 -32 
C 4922 -38 4576 -38 4186 -26 
C 4256 -154 4333 -358 4358 -486 
C 4851 -493 5178 -480 5370 -403 
C 5568 -326 5638 -192 5638 83 
L 5638 3482 
L 5165 3482 
z
M 4627 5408 
C 4486 5094 4243 4672 4026 4365 
L 2106 4365 
L 2419 4480 
C 2298 4736 2022 5114 1779 5382 
L 1331 5222 
C 1562 4960 1798 4614 1920 4365 
L 339 4365 
L 339 3923 
L 6061 3923 
L 6061 4365 
L 4570 4365 
C 4755 4627 4960 4947 5139 5242 
L 4627 5408 
z
M 2618 1926 
L 2618 1280 
L 1197 1280 
L 1197 1926 
L 2618 1926 
z
M 2618 2304 
L 1197 2304 
L 1197 2938 
L 2618 2938 
L 2618 2304 
z
M 742 3347 
L 742 -480 
L 1197 -480 
L 1197 902 
L 2618 902 
L 2618 45 
C 2618 -38 2592 -64 2502 -64 
C 2419 -70 2125 -70 1798 -58 
C 1862 -179 1933 -365 1965 -486 
C 2394 -486 2682 -480 2854 -403 
C 3034 -333 3085 -205 3085 38 
L 3085 3347 
L 742 3347 
z
" transform="scale(0.015625)"/>
      <path id="NotoSansCJKjp-Regular-7121" d="M 2208 723 
C 2291 346 2336 -154 2342 -454 
L 2810 -390 
C 2803 -96 2733 390 2650 768 
L 2208 723 
z
M 3514 723 
C 3680 346 3840 -154 3904 -461 
L 4378 -358 
C 4314 -58 4134 435 3962 806 
L 3514 723 
z
M 4819 768 
C 5139 371 5504 -179 5664 -525 
L 6138 -352 
C 5971 -6 5594 531 5274 915 
L 4819 768 
z
M 1088 890 
C 934 422 634 -64 301 -333 
L 749 -518 
C 1094 -211 1382 294 1549 774 
L 1088 890 
z
M 442 1600 
L 442 1158 
L 5978 1158 
L 5978 1600 
L 5158 1600 
L 5158 2688 
L 6061 2688 
L 6061 3130 
L 5158 3130 
L 5158 4205 
L 5824 4205 
L 5824 4640 
L 1760 4640 
C 1888 4838 2003 5037 2106 5242 
L 1638 5376 
C 1331 4730 813 4102 269 3699 
C 384 3629 576 3469 659 3386 
C 851 3546 1050 3738 1242 3955 
L 1242 3130 
L 346 3130 
L 346 2688 
L 1242 2688 
L 1242 1600 
L 442 1600 
z
M 2381 4205 
L 2381 3130 
L 1670 3130 
L 1670 4205 
L 2381 4205 
z
M 2803 4205 
L 3539 4205 
L 3539 3130 
L 2803 3130 
L 2803 4205 
z
M 3955 4205 
L 4710 4205 
L 4710 3130 
L 3955 3130 
L 3955 4205 
z
M 2381 2688 
L 2381 1600 
L 1670 1600 
L 1670 2688 
L 2381 2688 
z
M 2803 2688 
L 3539 2688 
L 3539 1600 
L 2803 1600 
L 2803 2688 
z
M 3955 2688 
L 4710 2688 
L 4710 1600 
L 3955 1600 
L 3955 2688 
z
" transform="scale(0.015625)"/>
      <path id="NotoSansCJKjp-Regular-6cd5" d="M 589 4979 
C 1030 4800 1574 4499 1837 4275 
L 2118 4672 
C 1843 4896 1293 5171 851 5331 
L 589 4979 
z
M 250 3213 
C 691 3059 1242 2784 1517 2579 
L 1779 2989 
C 1491 3194 934 3443 493 3578 
L 250 3213 
z
M 467 -115 
L 883 -435 
C 1242 166 1664 960 1984 1638 
L 1626 1946 
C 1280 1222 800 378 467 -115 
z
M 4550 1363 
C 4781 1088 5018 768 5222 448 
L 3027 320 
C 3309 877 3616 1606 3846 2227 
L 6080 2227 
L 6080 2688 
L 4250 2688 
L 4250 3872 
L 5779 3872 
L 5779 4326 
L 4250 4326 
L 4250 5376 
L 3763 5376 
L 3763 4326 
L 2291 4326 
L 2291 3872 
L 3763 3872 
L 3763 2688 
L 1971 2688 
L 1971 2227 
L 3283 2227 
C 3091 1613 2784 838 2515 294 
L 1978 269 
L 2042 -218 
C 2938 -160 4230 -70 5472 26 
C 5587 -173 5677 -365 5741 -525 
L 6189 -275 
C 5978 243 5446 1011 4966 1581 
L 4550 1363 
z
" transform="scale(0.015625)"/>
      <path id="NotoSansCJKjp-Regular-53d6" d="M 3853 4000 
L 3392 3910 
C 3603 2854 3904 1926 4346 1165 
C 3968 634 3507 237 3002 -26 
C 3110 -122 3245 -301 3315 -422 
C 3808 -134 4256 243 4634 723 
C 4986 243 5408 -154 5920 -442 
C 5997 -320 6144 -134 6253 -45 
C 5722 230 5286 640 4928 1152 
C 5446 1971 5811 3046 5971 4429 
L 5664 4512 
L 5581 4493 
L 3270 4493 
L 3270 4026 
L 5440 4026 
C 5286 3078 5011 2272 4640 1619 
C 4275 2304 4019 3110 3853 4000 
z
M 173 787 
L 262 314 
C 870 403 1702 531 2515 666 
L 2515 -499 
L 2982 -499 
L 2982 4525 
L 3430 4525 
L 3430 4979 
L 307 4979 
L 307 4525 
L 800 4525 
L 800 870 
L 173 787 
z
M 1261 4525 
L 2515 4525 
L 2515 3674 
L 1261 3674 
L 1261 4525 
z
M 1261 3238 
L 2515 3238 
L 2515 2342 
L 1261 2342 
L 1261 3238 
z
M 1261 1907 
L 2515 1907 
L 2515 1114 
L 1261 934 
L 1261 1907 
z
" transform="scale(0.015625)"/>
      <path id="NotoSansCJKjp-Regular-5f97" d="M 3085 3949 
L 5203 3949 
L 5203 3424 
L 3085 3424 
L 3085 3949 
z
M 3085 4813 
L 5203 4813 
L 5203 4301 
L 3085 4301 
L 3085 4813 
z
M 2618 5178 
L 2618 3059 
L 5683 3059 
L 5683 5178 
L 2618 5178 
z
M 2630 922 
C 2918 640 3264 243 3424 -13 
L 3789 250 
C 3622 499 3270 877 2970 1146 
L 2630 922 
z
M 1606 5363 
C 1325 4909 749 4371 243 4045 
C 320 3949 442 3757 499 3648 
C 1069 4032 1683 4627 2061 5184 
L 1606 5363 
z
M 2074 1664 
L 2074 1248 
L 4659 1248 
L 4659 26 
C 4659 -58 4634 -77 4531 -83 
C 4435 -96 4122 -96 3757 -83 
C 3821 -211 3891 -384 3917 -518 
C 4390 -518 4698 -512 4890 -442 
C 5088 -371 5139 -243 5139 19 
L 5139 1248 
L 6099 1248 
L 6099 1664 
L 5139 1664 
L 5139 2214 
L 5990 2214 
L 5990 2624 
L 2221 2624 
L 2221 2214 
L 4659 2214 
L 4659 1664 
L 2074 1664 
z
M 1722 3949 
C 1338 3290 723 2630 141 2208 
C 218 2093 352 1843 390 1741 
C 640 1939 896 2182 1146 2445 
L 1146 -506 
L 1613 -506 
L 1613 2995 
C 1811 3251 1990 3514 2144 3782 
L 1722 3949 
z
" transform="scale(0.015625)"/>
      <path id="NotoSansCJKjp-Regular-8cc7" d="M 614 4902 
C 1069 4768 1664 4531 1965 4365 
L 2176 4742 
C 1862 4902 1274 5114 832 5235 
L 614 4902 
z
M 294 3552 
L 486 3136 
C 966 3283 1574 3475 2150 3661 
L 2099 4045 
C 1434 3859 762 3667 294 3552 
z
M 1626 2035 
L 4851 2035 
L 4851 1594 
L 1626 1594 
L 1626 2035 
z
M 1626 1286 
L 4851 1286 
L 4851 838 
L 1626 838 
L 1626 1286 
z
M 1626 2778 
L 4851 2778 
L 4851 2349 
L 1626 2349 
L 1626 2778 
z
M 1158 3104 
L 1158 518 
L 5331 518 
L 5331 3104 
L 1158 3104 
z
M 3738 186 
C 4435 -45 5126 -320 5530 -525 
L 6067 -282 
C 5600 -70 4826 211 4128 429 
L 3738 186 
z
M 2227 448 
C 1766 198 998 -32 339 -173 
C 448 -256 621 -435 698 -531 
C 1338 -358 2150 -58 2669 250 
L 2227 448 
z
M 3149 5376 
C 2976 4998 2656 4557 2176 4224 
C 2291 4179 2451 4077 2541 3987 
C 2765 4160 2950 4346 3110 4544 
L 3795 4544 
C 3642 3962 3251 3635 2202 3456 
C 2278 3373 2387 3206 2432 3110 
C 3347 3290 3821 3590 4064 4070 
C 4307 3603 4774 3187 5875 2995 
C 5920 3117 6035 3296 6125 3392 
C 4806 3584 4435 4045 4294 4544 
L 5325 4544 
C 5210 4358 5069 4179 4941 4051 
L 5325 3917 
C 5549 4134 5792 4499 5971 4832 
L 5645 4928 
L 5568 4909 
L 3366 4909 
C 3443 5043 3514 5178 3578 5312 
L 3149 5376 
z
" transform="scale(0.015625)"/>
      <path id="NotoSansCJKjp-Regular-6599" d="M 346 4877 
C 512 4429 666 3840 691 3456 
L 1075 3552 
C 1030 3936 883 4525 698 4973 
L 346 4877 
z
M 2413 4992 
C 2323 4557 2138 3923 1990 3539 
L 2304 3437 
C 2470 3802 2675 4403 2835 4883 
L 2413 4992 
z
M 3302 4589 
C 3674 4365 4115 4013 4314 3770 
L 4570 4134 
C 4358 4378 3917 4704 3546 4922 
L 3302 4589 
z
M 2976 2976 
C 3354 2771 3821 2438 4045 2208 
L 4282 2592 
C 4058 2822 3584 3123 3200 3315 
L 2976 2976 
z
M 301 3226 
L 301 2778 
L 1203 2778 
C 973 2067 570 1222 198 774 
C 282 653 397 448 448 307 
C 762 736 1088 1440 1331 2131 
L 1331 -506 
L 1779 -506 
L 1779 2138 
C 2016 1766 2310 1280 2426 1037 
L 2746 1414 
C 2605 1626 1965 2483 1779 2688 
L 1779 2778 
L 2829 2778 
L 2829 3226 
L 1779 3226 
L 1779 5357 
L 1331 5357 
L 1331 3226 
L 301 3226 
z
M 2816 1299 
L 2899 858 
L 4896 1222 
L 4896 -506 
L 5357 -506 
L 5357 1306 
L 6182 1453 
L 6106 1894 
L 5357 1760 
L 5357 5376 
L 4896 5376 
L 4896 1677 
L 2816 1299 
z
" transform="scale(0.015625)"/>
      <path id="NotoSansCJKjp-Regular-ff0c" d="M 1005 -685 
C 1677 -448 2112 77 2112 768 
C 2112 1216 1920 1504 1568 1504 
C 1306 1504 1082 1344 1082 1043 
C 1082 742 1299 589 1562 589 
L 1670 602 
C 1638 160 1357 -141 864 -346 
L 1005 -685 
z
" transform="scale(0.015625)"/>
      <path id="NotoSansCJKjp-Regular-5df2" d="M 595 4979 
L 595 4499 
L 4781 4499 
L 4781 2816 
L 1421 2816 
L 1421 3872 
L 934 3872 
L 934 653 
C 934 -141 1261 -333 2298 -333 
C 2541 -333 4448 -333 4704 -333 
C 5760 -333 5971 19 6093 1197 
C 5952 1222 5734 1306 5606 1395 
C 5517 365 5408 141 4710 141 
C 4275 141 2611 141 2272 141 
C 1568 141 1421 237 1421 646 
L 1421 2342 
L 4781 2342 
L 4781 2022 
L 5280 2022 
L 5280 4979 
L 595 4979 
z
" transform="scale(0.015625)"/>
      <path id="NotoSansCJKjp-Regular-4fdd" d="M 2893 4646 
L 5274 4646 
L 5274 3469 
L 2893 3469 
L 2893 4646 
z
M 2432 5075 
L 2432 3034 
L 3827 3034 
L 3827 2240 
L 1958 2240 
L 1958 1798 
L 3546 1798 
C 3110 1120 2432 474 1773 147 
C 1882 58 2029 -115 2106 -230 
C 2733 134 3379 774 3827 1485 
L 3827 -512 
L 4307 -512 
L 4307 1504 
C 4736 800 5350 128 5939 -243 
C 6022 -122 6170 45 6278 141 
C 5658 474 5005 1120 4595 1798 
L 6106 1798 
L 6106 2240 
L 4307 2240 
L 4307 3034 
L 5754 3034 
L 5754 5075 
L 2432 5075 
z
M 1773 5357 
C 1402 4390 787 3437 147 2822 
C 230 2714 371 2458 416 2349 
C 653 2586 883 2867 1107 3174 
L 1107 -493 
L 1568 -493 
L 1568 3885 
C 1818 4307 2042 4762 2221 5216 
L 1773 5357 
z
" transform="scale(0.015625)"/>
      <path id="NotoSansCJKjp-Regular-7559" d="M 1568 774 
L 2957 774 
L 2957 122 
L 1568 122 
L 1568 774 
z
M 1568 1152 
L 1568 1779 
L 2957 1779 
L 2957 1152 
L 1568 1152 
z
M 4864 774 
L 4864 122 
L 3418 122 
L 3418 774 
L 4864 774 
z
M 4864 1152 
L 3418 1152 
L 3418 1779 
L 4864 1779 
L 4864 1152 
z
M 1107 2176 
L 1107 -512 
L 1568 -512 
L 1568 -275 
L 4864 -275 
L 4864 -486 
L 5344 -486 
L 5344 2176 
L 1107 2176 
z
M 3206 5024 
L 3206 4614 
L 3962 4614 
C 3872 3744 3635 3072 2784 2701 
C 2886 2624 3014 2464 3072 2355 
C 4032 2803 4307 3584 4416 4614 
L 5389 4614 
C 5344 3533 5286 3123 5184 3014 
C 5139 2957 5082 2944 4986 2950 
C 4883 2950 4627 2950 4346 2976 
C 4416 2861 4467 2688 4474 2554 
C 4762 2541 5043 2534 5197 2547 
C 5370 2566 5478 2611 5587 2733 
C 5741 2912 5798 3424 5862 4819 
C 5869 4883 5869 5024 5869 5024 
L 3206 5024 
z
M 1888 3987 
C 2054 3814 2214 3610 2362 3398 
L 1299 3136 
L 1242 4499 
C 1837 4627 2496 4806 2982 5005 
L 2643 5357 
C 2298 5184 1715 4998 1171 4864 
L 755 4986 
L 832 3021 
L 262 2893 
L 384 2432 
L 2592 3021 
C 2656 2906 2707 2797 2739 2701 
L 3162 2925 
C 3014 3296 2637 3814 2278 4186 
L 1888 3987 
z
" transform="scale(0.015625)"/>
      <path id="NotoSansCJKjp-Regular-4e0a" d="M 2733 5280 
L 2733 275 
L 326 275 
L 326 -205 
L 6080 -205 
L 6080 275 
L 3238 275 
L 3238 2822 
L 5638 2822 
L 5638 3302 
L 3238 3302 
L 3238 5280 
L 2733 5280 
z
" transform="scale(0.015625)"/>
      <path id="NotoSansCJKjp-Regular-6b21" d="M 243 806 
L 557 410 
C 986 826 1530 1382 2003 1901 
L 1734 2310 
C 1197 1741 614 1158 243 806 
z
M 448 4602 
C 858 4314 1363 3891 1606 3610 
L 1965 4006 
C 1715 4282 1197 4685 787 4947 
L 448 4602 
z
M 2854 5363 
C 2630 4339 2240 3334 1696 2707 
C 1824 2650 2054 2515 2157 2438 
C 2426 2797 2662 3245 2874 3750 
L 3654 3750 
L 3654 2931 
C 3654 2330 3322 653 1370 -115 
C 1459 -211 1606 -403 1664 -512 
C 3206 141 3795 1427 3904 2029 
C 4000 1434 4544 102 5894 -512 
C 5965 -397 6112 -198 6208 -83 
C 4461 672 4147 2368 4154 2931 
L 4154 3750 
L 5485 3750 
C 5350 3322 5152 2848 4986 2547 
C 5101 2502 5286 2400 5389 2349 
C 5626 2778 5926 3443 6099 4058 
L 5747 4250 
L 5651 4224 
L 3053 4224 
C 3168 4557 3270 4915 3354 5274 
L 2854 5363 
z
" transform="scale(0.015625)"/>
      <path id="NotoSansCJKjp-Regular-53ef" d="M 358 4922 
L 358 4442 
L 4781 4442 
L 4781 186 
C 4781 51 4736 13 4595 0 
C 4442 0 3917 -6 3405 19 
C 3482 -122 3571 -358 3603 -499 
C 4237 -499 4685 -499 4941 -416 
C 5190 -333 5280 -166 5280 179 
L 5280 4442 
L 6067 4442 
L 6067 4922 
L 358 4922 
z
M 1478 3040 
L 3162 3040 
L 3162 1568 
L 1478 1568 
L 1478 3040 
z
M 1011 3501 
L 1011 595 
L 1478 595 
L 1478 1107 
L 3635 1107 
L 3635 3501 
L 1011 3501 
z
" transform="scale(0.015625)"/>
      <path id="NotoSansCJKjp-Regular-7528" d="M 979 4928 
L 979 2605 
C 979 1702 915 570 205 -230 
C 314 -288 506 -448 576 -544 
C 1069 0 1286 736 1382 1453 
L 2989 1453 
L 2989 -454 
L 3475 -454 
L 3475 1453 
L 5203 1453 
L 5203 141 
C 5203 26 5158 -13 5030 -19 
C 4909 -26 4474 -32 4026 -13 
C 4090 -141 4166 -352 4192 -474 
C 4794 -480 5165 -474 5382 -397 
C 5600 -320 5677 -173 5677 141 
L 5677 4928 
L 979 4928 
z
M 1453 4467 
L 2989 4467 
L 2989 3437 
L 1453 3437 
L 1453 4467 
z
M 5203 4467 
L 5203 3437 
L 3475 3437 
L 3475 4467 
L 5203 4467 
z
M 1453 2982 
L 2989 2982 
L 2989 1907 
L 1427 1907 
C 1446 2150 1453 2387 1453 2605 
L 1453 2982 
z
M 5203 2982 
L 5203 1907 
L 3475 1907 
L 3475 2982 
L 5203 2982 
z
" transform="scale(0.015625)"/>
      <path id="NotoSansCJKjp-Regular-8f38" d="M 3552 3744 
L 3552 3341 
L 5325 3341 
L 5325 3744 
L 3552 3744 
z
M 4730 2714 
L 4730 461 
L 5088 461 
L 5088 2714 
L 4730 2714 
z
M 4442 4902 
C 4806 4333 5434 3699 6029 3322 
C 6093 3450 6195 3629 6285 3738 
C 5683 4064 5043 4698 4646 5350 
L 4205 5350 
C 3910 4742 3290 4045 2643 3661 
C 2720 3552 2829 3386 2886 3264 
C 3533 3680 4122 4339 4442 4902 
z
M 5594 2957 
L 5594 -38 
C 5594 -102 5568 -128 5491 -128 
C 5421 -134 5184 -134 4915 -128 
C 4973 -237 5024 -390 5043 -493 
C 5421 -493 5651 -486 5798 -429 
C 5939 -365 5984 -256 5984 -38 
L 5984 2957 
L 5594 2957 
z
M 3283 1651 
L 4013 1651 
L 4013 1114 
L 3283 1114 
L 3283 1651 
z
M 3283 1990 
L 3283 2490 
L 4013 2490 
L 4013 1990 
L 3283 1990 
z
M 2931 2854 
L 2931 -493 
L 3283 -493 
L 3283 749 
L 4013 749 
L 4013 -90 
C 4013 -141 4000 -160 3949 -160 
C 3910 -160 3782 -160 3629 -160 
C 3674 -256 3718 -416 3731 -506 
C 3962 -506 4122 -506 4230 -442 
C 4339 -378 4371 -275 4371 -96 
L 4371 2854 
L 2931 2854 
z
M 429 3776 
L 429 1549 
L 1312 1549 
L 1312 1030 
L 250 1030 
L 250 602 
L 1312 602 
L 1312 -518 
L 1734 -518 
L 1734 602 
L 2746 602 
L 2746 1030 
L 1734 1030 
L 1734 1549 
L 2630 1549 
L 2630 3776 
L 1734 3776 
L 1734 4262 
L 2765 4262 
L 2765 4691 
L 1734 4691 
L 1734 5382 
L 1306 5382 
L 1306 4691 
L 326 4691 
L 326 4262 
L 1306 4262 
L 1306 3776 
L 429 3776 
z
M 781 2496 
L 1363 2496 
L 1363 1907 
L 781 1907 
L 781 2496 
z
M 1683 2496 
L 2259 2496 
L 2259 1907 
L 1683 1907 
L 1683 2496 
z
M 781 3418 
L 1363 3418 
L 1363 2842 
L 781 2842 
L 781 3418 
z
M 1683 3418 
L 2259 3418 
L 2259 2842 
L 1683 2842 
L 1683 3418 
z
" transform="scale(0.015625)"/>
      <path id="NotoSansCJKjp-Regular-51fa" d="M 966 4768 
L 966 2560 
L 2918 2560 
L 2918 365 
L 1203 365 
L 1203 2144 
L 723 2144 
L 723 -512 
L 1203 -512 
L 1203 -109 
L 5222 -109 
L 5222 -499 
L 5715 -499 
L 5715 2144 
L 5222 2144 
L 5222 365 
L 3418 365 
L 3418 2560 
L 5459 2560 
L 5459 4768 
L 4960 4768 
L 4960 3021 
L 3418 3021 
L 3418 5344 
L 2918 5344 
L 2918 3021 
L 1446 3021 
L 1446 4768 
L 966 4768 
z
" transform="scale(0.015625)"/>
      <path id="NotoSansCJKjp-Regular-6216" d="M 4429 5062 
C 4819 4870 5293 4576 5523 4358 
L 5818 4691 
C 5581 4909 5101 5190 4710 5357 
L 4429 5062 
z
M 397 422 
L 493 -70 
C 1235 90 2285 320 3270 538 
L 3232 992 
C 2189 774 1094 550 397 422 
z
M 1248 2893 
L 2554 2893 
L 2554 1779 
L 1248 1779 
L 1248 2893 
z
M 800 3315 
L 800 1363 
L 3021 1363 
L 3021 3315 
L 800 3315 
z
M 435 4352 
L 435 3878 
L 3590 3878 
C 3667 2835 3814 1875 4045 1120 
C 3616 602 3098 179 2502 -141 
C 2611 -230 2797 -416 2874 -512 
C 3379 -211 3834 160 4230 602 
C 4518 -96 4902 -518 5395 -518 
C 5888 -518 6067 -198 6157 902 
C 6022 954 5843 1062 5734 1178 
C 5696 320 5619 -19 5440 -19 
C 5120 -19 4832 378 4602 1050 
C 5075 1683 5459 2438 5741 3302 
L 5261 3418 
C 5056 2752 4774 2157 4429 1632 
C 4269 2259 4154 3027 4096 3878 
L 5990 3878 
L 5990 4352 
L 4064 4352 
C 4051 4678 4045 5018 4045 5363 
L 3533 5363 
C 3533 5024 3546 4685 3565 4352 
L 435 4352 
z
" transform="scale(0.015625)"/>
      <path id="NotoSansCJKjp-Regular-7b49" d="M 3699 5408 
C 3514 4864 3168 4352 2771 4019 
L 2944 3910 
L 2944 3469 
L 941 3469 
L 941 3066 
L 2944 3066 
L 2944 2490 
L 307 2490 
L 307 2067 
L 4256 2067 
L 4256 1504 
L 512 1504 
L 512 1082 
L 4256 1082 
L 4256 64 
C 4256 -26 4224 -51 4109 -58 
C 3994 -64 3616 -64 3181 -51 
C 3251 -179 3334 -371 3360 -506 
C 3885 -506 4243 -499 4461 -435 
C 4678 -358 4742 -224 4742 58 
L 4742 1082 
L 5946 1082 
L 5946 1504 
L 4742 1504 
L 4742 2067 
L 6118 2067 
L 6118 2490 
L 3437 2490 
L 3437 3066 
L 5510 3066 
L 5510 3469 
L 3437 3469 
L 3437 3910 
L 3334 3910 
C 3475 4064 3610 4237 3731 4429 
L 4166 4429 
C 4358 4179 4544 3878 4621 3667 
L 5037 3846 
C 4966 4013 4832 4224 4685 4429 
L 6048 4429 
L 6048 4838 
L 3962 4838 
C 4038 4986 4102 5139 4160 5299 
L 3699 5408 
z
M 1427 806 
C 1843 531 2304 122 2515 -179 
L 2886 122 
C 2669 422 2195 819 1779 1082 
L 1427 806 
z
M 1190 5408 
C 973 4838 614 4282 211 3904 
C 326 3846 525 3712 614 3635 
C 826 3846 1030 4122 1222 4429 
L 1478 4429 
C 1600 4179 1715 3891 1754 3699 
L 2182 3859 
C 2144 4006 2054 4224 1958 4429 
L 3123 4429 
L 3123 4838 
L 1446 4838 
C 1517 4986 1587 5133 1645 5286 
L 1190 5408 
z
" transform="scale(0.015625)"/>
      <path id="NotoSansCJKjp-Regular-5f85" d="M 2656 1306 
C 2957 960 3283 480 3418 166 
L 3827 410 
C 3686 717 3347 1178 3053 1510 
L 2656 1306 
z
M 1632 5363 
C 1357 4909 781 4371 282 4045 
C 352 3949 480 3757 531 3648 
C 1094 4032 1709 4627 2080 5184 
L 1632 5363 
z
M 3878 5344 
L 3878 4544 
L 2470 4544 
L 2470 4109 
L 3878 4109 
L 3878 3296 
L 2093 3296 
L 2093 2854 
L 4781 2854 
L 4781 2138 
L 2170 2138 
L 2170 1696 
L 4781 1696 
L 4781 70 
C 4781 -13 4749 -45 4646 -45 
C 4544 -51 4186 -58 3802 -38 
C 3866 -173 3942 -371 3962 -499 
C 4461 -499 4787 -499 4992 -422 
C 5190 -346 5254 -211 5254 70 
L 5254 1696 
L 6112 1696 
L 6112 2138 
L 5254 2138 
L 5254 2854 
L 6157 2854 
L 6157 3296 
L 4358 3296 
L 4358 4109 
L 5824 4109 
L 5824 4544 
L 4358 4544 
L 4358 5344 
L 3878 5344 
z
M 1741 3949 
C 1376 3290 762 2630 186 2208 
C 269 2093 403 1843 442 1734 
C 685 1939 941 2182 1184 2445 
L 1184 -506 
L 1645 -506 
L 1645 2995 
C 1837 3251 2016 3520 2163 3782 
L 1741 3949 
z
" transform="scale(0.015625)"/>
      <path id="NotoSansCJKjp-Regular-4e0b" d="M 352 4902 
L 352 4422 
L 2822 4422 
L 2822 -506 
L 3328 -506 
L 3328 2886 
C 4064 2490 4922 1958 5370 1600 
L 5709 2035 
C 5197 2426 4179 3002 3418 3373 
L 3328 3270 
L 3328 4422 
L 6054 4422 
L 6054 4902 
L 352 4902 
z
" transform="scale(0.015625)"/>
      <path id="NotoSansCJKjp-Regular-66f4" d="M 1613 1523 
L 1203 1357 
C 1421 986 1690 691 2003 454 
C 1613 230 1062 45 301 -96 
C 403 -205 531 -410 589 -518 
C 1421 -339 2016 -102 2445 179 
C 3328 -288 4506 -435 5997 -493 
C 6022 -333 6112 -128 6202 -19 
C 4768 19 3661 115 2835 486 
C 3168 813 3341 1184 3418 1581 
L 5587 1581 
L 5587 4058 
L 3488 4058 
L 3488 4602 
L 5984 4602 
L 5984 5037 
L 416 5037 
L 416 4602 
L 2989 4602 
L 2989 4058 
L 998 4058 
L 998 1581 
L 2912 1581 
C 2835 1274 2688 986 2394 730 
C 2086 934 1824 1190 1613 1523 
z
M 1459 2630 
L 2989 2630 
L 2989 2374 
C 2989 2240 2989 2106 2976 1978 
L 1459 1978 
L 1459 2630 
z
M 3475 1978 
C 3482 2106 3488 2234 3488 2368 
L 3488 2630 
L 5107 2630 
L 5107 1978 
L 3475 1978 
z
M 1459 3654 
L 2989 3654 
L 2989 3014 
L 1459 3014 
L 1459 3654 
z
M 3488 3654 
L 5107 3654 
L 5107 3014 
L 3488 3014 
L 3488 3654 
z
" transform="scale(0.015625)"/>
      <path id="NotoSansCJKjp-Regular-65b0" d="M 774 4179 
C 902 3891 1005 3501 1024 3251 
L 1434 3360 
C 1402 3610 1293 3987 1158 4269 
L 774 4179 
z
M 2419 4282 
C 2349 4013 2208 3610 2093 3360 
L 2483 3264 
C 2598 3501 2733 3859 2854 4186 
L 2419 4282 
z
M 5670 5306 
C 5254 5094 4538 4890 3872 4749 
L 3526 4851 
L 3526 2611 
C 3526 1709 3443 602 2624 -211 
C 2733 -275 2906 -435 2970 -538 
C 3866 352 3987 1645 3987 2605 
L 3987 2765 
L 4954 2765 
L 4954 -480 
L 5414 -480 
L 5414 2765 
L 6144 2765 
L 6144 3213 
L 3987 3213 
L 3987 4365 
C 4704 4506 5510 4704 6061 4954 
L 5670 5306 
z
M 1581 5350 
L 1581 4704 
L 390 4704 
L 390 4301 
L 3219 4301 
L 3219 4704 
L 2048 4704 
L 2048 5350 
L 1581 5350 
z
M 301 3245 
L 301 2835 
L 1581 2835 
L 1581 2170 
L 320 2170 
L 320 1747 
L 1472 1747 
C 1152 1184 640 595 179 301 
C 282 224 422 64 506 -45 
C 870 243 1267 698 1581 1197 
L 1581 -499 
L 2048 -499 
L 2048 1139 
C 2317 896 2637 576 2778 416 
L 3066 774 
C 2912 909 2291 1421 2048 1594 
L 2048 1747 
L 3245 1747 
L 3245 2170 
L 2048 2170 
L 2048 2835 
L 3296 2835 
L 3296 3245 
L 301 3245 
z
" transform="scale(0.015625)"/>
      <path id="NotoSansCJKjp-Regular-3002" d="M 1242 1562 
C 710 1562 269 1126 269 589 
C 269 45 710 -390 1242 -390 
C 1786 -390 2221 45 2221 589 
C 2221 1126 1786 1562 1242 1562 
z
M 1242 -64 
C 890 -64 595 224 595 589 
C 595 941 890 1235 1242 1235 
C 1606 1235 1894 941 1894 589 
C 1894 224 1606 -64 1242 -64 
z
" transform="scale(0.015625)"/>
     </defs>
     <use xlink:href="#NotoSansCJKjp-Regular-76ee"/>
     <use xlink:href="#NotoSansCJKjp-Regular-524d" transform="translate(99.999985 0)"/>
     <use xlink:href="#NotoSansCJKjp-Regular-7121" transform="translate(199.999969 0)"/>
     <use xlink:href="#NotoSansCJKjp-Regular-6cd5" transform="translate(299.999954 0)"/>
     <use xlink:href="#NotoSansCJKjp-Regular-53d6" transform="translate(399.999939 0)"/>
     <use xlink:href="#NotoSansCJKjp-Regular-5f97" transform="translate(499.999924 0)"/>
     <use xlink:href="#NotoSansCJKjp-Regular-8cc7" transform="translate(599.999908 0)"/>
     <use xlink:href="#NotoSansCJKjp-Regular-6599" transform="translate(699.999893 0)"/>
     <use xlink:href="#NotoSansCJKjp-Regular-ff0c" transform="translate(799.999878 0)"/>
     <use xlink:href="#NotoSansCJKjp-Regular-5df2" transform="translate(899.999863 0)"/>
     <use xlink:href="#NotoSansCJKjp-Regular-4fdd" transform="translate(999.999847 0)"/>
     <use xlink:href="#NotoSansCJKjp-Regular-7559" transform="translate(1099.999832 0)"/>
     <use xlink:href="#NotoSansCJKjp-Regular-4e0a" transform="translate(1199.999817 0)"/>
     <use xlink:href="#NotoSansCJKjp-Regular-6b21" transform="translate(1299.999802 0)"/>
     <use xlink:href="#NotoSansCJKjp-Regular-53ef" transform="translate(1399.999786 0)"/>
     <use xlink:href="#NotoSansCJKjp-Regular-7528" transform="translate(1499.999771 0)"/>
     <use xlink:href="#NotoSansCJKjp-Regular-8f38" transform="translate(1599.999756 0)"/>
     <use xlink:href="#NotoSansCJKjp-Regular-51fa" transform="translate(1699.999741 0)"/>
     <use xlink:href="#NotoSansCJKjp-Regular-6216" transform="translate(1799.999725 0)"/>
     <use xlink:href="#NotoSansCJKjp-Regular-7b49" transform="translate(1899.99971 0)"/>
     <use xlink:href="#NotoSansCJKjp-Regular-5f85" transform="translate(1999.999695 0)"/>
     <use xlink:href="#NotoSansCJKjp-Regular-4e0b" transform="translate(2099.99968 0)"/>
     <use xlink:href="#NotoSansCJKjp-Regular-6b21" transform="translate(2199.999664 0)"/>
     <use xlink:href="#NotoSansCJKjp-Regular-66f4" transform="translate(2299.999649 0)"/>
     <use xlink:href="#NotoSansCJKjp-Regular-65b0" transform="translate(2399.999634 0)"/>
     <use xlink:href="#NotoSansCJKjp-Regular-3002" transform="translate(2499.999619 0)"/>
    </g>
   </g>
   <g id="text_3">
    <!-- 錯誤訊息: 找不到「全台建物買賣移轉棟數」CSV 下載連結。 -->
    <g style="fill: #666666" transform="translate(286.0575 284.781813) scale(0.11 -0.11)">
     <defs>
      <path id="NotoSansCJKjp-Regular-932f" d="M 480 1830 
C 614 1446 717 960 736 634 
L 1101 730 
C 1069 1050 954 1536 819 1914 
L 480 1830 
z
M 2304 1990 
C 2246 1638 2112 1120 2010 800 
L 2310 698 
C 2432 998 2566 1478 2694 1882 
L 2304 1990 
z
M 4858 5376 
L 4858 4582 
L 4006 4582 
L 4006 5376 
L 3565 5376 
L 3565 4582 
L 2957 4582 
L 2957 4160 
L 3565 4160 
L 3565 3213 
L 2714 3213 
L 2714 2790 
L 6150 2790 
L 6150 3213 
L 5306 3213 
L 5306 4160 
L 6010 4160 
L 6010 4582 
L 5306 4582 
L 5306 5376 
L 4858 5376 
z
M 4006 4160 
L 4858 4160 
L 4858 3213 
L 4006 3213 
L 4006 4160 
z
M 3648 832 
L 5312 832 
L 5312 186 
L 3648 186 
L 3648 832 
z
M 3648 1210 
L 3648 1830 
L 5312 1830 
L 5312 1210 
L 3648 1210 
z
M 3206 2227 
L 3206 -512 
L 3648 -512 
L 3648 -224 
L 5312 -224 
L 5312 -499 
L 5773 -499 
L 5773 2227 
L 3206 2227 
z
M 1338 5376 
C 1120 4864 730 4211 160 3725 
C 256 3661 397 3514 467 3411 
L 672 3610 
L 672 3379 
L 1370 3379 
L 1370 2701 
L 346 2701 
L 346 2278 
L 1370 2278 
L 1370 314 
L 275 115 
L 390 -320 
C 1062 -192 1984 0 2854 179 
L 2829 589 
L 1798 397 
L 1798 2278 
L 2733 2278 
L 2733 2701 
L 1798 2701 
L 1798 3379 
L 2534 3379 
L 2534 3795 
L 845 3795 
C 1184 4179 1440 4582 1626 4928 
C 1990 4589 2394 4102 2598 3789 
L 2925 4154 
C 2682 4499 2176 5011 1766 5376 
L 1338 5376 
z
" transform="scale(0.015625)"/>
      <path id="NotoSansCJKjp-Regular-8aa4" d="M 4147 4781 
L 5382 4781 
L 5382 3706 
L 4147 3706 
L 4147 4781 
z
M 3725 5190 
L 3725 3296 
L 5830 3296 
L 5830 5190 
L 3725 5190 
z
M 4685 774 
C 5094 384 5568 -166 5766 -518 
L 6195 -269 
C 5971 83 5485 614 5082 992 
L 4685 774 
z
M 3546 1018 
C 3296 608 2790 96 2330 -205 
C 2445 -282 2605 -422 2682 -518 
C 3149 -198 3674 326 3994 787 
L 3546 1018 
z
M 518 3437 
L 518 3059 
L 2246 3059 
L 2246 3437 
L 518 3437 
z
M 557 5152 
L 557 4768 
L 2227 4768 
L 2227 5152 
L 557 5152 
z
M 518 2586 
L 518 2202 
L 2246 2202 
L 2246 2586 
L 518 2586 
z
M 243 4314 
L 243 3910 
L 2438 3910 
L 2438 4314 
L 243 4314 
z
M 2784 4685 
L 2784 2048 
L 3226 2048 
L 3226 2368 
L 5165 2368 
L 5165 1574 
L 2496 1574 
L 2496 1139 
L 6170 1139 
L 6170 1574 
L 5632 1574 
L 5632 2797 
L 3226 2797 
L 3226 4685 
L 2784 4685 
z
M 512 1722 
L 512 -442 
L 922 -442 
L 922 -141 
L 2253 -141 
L 2253 1722 
L 512 1722 
z
M 922 1325 
L 1843 1325 
L 1843 256 
L 922 256 
L 922 1325 
z
" transform="scale(0.015625)"/>
      <path id="NotoSansCJKjp-Regular-8a0a" d="M 544 3437 
L 544 3059 
L 2419 3059 
L 2419 3437 
L 544 3437 
z
M 570 5152 
L 570 4768 
L 2394 4768 
L 2394 5152 
L 570 5152 
z
M 544 2586 
L 544 2202 
L 2419 2202 
L 2419 2586 
L 544 2586 
z
M 243 4314 
L 243 3910 
L 2630 3910 
L 2630 4314 
L 243 4314 
z
M 2650 2867 
L 2650 2413 
L 3494 2413 
C 3418 1517 3181 582 2400 -198 
C 2515 -269 2675 -422 2752 -525 
C 3629 333 3885 1395 3955 2413 
L 4794 2413 
L 4794 2867 
L 3974 2867 
L 3981 3238 
L 3981 4595 
L 5011 4595 
C 5005 1856 4992 -256 5702 -480 
C 6035 -608 6246 -384 6317 672 
C 6240 736 6106 902 6022 1018 
C 6003 480 5946 0 5894 13 
C 5453 122 5466 2330 5498 5050 
L 2714 5050 
L 2714 4595 
L 3520 4595 
L 3520 3245 
L 3514 2867 
L 2650 2867 
z
M 538 1722 
L 538 -442 
L 960 -442 
L 960 -147 
L 2426 -147 
L 2426 1722 
L 538 1722 
z
M 960 1318 
L 2003 1318 
L 2003 250 
L 960 250 
L 960 1318 
z
" transform="scale(0.015625)"/>
      <path id="NotoSansCJKjp-Regular-606f" d="M 1914 1210 
L 1914 154 
C 1914 -346 2086 -474 2758 -474 
C 2899 -474 3859 -474 4013 -474 
C 4538 -474 4685 -301 4749 403 
C 4621 435 4416 506 4314 576 
C 4282 38 4237 -38 3968 -38 
C 3757 -38 2950 -38 2790 -38 
C 2445 -38 2387 -6 2387 154 
L 2387 1210 
L 1914 1210 
z
M 2573 1440 
C 2950 1178 3360 787 3546 506 
L 3917 781 
C 3725 1069 3302 1440 2925 1683 
L 2573 1440 
z
M 4640 1088 
C 5107 678 5594 102 5786 -301 
L 6202 -32 
C 5990 384 5491 941 5024 1331 
L 4640 1088 
z
M 1043 1261 
C 902 794 634 282 237 -19 
L 634 -301 
C 1050 51 1299 608 1466 1107 
L 1043 1261 
z
M 1741 3578 
L 4730 3578 
L 4730 3046 
L 1741 3046 
L 1741 3578 
z
M 1741 2675 
L 4730 2675 
L 4730 2150 
L 1741 2150 
L 1741 2675 
z
M 1741 4467 
L 4730 4467 
L 4730 3949 
L 1741 3949 
L 1741 4467 
z
M 2976 5440 
C 2931 5274 2848 5043 2771 4851 
L 1274 4851 
L 1274 1760 
L 5216 1760 
L 5216 4851 
L 3277 4851 
L 3539 5344 
L 2976 5440 
z
" transform="scale(0.015625)"/>
      <path id="NotoSansCJKjp-Regular-3a" d="M 890 2496 
C 1120 2496 1312 2675 1312 2944 
C 1312 3206 1120 3392 890 3392 
C 653 3392 467 3206 467 2944 
C 467 2675 653 2496 890 2496 
z
M 890 -83 
C 1120 -83 1312 96 1312 358 
C 1312 627 1120 806 890 806 
C 653 806 467 627 467 358 
C 467 96 653 -83 890 -83 
z
" transform="scale(0.015625)"/>
      <path id="NotoSansCJKjp-Regular-20" transform="scale(0.015625)"/>
      <path id="NotoSansCJKjp-Regular-627e" d="M 4326 4979 
C 4640 4704 5018 4294 5190 4026 
L 5574 4307 
C 5395 4570 5005 4954 4691 5222 
L 4326 4979 
z
M 1210 5376 
L 1210 4083 
L 294 4083 
L 294 3635 
L 1210 3635 
L 1210 2253 
C 838 2150 493 2061 218 1990 
L 358 1523 
L 1210 1773 
L 1210 96 
C 1210 6 1178 -19 1088 -26 
C 1005 -26 723 -32 429 -19 
C 486 -141 550 -339 570 -461 
C 1011 -461 1280 -454 1446 -378 
C 1613 -301 1677 -173 1677 96 
L 1677 1914 
L 2528 2170 
L 2470 2611 
L 1677 2381 
L 1677 3635 
L 2458 3635 
L 2458 4083 
L 1677 4083 
L 1677 5376 
L 1210 5376 
z
M 5306 2976 
C 5088 2490 4774 2010 4390 1574 
C 4250 2048 4134 2624 4051 3264 
L 6022 3475 
L 5971 3923 
L 4000 3718 
C 3942 4230 3904 4781 3885 5357 
L 3398 5357 
C 3424 4762 3469 4198 3520 3667 
L 2534 3565 
L 2586 3110 
L 3571 3213 
C 3667 2426 3808 1734 3994 1165 
C 3507 698 2938 320 2349 83 
C 2477 -13 2637 -160 2720 -288 
C 3232 -58 3731 282 4179 685 
C 4493 -13 4915 -435 5491 -480 
C 5818 -506 6074 -179 6214 864 
C 6112 902 5907 1024 5805 1126 
C 5747 416 5645 70 5472 83 
C 5107 122 4800 480 4563 1069 
C 5037 1574 5434 2150 5702 2739 
L 5306 2976 
z
" transform="scale(0.015625)"/>
      <path id="NotoSansCJKjp-Regular-4e0d" d="M 3578 3059 
C 4339 2547 5299 1792 5754 1299 
L 6144 1670 
C 5664 2163 4691 2880 3936 3366 
L 3578 3059 
z
M 442 4928 
L 442 4435 
L 3290 4435 
C 2656 3341 1555 2259 282 1632 
C 384 1523 531 1331 608 1210 
C 1498 1677 2291 2336 2938 3078 
L 2938 -499 
L 3456 -499 
L 3456 3738 
C 3622 3962 3770 4198 3904 4435 
L 5958 4435 
L 5958 4928 
L 442 4928 
z
" transform="scale(0.015625)"/>
      <path id="NotoSansCJKjp-Regular-5230" d="M 3885 4608 
L 3885 1056 
L 4352 1056 
L 4352 4608 
L 3885 4608 
z
M 5402 5197 
L 5402 134 
C 5402 19 5370 -13 5254 -19 
C 5126 -19 4723 -26 4294 -13 
C 4371 -154 4442 -378 4467 -512 
C 4986 -512 5370 -499 5587 -422 
C 5792 -346 5869 -198 5869 134 
L 5869 5197 
L 5402 5197 
z
M 2349 3994 
C 2522 3795 2701 3565 2861 3334 
L 1382 3264 
C 1562 3648 1747 4115 1914 4518 
L 3610 4518 
L 3610 4960 
L 326 4960 
L 326 4518 
L 1370 4518 
C 1248 4115 1069 3622 896 3245 
L 307 3219 
L 346 2765 
L 3136 2925 
C 3226 2778 3296 2643 3354 2528 
L 3731 2758 
C 3546 3149 3098 3750 2714 4192 
L 2349 3994 
z
M 256 160 
L 326 -320 
C 1184 -205 2445 -19 3635 147 
L 3622 595 
L 2208 410 
L 2208 1472 
L 3424 1472 
L 3424 1907 
L 2208 1907 
L 2208 2675 
L 1734 2675 
L 1734 1907 
L 512 1907 
L 512 1472 
L 1734 1472 
L 1734 346 
L 256 160 
z
" transform="scale(0.015625)"/>
      <path id="NotoSansCJKjp-Regular-300c" d="M 4160 5414 
L 4160 1274 
L 4634 1274 
L 4634 4973 
L 6182 4973 
L 6182 5414 
L 4160 5414 
z
" transform="scale(0.015625)"/>
      <path id="NotoSansCJKjp-Regular-5168" d="M 3174 4909 
C 3750 4102 4877 3155 5862 2579 
C 5952 2720 6067 2880 6182 3002 
C 5184 3501 4064 4442 3392 5389 
L 2906 5389 
C 2413 4550 1344 3533 237 2925 
C 346 2829 480 2656 544 2547 
C 1619 3174 2656 4128 3174 4909 
z
M 486 102 
L 486 -333 
L 5946 -333 
L 5946 102 
L 3430 102 
L 3430 1158 
L 5376 1158 
L 5376 1587 
L 3430 1587 
L 3430 2586 
L 5133 2586 
L 5133 3014 
L 1299 3014 
L 1299 2586 
L 2931 2586 
L 2931 1587 
L 1011 1587 
L 1011 1158 
L 2931 1158 
L 2931 102 
L 486 102 
z
" transform="scale(0.015625)"/>
      <path id="NotoSansCJKjp-Regular-53f0" d="M 1158 2221 
L 1158 -512 
L 1651 -512 
L 1651 -224 
L 4730 -224 
L 4730 -499 
L 5242 -499 
L 5242 2221 
L 1158 2221 
z
M 1651 237 
L 1651 1760 
L 4730 1760 
L 4730 237 
L 1651 237 
z
M 403 3411 
L 442 2925 
C 1626 2970 3475 3046 5229 3142 
C 5421 2918 5581 2707 5690 2522 
L 6106 2842 
C 5773 3373 5018 4122 4365 4640 
L 3987 4365 
C 4262 4134 4557 3859 4826 3584 
L 1939 3462 
C 2291 3994 2682 4646 2976 5216 
L 2445 5402 
C 2195 4800 1760 4013 1370 3443 
L 403 3411 
z
" transform="scale(0.015625)"/>
      <path id="NotoSansCJKjp-Regular-5efa" d="M 2470 4864 
L 2470 4480 
L 3776 4480 
L 3776 4026 
L 2010 4026 
L 2010 3635 
L 3776 3635 
L 3776 3162 
L 2426 3162 
L 2426 2771 
L 3776 2771 
L 3776 2298 
L 2381 2298 
L 2381 1926 
L 3776 1926 
L 3776 1421 
L 2099 1421 
L 2099 1024 
L 3776 1024 
L 3776 346 
L 4243 346 
L 4243 1024 
L 6010 1024 
L 6010 1421 
L 4243 1421 
L 4243 1926 
L 5728 1926 
L 5728 2298 
L 4243 2298 
L 4243 2771 
L 5664 2771 
L 5664 3635 
L 6150 3635 
L 6150 4026 
L 5664 4026 
L 5664 4864 
L 4243 4864 
L 4243 5325 
L 3776 5325 
L 3776 4864 
L 2470 4864 
z
M 4243 3635 
L 5197 3635 
L 5197 3162 
L 4243 3162 
L 4243 3635 
z
M 4243 4026 
L 4243 4480 
L 5197 4480 
L 5197 4026 
L 4243 4026 
z
M 870 2202 
L 486 2061 
C 646 1536 851 1120 1094 800 
C 858 371 570 45 218 -192 
C 320 -256 506 -429 576 -525 
C 902 -288 1184 26 1421 435 
C 2099 -186 3021 -339 4192 -339 
L 5997 -339 
C 6022 -205 6112 19 6189 128 
C 5850 115 4467 115 4198 115 
C 3136 122 2253 256 1632 851 
C 1888 1440 2067 2176 2163 3091 
L 1882 3155 
L 1798 3149 
L 1133 3149 
C 1434 3757 1741 4410 1946 4896 
L 1619 4992 
L 1542 4973 
L 262 4973 
L 262 4538 
L 1312 4538 
C 1050 3974 672 3187 346 2586 
L 787 2464 
L 915 2714 
L 1664 2714 
C 1587 2144 1466 1658 1299 1242 
C 1126 1504 986 1818 870 2202 
z
" transform="scale(0.015625)"/>
      <path id="NotoSansCJKjp-Regular-7269" d="M 3418 5376 
C 3206 4403 2822 3488 2285 2906 
C 2394 2842 2579 2707 2656 2630 
C 2938 2957 3181 3379 3392 3853 
L 3942 3853 
C 3648 2822 3078 1747 2400 1210 
C 2528 1139 2682 1024 2778 928 
C 3482 1542 4064 2746 4358 3853 
L 4883 3853 
C 4550 2234 3859 640 2803 -115 
C 2938 -179 3110 -307 3206 -403 
C 4269 442 4979 2163 5306 3853 
L 5606 3853 
C 5478 1299 5338 346 5133 115 
C 5062 32 4998 13 4890 13 
C 4768 13 4512 19 4224 45 
C 4301 -90 4346 -294 4358 -435 
C 4640 -454 4915 -454 5088 -435 
C 5280 -410 5408 -358 5536 -179 
C 5792 134 5933 1139 6074 4058 
C 6080 4122 6086 4301 6086 4301 
L 3571 4301 
C 3680 4614 3782 4954 3859 5293 
L 3418 5376 
z
M 627 5005 
C 550 4218 422 3405 186 2867 
C 288 2822 474 2707 550 2650 
C 659 2912 755 3245 832 3603 
L 1421 3603 
L 1421 2157 
C 973 2029 550 1907 224 1824 
L 352 1363 
L 1421 1696 
L 1421 -512 
L 1869 -512 
L 1869 1837 
L 2675 2093 
L 2611 2515 
L 1869 2291 
L 1869 3603 
L 2528 3603 
L 2528 4064 
L 1869 4064 
L 1869 5370 
L 1421 5370 
L 1421 4064 
L 922 4064 
C 966 4352 1011 4646 1043 4941 
L 627 5005 
z
" transform="scale(0.015625)"/>
      <path id="NotoSansCJKjp-Regular-8cb7" d="M 4134 4698 
L 5242 4698 
L 5242 4032 
L 4134 4032 
L 4134 4698 
z
M 2650 4698 
L 3725 4698 
L 3725 4032 
L 2650 4032 
L 2650 4698 
z
M 1190 4698 
L 2234 4698 
L 2234 4032 
L 1190 4032 
L 1190 4698 
z
M 742 5075 
L 742 3654 
L 5702 3654 
L 5702 5075 
L 742 5075 
z
M 1600 2150 
L 4845 2150 
L 4845 1670 
L 1600 1670 
L 1600 2150 
z
M 1600 1350 
L 4845 1350 
L 4845 858 
L 1600 858 
L 1600 1350 
z
M 1600 2944 
L 4845 2944 
L 4845 2470 
L 1600 2470 
L 1600 2944 
z
M 1120 3283 
L 1120 525 
L 5338 525 
L 5338 3283 
L 1120 3283 
z
M 3738 192 
C 4461 -32 5184 -320 5613 -525 
L 6112 -262 
C 5632 -45 4838 237 4109 454 
L 3738 192 
z
M 2227 467 
C 1760 211 986 -32 320 -166 
C 429 -256 602 -435 672 -531 
C 1318 -352 2144 -51 2669 262 
L 2227 467 
z
" transform="scale(0.015625)"/>
      <path id="NotoSansCJKjp-Regular-8ce3" d="M 4128 3501 
L 5229 3501 
L 5229 3072 
L 4128 3072 
L 4128 3501 
z
M 2650 3501 
L 3731 3501 
L 3731 3072 
L 2650 3072 
L 2650 3501 
z
M 1210 3501 
L 2253 3501 
L 2253 3072 
L 1210 3072 
L 1210 3501 
z
M 781 3808 
L 781 2771 
L 5677 2771 
L 5677 3808 
L 781 3808 
z
M 1632 1594 
L 4845 1594 
L 4845 1242 
L 1632 1242 
L 1632 1594 
z
M 1632 960 
L 4845 960 
L 4845 602 
L 1632 602 
L 1632 960 
z
M 1632 2214 
L 4845 2214 
L 4845 1875 
L 1632 1875 
L 1632 2214 
z
M 1165 2509 
L 1165 307 
L 5331 307 
L 5331 2509 
L 1165 2509 
z
M 3718 -26 
C 4454 -186 5158 -384 5562 -538 
L 6112 -301 
C 5638 -141 4845 64 4128 218 
L 3718 -26 
z
M 2266 237 
C 1779 58 992 -96 314 -179 
C 422 -262 582 -429 659 -518 
C 1306 -403 2138 -186 2675 38 
L 2266 237 
z
M 2944 5376 
L 2944 5043 
L 461 5043 
L 461 4698 
L 2944 4698 
L 2944 4390 
L 902 4390 
L 902 4070 
L 5568 4070 
L 5568 4390 
L 3424 4390 
L 3424 4698 
L 5939 4698 
L 5939 5043 
L 3424 5043 
L 3424 5376 
L 2944 5376 
z
" transform="scale(0.015625)"/>
      <path id="NotoSansCJKjp-Regular-79fb" d="M 3910 4416 
L 5197 4416 
C 5024 4083 4774 3795 4486 3546 
C 4275 3750 3949 3994 3654 4179 
L 3910 4416 
z
M 4109 5376 
C 3827 4883 3277 4307 2477 3910 
C 2573 3834 2720 3680 2784 3578 
C 2982 3686 3168 3808 3341 3930 
C 3629 3750 3949 3494 4154 3290 
C 3686 2970 3136 2739 2586 2605 
C 2675 2515 2790 2336 2835 2221 
C 4122 2586 5325 3347 5824 4691 
L 5523 4838 
L 5434 4819 
L 4269 4819 
C 4390 4973 4499 5126 4589 5286 
L 4109 5376 
z
M 4211 1952 
L 5536 1952 
C 5350 1555 5088 1222 4768 941 
C 4531 1165 4166 1427 3840 1626 
C 3974 1728 4096 1837 4211 1952 
z
M 4454 2963 
C 4141 2400 3501 1760 2560 1325 
C 2656 1254 2797 1094 2861 992 
C 3085 1107 3296 1229 3488 1363 
C 3821 1165 4173 890 4410 659 
C 3846 282 3168 32 2451 -102 
C 2541 -205 2650 -397 2694 -512 
C 4243 -166 5613 621 6157 2246 
L 5850 2381 
L 5760 2362 
L 4576 2362 
C 4717 2534 4832 2707 4934 2880 
L 4454 2963 
z
M 2310 5286 
C 1837 5069 992 4883 275 4762 
C 333 4659 397 4499 416 4397 
C 717 4435 1037 4493 1357 4557 
L 1357 3571 
L 314 3571 
L 314 3123 
L 1293 3123 
C 1037 2387 595 1555 179 1101 
C 262 986 378 794 429 659 
C 755 1056 1094 1690 1357 2336 
L 1357 -499 
L 1830 -499 
L 1830 2259 
C 2048 1990 2304 1645 2413 1466 
L 2701 1843 
C 2573 1990 2016 2566 1830 2726 
L 1830 3123 
L 2630 3123 
L 2630 3571 
L 1830 3571 
L 1830 4666 
C 2131 4736 2413 4819 2643 4915 
L 2310 5286 
z
" transform="scale(0.015625)"/>
      <path id="NotoSansCJKjp-Regular-8f49" d="M 3258 691 
C 3501 461 3750 134 3859 -90 
L 4218 141 
C 4096 358 3834 666 3584 883 
L 3258 691 
z
M 2880 2061 
L 2912 1696 
C 3629 1709 4659 1728 5670 1760 
C 5741 1664 5798 1574 5843 1498 
L 6189 1696 
C 6042 1926 5754 2253 5466 2502 
L 5926 2502 
L 5926 4179 
L 4691 4179 
L 4691 4525 
L 6074 4525 
L 6074 4902 
L 4691 4902 
L 4691 5370 
L 4269 5370 
L 4269 4902 
L 2944 4902 
L 2944 4525 
L 4269 4525 
L 4269 4179 
L 3098 4179 
L 3098 2502 
L 4269 2502 
L 4269 2080 
L 2880 2061 
z
M 474 3782 
L 474 1555 
L 1382 1555 
L 1382 1030 
L 243 1030 
L 243 608 
L 1382 608 
L 1382 -518 
L 1818 -518 
L 1818 608 
L 2906 608 
L 2906 941 
L 4922 941 
L 4922 -32 
C 4922 -102 4896 -128 4806 -134 
C 4723 -141 4429 -141 4109 -128 
C 4166 -243 4230 -403 4250 -525 
C 4678 -525 4954 -525 5139 -454 
C 5325 -397 5363 -282 5363 -45 
L 5363 941 
L 6150 941 
L 6150 1318 
L 5363 1318 
L 5363 1664 
L 4922 1664 
L 4922 1318 
L 2874 1318 
L 2874 1030 
L 1818 1030 
L 1818 1555 
L 2746 1555 
L 2746 3782 
L 1818 3782 
L 1818 4256 
L 2816 4256 
L 2816 4678 
L 1818 4678 
L 1818 5376 
L 1382 5376 
L 1382 4678 
L 333 4678 
L 333 4256 
L 1382 4256 
L 1382 3782 
L 474 3782 
z
M 3494 3200 
L 4269 3200 
L 4269 2803 
L 3494 2803 
L 3494 3200 
z
M 4691 3200 
L 5510 3200 
L 5510 2803 
L 4691 2803 
L 4691 3200 
z
M 3494 3878 
L 4269 3878 
L 4269 3488 
L 3494 3488 
L 3494 3878 
z
M 4691 3878 
L 5510 3878 
L 5510 3488 
L 4691 3488 
L 4691 3878 
z
M 5094 2381 
C 5184 2298 5280 2202 5376 2106 
L 4691 2086 
L 4691 2502 
L 5331 2502 
L 5094 2381 
z
M 838 2502 
L 1427 2502 
L 1427 1914 
L 838 1914 
L 838 2502 
z
M 1773 2502 
L 2374 2502 
L 2374 1914 
L 1773 1914 
L 1773 2502 
z
M 838 3424 
L 1427 3424 
L 1427 2848 
L 838 2848 
L 838 3424 
z
M 1773 3424 
L 2374 3424 
L 2374 2848 
L 1773 2848 
L 1773 3424 
z
" transform="scale(0.015625)"/>
      <path id="NotoSansCJKjp-Regular-68df" d="M 2726 3718 
L 2726 1536 
L 3795 1536 
C 3398 954 2739 397 2131 109 
C 2234 19 2381 -147 2458 -262 
C 3021 45 3629 595 4045 1197 
L 4045 -512 
L 4512 -512 
L 4512 1274 
C 4896 704 5459 122 5907 -205 
C 5984 -90 6138 77 6246 166 
C 5760 454 5158 1011 4774 1536 
L 5875 1536 
L 5875 3718 
L 4512 3718 
L 4512 4237 
L 6048 4237 
L 6048 4653 
L 4512 4653 
L 4512 5370 
L 4045 5370 
L 4045 4653 
L 2515 4653 
L 2515 4237 
L 4045 4237 
L 4045 3718 
L 2726 3718 
z
M 3162 2458 
L 4045 2458 
L 4045 1907 
L 3162 1907 
L 3162 2458 
z
M 4512 2458 
L 5421 2458 
L 5421 1907 
L 4512 1907 
L 4512 2458 
z
M 3162 3354 
L 4045 3354 
L 4045 2803 
L 3162 2803 
L 3162 3354 
z
M 4512 3354 
L 5421 3354 
L 5421 2803 
L 4512 2803 
L 4512 3354 
z
M 1254 5376 
L 1254 4006 
L 333 4006 
L 333 3552 
L 1203 3552 
C 1005 2675 595 1664 186 1120 
C 269 1011 384 826 435 698 
C 742 1114 1030 1798 1254 2502 
L 1254 -506 
L 1702 -506 
L 1702 2496 
C 1914 2157 2163 1741 2272 1517 
L 2541 1888 
C 2426 2074 1888 2842 1702 3066 
L 1702 3552 
L 2490 3552 
L 2490 4006 
L 1702 4006 
L 1702 5376 
L 1254 5376 
z
" transform="scale(0.015625)"/>
      <path id="NotoSansCJKjp-Regular-6578" d="M 4352 3744 
L 5318 3744 
C 5216 2957 5062 2266 4826 1677 
C 4595 2266 4442 2944 4333 3661 
L 4352 3744 
z
M 256 4301 
L 256 3936 
L 698 3936 
L 698 3245 
L 1741 3245 
L 1741 2950 
L 538 2950 
L 538 1882 
L 1485 1882 
L 1274 1478 
L 262 1472 
L 275 1088 
L 1069 1094 
C 928 845 787 608 666 422 
L 1062 307 
L 1171 486 
C 1389 403 1606 314 1818 218 
C 1459 32 998 -83 416 -154 
C 493 -256 570 -410 602 -538 
C 1293 -416 1837 -250 2246 13 
C 2522 -128 2765 -275 2957 -410 
L 3264 -102 
C 3078 19 2848 154 2586 282 
C 2816 512 2976 794 3072 1133 
L 3750 1152 
L 3763 1510 
L 1734 1485 
L 1939 1882 
L 3424 1882 
L 3424 2419 
C 3526 2336 3648 2221 3706 2157 
C 3834 2362 3949 2592 4051 2848 
C 4179 2221 4346 1645 4563 1146 
C 4256 614 3853 192 3309 -134 
C 3392 -224 3539 -429 3584 -525 
C 4090 -198 4486 192 4794 666 
C 5075 166 5414 -237 5850 -518 
C 5920 -403 6067 -224 6176 -141 
C 5709 141 5350 582 5062 1133 
C 5421 1843 5638 2707 5779 3744 
L 6144 3744 
L 6144 4186 
L 4467 4186 
C 4550 4544 4621 4922 4678 5306 
L 4211 5376 
C 4070 4339 3827 3315 3424 2618 
L 3424 2950 
L 2163 2950 
L 2163 3245 
L 3277 3245 
L 3277 3936 
L 3731 3936 
L 3731 4301 
L 3277 4301 
L 3277 4986 
L 2163 4986 
L 2163 5376 
L 1741 5376 
L 1741 4986 
L 698 4986 
L 698 4301 
L 256 4301 
z
M 1101 4646 
L 1741 4646 
L 1741 4282 
L 1101 4282 
L 1101 4646 
z
M 1741 3578 
L 1101 3578 
L 1101 3955 
L 1741 3955 
L 1741 3578 
z
M 2163 4646 
L 2848 4646 
L 2848 4282 
L 2163 4282 
L 2163 4646 
z
M 2163 3578 
L 2163 3955 
L 2848 3955 
L 2848 3578 
L 2163 3578 
z
M 947 2624 
L 1741 2624 
L 1741 2202 
L 947 2202 
L 947 2624 
z
M 2163 2624 
L 3002 2624 
L 3002 2202 
L 2163 2202 
L 2163 2624 
z
M 1530 1107 
L 2630 1126 
C 2534 864 2387 646 2189 467 
C 1920 589 1632 704 1357 800 
L 1530 1107 
z
" transform="scale(0.015625)"/>
      <path id="NotoSansCJKjp-Regular-300d" d="M 2240 -550 
L 2240 3590 
L 1766 3590 
L 1766 -109 
L 218 -109 
L 218 -550 
L 2240 -550 
z
" transform="scale(0.015625)"/>
      <path id="NotoSansCJKjp-Regular-43" d="M 2413 -83 
C 3021 -83 3482 160 3853 589 
L 3526 966 
C 3226 634 2886 435 2438 435 
C 1542 435 979 1178 979 2362 
C 979 3533 1574 4256 2458 4256 
C 2861 4256 3168 4077 3418 3814 
L 3738 4198 
C 3469 4499 3021 4774 2451 4774 
C 1261 4774 371 3859 371 2342 
C 371 819 1242 -83 2413 -83 
z
" transform="scale(0.015625)"/>
      <path id="NotoSansCJKjp-Regular-53" d="M 1946 -83 
C 2925 -83 3539 506 3539 1248 
C 3539 1946 3117 2266 2573 2502 
L 1907 2790 
C 1542 2944 1126 3117 1126 3578 
C 1126 3994 1472 4256 2003 4256 
C 2438 4256 2784 4090 3072 3821 
L 3379 4198 
C 3053 4538 2560 4774 2003 4774 
C 1152 4774 525 4256 525 3533 
C 525 2848 1043 2515 1478 2330 
L 2150 2035 
C 2598 1837 2938 1683 2938 1197 
C 2938 742 2573 435 1952 435 
C 1466 435 992 666 659 1018 
L 307 608 
C 710 186 1280 -83 1946 -83 
z
" transform="scale(0.015625)"/>
      <path id="NotoSansCJKjp-Regular-56" d="M 1504 0 
L 2189 0 
L 3680 4691 
L 3078 4691 
L 2323 2150 
C 2163 1600 2048 1152 1869 602 
L 1843 602 
C 1670 1152 1549 1600 1389 2150 
L 627 4691 
L 6 4691 
L 1504 0 
z
" transform="scale(0.015625)"/>
      <path id="NotoSansCJKjp-Regular-8f09" d="M 4672 5056 
C 4998 4794 5382 4410 5555 4154 
L 5914 4416 
C 5734 4672 5344 5037 5018 5293 
L 4672 5056 
z
M 5370 3206 
C 5178 2586 4909 2003 4576 1478 
C 4448 2048 4352 2752 4301 3552 
L 6086 3552 
L 6086 3962 
L 4275 3962 
C 4256 4410 4243 4877 4250 5370 
L 3770 5370 
C 3770 4890 3782 4416 3808 3962 
L 2253 3962 
L 2253 4480 
L 3411 4480 
L 3411 4864 
L 2253 4864 
L 2253 5382 
L 1792 5382 
L 1792 4864 
L 634 4864 
L 634 4480 
L 1792 4480 
L 1792 3962 
L 346 3962 
L 346 3552 
L 3834 3552 
C 3898 2554 4019 1664 4218 973 
C 4019 717 3795 486 3558 275 
L 3558 499 
L 2227 499 
L 2227 851 
L 3392 851 
L 3392 2419 
L 2234 2419 
L 2234 2765 
L 3533 2765 
L 3533 3130 
L 2234 3130 
L 2234 3539 
L 1798 3539 
L 1798 3130 
L 518 3130 
L 518 2765 
L 1798 2765 
L 1798 2419 
L 672 2419 
L 672 851 
L 1798 851 
L 1798 499 
L 422 499 
L 422 122 
L 1798 122 
L 1798 -518 
L 2227 -518 
L 2227 122 
L 3373 122 
C 3245 19 3110 -70 2976 -154 
C 3098 -250 3245 -403 3322 -512 
C 3718 -243 4077 83 4397 454 
C 4653 -154 4998 -512 5453 -512 
C 5920 -512 6093 -211 6170 813 
C 6048 851 5875 954 5773 1056 
C 5734 269 5670 -38 5491 -38 
C 5190 -38 4934 301 4736 890 
C 5190 1530 5549 2272 5798 3066 
L 5370 3206 
z
M 1030 1504 
L 1830 1504 
L 1830 1133 
L 1030 1133 
L 1030 1504 
z
M 2202 1504 
L 3014 1504 
L 3014 1133 
L 2202 1133 
L 2202 1504 
z
M 1030 2138 
L 1830 2138 
L 1830 1773 
L 1030 1773 
L 1030 2138 
z
M 2202 2138 
L 3014 2138 
L 3014 1773 
L 2202 1773 
L 2202 2138 
z
" transform="scale(0.015625)"/>
      <path id="NotoSansCJKjp-Regular-9023" d="M 358 4947 
C 749 4640 1184 4186 1370 3866 
L 1760 4166 
C 1568 4480 1114 4922 723 5216 
L 358 4947 
z
M 1574 2848 
L 294 2848 
L 294 2400 
L 1107 2400 
L 1107 742 
C 819 474 499 205 230 13 
L 480 -461 
C 794 -179 1088 96 1370 371 
C 1773 -134 2355 -358 3200 -390 
C 3917 -416 5286 -403 6003 -378 
C 6022 -230 6099 -13 6157 96 
C 5382 45 3904 26 3194 58 
C 2438 90 1875 307 1574 781 
L 1574 2848 
z
M 2240 3962 
L 2240 1882 
L 3674 1882 
L 3674 1427 
L 1843 1427 
L 1843 1018 
L 3674 1018 
L 3674 288 
L 4141 288 
L 4141 1018 
L 6054 1018 
L 6054 1427 
L 4141 1427 
L 4141 1882 
L 5626 1882 
L 5626 3962 
L 4141 3962 
L 4141 4397 
L 5958 4397 
L 5958 4800 
L 4141 4800 
L 4141 5376 
L 3674 5376 
L 3674 4800 
L 1939 4800 
L 1939 4397 
L 3674 4397 
L 3674 3962 
L 2240 3962 
z
M 2688 2752 
L 3674 2752 
L 3674 2240 
L 2688 2240 
L 2688 2752 
z
M 4141 2752 
L 5165 2752 
L 5165 2240 
L 4141 2240 
L 4141 2752 
z
M 2688 3603 
L 3674 3603 
L 3674 3098 
L 2688 3098 
L 2688 3603 
z
M 4141 3603 
L 5165 3603 
L 5165 3098 
L 4141 3098 
L 4141 3603 
z
" transform="scale(0.015625)"/>
      <path id="NotoSansCJKjp-Regular-7d50" d="M 1984 1626 
C 2157 1235 2330 717 2387 378 
L 2784 512 
C 2714 845 2528 1357 2342 1747 
L 1984 1626 
z
M 582 1715 
C 506 1152 378 582 160 192 
C 269 154 454 64 544 6 
C 749 416 909 1037 992 1645 
L 582 1715 
z
M 2854 3072 
L 2854 2624 
L 6003 2624 
L 6003 3072 
L 4621 3072 
L 4621 4032 
L 6150 4032 
L 6150 4467 
L 4621 4467 
L 4621 5376 
L 4134 5376 
L 4134 4467 
L 2650 4467 
L 2650 4032 
L 4134 4032 
L 4134 3072 
L 2854 3072 
z
M 3059 1933 
L 3059 -506 
L 3507 -506 
L 3507 -186 
L 5363 -186 
L 5363 -486 
L 5824 -486 
L 5824 1933 
L 3059 1933 
z
M 3507 250 
L 3507 1498 
L 5363 1498 
L 5363 250 
L 3507 250 
z
M 230 2515 
L 269 2080 
L 1318 2138 
L 1318 -525 
L 1754 -525 
L 1754 2163 
L 2310 2195 
C 2362 2061 2406 1933 2438 1824 
L 2816 2003 
C 2720 2355 2445 2899 2176 3315 
L 1818 3162 
C 1926 2989 2035 2790 2131 2592 
L 1107 2547 
C 1555 3098 2061 3853 2445 4467 
L 2022 4646 
C 1843 4301 1600 3878 1331 3469 
C 1235 3603 1094 3763 947 3910 
C 1184 4269 1459 4781 1677 5210 
L 1248 5376 
C 1114 5018 883 4538 678 4173 
L 480 4346 
L 243 4026 
C 544 3757 883 3392 1082 3098 
C 941 2893 794 2694 653 2528 
L 230 2515 
z
" transform="scale(0.015625)"/>
     </defs>
     <use xlink:href="#NotoSansCJKjp-Regular-932f"/>
     <use xlink:href="#NotoSansCJKjp-Regular-8aa4" transform="translate(99.999985 0)"/>
     <use xlink:href="#NotoSansCJKjp-Regular-8a0a" transform="translate(199.999969 0)"/>
     <use xlink:href="#NotoSansCJKjp-Regular-606f" transform="translate(299.999954 0)"/>
     <use xlink:href="#NotoSansCJKjp-Regular-3a" transform="translate(399.999939 0)"/>
     <use xlink:href="#NotoSansCJKjp-Regular-20" transform="translate(427.799927 0)"/>
     <use xlink:href="#NotoSansCJKjp-Regular-627e" transform="translate(450.199921 0)"/>
     <use xlink:href="#NotoSansCJKjp-Regular-4e0d" transform="translate(550.199905 0)"/>
     <use xlink:href="#NotoSansCJKjp-Regular-5230" transform="translate(650.19989 0)"/>
     <use xlink:href="#NotoSansCJKjp-Regular-300c" transform="translate(750.199875 0)"/>
     <use xlink:href="#NotoSansCJKjp-Regular-5168" transform="translate(850.19986 0)"/>
     <use xlink:href="#NotoSansCJKjp-Regular-53f0" transform="translate(950.199844 0)"/>
     <use xlink:href="#NotoSansCJKjp-Regular-5efa" transform="translate(1050.199829 0)"/>
     <use xlink:href="#NotoSansCJKjp-Regular-7269" transform="translate(1150.199814 0)"/>
     <use xlink:href="#NotoSansCJKjp-Regular-8cb7" transform="translate(1250.199799 0)"/>
     <use xlink:href="#NotoSansCJKjp-Regular-8ce3" transform="translate(1350.199783 0)"/>
     <use xlink:href="#NotoSansCJKjp-Regular-79fb" transform="translate(1450.199768 0)"/>
     <use xlink:href="#NotoSansCJKjp-Regular-8f49" transform="translate(1550.199753 0)"/>
     <use xlink:href="#NotoSansCJKjp-Regular-68df" transform="translate(1650.199738 0)"/>
     <use xlink:href="#NotoSansCJKjp-Regular-6578" transform="translate(1750.199722 0)"/>
     <use xlink:href="#NotoSansCJKjp-Regular-300d" transform="translate(1850.199707 0)"/>
     <use xlink:href="#NotoSansCJKjp-Regular-43" transform="translate(1950.199692 0)"/>
     <use xlink:href="#NotoSansCJKjp-Regular-53" transform="translate(2013.99968 0)"/>
     <use xlink:href="#NotoSansCJKjp-Regular-56" transform="translate(2073.59967 0)"/>
     <use xlink:href="#NotoSansCJKjp-Regular-20" transform="translate(2131.099655 0)"/>
     <use xlink:href="#NotoSansCJKjp-Regular-4e0b" transform="translate(2153.499649 0)"/>
     <use xlink:href="#NotoSansCJKjp-Regular-8f09" transform="translate(2253.499634 0)"/>
     <use xlink:href="#NotoSansCJKjp-Regular-9023" transform="translate(2353.499619 0)"/>
     <use xlink:href="#NotoSansCJKjp-Regular-7d50" transform="translate(2453.499603 0)"/>
     <use xlink:href="#NotoSansCJKjp-Regular-3002" transform="translate(2553.499588 0)"/>
    </g>
   </g>
  </g>
 </g>
</svg>
