<?xml version="1.0" encoding="utf-8" standalone="no"?>
<!DOCTYPE svg PUBLIC "-//W3C//DTD SVG 1.1//EN"
  "http://www.w3.org/Graphics/SVG/1.1/DTD/svg11.dtd">
<svg xmlns:xlink="http://www.w3.org/1999/xlink" width="864pt" height="432pt" viewBox="0 0 864 432" xmlns="http://www.w3.org/2000/svg" version="1.1">
 <metadata>
  <rdf:RDF xmlns:dc="http://purl.org/dc/elements/1.1/" xmlns:cc="http://creativecommons.org/ns#" xmlns:rdf="http://www.w3.org/1999/02/22-rdf-syntax-ns#">
   <cc:Work>
    <dc:type rdf:resource="http://purl.org/dc/dcmitype/StillImage"/>
    <dc:date>2026-05-01T04:41:13.782089</dc:date>
    <dc:format>image/svg+xml</dc:format>
    <dc:creator>
     <cc:Agent>
      <dc:title>Matplotlib v3.10.9, https://matplotlib.org/</dc:title>
     </cc:Agent>
    </dc:creator>
   </cc:Work>
  </rdf:RDF>
 </metadata>
 <defs>
  <style type="text/css">*{stroke-linejoin: round; stroke-linecap: butt}</style>
 </defs>
 <g id="figure_1">
  <g id="patch_1">
   <path d="M 0 432 
L 864 432 
L 864 0 
L 0 0 
z
" style="fill: #ffffff"/>
  </g>
  <g id="axes_1">
   <g id="patch_2">
    <path d="M 69.95 363.069276 
L 853.2 363.069276 
L 853.2 43.36 
L 69.95 43.36 
z
" style="fill: #ffffff"/>
   </g>
   <g id="FillBetweenPolyCollection_1">
    <defs>
     <path id="mc0406fe030" d="M 105.552273 -83.462964 
L 105.552273 -374.10776 
L 117.62084 -350.428866 
L 129.689407 -313.311728 
L 141.757974 -301.728089 
L 153.826541 -261.157546 
L 165.895108 -345.2432 
L 177.963675 -315.505557 
L 190.032242 -326.385725 
L 202.100809 -304.213872 
L 214.169376 -362.176556 
L 226.237943 -350.873749 
L 238.30651 -350.640186 
L 250.375077 -302.601171 
L 262.443644 -322.170459 
L 274.512211 -296.078075 
L 286.580778 -304.430752 
L 298.649345 -259.961923 
L 310.717912 -280.243024 
L 322.786479 -263.779575 
L 334.855046 -343.307959 
L 346.923613 -203.831601 
L 358.99218 -265.306079 
L 371.060747 -270.330476 
L 383.129314 -277.012061 
L 395.197881 -249.501614 
L 407.266448 -276.417031 
L 419.335015 -272.315766 
L 431.403582 -275.474435 
L 443.472149 -267.144002 
L 455.540716 -278.29388 
L 467.609284 -277.27065 
L 479.677851 -284.035651 
L 491.746418 -262.03897 
L 503.814985 -302.920931 
L 515.883552 -293.781367 
L 527.952119 -310.030716 
L 540.020686 -276.322493 
L 552.089253 -280.927031 
L 564.15782 -338.250196 
L 576.226387 -346.438823 
L 588.294954 -308.215038 
L 600.363521 -345.704766 
L 612.432088 -288.481699 
L 624.500655 -359.610138 
L 636.569222 -319.184182 
L 648.637789 -322.65983 
L 660.706356 -297.240332 
L 672.774923 -289.694005 
L 684.84349 -262.225265 
L 696.912057 -291.031435 
L 708.980624 -305.38169 
L 721.049191 -328.751946 
L 733.117758 -308.721092 
L 745.186325 -349.739298 
L 757.254892 -345.804865 
L 769.323459 -304.227775 
L 781.392026 -258.916448 
L 793.460593 -269.896715 
L 805.52916 -263.710062 
L 817.597727 -267.900303 
L 817.597727 -83.462964 
L 817.597727 -83.462964 
L 805.52916 -83.462964 
L 793.460593 -83.462964 
L 781.392026 -83.462964 
L 769.323459 -83.462964 
L 757.254892 -83.462964 
L 745.186325 -83.462964 
L 733.117758 -83.462964 
L 721.049191 -83.462964 
L 708.980624 -83.462964 
L 696.912057 -83.462964 
L 684.84349 -83.462964 
L 672.774923 -83.462964 
L 660.706356 -83.462964 
L 648.637789 -83.462964 
L 636.569222 -83.462964 
L 624.500655 -83.462964 
L 612.432088 -83.462964 
L 600.363521 -83.462964 
L 588.294954 -83.462964 
L 576.226387 -83.462964 
L 564.15782 -83.462964 
L 552.089253 -83.462964 
L 540.020686 -83.462964 
L 527.952119 -83.462964 
L 515.883552 -83.462964 
L 503.814985 -83.462964 
L 491.746418 -83.462964 
L 479.677851 -83.462964 
L 467.609284 -83.462964 
L 455.540716 -83.462964 
L 443.472149 -83.462964 
L 431.403582 -83.462964 
L 419.335015 -83.462964 
L 407.266448 -83.462964 
L 395.197881 -83.462964 
L 383.129314 -83.462964 
L 371.060747 -83.462964 
L 358.99218 -83.462964 
L 346.923613 -83.462964 
L 334.855046 -83.462964 
L 322.786479 -83.462964 
L 310.717912 -83.462964 
L 298.649345 -83.462964 
L 286.580778 -83.462964 
L 274.512211 -83.462964 
L 262.443644 -83.462964 
L 250.375077 -83.462964 
L 238.30651 -83.462964 
L 226.237943 -83.462964 
L 214.169376 -83.462964 
L 202.100809 -83.462964 
L 190.032242 -83.462964 
L 177.963675 -83.462964 
L 165.895108 -83.462964 
L 153.826541 -83.462964 
L 141.757974 -83.462964 
L 129.689407 -83.462964 
L 117.62084 -83.462964 
L 105.552273 -83.462964 
z
" style="stroke: #9ec5e5; stroke-opacity: 0.35"/>
    </defs>
    <g clip-path="url(#p26f93c320a)">
     <use xlink:href="#mc0406fe030" x="0" y="432" style="fill: #9ec5e5; fill-opacity: 0.35; stroke: #9ec5e5; stroke-opacity: 0.35"/>
    </g>
   </g>
   <g id="matplotlib.axis_1">
    <g id="xtick_1">
     <g id="line2d_1">
      <path d="M 105.552273 363.069276 
L 105.552273 43.36 
" clip-path="url(#p26f93c320a)" style="fill: none; stroke-dasharray: 2.96,1.28; stroke-dashoffset: 0; stroke: #b0b0b0; stroke-opacity: 0.4; stroke-width: 0.8"/>
     </g>
     <g id="line2d_2">
      <defs>
       <path id="mbe1c35ffe8" d="M 0 0 
L 0 3.5 
" style="stroke: #000000; stroke-width: 0.8"/>
      </defs>
      <g>
       <use xlink:href="#mbe1c35ffe8" x="105.552273" y="363.069276" style="stroke: #000000; stroke-width: 0.8"/>
      </g>
     </g>
     <g id="text_1">
      <!-- 2011Q1 -->
      <g transform="translate(79.06339 400.566571) rotate(-45) scale(0.1 -0.1)">
       <defs>
        <path id="NotoSansCJKjp-Regular-32" d="M 282 0 
L 3232 0 
L 3232 506 
L 1933 506 
C 1696 506 1408 480 1165 461 
C 2266 1504 3002 2458 3002 3392 
C 3002 4230 2477 4781 1638 4781 
C 1043 4781 640 4506 256 4090 
L 595 3757 
C 851 4064 1184 4301 1568 4301 
C 2150 4301 2432 3910 2432 3373 
C 2432 2566 1754 1632 282 346 
L 282 0 
z
" transform="scale(0.015625)"/>
        <path id="NotoSansCJKjp-Regular-30" d="M 1779 -83 
C 2669 -83 3238 730 3238 2362 
C 3238 3987 2669 4781 1779 4781 
C 883 4781 314 3994 314 2362 
C 314 730 883 -83 1779 -83 
z
M 1779 384 
C 1242 384 883 979 883 2362 
C 883 3731 1242 4314 1779 4314 
C 2310 4314 2669 3731 2669 2362 
C 2669 979 2310 384 1779 384 
z
" transform="scale(0.015625)"/>
        <path id="NotoSansCJKjp-Regular-31" d="M 563 0 
L 3136 0 
L 3136 486 
L 2195 486 
L 2195 4698 
L 1747 4698 
C 1491 4544 1190 4435 774 4358 
L 774 3987 
L 1606 3987 
L 1606 486 
L 563 486 
L 563 0 
z
" transform="scale(0.015625)"/>
        <path id="NotoSansCJKjp-Regular-51" d="M 2374 403 
C 1530 403 979 1165 979 2362 
C 979 3539 1530 4262 2374 4262 
C 3213 4262 3770 3539 3770 2362 
C 3770 1165 3213 403 2374 403 
z
M 3808 -1178 
C 4090 -1178 4339 -1126 4480 -1075 
L 4365 -614 
C 4243 -653 4083 -685 3872 -685 
C 3366 -685 2931 -474 2720 -58 
C 3712 115 4378 1011 4378 2362 
C 4378 3866 3552 4781 2374 4781 
C 1197 4781 371 3866 371 2362 
C 371 986 1062 77 2086 -64 
C 2349 -710 2944 -1178 3808 -1178 
z
" transform="scale(0.015625)"/>
       </defs>
       <use xlink:href="#NotoSansCJKjp-Regular-32"/>
       <use xlink:href="#NotoSansCJKjp-Regular-30" transform="translate(55.499985 0)"/>
       <use xlink:href="#NotoSansCJKjp-Regular-31" transform="translate(110.999969 0)"/>
       <use xlink:href="#NotoSansCJKjp-Regular-31" transform="translate(166.499954 0)"/>
       <use xlink:href="#NotoSansCJKjp-Regular-51" transform="translate(221.999939 0)"/>
       <use xlink:href="#NotoSansCJKjp-Regular-31" transform="translate(296.199921 0)"/>
      </g>
     </g>
    </g>
    <g id="xtick_2">
     <g id="line2d_3">
      <path d="M 165.895108 363.069276 
L 165.895108 43.36 
" clip-path="url(#p26f93c320a)" style="fill: none; stroke-dasharray: 2.96,1.28; stroke-dashoffset: 0; stroke: #b0b0b0; stroke-opacity: 0.4; stroke-width: 0.8"/>
     </g>
     <g id="line2d_4">
      <g>
       <use xlink:href="#mbe1c35ffe8" x="165.895108" y="363.069276" style="stroke: #000000; stroke-width: 0.8"/>
      </g>
     </g>
     <g id="text_2">
      <!-- 2012Q2 -->
      <g transform="translate(139.406225 400.566571) rotate(-45) scale(0.1 -0.1)">
       <use xlink:href="#NotoSansCJKjp-Regular-32"/>
       <use xlink:href="#NotoSansCJKjp-Regular-30" transform="translate(55.499985 0)"/>
       <use xlink:href="#NotoSansCJKjp-Regular-31" transform="translate(110.999969 0)"/>
       <use xlink:href="#NotoSansCJKjp-Regular-32" transform="translate(166.499954 0)"/>
       <use xlink:href="#NotoSansCJKjp-Regular-51" transform="translate(221.999939 0)"/>
       <use xlink:href="#NotoSansCJKjp-Regular-32" transform="translate(296.199921 0)"/>
      </g>
     </g>
    </g>
    <g id="xtick_3">
     <g id="line2d_5">
      <path d="M 226.237943 363.069276 
L 226.237943 43.36 
" clip-path="url(#p26f93c320a)" style="fill: none; stroke-dasharray: 2.96,1.28; stroke-dashoffset: 0; stroke: #b0b0b0; stroke-opacity: 0.4; stroke-width: 0.8"/>
     </g>
     <g id="line2d_6">
      <g>
       <use xlink:href="#mbe1c35ffe8" x="226.237943" y="363.069276" style="stroke: #000000; stroke-width: 0.8"/>
      </g>
     </g>
     <g id="text_3">
      <!-- 2013Q3 -->
      <g transform="translate(199.74906 400.566571) rotate(-45) scale(0.1 -0.1)">
       <defs>
        <path id="NotoSansCJKjp-Regular-33" d="M 1690 -83 
C 2522 -83 3194 416 3194 1254 
C 3194 1894 2752 2317 2202 2445 
L 2202 2470 
C 2694 2656 3034 3034 3034 3603 
C 3034 4346 2458 4781 1670 4781 
C 1126 4781 710 4544 358 4218 
L 672 3846 
C 934 4115 1267 4301 1645 4301 
C 2131 4301 2438 4006 2438 3558 
C 2438 3053 2106 2662 1139 2662 
L 1139 2214 
C 2221 2214 2598 1837 2598 1280 
C 2598 736 2202 403 1645 403 
C 1114 403 755 653 480 941 
L 186 557 
C 493 224 954 -83 1690 -83 
z
" transform="scale(0.015625)"/>
       </defs>
       <use xlink:href="#NotoSansCJKjp-Regular-32"/>
       <use xlink:href="#NotoSansCJKjp-Regular-30" transform="translate(55.499985 0)"/>
       <use xlink:href="#NotoSansCJKjp-Regular-31" transform="translate(110.999969 0)"/>
       <use xlink:href="#NotoSansCJKjp-Regular-33" transform="translate(166.499954 0)"/>
       <use xlink:href="#NotoSansCJKjp-Regular-51" transform="translate(221.999939 0)"/>
       <use xlink:href="#NotoSansCJKjp-Regular-33" transform="translate(296.199921 0)"/>
      </g>
     </g>
    </g>
    <g id="xtick_4">
     <g id="line2d_7">
      <path d="M 286.580778 363.069276 
L 286.580778 43.36 
" clip-path="url(#p26f93c320a)" style="fill: none; stroke-dasharray: 2.96,1.28; stroke-dashoffset: 0; stroke: #b0b0b0; stroke-opacity: 0.4; stroke-width: 0.8"/>
     </g>
     <g id="line2d_8">
      <g>
       <use xlink:href="#mbe1c35ffe8" x="286.580778" y="363.069276" style="stroke: #000000; stroke-width: 0.8"/>
      </g>
     </g>
     <g id="text_4">
      <!-- 2014Q4 -->
      <g transform="translate(260.091895 400.566571) rotate(-45) scale(0.1 -0.1)">
       <defs>
        <path id="NotoSansCJKjp-Regular-34" d="M 736 1760 
L 1805 3360 
C 1939 3590 2067 3821 2182 4051 
L 2208 4051 
C 2195 3808 2176 3430 2176 3200 
L 2176 1760 
L 736 1760 
z
M 2176 0 
L 2726 0 
L 2726 1293 
L 3347 1293 
L 3347 1760 
L 2726 1760 
L 2726 4698 
L 2080 4698 
L 128 1677 
L 128 1293 
L 2176 1293 
L 2176 0 
z
" transform="scale(0.015625)"/>
       </defs>
       <use xlink:href="#NotoSansCJKjp-Regular-32"/>
       <use xlink:href="#NotoSansCJKjp-Regular-30" transform="translate(55.499985 0)"/>
       <use xlink:href="#NotoSansCJKjp-Regular-31" transform="translate(110.999969 0)"/>
       <use xlink:href="#NotoSansCJKjp-Regular-34" transform="translate(166.499954 0)"/>
       <use xlink:href="#NotoSansCJKjp-Regular-51" transform="translate(221.999939 0)"/>
       <use xlink:href="#NotoSansCJKjp-Regular-34" transform="translate(296.199921 0)"/>
      </g>
     </g>
    </g>
    <g id="xtick_5">
     <g id="line2d_9">
      <path d="M 346.923613 363.069276 
L 346.923613 43.36 
" clip-path="url(#p26f93c320a)" style="fill: none; stroke-dasharray: 2.96,1.28; stroke-dashoffset: 0; stroke: #b0b0b0; stroke-opacity: 0.4; stroke-width: 0.8"/>
     </g>
     <g id="line2d_10">
      <g>
       <use xlink:href="#mbe1c35ffe8" x="346.923613" y="363.069276" style="stroke: #000000; stroke-width: 0.8"/>
      </g>
     </g>
     <g id="text_5">
      <!-- 2016Q1 -->
      <g transform="translate(320.43473 400.566571) rotate(-45) scale(0.1 -0.1)">
       <defs>
        <path id="NotoSansCJKjp-Regular-36" d="M 1875 2477 
C 2445 2477 2726 2074 2726 1440 
C 2726 800 2374 371 1926 371 
C 1338 371 986 902 915 1875 
C 1203 2304 1581 2477 1875 2477 
z
M 1926 -83 
C 2656 -83 3270 531 3270 1440 
C 3270 2419 2765 2912 1971 2912 
C 1600 2912 1190 2694 902 2342 
C 928 3802 1472 4294 2112 4294 
C 2400 4294 2682 4160 2867 3936 
L 3187 4301 
C 2931 4576 2579 4781 2093 4781 
C 1184 4781 358 4077 358 2240 
C 358 691 1024 -83 1926 -83 
z
" transform="scale(0.015625)"/>
       </defs>
       <use xlink:href="#NotoSansCJKjp-Regular-32"/>
       <use xlink:href="#NotoSansCJKjp-Regular-30" transform="translate(55.499985 0)"/>
       <use xlink:href="#NotoSansCJKjp-Regular-31" transform="translate(110.999969 0)"/>
       <use xlink:href="#NotoSansCJKjp-Regular-36" transform="translate(166.499954 0)"/>
       <use xlink:href="#NotoSansCJKjp-Regular-51" transform="translate(221.999939 0)"/>
       <use xlink:href="#NotoSansCJKjp-Regular-31" transform="translate(296.199921 0)"/>
      </g>
     </g>
    </g>
    <g id="xtick_6">
     <g id="line2d_11">
      <path d="M 407.266448 363.069276 
L 407.266448 43.36 
" clip-path="url(#p26f93c320a)" style="fill: none; stroke-dasharray: 2.96,1.28; stroke-dashoffset: 0; stroke: #b0b0b0; stroke-opacity: 0.4; stroke-width: 0.8"/>
     </g>
     <g id="line2d_12">
      <g>
       <use xlink:href="#mbe1c35ffe8" x="407.266448" y="363.069276" style="stroke: #000000; stroke-width: 0.8"/>
      </g>
     </g>
     <g id="text_6">
      <!-- 2017Q2 -->
      <g transform="translate(380.777565 400.566571) rotate(-45) scale(0.1 -0.1)">
       <defs>
        <path id="NotoSansCJKjp-Regular-37" d="M 1267 0 
L 1875 0 
C 1946 1837 2150 2931 3251 4339 
L 3251 4698 
L 314 4698 
L 314 4192 
L 2586 4192 
C 1670 2912 1344 1779 1267 0 
z
" transform="scale(0.015625)"/>
       </defs>
       <use xlink:href="#NotoSansCJKjp-Regular-32"/>
       <use xlink:href="#NotoSansCJKjp-Regular-30" transform="translate(55.499985 0)"/>
       <use xlink:href="#NotoSansCJKjp-Regular-31" transform="translate(110.999969 0)"/>
       <use xlink:href="#NotoSansCJKjp-Regular-37" transform="translate(166.499954 0)"/>
       <use xlink:href="#NotoSansCJKjp-Regular-51" transform="translate(221.999939 0)"/>
       <use xlink:href="#NotoSansCJKjp-Regular-32" transform="translate(296.199921 0)"/>
      </g>
     </g>
    </g>
    <g id="xtick_7">
     <g id="line2d_13">
      <path d="M 467.609284 363.069276 
L 467.609284 43.36 
" clip-path="url(#p26f93c320a)" style="fill: none; stroke-dasharray: 2.96,1.28; stroke-dashoffset: 0; stroke: #b0b0b0; stroke-opacity: 0.4; stroke-width: 0.8"/>
     </g>
     <g id="line2d_14">
      <g>
       <use xlink:href="#mbe1c35ffe8" x="467.609284" y="363.069276" style="stroke: #000000; stroke-width: 0.8"/>
      </g>
     </g>
     <g id="text_7">
      <!-- 2018Q3 -->
      <g transform="translate(441.120401 400.566571) rotate(-45) scale(0.1 -0.1)">
       <defs>
        <path id="NotoSansCJKjp-Regular-38" d="M 1786 -83 
C 2669 -83 3258 448 3258 1133 
C 3258 1773 2874 2125 2464 2362 
L 2464 2394 
C 2746 2611 3091 3034 3091 3526 
C 3091 4250 2605 4762 1805 4762 
C 1075 4762 518 4288 518 3571 
C 518 3078 806 2726 1152 2490 
L 1152 2458 
C 723 2227 288 1792 288 1165 
C 288 442 922 -83 1786 -83 
z
M 2106 2547 
C 1555 2765 1050 3008 1050 3571 
C 1050 4026 1363 4333 1798 4333 
C 2304 4333 2592 3955 2592 3494 
C 2592 3149 2426 2829 2106 2547 
z
M 1798 352 
C 1235 352 819 717 819 1216 
C 819 1664 1082 2035 1459 2278 
C 2125 2010 2701 1773 2701 1146 
C 2701 678 2336 352 1798 352 
z
" transform="scale(0.015625)"/>
       </defs>
       <use xlink:href="#NotoSansCJKjp-Regular-32"/>
       <use xlink:href="#NotoSansCJKjp-Regular-30" transform="translate(55.499985 0)"/>
       <use xlink:href="#NotoSansCJKjp-Regular-31" transform="translate(110.999969 0)"/>
       <use xlink:href="#NotoSansCJKjp-Regular-38" transform="translate(166.499954 0)"/>
       <use xlink:href="#NotoSansCJKjp-Regular-51" transform="translate(221.999939 0)"/>
       <use xlink:href="#NotoSansCJKjp-Regular-33" transform="translate(296.199921 0)"/>
      </g>
     </g>
    </g>
    <g id="xtick_8">
     <g id="line2d_15">
      <path d="M 527.952119 363.069276 
L 527.952119 43.36 
" clip-path="url(#p26f93c320a)" style="fill: none; stroke-dasharray: 2.96,1.28; stroke-dashoffset: 0; stroke: #b0b0b0; stroke-opacity: 0.4; stroke-width: 0.8"/>
     </g>
     <g id="line2d_16">
      <g>
       <use xlink:href="#mbe1c35ffe8" x="527.952119" y="363.069276" style="stroke: #000000; stroke-width: 0.8"/>
      </g>
     </g>
     <g id="text_8">
      <!-- 2019Q4 -->
      <g transform="translate(501.463236 400.566571) rotate(-45) scale(0.1 -0.1)">
       <defs>
        <path id="NotoSansCJKjp-Regular-39" d="M 832 3258 
C 832 3898 1178 4320 1626 4320 
C 2227 4320 2586 3808 2650 2842 
C 2349 2400 1990 2214 1670 2214 
C 1114 2214 832 2624 832 3258 
z
M 1498 -83 
C 2381 -83 3200 646 3200 2547 
C 3200 4038 2528 4781 1626 4781 
C 896 4781 282 4166 282 3258 
C 282 2285 794 1779 1574 1779 
C 1965 1779 2368 2003 2656 2355 
C 2611 902 2086 403 1478 403 
C 1178 403 890 538 698 762 
L 371 397 
C 634 122 992 -83 1498 -83 
z
" transform="scale(0.015625)"/>
       </defs>
       <use xlink:href="#NotoSansCJKjp-Regular-32"/>
       <use xlink:href="#NotoSansCJKjp-Regular-30" transform="translate(55.499985 0)"/>
       <use xlink:href="#NotoSansCJKjp-Regular-31" transform="translate(110.999969 0)"/>
       <use xlink:href="#NotoSansCJKjp-Regular-39" transform="translate(166.499954 0)"/>
       <use xlink:href="#NotoSansCJKjp-Regular-51" transform="translate(221.999939 0)"/>
       <use xlink:href="#NotoSansCJKjp-Regular-34" transform="translate(296.199921 0)"/>
      </g>
     </g>
    </g>
    <g id="xtick_9">
     <g id="line2d_17">
      <path d="M 588.294954 363.069276 
L 588.294954 43.36 
" clip-path="url(#p26f93c320a)" style="fill: none; stroke-dasharray: 2.96,1.28; stroke-dashoffset: 0; stroke: #b0b0b0; stroke-opacity: 0.4; stroke-width: 0.8"/>
     </g>
     <g id="line2d_18">
      <g>
       <use xlink:href="#mbe1c35ffe8" x="588.294954" y="363.069276" style="stroke: #000000; stroke-width: 0.8"/>
      </g>
     </g>
     <g id="text_9">
      <!-- 2021Q1 -->
      <g transform="translate(561.806071 400.566571) rotate(-45) scale(0.1 -0.1)">
       <use xlink:href="#NotoSansCJKjp-Regular-32"/>
       <use xlink:href="#NotoSansCJKjp-Regular-30" transform="translate(55.499985 0)"/>
       <use xlink:href="#NotoSansCJKjp-Regular-32" transform="translate(110.999969 0)"/>
       <use xlink:href="#NotoSansCJKjp-Regular-31" transform="translate(166.499954 0)"/>
       <use xlink:href="#NotoSansCJKjp-Regular-51" transform="translate(221.999939 0)"/>
       <use xlink:href="#NotoSansCJKjp-Regular-31" transform="translate(296.199921 0)"/>
      </g>
     </g>
    </g>
    <g id="xtick_10">
     <g id="line2d_19">
      <path d="M 648.637789 363.069276 
L 648.637789 43.36 
" clip-path="url(#p26f93c320a)" style="fill: none; stroke-dasharray: 2.96,1.28; stroke-dashoffset: 0; stroke: #b0b0b0; stroke-opacity: 0.4; stroke-width: 0.8"/>
     </g>
     <g id="line2d_20">
      <g>
       <use xlink:href="#mbe1c35ffe8" x="648.637789" y="363.069276" style="stroke: #000000; stroke-width: 0.8"/>
      </g>
     </g>
     <g id="text_10">
      <!-- 2022Q2 -->
      <g transform="translate(622.148906 400.566571) rotate(-45) scale(0.1 -0.1)">
       <use xlink:href="#NotoSansCJKjp-Regular-32"/>
       <use xlink:href="#NotoSansCJKjp-Regular-30" transform="translate(55.499985 0)"/>
       <use xlink:href="#NotoSansCJKjp-Regular-32" transform="translate(110.999969 0)"/>
       <use xlink:href="#NotoSansCJKjp-Regular-32" transform="translate(166.499954 0)"/>
       <use xlink:href="#NotoSansCJKjp-Regular-51" transform="translate(221.999939 0)"/>
       <use xlink:href="#NotoSansCJKjp-Regular-32" transform="translate(296.199921 0)"/>
      </g>
     </g>
    </g>
    <g id="xtick_11">
     <g id="line2d_21">
      <path d="M 708.980624 363.069276 
L 708.980624 43.36 
" clip-path="url(#p26f93c320a)" style="fill: none; stroke-dasharray: 2.96,1.28; stroke-dashoffset: 0; stroke: #b0b0b0; stroke-opacity: 0.4; stroke-width: 0.8"/>
     </g>
     <g id="line2d_22">
      <g>
       <use xlink:href="#mbe1c35ffe8" x="708.980624" y="363.069276" style="stroke: #000000; stroke-width: 0.8"/>
      </g>
     </g>
     <g id="text_11">
      <!-- 2023Q3 -->
      <g transform="translate(682.491741 400.566571) rotate(-45) scale(0.1 -0.1)">
       <use xlink:href="#NotoSansCJKjp-Regular-32"/>
       <use xlink:href="#NotoSansCJKjp-Regular-30" transform="translate(55.499985 0)"/>
       <use xlink:href="#NotoSansCJKjp-Regular-32" transform="translate(110.999969 0)"/>
       <use xlink:href="#NotoSansCJKjp-Regular-33" transform="translate(166.499954 0)"/>
       <use xlink:href="#NotoSansCJKjp-Regular-51" transform="translate(221.999939 0)"/>
       <use xlink:href="#NotoSansCJKjp-Regular-33" transform="translate(296.199921 0)"/>
      </g>
     </g>
    </g>
    <g id="xtick_12">
     <g id="line2d_23">
      <path d="M 769.323459 363.069276 
L 769.323459 43.36 
" clip-path="url(#p26f93c320a)" style="fill: none; stroke-dasharray: 2.96,1.28; stroke-dashoffset: 0; stroke: #b0b0b0; stroke-opacity: 0.4; stroke-width: 0.8"/>
     </g>
     <g id="line2d_24">
      <g>
       <use xlink:href="#mbe1c35ffe8" x="769.323459" y="363.069276" style="stroke: #000000; stroke-width: 0.8"/>
      </g>
     </g>
     <g id="text_12">
      <!-- 2024Q4 -->
      <g transform="translate(742.834576 400.566571) rotate(-45) scale(0.1 -0.1)">
       <use xlink:href="#NotoSansCJKjp-Regular-32"/>
       <use xlink:href="#NotoSansCJKjp-Regular-30" transform="translate(55.499985 0)"/>
       <use xlink:href="#NotoSansCJKjp-Regular-32" transform="translate(110.999969 0)"/>
       <use xlink:href="#NotoSansCJKjp-Regular-34" transform="translate(166.499954 0)"/>
       <use xlink:href="#NotoSansCJKjp-Regular-51" transform="translate(221.999939 0)"/>
       <use xlink:href="#NotoSansCJKjp-Regular-34" transform="translate(296.199921 0)"/>
      </g>
     </g>
    </g>
    <g id="text_13">
     <!-- 期別 -->
     <g transform="translate(447.575 417.329412) scale(0.14 -0.14)">
      <defs>
       <path id="NotoSansCJKjp-Regular-671f" d="M 1325 2125 
L 2483 2125 
L 2483 1485 
L 1325 1485 
L 1325 2125 
z
M 2483 4083 
L 2483 3520 
L 1325 3520 
L 1325 4083 
L 2483 4083 
z
M 1325 3136 
L 2483 3136 
L 2483 2509 
L 1325 2509 
L 1325 3136 
z
M 3392 1485 
L 2925 1485 
L 2925 4083 
L 3392 4083 
L 3392 4512 
L 2925 4512 
L 2925 5280 
L 2483 5280 
L 2483 4512 
L 1325 4512 
L 1325 5280 
L 890 5280 
L 890 4512 
L 352 4512 
L 352 4083 
L 890 4083 
L 890 1485 
L 269 1485 
L 269 1056 
L 3392 1056 
L 3392 1485 
z
M 1152 922 
C 960 499 627 70 275 -218 
C 390 -282 570 -416 659 -493 
C 1011 -179 1376 307 1606 800 
L 1152 922 
z
M 2061 723 
C 2317 422 2605 6 2720 -250 
L 3104 -26 
C 2982 237 2688 634 2432 922 
L 2061 723 
z
M 4141 2093 
C 4147 2310 4154 2528 4154 2726 
L 4154 3155 
L 5459 3155 
L 5459 2093 
L 4141 2093 
z
M 5459 4602 
L 5459 3584 
L 4154 3584 
L 4154 4602 
L 5459 4602 
z
M 5920 5037 
L 3706 5037 
L 3706 2726 
C 3706 1811 3654 595 3123 -250 
C 3232 -288 3424 -435 3501 -525 
C 3885 90 4045 902 4109 1664 
L 5459 1664 
L 5459 128 
C 5459 26 5421 -6 5325 -6 
C 5235 -13 4915 -13 4576 -6 
C 4634 -128 4704 -333 4723 -467 
C 5197 -467 5491 -454 5677 -378 
C 5850 -301 5920 -160 5920 122 
L 5920 5037 
z
" transform="scale(0.015625)"/>
       <path id="NotoSansCJKjp-Regular-5225" d="M 1069 4634 
L 2694 4634 
L 2694 3405 
L 1069 3405 
L 1069 4634 
z
M 1728 2298 
C 1754 2528 1773 2758 1786 2982 
L 3142 2982 
L 3142 5062 
L 627 5062 
L 627 2982 
L 1325 2982 
C 1261 1824 1107 518 237 -173 
C 352 -243 499 -397 563 -499 
C 1235 58 1536 941 1677 1869 
L 2726 1869 
C 2669 608 2605 122 2490 -6 
C 2432 -64 2381 -77 2272 -77 
C 2157 -77 1856 -77 1542 -45 
C 1619 -154 1664 -333 1677 -461 
C 1984 -474 2298 -480 2458 -461 
C 2650 -448 2758 -410 2867 -282 
C 3040 -83 3104 499 3181 2093 
C 3181 2150 3187 2298 3187 2298 
L 1728 2298 
z
M 4256 4589 
L 3795 4589 
L 3795 1069 
L 4256 1069 
L 4256 4589 
z
M 5350 5229 
L 5350 141 
C 5350 19 5299 -19 5184 -19 
C 5062 -26 4659 -32 4211 -13 
C 4288 -147 4358 -365 4384 -493 
C 4966 -493 5325 -486 5536 -410 
C 5734 -326 5824 -179 5824 141 
L 5824 5229 
L 5350 5229 
z
" transform="scale(0.015625)"/>
      </defs>
      <use xlink:href="#NotoSansCJKjp-Regular-671f"/>
      <use xlink:href="#NotoSansCJKjp-Regular-5225" transform="translate(99.999985 0)"/>
     </g>
    </g>
   </g>
   <g id="matplotlib.axis_2">
    <g id="ytick_1">
     <g id="line2d_25">
      <path d="M 69.95 348.537036 
L 853.2 348.537036 
" clip-path="url(#p26f93c320a)" style="fill: none; stroke-dasharray: 2.96,1.28; stroke-dashoffset: 0; stroke: #b0b0b0; stroke-opacity: 0.4; stroke-width: 0.8"/>
     </g>
     <g id="line2d_26">
      <defs>
       <path id="m2503bf0295" d="M 0 0 
L -3.5 0 
" style="stroke: #000000; stroke-width: 0.8"/>
      </defs>
      <g>
       <use xlink:href="#m2503bf0295" x="69.95" y="348.537036" style="stroke: #000000; stroke-width: 0.8"/>
      </g>
     </g>
     <g id="text_14">
      <!-- 0 -->
      <g transform="translate(57.4 352.516724) scale(0.1 -0.1)">
       <use xlink:href="#NotoSansCJKjp-Regular-30"/>
      </g>
     </g>
    </g>
    <g id="ytick_2">
     <g id="line2d_27">
      <path d="M 69.95 292.92667 
L 853.2 292.92667 
" clip-path="url(#p26f93c320a)" style="fill: none; stroke-dasharray: 2.96,1.28; stroke-dashoffset: 0; stroke: #b0b0b0; stroke-opacity: 0.4; stroke-width: 0.8"/>
     </g>
     <g id="line2d_28">
      <g>
       <use xlink:href="#m2503bf0295" x="69.95" y="292.92667" style="stroke: #000000; stroke-width: 0.8"/>
      </g>
     </g>
     <g id="text_15">
      <!-- 20000 -->
      <g transform="translate(35.2 296.906358) scale(0.1 -0.1)">
       <use xlink:href="#NotoSansCJKjp-Regular-32"/>
       <use xlink:href="#NotoSansCJKjp-Regular-30" transform="translate(55.499985 0)"/>
       <use xlink:href="#NotoSansCJKjp-Regular-30" transform="translate(110.999969 0)"/>
       <use xlink:href="#NotoSansCJKjp-Regular-30" transform="translate(166.499954 0)"/>
       <use xlink:href="#NotoSansCJKjp-Regular-30" transform="translate(221.999939 0)"/>
      </g>
     </g>
    </g>
    <g id="ytick_3">
     <g id="line2d_29">
      <path d="M 69.95 237.316305 
L 853.2 237.316305 
" clip-path="url(#p26f93c320a)" style="fill: none; stroke-dasharray: 2.96,1.28; stroke-dashoffset: 0; stroke: #b0b0b0; stroke-opacity: 0.4; stroke-width: 0.8"/>
     </g>
     <g id="line2d_30">
      <g>
       <use xlink:href="#m2503bf0295" x="69.95" y="237.316305" style="stroke: #000000; stroke-width: 0.8"/>
      </g>
     </g>
     <g id="text_16">
      <!-- 40000 -->
      <g transform="translate(35.2 241.295992) scale(0.1 -0.1)">
       <use xlink:href="#NotoSansCJKjp-Regular-34"/>
       <use xlink:href="#NotoSansCJKjp-Regular-30" transform="translate(55.499985 0)"/>
       <use xlink:href="#NotoSansCJKjp-Regular-30" transform="translate(110.999969 0)"/>
       <use xlink:href="#NotoSansCJKjp-Regular-30" transform="translate(166.499954 0)"/>
       <use xlink:href="#NotoSansCJKjp-Regular-30" transform="translate(221.999939 0)"/>
      </g>
     </g>
    </g>
    <g id="ytick_4">
     <g id="line2d_31">
      <path d="M 69.95 181.705939 
L 853.2 181.705939 
" clip-path="url(#p26f93c320a)" style="fill: none; stroke-dasharray: 2.96,1.28; stroke-dashoffset: 0; stroke: #b0b0b0; stroke-opacity: 0.4; stroke-width: 0.8"/>
     </g>
     <g id="line2d_32">
      <g>
       <use xlink:href="#m2503bf0295" x="69.95" y="181.705939" style="stroke: #000000; stroke-width: 0.8"/>
      </g>
     </g>
     <g id="text_17">
      <!-- 60000 -->
      <g transform="translate(35.2 185.685626) scale(0.1 -0.1)">
       <use xlink:href="#NotoSansCJKjp-Regular-36"/>
       <use xlink:href="#NotoSansCJKjp-Regular-30" transform="translate(55.499985 0)"/>
       <use xlink:href="#NotoSansCJKjp-Regular-30" transform="translate(110.999969 0)"/>
       <use xlink:href="#NotoSansCJKjp-Regular-30" transform="translate(166.499954 0)"/>
       <use xlink:href="#NotoSansCJKjp-Regular-30" transform="translate(221.999939 0)"/>
      </g>
     </g>
    </g>
    <g id="ytick_5">
     <g id="line2d_33">
      <path d="M 69.95 126.095573 
L 853.2 126.095573 
" clip-path="url(#p26f93c320a)" style="fill: none; stroke-dasharray: 2.96,1.28; stroke-dashoffset: 0; stroke: #b0b0b0; stroke-opacity: 0.4; stroke-width: 0.8"/>
     </g>
     <g id="line2d_34">
      <g>
       <use xlink:href="#m2503bf0295" x="69.95" y="126.095573" style="stroke: #000000; stroke-width: 0.8"/>
      </g>
     </g>
     <g id="text_18">
      <!-- 80000 -->
      <g transform="translate(35.2 130.07526) scale(0.1 -0.1)">
       <use xlink:href="#NotoSansCJKjp-Regular-38"/>
       <use xlink:href="#NotoSansCJKjp-Regular-30" transform="translate(55.499985 0)"/>
       <use xlink:href="#NotoSansCJKjp-Regular-30" transform="translate(110.999969 0)"/>
       <use xlink:href="#NotoSansCJKjp-Regular-30" transform="translate(166.499954 0)"/>
       <use xlink:href="#NotoSansCJKjp-Regular-30" transform="translate(221.999939 0)"/>
      </g>
     </g>
    </g>
    <g id="ytick_6">
     <g id="line2d_35">
      <path d="M 69.95 70.485207 
L 853.2 70.485207 
" clip-path="url(#p26f93c320a)" style="fill: none; stroke-dasharray: 2.96,1.28; stroke-dashoffset: 0; stroke: #b0b0b0; stroke-opacity: 0.4; stroke-width: 0.8"/>
     </g>
     <g id="line2d_36">
      <g>
       <use xlink:href="#m2503bf0295" x="69.95" y="70.485207" style="stroke: #000000; stroke-width: 0.8"/>
      </g>
     </g>
     <g id="text_19">
      <!-- 100000 -->
      <g transform="translate(29.65 74.464895) scale(0.1 -0.1)">
       <use xlink:href="#NotoSansCJKjp-Regular-31"/>
       <use xlink:href="#NotoSansCJKjp-Regular-30" transform="translate(55.499985 0)"/>
       <use xlink:href="#NotoSansCJKjp-Regular-30" transform="translate(110.999969 0)"/>
       <use xlink:href="#NotoSansCJKjp-Regular-30" transform="translate(166.499954 0)"/>
       <use xlink:href="#NotoSansCJKjp-Regular-30" transform="translate(221.999939 0)"/>
       <use xlink:href="#NotoSansCJKjp-Regular-30" transform="translate(277.499924 0)"/>
      </g>
     </g>
    </g>
    <g id="text_20">
     <!-- 棟數 -->
     <g transform="translate(22.443125 217.214638) rotate(-90) scale(0.14 -0.14)">
      <defs>
       <path id="NotoSansCJKjp-Regular-68df" d="M 2547 1888 
C 2426 2074 1907 2822 1715 3059 
L 1715 3546 
L 2496 3546 
L 2496 3987 
L 1715 3987 
L 1715 5357 
L 1267 5357 
L 1267 3987 
L 352 3987 
L 352 3546 
L 1222 3546 
C 1024 2669 614 1670 218 1133 
C 294 1024 410 838 461 710 
C 762 1126 1050 1798 1267 2496 
L 1267 -480 
L 1715 -480 
L 1715 2496 
C 1920 2163 2170 1741 2278 1523 
L 2547 1888 
z
M 3155 2458 
L 4038 2458 
L 4038 1907 
L 3155 1907 
L 3155 2458 
z
M 3155 3347 
L 4038 3347 
L 4038 2803 
L 3155 2803 
L 3155 3347 
z
M 5408 3347 
L 5408 2803 
L 4499 2803 
L 4499 3347 
L 5408 3347 
z
M 5408 1907 
L 4499 1907 
L 4499 2458 
L 5408 2458 
L 5408 1907 
z
M 5856 1542 
L 5856 3706 
L 4499 3706 
L 4499 4230 
L 6029 4230 
L 6029 4634 
L 4499 4634 
L 4499 5350 
L 4038 5350 
L 4038 4634 
L 2522 4634 
L 2522 4230 
L 4038 4230 
L 4038 3706 
L 2726 3706 
L 2726 1542 
L 3789 1542 
C 3392 966 2733 410 2138 128 
C 2246 38 2387 -128 2464 -243 
C 3021 70 3622 614 4038 1210 
L 4038 -486 
L 4499 -486 
L 4499 1286 
C 4883 723 5440 147 5882 -179 
C 5965 -70 6118 96 6221 186 
C 5741 474 5139 1018 4762 1542 
L 5856 1542 
z
" transform="scale(0.015625)"/>
       <path id="NotoSansCJKjp-Regular-6578" d="M 5299 3731 
C 5203 2944 5050 2266 4813 1683 
C 4582 2266 4429 2938 4320 3648 
C 4326 3680 4333 3706 4339 3731 
L 5299 3731 
z
M 3008 2202 
L 2170 2202 
L 2170 2624 
L 3008 2624 
L 3008 2202 
z
M 960 2624 
L 1754 2624 
L 1754 2202 
L 960 2202 
L 960 2624 
z
M 2643 1139 
C 2541 870 2394 659 2189 480 
C 1926 602 1645 710 1363 806 
C 1421 909 1485 1011 1542 1120 
L 2643 1139 
z
M 1120 3571 
L 1120 3942 
L 1754 3942 
L 1754 3571 
L 1120 3571 
z
M 1754 4634 
L 1754 4269 
L 1120 4269 
L 1120 4634 
L 1754 4634 
z
M 2854 4634 
L 2854 4269 
L 2170 4269 
L 2170 4634 
L 2854 4634 
z
M 2170 3571 
L 2170 3942 
L 2854 3942 
L 2854 3571 
L 2170 3571 
z
M 6125 3731 
L 6125 4179 
L 4454 4179 
C 4538 4538 4602 4909 4659 5286 
L 4205 5357 
C 4064 4326 3821 3309 3424 2618 
L 3424 2944 
L 2170 2944 
L 2170 3238 
L 3277 3238 
L 3277 3923 
L 3725 3923 
L 3725 4282 
L 3277 4282 
L 3277 4960 
L 2170 4960 
L 2170 5357 
L 1754 5357 
L 1754 4960 
L 717 4960 
L 717 4282 
L 275 4282 
L 275 3923 
L 717 3923 
L 717 3238 
L 1754 3238 
L 1754 2944 
L 557 2944 
L 557 1882 
L 1498 1882 
C 1434 1754 1363 1619 1286 1478 
C 909 1472 570 1472 282 1472 
L 294 1101 
L 1088 1114 
C 947 864 806 627 685 442 
L 1075 326 
L 1184 506 
C 1402 422 1619 333 1830 237 
C 1472 51 1011 -64 435 -134 
C 512 -230 589 -397 621 -512 
C 1306 -390 1850 -224 2246 32 
C 2528 -109 2771 -250 2963 -384 
L 3264 -90 
C 3078 38 2848 166 2579 301 
C 2816 525 2976 800 3078 1146 
L 3744 1158 
L 3763 1517 
C 3072 1504 2374 1491 1741 1485 
C 1818 1619 1888 1754 1952 1882 
L 3424 1882 
L 3424 2419 
C 3526 2336 3642 2221 3693 2157 
C 3827 2362 3942 2598 4051 2854 
C 4173 2234 4339 1658 4550 1152 
C 4250 627 3846 211 3309 -109 
C 3392 -205 3533 -403 3578 -499 
C 4077 -179 4474 211 4781 678 
C 5056 186 5402 -211 5830 -493 
C 5901 -378 6048 -205 6157 -115 
C 5696 160 5331 595 5050 1146 
C 5402 1850 5619 2701 5760 3731 
L 6125 3731 
z
" transform="scale(0.015625)"/>
      </defs>
      <use xlink:href="#NotoSansCJKjp-Regular-68df"/>
      <use xlink:href="#NotoSansCJKjp-Regular-6578" transform="translate(99.999985 0)"/>
     </g>
    </g>
   </g>
   <g id="line2d_37">
    <path d="M 105.552273 57.89224 
L 117.62084 81.571134 
L 129.689407 118.688272 
L 141.757974 130.271911 
L 153.826541 170.842454 
L 165.895108 86.7568 
L 177.963675 116.494443 
L 190.032242 105.614275 
L 202.100809 127.786128 
L 214.169376 69.823444 
L 226.237943 81.126251 
L 238.30651 81.359814 
L 250.375077 129.398829 
L 262.443644 109.829541 
L 274.512211 135.921925 
L 286.580778 127.569248 
L 298.649345 172.038077 
L 310.717912 151.756976 
L 322.786479 168.220425 
L 334.855046 88.692041 
L 346.923613 228.168399 
L 358.99218 166.693921 
L 371.060747 161.669524 
L 383.129314 154.987939 
L 395.197881 182.498386 
L 407.266448 155.582969 
L 419.335015 159.684234 
L 431.403582 156.525565 
L 443.472149 164.855998 
L 455.540716 153.70612 
L 467.609284 154.72935 
L 479.677851 147.964349 
L 491.746418 169.96103 
L 503.814985 129.079069 
L 515.883552 138.218633 
L 527.952119 121.969284 
L 540.020686 155.677507 
L 552.089253 151.072969 
L 564.15782 93.749804 
L 576.226387 85.561177 
L 588.294954 123.784962 
L 600.363521 86.295234 
L 612.432088 143.518301 
L 624.500655 72.389862 
L 636.569222 112.815818 
L 648.637789 109.34017 
L 660.706356 134.759668 
L 672.774923 142.305995 
L 684.84349 169.774735 
L 696.912057 140.968565 
L 708.980624 126.61831 
L 721.049191 103.248054 
L 733.117758 123.278908 
L 745.186325 82.260702 
L 757.254892 86.195135 
L 769.323459 127.772225 
L 781.392026 173.083552 
L 793.460593 162.103285 
L 805.52916 168.289938 
L 817.597727 164.099697 
" clip-path="url(#p26f93c320a)" style="fill: none; stroke: #1f6aa5; stroke-width: 2.2; stroke-linecap: square"/>
    <defs>
     <path id="mfb605d83ee" d="M 0 1.9 
C 0.503886 1.9 0.987202 1.699804 1.343503 1.343503 
C 1.699804 0.987202 1.9 0.503886 1.9 0 
C 1.9 -0.503886 1.699804 -0.987202 1.343503 -1.343503 
C 0.987202 -1.699804 0.503886 -1.9 0 -1.9 
C -0.503886 -1.9 -0.987202 -1.699804 -1.343503 -1.343503 
C -1.699804 -0.987202 -1.9 -0.503886 -1.9 0 
C -1.9 0.503886 -1.699804 0.987202 -1.343503 1.343503 
C -0.987202 1.699804 -0.503886 1.9 0 1.9 
z
" style="stroke: #1f6aa5"/>
    </defs>
    <g clip-path="url(#p26f93c320a)">
     <use xlink:href="#mfb605d83ee" x="105.552273" y="57.89224" style="fill: #1f6aa5; stroke: #1f6aa5"/>
     <use xlink:href="#mfb605d83ee" x="117.62084" y="81.571134" style="fill: #1f6aa5; stroke: #1f6aa5"/>
     <use xlink:href="#mfb605d83ee" x="129.689407" y="118.688272" style="fill: #1f6aa5; stroke: #1f6aa5"/>
     <use xlink:href="#mfb605d83ee" x="141.757974" y="130.271911" style="fill: #1f6aa5; stroke: #1f6aa5"/>
     <use xlink:href="#mfb605d83ee" x="153.826541" y="170.842454" style="fill: #1f6aa5; stroke: #1f6aa5"/>
     <use xlink:href="#mfb605d83ee" x="165.895108" y="86.7568" style="fill: #1f6aa5; stroke: #1f6aa5"/>
     <use xlink:href="#mfb605d83ee" x="177.963675" y="116.494443" style="fill: #1f6aa5; stroke: #1f6aa5"/>
     <use xlink:href="#mfb605d83ee" x="190.032242" y="105.614275" style="fill: #1f6aa5; stroke: #1f6aa5"/>
     <use xlink:href="#mfb605d83ee" x="202.100809" y="127.786128" style="fill: #1f6aa5; stroke: #1f6aa5"/>
     <use xlink:href="#mfb605d83ee" x="214.169376" y="69.823444" style="fill: #1f6aa5; stroke: #1f6aa5"/>
     <use xlink:href="#mfb605d83ee" x="226.237943" y="81.126251" style="fill: #1f6aa5; stroke: #1f6aa5"/>
     <use xlink:href="#mfb605d83ee" x="238.30651" y="81.359814" style="fill: #1f6aa5; stroke: #1f6aa5"/>
     <use xlink:href="#mfb605d83ee" x="250.375077" y="129.398829" style="fill: #1f6aa5; stroke: #1f6aa5"/>
     <use xlink:href="#mfb605d83ee" x="262.443644" y="109.829541" style="fill: #1f6aa5; stroke: #1f6aa5"/>
     <use xlink:href="#mfb605d83ee" x="274.512211" y="135.921925" style="fill: #1f6aa5; stroke: #1f6aa5"/>
     <use xlink:href="#mfb605d83ee" x="286.580778" y="127.569248" style="fill: #1f6aa5; stroke: #1f6aa5"/>
     <use xlink:href="#mfb605d83ee" x="298.649345" y="172.038077" style="fill: #1f6aa5; stroke: #1f6aa5"/>
     <use xlink:href="#mfb605d83ee" x="310.717912" y="151.756976" style="fill: #1f6aa5; stroke: #1f6aa5"/>
     <use xlink:href="#mfb605d83ee" x="322.786479" y="168.220425" style="fill: #1f6aa5; stroke: #1f6aa5"/>
     <use xlink:href="#mfb605d83ee" x="334.855046" y="88.692041" style="fill: #1f6aa5; stroke: #1f6aa5"/>
     <use xlink:href="#mfb605d83ee" x="346.923613" y="228.168399" style="fill: #1f6aa5; stroke: #1f6aa5"/>
     <use xlink:href="#mfb605d83ee" x="358.99218" y="166.693921" style="fill: #1f6aa5; stroke: #1f6aa5"/>
     <use xlink:href="#mfb605d83ee" x="371.060747" y="161.669524" style="fill: #1f6aa5; stroke: #1f6aa5"/>
     <use xlink:href="#mfb605d83ee" x="383.129314" y="154.987939" style="fill: #1f6aa5; stroke: #1f6aa5"/>
     <use xlink:href="#mfb605d83ee" x="395.197881" y="182.498386" style="fill: #1f6aa5; stroke: #1f6aa5"/>
     <use xlink:href="#mfb605d83ee" x="407.266448" y="155.582969" style="fill: #1f6aa5; stroke: #1f6aa5"/>
     <use xlink:href="#mfb605d83ee" x="419.335015" y="159.684234" style="fill: #1f6aa5; stroke: #1f6aa5"/>
     <use xlink:href="#mfb605d83ee" x="431.403582" y="156.525565" style="fill: #1f6aa5; stroke: #1f6aa5"/>
     <use xlink:href="#mfb605d83ee" x="443.472149" y="164.855998" style="fill: #1f6aa5; stroke: #1f6aa5"/>
     <use xlink:href="#mfb605d83ee" x="455.540716" y="153.70612" style="fill: #1f6aa5; stroke: #1f6aa5"/>
     <use xlink:href="#mfb605d83ee" x="467.609284" y="154.72935" style="fill: #1f6aa5; stroke: #1f6aa5"/>
     <use xlink:href="#mfb605d83ee" x="479.677851" y="147.964349" style="fill: #1f6aa5; stroke: #1f6aa5"/>
     <use xlink:href="#mfb605d83ee" x="491.746418" y="169.96103" style="fill: #1f6aa5; stroke: #1f6aa5"/>
     <use xlink:href="#mfb605d83ee" x="503.814985" y="129.079069" style="fill: #1f6aa5; stroke: #1f6aa5"/>
     <use xlink:href="#mfb605d83ee" x="515.883552" y="138.218633" style="fill: #1f6aa5; stroke: #1f6aa5"/>
     <use xlink:href="#mfb605d83ee" x="527.952119" y="121.969284" style="fill: #1f6aa5; stroke: #1f6aa5"/>
     <use xlink:href="#mfb605d83ee" x="540.020686" y="155.677507" style="fill: #1f6aa5; stroke: #1f6aa5"/>
     <use xlink:href="#mfb605d83ee" x="552.089253" y="151.072969" style="fill: #1f6aa5; stroke: #1f6aa5"/>
     <use xlink:href="#mfb605d83ee" x="564.15782" y="93.749804" style="fill: #1f6aa5; stroke: #1f6aa5"/>
     <use xlink:href="#mfb605d83ee" x="576.226387" y="85.561177" style="fill: #1f6aa5; stroke: #1f6aa5"/>
     <use xlink:href="#mfb605d83ee" x="588.294954" y="123.784962" style="fill: #1f6aa5; stroke: #1f6aa5"/>
     <use xlink:href="#mfb605d83ee" x="600.363521" y="86.295234" style="fill: #1f6aa5; stroke: #1f6aa5"/>
     <use xlink:href="#mfb605d83ee" x="612.432088" y="143.518301" style="fill: #1f6aa5; stroke: #1f6aa5"/>
     <use xlink:href="#mfb605d83ee" x="624.500655" y="72.389862" style="fill: #1f6aa5; stroke: #1f6aa5"/>
     <use xlink:href="#mfb605d83ee" x="636.569222" y="112.815818" style="fill: #1f6aa5; stroke: #1f6aa5"/>
     <use xlink:href="#mfb605d83ee" x="648.637789" y="109.34017" style="fill: #1f6aa5; stroke: #1f6aa5"/>
     <use xlink:href="#mfb605d83ee" x="660.706356" y="134.759668" style="fill: #1f6aa5; stroke: #1f6aa5"/>
     <use xlink:href="#mfb605d83ee" x="672.774923" y="142.305995" style="fill: #1f6aa5; stroke: #1f6aa5"/>
     <use xlink:href="#mfb605d83ee" x="684.84349" y="169.774735" style="fill: #1f6aa5; stroke: #1f6aa5"/>
     <use xlink:href="#mfb605d83ee" x="696.912057" y="140.968565" style="fill: #1f6aa5; stroke: #1f6aa5"/>
     <use xlink:href="#mfb605d83ee" x="708.980624" y="126.61831" style="fill: #1f6aa5; stroke: #1f6aa5"/>
     <use xlink:href="#mfb605d83ee" x="721.049191" y="103.248054" style="fill: #1f6aa5; stroke: #1f6aa5"/>
     <use xlink:href="#mfb605d83ee" x="733.117758" y="123.278908" style="fill: #1f6aa5; stroke: #1f6aa5"/>
     <use xlink:href="#mfb605d83ee" x="745.186325" y="82.260702" style="fill: #1f6aa5; stroke: #1f6aa5"/>
     <use xlink:href="#mfb605d83ee" x="757.254892" y="86.195135" style="fill: #1f6aa5; stroke: #1f6aa5"/>
     <use xlink:href="#mfb605d83ee" x="769.323459" y="127.772225" style="fill: #1f6aa5; stroke: #1f6aa5"/>
     <use xlink:href="#mfb605d83ee" x="781.392026" y="173.083552" style="fill: #1f6aa5; stroke: #1f6aa5"/>
     <use xlink:href="#mfb605d83ee" x="793.460593" y="162.103285" style="fill: #1f6aa5; stroke: #1f6aa5"/>
     <use xlink:href="#mfb605d83ee" x="805.52916" y="168.289938" style="fill: #1f6aa5; stroke: #1f6aa5"/>
     <use xlink:href="#mfb605d83ee" x="817.597727" y="164.099697" style="fill: #1f6aa5; stroke: #1f6aa5"/>
    </g>
   </g>
   <g id="patch_3">
    <path d="M 69.95 363.069276 
L 69.95 43.36 
" style="fill: none; stroke: #000000; stroke-width: 0.8; stroke-linejoin: miter; stroke-linecap: square"/>
   </g>
   <g id="patch_4">
    <path d="M 853.2 363.069276 
L 853.2 43.36 
" style="fill: none; stroke: #000000; stroke-width: 0.8; stroke-linejoin: miter; stroke-linecap: square"/>
   </g>
   <g id="patch_5">
    <path d="M 69.95 363.069276 
L 853.2 363.069276 
" style="fill: none; stroke: #000000; stroke-width: 0.8; stroke-linejoin: miter; stroke-linecap: square"/>
   </g>
   <g id="patch_6">
    <path d="M 69.95 43.36 
L 853.2 43.36 
" style="fill: none; stroke: #000000; stroke-width: 0.8; stroke-linejoin: miter; stroke-linecap: square"/>
   </g>
   <g id="text_21">
    <!-- 最新：2025Q4 / 66,332 棟 -->
    <g style="fill: #0d3b66" transform="translate(679.621321 152.099697) scale(0.11 -0.11)">
     <defs>
      <path id="NotoSansCJKjp-Regular-6700" d="M 4806 4371 
L 1606 4371 
L 1606 4813 
L 4806 4813 
L 4806 4371 
z
M 4806 3603 
L 1606 3603 
L 1606 4051 
L 4806 4051 
L 4806 3603 
z
M 5274 5152 
L 1158 5152 
L 1158 3264 
L 5274 3264 
L 5274 5152 
z
M 5210 1734 
C 5043 1376 4806 1062 4518 794 
C 4256 1062 4038 1382 3891 1734 
L 5210 1734 
z
M 1382 915 
L 2541 915 
L 2541 525 
C 2144 480 1747 442 1382 403 
L 1382 915 
z
M 1382 1722 
L 2541 1722 
L 2541 1274 
L 1382 1274 
L 1382 1722 
z
M 2541 2509 
L 2541 2080 
L 1382 2080 
L 1382 2509 
L 2541 2509 
z
M 5504 2125 
L 5421 2112 
L 3219 2112 
L 3219 1734 
L 3770 1734 
L 3494 1651 
C 3667 1222 3904 845 4198 525 
C 3834 250 3418 45 2995 -83 
L 2995 2509 
L 5990 2509 
L 5990 2906 
L 397 2906 
L 397 2509 
L 947 2509 
L 947 358 
C 723 333 518 314 339 301 
L 384 -122 
C 979 -51 1760 38 2541 134 
L 2541 -486 
L 2995 -486 
L 2995 -90 
C 3078 -173 3194 -339 3245 -448 
C 3693 -294 4128 -77 4518 224 
C 4896 -90 5344 -333 5856 -480 
C 5914 -371 6042 -198 6144 -109 
C 5651 13 5216 224 4851 506 
C 5261 902 5594 1402 5792 2010 
L 5504 2125 
z
" transform="scale(0.015625)"/>
      <path id="NotoSansCJKjp-Regular-65b0" d="M 3219 4685 
L 2054 4685 
L 2054 5331 
L 1594 5331 
L 1594 4685 
L 416 4685 
L 416 4288 
L 3219 4288 
L 3219 4685 
z
M 2483 3264 
C 2605 3494 2733 3853 2854 4173 
L 2419 4275 
C 2362 4000 2214 3603 2099 3347 
L 2483 3264 
z
M 1446 3354 
C 1414 3597 1306 3974 1171 4262 
L 800 4166 
C 922 3878 1024 3494 1050 3245 
L 1446 3354 
z
M 3066 787 
C 2918 922 2298 1427 2054 1606 
L 2054 1760 
L 3245 1760 
L 3245 2163 
L 2054 2163 
L 2054 2835 
L 3296 2835 
L 3296 3238 
L 326 3238 
L 326 2835 
L 1594 2835 
L 1594 2163 
L 346 2163 
L 346 1760 
L 1491 1760 
C 1171 1197 666 621 205 320 
C 307 237 448 83 525 -26 
C 883 256 1280 710 1594 1203 
L 1594 -474 
L 2054 -474 
L 2054 1152 
C 2323 909 2650 595 2784 435 
L 3066 787 
z
M 6118 3213 
L 3981 3213 
L 3981 4352 
C 4691 4493 5491 4685 6035 4928 
L 5651 5280 
C 5242 5075 4525 4870 3872 4730 
L 3526 4838 
L 3526 2611 
C 3526 1715 3437 608 2624 -186 
C 2733 -250 2906 -416 2963 -518 
C 3859 371 3981 1651 3981 2605 
L 3981 2765 
L 4934 2765 
L 4934 -448 
L 5402 -448 
L 5402 2765 
L 6118 2765 
L 6118 3213 
z
" transform="scale(0.015625)"/>
      <path id="NotoSansCJKjp-Regular-ff1a" d="M 3200 3482 
C 3456 3482 3686 3667 3686 3962 
C 3686 4256 3456 4442 3200 4442 
C 2944 4442 2720 4256 2720 3962 
C 2720 3667 2944 3482 3200 3482 
z
M 3200 346 
C 3456 346 3686 538 3686 826 
C 3686 1120 3456 1312 3200 1312 
C 2944 1312 2720 1120 2720 826 
C 2720 538 2944 346 3200 346 
z
" transform="scale(0.015625)"/>
      <path id="NotoSansCJKjp-Regular-35" d="M 1670 -83 
C 2464 -83 3206 499 3206 1530 
C 3206 2560 2573 3021 1792 3021 
C 1510 3021 1306 2950 1094 2835 
L 1210 4192 
L 2982 4192 
L 2982 4698 
L 698 4698 
L 550 2496 
L 864 2304 
C 1133 2483 1331 2579 1645 2579 
C 2234 2579 2618 2182 2618 1510 
C 2618 826 2170 403 1619 403 
C 1075 403 736 653 467 922 
L 179 538 
C 493 224 941 -83 1670 -83 
z
" transform="scale(0.015625)"/>
      <path id="NotoSansCJKjp-Regular-20" transform="scale(0.015625)"/>
      <path id="NotoSansCJKjp-Regular-2f" d="M 70 -1146 
L 499 -1146 
L 2413 5082 
L 1990 5082 
L 70 -1146 
z
" transform="scale(0.015625)"/>
      <path id="NotoSansCJKjp-Regular-2c" d="M 480 -1216 
C 1056 -973 1414 -493 1414 122 
C 1414 550 1229 813 922 813 
C 685 813 480 653 480 403 
C 480 134 685 -6 909 -6 
C 934 -6 954 -6 979 0 
C 979 -378 742 -691 339 -870 
L 480 -1216 
z
" transform="scale(0.015625)"/>
     </defs>
     <use xlink:href="#NotoSansCJKjp-Regular-6700"/>
     <use xlink:href="#NotoSansCJKjp-Regular-65b0" transform="translate(99.999985 0)"/>
     <use xlink:href="#NotoSansCJKjp-Regular-ff1a" transform="translate(199.999969 0)"/>
     <use xlink:href="#NotoSansCJKjp-Regular-32" transform="translate(299.999954 0)"/>
     <use xlink:href="#NotoSansCJKjp-Regular-30" transform="translate(355.499939 0)"/>
     <use xlink:href="#NotoSansCJKjp-Regular-32" transform="translate(410.999924 0)"/>
     <use xlink:href="#NotoSansCJKjp-Regular-35" transform="translate(466.499908 0)"/>
     <use xlink:href="#NotoSansCJKjp-Regular-51" transform="translate(521.999893 0)"/>
     <use xlink:href="#NotoSansCJKjp-Regular-34" transform="translate(596.199875 0)"/>
     <use xlink:href="#NotoSansCJKjp-Regular-20" transform="translate(651.69986 0)"/>
     <use xlink:href="#NotoSansCJKjp-Regular-2f" transform="translate(674.099854 0)"/>
     <use xlink:href="#NotoSansCJKjp-Regular-20" transform="translate(713.29985 0)"/>
     <use xlink:href="#NotoSansCJKjp-Regular-36" transform="translate(735.699844 0)"/>
     <use xlink:href="#NotoSansCJKjp-Regular-36" transform="translate(791.199829 0)"/>
     <use xlink:href="#NotoSansCJKjp-Regular-2c" transform="translate(846.699814 0)"/>
     <use xlink:href="#NotoSansCJKjp-Regular-33" transform="translate(874.499802 0)"/>
     <use xlink:href="#NotoSansCJKjp-Regular-33" transform="translate(929.999786 0)"/>
     <use xlink:href="#NotoSansCJKjp-Regular-32" transform="translate(985.499771 0)"/>
     <use xlink:href="#NotoSansCJKjp-Regular-20" transform="translate(1040.999756 0)"/>
     <use xlink:href="#NotoSansCJKjp-Regular-68df" transform="translate(1063.39975 0)"/>
    </g>
   </g>
   <g id="text_22">
    <!-- 全台建物買賣移轉棟數監控趨勢 -->
    <g transform="translate(321.575 27.36) scale(0.2 -0.2)">
     <defs>
      <path id="NotoSansCJKjp-Regular-5168" d="M 2912 5363 
C 2419 4538 1357 3526 262 2925 
C 365 2822 499 2656 557 2547 
C 1632 3174 2662 4122 3174 4896 
C 3750 4090 4870 3149 5850 2579 
C 5926 2714 6042 2880 6163 3002 
C 5165 3494 4051 4429 3386 5363 
L 2912 5363 
z
M 3424 1165 
L 5363 1165 
L 5363 1587 
L 3424 1587 
L 3424 2586 
L 5120 2586 
L 5120 3014 
L 1318 3014 
L 1318 2586 
L 2938 2586 
L 2938 1587 
L 1030 1587 
L 1030 1165 
L 2938 1165 
L 2938 122 
L 512 122 
L 512 -314 
L 5920 -314 
L 5920 122 
L 3424 122 
L 3424 1165 
z
" transform="scale(0.015625)"/>
      <path id="NotoSansCJKjp-Regular-53f0" d="M 4723 1773 
L 4723 250 
L 1658 250 
L 1658 1773 
L 4723 1773 
z
M 1178 -486 
L 1658 -486 
L 1658 -205 
L 4723 -205 
L 4723 -474 
L 5229 -474 
L 5229 2221 
L 1178 2221 
L 1178 -486 
z
M 3981 4352 
C 4256 4122 4544 3853 4813 3578 
C 3821 3533 2816 3488 1939 3456 
C 2298 3974 2682 4627 2976 5197 
L 2451 5376 
C 2202 4787 1766 4000 1389 3430 
C 1037 3418 710 3405 429 3398 
L 461 2925 
C 1632 2976 3475 3040 5216 3136 
C 5402 2912 5562 2701 5670 2522 
L 6080 2835 
C 5754 3360 4998 4109 4352 4621 
L 3981 4352 
z
" transform="scale(0.015625)"/>
      <path id="NotoSansCJKjp-Regular-5efa" d="M 4237 4467 
L 5184 4467 
L 5184 4006 
L 4237 4006 
L 4237 4467 
z
M 5184 3155 
L 4237 3155 
L 4237 3629 
L 5184 3629 
L 5184 3155 
z
M 3776 3155 
L 2426 3155 
L 2426 2771 
L 3776 2771 
L 3776 2298 
L 2394 2298 
L 2394 1933 
L 3776 1933 
L 3776 1427 
L 2099 1427 
L 2099 1037 
L 3776 1037 
L 3776 358 
L 4237 358 
L 4237 1037 
L 5984 1037 
L 5984 1427 
L 4237 1427 
L 4237 1933 
L 5709 1933 
L 5709 2298 
L 4237 2298 
L 4237 2771 
L 5645 2771 
L 5645 3629 
L 6125 3629 
L 6125 4006 
L 5645 4006 
L 5645 4845 
L 4237 4845 
L 4237 5306 
L 3776 5306 
L 3776 4845 
L 2470 4845 
L 2470 4467 
L 3776 4467 
L 3776 4006 
L 2016 4006 
L 2016 3629 
L 3776 3629 
L 3776 3155 
z
M 1894 3149 
L 1805 3136 
L 1146 3136 
C 1440 3744 1754 4390 1958 4877 
L 1632 4973 
L 1555 4947 
L 288 4947 
L 288 4525 
L 1318 4525 
C 1062 3962 691 3187 371 2586 
L 806 2464 
L 934 2714 
L 1677 2714 
C 1600 2150 1478 1664 1312 1254 
C 1139 1510 998 1824 883 2208 
L 512 2067 
C 672 1549 870 1139 1107 819 
C 877 390 582 64 237 -166 
C 346 -230 525 -403 595 -499 
C 922 -269 1203 45 1434 454 
C 2106 -166 3027 -320 4186 -320 
L 5971 -320 
C 6003 -179 6093 32 6170 147 
C 5837 141 4461 141 4198 141 
C 3136 141 2266 275 1645 864 
C 1894 1446 2074 2182 2170 3078 
L 1894 3149 
z
" transform="scale(0.015625)"/>
      <path id="NotoSansCJKjp-Regular-7269" d="M 2682 2093 
L 2618 2515 
L 1875 2285 
L 1875 3590 
L 2528 3590 
L 2528 4051 
L 1875 4051 
L 1875 5350 
L 1434 5350 
L 1434 4051 
L 941 4051 
C 986 4333 1030 4627 1062 4915 
L 646 4986 
C 570 4205 448 3398 205 2854 
C 307 2816 486 2701 570 2643 
C 685 2906 774 3232 851 3590 
L 1434 3590 
L 1434 2163 
C 986 2022 576 1914 250 1824 
L 378 1370 
C 691 1466 1056 1581 1434 1696 
L 1434 -493 
L 1875 -493 
L 1875 1837 
L 2682 2093 
z
M 3571 4288 
C 3680 4602 3776 4928 3853 5267 
L 3418 5357 
C 3206 4390 2822 3469 2298 2899 
C 2394 2835 2586 2701 2662 2624 
C 2938 2950 3181 3373 3392 3840 
L 3942 3840 
C 3648 2816 3078 1747 2400 1216 
C 2534 1146 2688 1037 2778 941 
C 3475 1549 4064 2746 4352 3840 
L 4877 3840 
C 4544 2234 3853 659 2803 -96 
C 2944 -166 3110 -282 3200 -384 
C 4262 461 4966 2163 5286 3840 
L 5594 3840 
C 5466 1306 5325 358 5120 134 
C 5050 51 4986 26 4883 26 
C 4755 26 4499 32 4211 58 
C 4294 -70 4339 -269 4346 -410 
C 4627 -429 4902 -435 5075 -410 
C 5267 -390 5395 -333 5517 -166 
C 5773 154 5914 1146 6054 4045 
C 6061 4102 6061 4288 6061 4288 
L 3571 4288 
z
" transform="scale(0.015625)"/>
      <path id="NotoSansCJKjp-Regular-8cb7" d="M 4128 4685 
L 5229 4685 
L 5229 4019 
L 4128 4019 
L 4128 4685 
z
M 2650 4685 
L 3718 4685 
L 3718 4019 
L 2650 4019 
L 2650 4685 
z
M 1203 4685 
L 2240 4685 
L 2240 4019 
L 1203 4019 
L 1203 4685 
z
M 768 5056 
L 768 3648 
L 5683 3648 
L 5683 5056 
L 768 5056 
z
M 1613 2150 
L 4832 2150 
L 4832 1677 
L 1613 1677 
L 1613 2150 
z
M 1613 1363 
L 4832 1363 
L 4832 870 
L 1613 870 
L 1613 1363 
z
M 1613 2944 
L 4832 2944 
L 4832 2470 
L 1613 2470 
L 1613 2944 
z
M 1146 3277 
L 1146 538 
L 5318 538 
L 5318 3277 
L 1146 3277 
z
M 3731 211 
C 4454 -13 5178 -294 5594 -499 
L 6093 -243 
C 5606 -32 4826 250 4102 474 
L 3731 211 
z
M 2240 480 
C 1779 224 1005 -13 339 -147 
C 448 -230 614 -416 691 -506 
C 1338 -333 2144 -32 2669 282 
L 2240 480 
z
" transform="scale(0.015625)"/>
      <path id="NotoSansCJKjp-Regular-8ce3" d="M 2950 4371 
L 922 4371 
L 922 4058 
L 5549 4058 
L 5549 4371 
L 3418 4371 
L 3418 4678 
L 5920 4678 
L 5920 5024 
L 3418 5024 
L 3418 5357 
L 2950 5357 
L 2950 5024 
L 486 5024 
L 486 4678 
L 2950 4678 
L 2950 4371 
z
M 5216 3072 
L 4122 3072 
L 4122 3494 
L 5216 3494 
L 5216 3072 
z
M 3725 3072 
L 2656 3072 
L 2656 3494 
L 3725 3494 
L 3725 3072 
z
M 2259 3072 
L 1222 3072 
L 1222 3494 
L 2259 3494 
L 2259 3072 
z
M 5658 3795 
L 800 3795 
L 800 2771 
L 5658 2771 
L 5658 3795 
z
M 1638 973 
L 4838 973 
L 4838 614 
L 1638 614 
L 1638 973 
z
M 1638 1600 
L 4838 1600 
L 4838 1248 
L 1638 1248 
L 1638 1600 
z
M 1638 2214 
L 4838 2214 
L 4838 1882 
L 1638 1882 
L 1638 2214 
z
M 5312 326 
L 5312 2509 
L 1178 2509 
L 1178 326 
L 5312 326 
z
M 2272 250 
C 1792 77 1011 -77 333 -160 
C 442 -237 602 -410 678 -493 
C 1318 -378 2138 -160 2682 58 
L 2272 250 
z
M 3712 -6 
C 4448 -166 5146 -365 5549 -512 
L 6093 -275 
C 5619 -115 4832 83 4122 230 
L 3712 -6 
z
" transform="scale(0.015625)"/>
      <path id="NotoSansCJKjp-Regular-79fb" d="M 2707 1850 
C 2579 1997 2035 2560 1837 2726 
L 1837 3117 
L 2637 3117 
L 2637 3565 
L 1837 3565 
L 1837 4646 
C 2138 4717 2419 4806 2650 4902 
L 2317 5261 
C 1850 5050 1011 4864 294 4749 
C 352 4640 416 4486 442 4378 
C 736 4422 1062 4474 1376 4538 
L 1376 3565 
L 333 3565 
L 333 3117 
L 1312 3117 
C 1056 2387 614 1562 211 1114 
C 288 998 403 813 448 678 
C 774 1069 1114 1709 1376 2355 
L 1376 -474 
L 1837 -474 
L 1837 2266 
C 2054 2003 2317 1651 2419 1472 
L 2707 1850 
z
M 5517 1958 
C 5331 1562 5075 1229 4755 947 
C 4525 1178 4166 1440 3834 1626 
C 3968 1734 4090 1843 4205 1958 
L 5517 1958 
z
M 5184 4403 
C 5011 4070 4762 3782 4474 3533 
C 4262 3744 3942 3987 3648 4166 
C 3738 4243 3827 4320 3904 4403 
L 5184 4403 
z
M 5830 2381 
L 5741 2362 
L 4570 2362 
C 4704 2534 4819 2707 4922 2880 
L 4442 2963 
C 5037 3379 5523 3942 5805 4678 
L 5510 4819 
L 5421 4800 
L 4256 4800 
C 4378 4954 4486 5107 4576 5267 
L 4102 5350 
C 3821 4864 3277 4288 2477 3898 
C 2579 3827 2726 3674 2784 3578 
C 2982 3686 3168 3802 3341 3923 
C 3622 3744 3936 3488 4141 3283 
C 3680 2963 3142 2739 2592 2605 
C 2682 2509 2790 2336 2842 2221 
C 3405 2381 3962 2624 4442 2963 
C 4134 2400 3494 1766 2560 1331 
C 2662 1261 2797 1114 2861 1005 
C 3085 1120 3296 1242 3488 1370 
C 3814 1171 4173 909 4403 678 
C 3846 294 3168 45 2458 -90 
C 2547 -186 2656 -371 2701 -493 
C 4237 -141 5587 640 6131 2246 
L 5830 2381 
z
" transform="scale(0.015625)"/>
      <path id="NotoSansCJKjp-Regular-8f49" d="M 4678 2502 
L 5306 2502 
L 5082 2387 
C 5178 2304 5274 2202 5363 2106 
L 4678 2093 
L 4678 2502 
z
M 3488 2797 
L 3488 3194 
L 4262 3194 
L 4262 2797 
L 3488 2797 
z
M 3488 3872 
L 4262 3872 
L 4262 3482 
L 3488 3482 
L 3488 3872 
z
M 5498 3872 
L 5498 3482 
L 4678 3482 
L 4678 3872 
L 5498 3872 
z
M 5498 2797 
L 4678 2797 
L 4678 3194 
L 5498 3194 
L 5498 2797 
z
M 2918 1702 
C 3622 1715 4640 1741 5645 1773 
C 5722 1677 5786 1581 5830 1504 
L 6163 1709 
C 6016 1933 5734 2259 5446 2502 
L 5894 2502 
L 5894 4166 
L 4678 4166 
L 4678 4512 
L 6048 4512 
L 6048 4890 
L 4678 4890 
L 4678 5350 
L 4262 5350 
L 4262 4890 
L 2950 4890 
L 2950 4512 
L 4262 4512 
L 4262 4166 
L 3098 4166 
L 3098 2502 
L 4262 2502 
L 4262 2086 
C 3738 2074 3258 2074 2886 2067 
L 2918 1702 
z
M 3258 704 
C 3494 486 3744 160 3859 -70 
L 4211 160 
C 4090 378 3834 685 3578 896 
L 3258 704 
z
M 851 2502 
L 1446 2502 
L 1446 1920 
L 851 1920 
L 851 2502 
z
M 851 3411 
L 1446 3411 
L 1446 2842 
L 851 2842 
L 851 3411 
z
M 2381 2842 
L 1786 2842 
L 1786 3411 
L 2381 3411 
L 2381 2842 
z
M 2381 1920 
L 1786 1920 
L 1786 2502 
L 2381 2502 
L 2381 1920 
z
M 5350 1670 
L 4909 1670 
L 4909 1331 
L 2880 1331 
L 2880 1043 
L 1824 1043 
L 1824 1562 
L 2746 1562 
L 2746 3770 
L 1824 3770 
L 1824 4243 
L 2816 4243 
L 2816 4659 
L 1824 4659 
L 1824 5350 
L 1402 5350 
L 1402 4659 
L 352 4659 
L 352 4243 
L 1402 4243 
L 1402 3770 
L 499 3770 
L 499 1562 
L 1402 1562 
L 1402 1043 
L 269 1043 
L 269 621 
L 1402 621 
L 1402 -493 
L 1824 -493 
L 1824 621 
L 2906 621 
L 2906 954 
L 4909 954 
L 4909 -19 
C 4909 -90 4890 -102 4800 -109 
C 4710 -115 4422 -115 4102 -102 
C 4160 -218 4224 -378 4243 -499 
C 4666 -499 4941 -499 5126 -429 
C 5299 -371 5350 -256 5350 -26 
L 5350 954 
L 6125 954 
L 6125 1331 
L 5350 1331 
L 5350 1670 
z
" transform="scale(0.015625)"/>
      <path id="NotoSansCJKjp-Regular-76e3" d="M 6003 3981 
L 6003 4397 
L 4166 4397 
C 4269 4666 4352 4954 4422 5242 
L 4000 5331 
C 3834 4589 3539 3878 3130 3411 
C 3238 3347 3411 3219 3488 3149 
C 3674 3379 3840 3661 3994 3981 
L 6003 3981 
z
M 5850 2413 
L 5850 2822 
L 3699 2822 
L 3699 2413 
L 5850 2413 
z
M 966 3027 
L 1734 3027 
L 1734 2515 
L 966 2515 
L 966 3027 
z
M 1734 4736 
L 1734 4262 
L 966 4262 
L 966 4736 
L 1734 4736 
z
M 2675 3354 
L 966 3354 
L 966 3930 
L 2675 3930 
L 2675 3354 
z
M 3251 2515 
L 2125 2515 
L 2125 3027 
L 3072 3027 
L 3072 4262 
L 2125 4262 
L 2125 4736 
L 3194 4736 
L 3194 5114 
L 531 5114 
L 531 2131 
L 3251 2131 
L 3251 2515 
z
M 1472 1293 
L 2330 1293 
L 2330 115 
L 1472 115 
L 1472 1293 
z
M 3629 1293 
L 3629 115 
L 2758 115 
L 2758 1293 
L 3629 1293 
z
M 4941 1293 
L 4941 115 
L 4064 115 
L 4064 1293 
L 4941 1293 
z
M 5408 115 
L 5408 1683 
L 1024 1683 
L 1024 115 
L 314 115 
L 314 -307 
L 6093 -307 
L 6093 115 
L 5408 115 
z
" transform="scale(0.015625)"/>
      <path id="NotoSansCJKjp-Regular-63a7" d="M 4435 4282 
L 4435 3027 
C 4435 2598 4538 2470 4986 2470 
L 5568 2470 
C 5914 2470 6029 2637 6074 3264 
C 5952 3290 5779 3354 5683 3424 
C 5670 2938 5645 2874 5517 2874 
L 5043 2874 
C 4902 2874 4877 2893 4877 3027 
L 4877 4282 
L 5632 4282 
L 5632 3654 
L 6067 3654 
L 6067 4685 
L 4352 4685 
L 4352 5357 
L 3898 5357 
L 3898 4685 
L 2304 4685 
L 2304 3597 
L 2726 3597 
L 2726 4282 
L 3398 4282 
C 3354 3354 3194 2874 2272 2611 
C 2362 2528 2470 2374 2509 2278 
C 3565 2598 3770 3194 3834 4282 
L 4435 4282 
z
M 2240 2291 
L 2157 2720 
C 1946 2643 1734 2573 1530 2502 
L 1530 3635 
L 2195 3635 
L 2195 4070 
L 1530 4070 
L 1530 5350 
L 1088 5350 
L 1088 4070 
L 288 4070 
L 288 3635 
L 1088 3635 
L 1088 2349 
C 755 2240 448 2138 205 2061 
L 320 1600 
C 550 1683 813 1773 1088 1875 
L 1088 64 
C 1088 -32 1056 -51 979 -51 
C 902 -58 653 -58 378 -51 
C 442 -179 499 -378 518 -486 
C 915 -493 1158 -474 1312 -403 
C 1472 -326 1530 -198 1530 64 
L 1530 2035 
L 2240 2291 
z
M 4352 128 
L 4352 1466 
L 5818 1466 
L 5818 1901 
L 2515 1901 
L 2515 1466 
L 3891 1466 
L 3891 128 
L 2106 128 
L 2106 -307 
L 6125 -307 
L 6125 128 
L 4352 128 
z
" transform="scale(0.015625)"/>
      <path id="NotoSansCJKjp-Regular-8da8" d="M 1946 1754 
L 2605 1754 
L 2586 1734 
C 2688 1677 2861 1555 2944 1485 
C 2995 1536 3046 1587 3098 1645 
L 3098 1037 
L 3795 1037 
C 3661 845 3386 666 2835 550 
C 2918 493 3014 371 3053 288 
C 3782 467 4083 742 4198 1037 
L 5094 1037 
L 5094 1914 
L 4749 1914 
L 4749 1357 
L 4262 1357 
L 4262 1414 
L 4262 2042 
L 3910 2042 
L 3910 1421 
C 3910 1402 3910 1376 3910 1357 
L 3437 1357 
L 3437 1914 
L 3322 1914 
C 3405 2016 3475 2125 3552 2240 
L 5549 2240 
C 5485 1261 5427 890 5325 781 
C 5280 723 5235 717 5146 723 
C 5056 723 4845 723 4608 742 
C 4659 653 4698 512 4704 410 
C 4954 397 5197 390 5325 403 
C 5478 416 5581 448 5670 550 
C 5824 717 5894 1171 5965 2406 
C 5971 2464 5978 2586 5978 2586 
L 3750 2586 
C 3808 2694 3859 2803 3904 2912 
L 3731 2957 
C 4038 3104 4186 3283 4250 3475 
L 5107 3475 
L 5107 4307 
L 4768 4307 
L 4768 3776 
L 4294 3776 
L 4294 4435 
L 3962 4435 
L 3962 3776 
L 3494 3776 
L 3494 4307 
L 3392 4307 
C 3469 4410 3539 4512 3610 4621 
L 5530 4621 
C 5472 3712 5408 3354 5312 3258 
C 5267 3206 5222 3194 5139 3194 
C 5050 3194 4845 3200 4608 3226 
C 4659 3136 4698 3002 4704 2906 
C 4947 2886 5190 2886 5312 2893 
C 5472 2906 5568 2938 5658 3040 
C 5798 3200 5869 3635 5939 4794 
C 5946 4858 5952 4966 5952 4966 
L 3808 4966 
C 3859 5069 3910 5178 3955 5286 
L 3546 5389 
C 3354 4896 3014 4410 2637 4090 
C 2739 4026 2912 3910 2995 3846 
C 3053 3904 3110 3962 3168 4032 
L 3168 3475 
L 3885 3475 
C 3763 3283 3494 3110 2893 3002 
C 2970 2938 3046 2822 3078 2746 
C 3200 2771 3309 2803 3405 2829 
C 3238 2477 3008 2144 2739 1875 
L 2739 2176 
L 1946 2176 
L 1946 2989 
L 2816 2989 
L 2816 3411 
L 1818 3411 
L 1818 4160 
L 2656 4160 
L 2656 4582 
L 1818 4582 
L 1818 5357 
L 1389 5357 
L 1389 4582 
L 499 4582 
L 499 4160 
L 1389 4160 
L 1389 3411 
L 333 3411 
L 333 2989 
L 1517 2989 
L 1517 730 
C 1306 954 1152 1267 1030 1683 
C 1043 1952 1050 2208 1043 2458 
L 646 2483 
C 666 1638 621 563 179 -198 
C 275 -243 422 -378 493 -474 
C 730 -83 864 378 947 851 
C 1421 -96 2202 -320 3597 -320 
L 5958 -320 
C 5990 -179 6074 32 6157 147 
C 5773 134 3891 134 3597 134 
C 2893 134 2355 198 1946 403 
L 1946 1754 
z
" transform="scale(0.015625)"/>
      <path id="NotoSansCJKjp-Regular-52e2" d="M 2022 3987 
L 2022 3693 
C 2022 3366 2099 3296 2451 3296 
L 2867 3296 
C 3110 3296 3213 3386 3238 3699 
C 3142 3712 3002 3757 2931 3808 
C 2918 3610 2899 3584 2803 3584 
L 2502 3584 
C 2406 3584 2394 3590 2394 3693 
L 2394 3987 
L 3245 3987 
L 3245 4320 
L 2010 4320 
L 2010 4666 
L 2982 4666 
L 2982 4979 
L 2010 4979 
L 2010 5357 
L 1574 5357 
L 1574 4979 
L 621 4979 
L 621 4666 
L 1574 4666 
L 1574 4320 
L 365 4320 
L 365 3987 
L 1165 3987 
C 1069 3661 755 3488 333 3392 
C 410 3315 499 3168 531 3085 
C 1056 3238 1427 3514 1536 3987 
L 2022 3987 
z
M 3104 2349 
L 2010 2266 
L 2010 2675 
L 3008 2675 
L 3008 2995 
L 2010 2995 
L 2010 3347 
L 1574 3347 
L 1574 2995 
L 608 2995 
L 608 2675 
L 1574 2675 
L 1574 2240 
C 1101 2202 666 2176 326 2157 
L 352 1792 
C 1082 1850 2099 1933 3098 2016 
L 3104 2349 
z
M 5568 1395 
L 3328 1395 
C 3360 1517 3386 1645 3405 1779 
L 2925 1779 
C 2906 1645 2880 1517 2848 1395 
L 736 1395 
L 736 1011 
L 2707 1011 
C 2413 422 1805 70 384 -109 
C 467 -205 570 -397 602 -499 
C 2234 -262 2899 211 3213 1011 
L 5050 1011 
C 4973 365 4890 70 4781 -26 
C 4723 -70 4659 -77 4531 -77 
C 4403 -77 4038 -70 3674 -38 
C 3750 -154 3808 -339 3814 -467 
C 4179 -486 4538 -486 4717 -480 
C 4922 -467 5043 -435 5171 -320 
C 5344 -154 5446 250 5549 1184 
L 5568 1395 
z
M 4506 4595 
C 4518 4832 4525 5088 4531 5357 
L 4115 5357 
C 4109 5088 4102 4832 4096 4595 
L 3392 4595 
L 3392 4205 
L 4070 4205 
C 4051 3962 4026 3738 3981 3533 
C 3814 3629 3648 3712 3494 3789 
L 3283 3488 
C 3475 3392 3680 3277 3885 3155 
C 3738 2720 3501 2387 3104 2138 
C 3200 2080 3334 1926 3379 1837 
C 3802 2106 4064 2464 4237 2918 
C 4454 2765 4646 2605 4781 2464 
L 5005 2816 
C 4851 2963 4614 3142 4352 3309 
C 4416 3578 4454 3878 4480 4205 
L 5133 4205 
C 5146 2726 5190 1715 5779 1715 
C 6106 1715 6176 1971 6214 2662 
C 6138 2714 6016 2822 5933 2918 
C 5926 2458 5894 2118 5818 2118 
C 5555 2118 5555 3174 5555 4595 
L 4506 4595 
z
" transform="scale(0.015625)"/>
     </defs>
     <use xlink:href="#NotoSansCJKjp-Regular-5168"/>
     <use xlink:href="#NotoSansCJKjp-Regular-53f0" transform="translate(99.999985 0)"/>
     <use xlink:href="#NotoSansCJKjp-Regular-5efa" transform="translate(199.999969 0)"/>
     <use xlink:href="#NotoSansCJKjp-Regular-7269" transform="translate(299.999954 0)"/>
     <use xlink:href="#NotoSansCJKjp-Regular-8cb7" transform="translate(399.999939 0)"/>
     <use xlink:href="#NotoSansCJKjp-Regular-8ce3" transform="translate(499.999924 0)"/>
     <use xlink:href="#NotoSansCJKjp-Regular-79fb" transform="translate(599.999908 0)"/>
     <use xlink:href="#NotoSansCJKjp-Regular-8f49" transform="translate(699.999893 0)"/>
     <use xlink:href="#NotoSansCJKjp-Regular-68df" transform="translate(799.999878 0)"/>
     <use xlink:href="#NotoSansCJKjp-Regular-6578" transform="translate(899.999863 0)"/>
     <use xlink:href="#NotoSansCJKjp-Regular-76e3" transform="translate(999.999847 0)"/>
     <use xlink:href="#NotoSansCJKjp-Regular-63a7" transform="translate(1099.999832 0)"/>
     <use xlink:href="#NotoSansCJKjp-Regular-8da8" transform="translate(1199.999817 0)"/>
     <use xlink:href="#NotoSansCJKjp-Regular-52e2" transform="translate(1299.999802 0)"/>
    </g>
   </g>
  </g>
 </g>
 <defs>
  <clipPath id="p26f93c320a">
   <rect x="69.95" y="43.36" width="783.25" height="319.709276"/>
  </clipPath>
 </defs>
</svg>
