<?xml version="1.0" encoding="utf-8" standalone="no"?>
<!DOCTYPE svg PUBLIC "-//W3C//DTD SVG 1.1//EN"
  "http://www.w3.org/Graphics/SVG/1.1/DTD/svg11.dtd">
<svg xmlns:xlink="http://www.w3.org/1999/xlink" width="864pt" height="432pt" viewBox="0 0 864 432" xmlns="http://www.w3.org/2000/svg" version="1.1">
 <metadata>
  <rdf:RDF xmlns:dc="http://purl.org/dc/elements/1.1/" xmlns:cc="http://creativecommons.org/ns#" xmlns:rdf="http://www.w3.org/1999/02/22-rdf-syntax-ns#">
   <cc:Work>
    <dc:type rdf:resource="http://purl.org/dc/dcmitype/StillImage"/>
    <dc:date>2026-02-16T12:03:01.758670</dc:date>
    <dc:format>image/svg+xml</dc:format>
    <dc:creator>
     <cc:Agent>
      <dc:title>Matplotlib v3.10.8, https://matplotlib.org/</dc:title>
     </cc:Agent>
    </dc:creator>
   </cc:Work>
  </rdf:RDF>
 </metadata>
 <defs>
  <style type="text/css">*{stroke-linejoin: round; stroke-linecap: butt}</style>
 </defs>
 <g id="figure_1">
  <g id="patch_1">
   <path d="M 0 432 
L 864 432 
L 864 0 
L 0 0 
z
" style="fill: #ffffff"/>
  </g>
  <g id="axes_1">
   <g id="text_1">
    <!-- 全台建物買賣移轉棟數 -->
    <g style="fill: #0d3b66" transform="translate(312 161.435625) scale(0.24 -0.24)">
     <defs>
      <path id="NotoSansCJKjp-Bold-5168" d="M 486 262 
L 486 -422 
L 5958 -422 
L 5958 262 
L 3584 262 
L 3584 1037 
L 5382 1037 
L 5382 1702 
L 3584 1702 
L 3584 2445 
L 5088 2445 
L 5088 2944 
C 5318 2784 5549 2643 5779 2515 
C 5920 2752 6093 3002 6291 3200 
C 5267 3635 4224 4480 3539 5459 
L 2739 5459 
C 2272 4672 1235 3686 128 3123 
C 301 2970 518 2688 614 2509 
C 858 2643 1101 2797 1331 2957 
L 1331 2445 
L 2778 2445 
L 2778 1702 
L 1005 1702 
L 1005 1037 
L 2778 1037 
L 2778 262 
L 486 262 
z
M 3174 4710 
C 3552 4192 4173 3610 4838 3123 
L 1568 3123 
C 2234 3616 2816 4192 3174 4710 
z
" transform="scale(0.015625)"/>
      <path id="NotoSansCJKjp-Bold-53f0" d="M 1062 2272 
L 1062 -570 
L 1850 -570 
L 1850 -314 
L 4518 -314 
L 4518 -563 
L 5344 -563 
L 5344 2272 
L 1062 2272 
z
M 1850 429 
L 1850 1536 
L 4518 1536 
L 4518 429 
L 1850 429 
z
M 378 3622 
L 422 2848 
C 1619 2899 3418 2963 5114 3053 
C 5286 2842 5427 2643 5523 2470 
L 6189 2982 
C 5856 3533 5088 4275 4461 4794 
L 3853 4346 
C 4051 4173 4262 3974 4467 3770 
L 2298 3686 
C 2605 4154 2925 4691 3194 5197 
L 2317 5485 
C 2093 4915 1722 4211 1370 3654 
L 378 3622 
z
" transform="scale(0.015625)"/>
      <path id="NotoSansCJKjp-Bold-5efa" d="M 2438 5024 
L 2438 4448 
L 3622 4448 
L 3622 4186 
L 2003 4186 
L 2003 3597 
L 3622 3597 
L 3622 3334 
L 2406 3334 
L 2406 2752 
L 3622 2752 
L 3622 2470 
L 2374 2470 
L 2374 1914 
L 3622 1914 
L 3622 1619 
L 2093 1619 
L 2093 1018 
L 3622 1018 
L 3622 499 
L 4365 499 
L 4365 1018 
L 6048 1018 
L 6048 1619 
L 4365 1619 
L 4365 1914 
L 5754 1914 
L 5754 2470 
L 4365 2470 
L 4365 2752 
L 5702 2752 
L 5702 3597 
L 6189 3597 
L 6189 4186 
L 5702 4186 
L 5702 5024 
L 4365 5024 
L 4365 5389 
L 3622 5389 
L 3622 5024 
L 2438 5024 
z
M 4365 3597 
L 4954 3597 
L 4954 3334 
L 4365 3334 
L 4365 3597 
z
M 4365 4186 
L 4365 4448 
L 4954 4448 
L 4954 4186 
L 4365 4186 
z
M 896 2240 
L 294 2029 
C 461 1510 666 1101 902 774 
C 704 416 454 128 154 -83 
C 314 -179 614 -448 730 -595 
C 1005 -390 1242 -115 1440 224 
C 2118 -288 3002 -416 4083 -416 
L 5965 -416 
C 6016 -198 6144 160 6266 333 
C 5792 314 4486 314 4102 314 
C 3162 320 2355 416 1754 890 
C 1984 1504 2138 2266 2214 3187 
L 1766 3290 
L 1632 3270 
L 1312 3270 
C 1574 3859 1837 4467 2029 4966 
L 1504 5114 
L 1389 5082 
L 211 5082 
L 211 4410 
L 1050 4410 
C 813 3853 499 3155 224 2592 
L 915 2413 
L 1005 2598 
L 1440 2598 
C 1382 2195 1312 1837 1210 1517 
C 1088 1722 986 1958 896 2240 
z
" transform="scale(0.015625)"/>
      <path id="NotoSansCJKjp-Bold-7269" d="M 3302 5440 
C 3110 4493 2752 3571 2246 3014 
C 2406 2918 2701 2701 2822 2579 
C 3072 2893 3302 3283 3494 3731 
L 3821 3731 
C 3533 2797 3034 1843 2394 1344 
C 2598 1235 2842 1056 2989 915 
C 3635 1523 4179 2682 4454 3731 
L 4762 3731 
C 4429 2227 3789 762 2765 26 
C 2976 -83 3245 -275 3386 -422 
C 4422 429 5088 2106 5408 3731 
L 5434 3731 
C 5331 1421 5216 544 5050 339 
C 4973 243 4915 218 4819 218 
C 4698 218 4480 218 4243 243 
C 4365 32 4442 -288 4454 -506 
C 4736 -518 5005 -518 5184 -486 
C 5402 -442 5536 -371 5690 -154 
C 5933 173 6048 1222 6170 4096 
C 6176 4186 6182 4442 6182 4442 
L 3763 4442 
C 3853 4723 3936 5011 4000 5306 
L 3302 5440 
z
M 474 5069 
C 422 4314 314 3514 109 2995 
C 256 2918 538 2746 653 2650 
C 742 2880 826 3162 896 3469 
L 1318 3469 
L 1318 2240 
C 890 2118 486 2016 173 1946 
L 358 1210 
L 1318 1498 
L 1318 -576 
L 2022 -576 
L 2022 1709 
L 2714 1926 
L 2618 2598 
L 2022 2432 
L 2022 3469 
L 2560 3469 
L 2560 4198 
L 2022 4198 
L 2022 5434 
L 1318 5434 
L 1318 4198 
L 1024 4198 
C 1062 4454 1094 4710 1120 4966 
L 474 5069 
z
" transform="scale(0.015625)"/>
      <path id="NotoSansCJKjp-Bold-8cb7" d="M 4211 4602 
L 5018 4602 
L 5018 4160 
L 4211 4160 
L 4211 4602 
z
M 2790 4602 
L 3571 4602 
L 3571 4160 
L 2790 4160 
L 2790 4602 
z
M 1389 4602 
L 2150 4602 
L 2150 4160 
L 1389 4160 
L 1389 4602 
z
M 678 5171 
L 678 3590 
L 5766 3590 
L 5766 5171 
L 678 5171 
z
M 1798 2074 
L 4608 2074 
L 4608 1760 
L 1798 1760 
L 1798 2074 
z
M 1798 1306 
L 4608 1306 
L 4608 986 
L 1798 986 
L 1798 1306 
z
M 1798 2835 
L 4608 2835 
L 4608 2528 
L 1798 2528 
L 1798 2835 
z
M 3558 166 
C 4262 -70 4973 -371 5370 -582 
L 6202 -198 
C 5747 6 5005 282 4333 506 
L 5414 506 
L 5414 3322 
L 1024 3322 
L 1024 506 
L 2029 506 
C 1574 282 858 77 224 -38 
C 390 -166 666 -448 794 -602 
C 1459 -416 2304 -102 2842 250 
L 2272 506 
L 4090 506 
L 3558 166 
z
" transform="scale(0.015625)"/>
      <path id="NotoSansCJKjp-Bold-8ce3" d="M 4186 3386 
L 4992 3386 
L 4992 3104 
L 4186 3104 
L 4186 3386 
z
M 2784 3386 
L 3578 3386 
L 3578 3104 
L 2784 3104 
L 2784 3386 
z
M 1408 3386 
L 2176 3386 
L 2176 3104 
L 1408 3104 
L 1408 3386 
z
M 730 3802 
L 730 2682 
L 5709 2682 
L 5709 3802 
L 730 3802 
z
M 1850 1498 
L 4614 1498 
L 4614 1280 
L 1850 1280 
L 1850 1498 
z
M 1850 896 
L 4614 896 
L 4614 672 
L 1850 672 
L 1850 896 
z
M 1850 2093 
L 4614 2093 
L 4614 1882 
L 1850 1882 
L 1850 2093 
z
M 2803 5440 
L 2803 5126 
L 422 5126 
L 422 4627 
L 2803 4627 
L 2803 4429 
L 896 4429 
L 896 3981 
L 5581 3981 
L 5581 4429 
L 3565 4429 
L 3565 4627 
L 5990 4627 
L 5990 5126 
L 3565 5126 
L 3565 5440 
L 2803 5440 
z
M 3558 -70 
C 4250 -237 4922 -448 5286 -602 
L 6202 -262 
C 5734 -109 4947 109 4269 269 
L 5389 269 
L 5389 2496 
L 1101 2496 
L 1101 269 
L 2067 269 
C 1600 122 870 6 224 -64 
C 390 -179 646 -435 768 -582 
C 1434 -461 2291 -243 2842 0 
L 2266 269 
L 4186 269 
L 3558 -70 
z
" transform="scale(0.015625)"/>
      <path id="NotoSansCJKjp-Bold-79fb" d="M 3910 4262 
L 4909 4262 
C 4768 4051 4595 3859 4397 3693 
C 4230 3846 3994 4013 3782 4147 
L 3910 4262 
z
M 3981 5434 
C 3699 4934 3181 4403 2368 4026 
C 2522 3917 2746 3661 2842 3494 
C 3002 3584 3155 3674 3296 3770 
C 3488 3642 3706 3462 3866 3309 
C 3469 3078 3021 2906 2547 2797 
C 2688 2656 2867 2374 2944 2189 
C 3360 2310 3757 2464 4122 2662 
C 3808 2202 3302 1741 2579 1408 
C 2733 1293 2950 1043 3046 870 
C 3213 960 3360 1050 3507 1146 
C 3725 1011 3962 826 4141 659 
C 3654 365 3072 166 2426 58 
C 2566 -96 2733 -403 2803 -595 
C 4442 -230 5696 550 6208 2208 
L 5715 2406 
L 5581 2381 
L 4768 2381 
C 4864 2522 4954 2662 5030 2810 
L 4512 2906 
C 5139 3328 5632 3910 5920 4685 
L 5434 4902 
L 5306 4877 
L 4454 4877 
C 4550 5011 4640 5152 4723 5293 
L 3981 5434 
z
M 4250 1754 
L 5210 1754 
C 5075 1504 4909 1286 4704 1088 
C 4525 1254 4275 1427 4045 1562 
L 4250 1754 
z
M 2176 5370 
C 1683 5152 896 4960 186 4845 
C 269 4685 365 4429 403 4256 
C 653 4288 915 4333 1184 4378 
L 1184 3635 
L 262 3635 
L 262 2925 
L 1082 2925 
C 851 2304 486 1613 128 1197 
C 250 1005 416 685 486 467 
C 736 787 979 1242 1184 1734 
L 1184 -570 
L 1926 -570 
L 1926 1939 
C 2080 1702 2234 1453 2310 1286 
L 2752 1894 
C 2630 2035 2099 2592 1926 2733 
L 1926 2925 
L 2611 2925 
L 2611 3635 
L 1926 3635 
L 1926 4544 
C 2202 4608 2464 4691 2694 4781 
L 2176 5370 
z
" transform="scale(0.015625)"/>
      <path id="NotoSansCJKjp-Bold-8f49" d="M 2874 2182 
L 2918 1632 
L 5581 1702 
C 5632 1619 5670 1542 5702 1472 
L 6240 1747 
C 6131 1958 5933 2240 5722 2483 
L 5990 2483 
L 5990 4211 
L 4826 4211 
L 4826 4442 
L 6112 4442 
L 6112 5011 
L 4826 5011 
L 4826 5434 
L 4166 5434 
L 4166 5011 
L 2938 5011 
L 2938 4442 
L 4166 4442 
L 4166 4211 
L 3046 4211 
L 3046 2483 
L 4166 2483 
L 4166 2202 
L 2874 2182 
z
M 4768 813 
L 4768 109 
C 4768 38 4736 19 4646 13 
C 4570 13 4269 13 4006 26 
L 4275 192 
C 4186 371 4006 614 3814 813 
L 4768 813 
z
M 397 3821 
L 397 1491 
L 1216 1491 
L 1216 1114 
L 179 1114 
L 179 442 
L 1216 442 
L 1216 -570 
L 1894 -570 
L 1894 442 
L 2886 442 
L 2886 813 
L 3494 813 
L 3174 627 
C 3405 397 3629 70 3725 -154 
L 3981 6 
C 4064 -166 4147 -410 4173 -595 
C 4621 -595 4934 -589 5171 -493 
C 5408 -403 5472 -237 5472 90 
L 5472 813 
L 6202 813 
L 6202 1376 
L 5472 1376 
L 5472 1632 
L 4768 1632 
L 4768 1376 
L 2880 1376 
L 2880 1114 
L 1894 1114 
L 1894 1491 
L 2752 1491 
L 2752 3821 
L 1894 3821 
L 1894 4160 
L 2810 4160 
L 2810 4819 
L 1894 4819 
L 1894 5434 
L 1216 5434 
L 1216 4819 
L 269 4819 
L 269 4160 
L 1216 4160 
L 1216 3821 
L 397 3821 
z
M 3648 3155 
L 4166 3155 
L 4166 2899 
L 3648 2899 
L 3648 3155 
z
M 4826 3155 
L 5357 3155 
L 5357 2899 
L 4826 2899 
L 4826 3155 
z
M 3648 3795 
L 4166 3795 
L 4166 3552 
L 3648 3552 
L 3648 3795 
z
M 4826 3795 
L 5357 3795 
L 5357 3552 
L 4826 3552 
L 4826 3795 
z
M 5075 2400 
L 5229 2221 
L 4826 2214 
L 4826 2483 
L 5254 2483 
L 5075 2400 
z
M 934 2406 
L 1306 2406 
L 1306 2029 
L 934 2029 
L 934 2406 
z
M 1805 2406 
L 2189 2406 
L 2189 2029 
L 1805 2029 
L 1805 2406 
z
M 934 3283 
L 1306 3283 
L 1306 2912 
L 934 2912 
L 934 3283 
z
M 1805 3283 
L 2189 3283 
L 2189 2912 
L 1805 2912 
L 1805 3283 
z
" transform="scale(0.015625)"/>
      <path id="NotoSansCJKjp-Bold-68df" d="M 2707 3757 
L 2707 1510 
L 3635 1510 
C 3277 1005 2701 518 2150 243 
C 2317 109 2547 -166 2669 -352 
C 3123 -70 3584 365 3942 858 
L 3942 -576 
L 4685 -576 
L 4685 973 
C 5005 480 5402 6 5766 -288 
C 5888 -109 6131 160 6298 294 
C 5862 570 5350 1050 5018 1510 
L 5978 1510 
L 5978 3757 
L 4685 3757 
L 4685 4115 
L 6099 4115 
L 6099 4762 
L 4685 4762 
L 4685 5434 
L 3942 5434 
L 3942 4762 
L 2534 4762 
L 2534 4115 
L 3942 4115 
L 3942 3757 
L 2707 3757 
z
M 3392 2387 
L 3942 2387 
L 3942 2048 
L 3392 2048 
L 3392 2387 
z
M 4685 2387 
L 5267 2387 
L 5267 2048 
L 4685 2048 
L 4685 2387 
z
M 3392 3219 
L 3942 3219 
L 3942 2893 
L 3392 2893 
L 3392 3219 
z
M 4685 3219 
L 5267 3219 
L 5267 2893 
L 4685 2893 
L 4685 3219 
z
M 1094 5440 
L 1094 4115 
L 288 4115 
L 288 3405 
L 1037 3405 
C 858 2637 512 1760 128 1248 
C 243 1062 416 762 480 557 
C 710 877 922 1331 1094 1837 
L 1094 -570 
L 1805 -570 
L 1805 2125 
C 1958 1837 2106 1530 2189 1325 
L 2605 1894 
C 2496 2086 1978 2861 1805 3085 
L 1805 3405 
L 2502 3405 
L 2502 4115 
L 1805 4115 
L 1805 5440 
L 1094 5440 
z
" transform="scale(0.015625)"/>
      <path id="NotoSansCJKjp-Bold-6578" d="M 4512 3558 
L 5152 3558 
C 5088 2982 4992 2464 4845 2003 
C 4691 2470 4582 2976 4506 3514 
L 4512 3558 
z
M 192 4448 
L 192 3904 
L 602 3904 
L 602 3226 
L 1606 3226 
L 1606 3021 
L 474 3021 
L 474 1830 
L 1382 1830 
L 1248 1574 
L 211 1568 
L 237 998 
L 922 1011 
C 800 800 678 602 570 442 
L 1184 288 
L 1235 371 
L 1581 230 
C 1261 109 858 32 365 -13 
C 474 -160 589 -403 627 -602 
C 1318 -486 1856 -333 2259 -96 
C 2528 -237 2765 -378 2944 -506 
L 3379 -64 
C 3507 -230 3661 -474 3712 -602 
C 4160 -326 4518 0 4806 384 
C 5056 -6 5363 -339 5741 -589 
C 5850 -397 6074 -115 6240 26 
C 5818 275 5491 640 5235 1094 
C 5562 1773 5747 2592 5869 3558 
L 6208 3558 
L 6208 4269 
L 4691 4269 
C 4768 4614 4826 4973 4877 5338 
L 4147 5440 
C 4026 4461 3821 3507 3456 2822 
L 3456 3021 
L 2259 3021 
L 2259 3226 
L 3328 3226 
L 3328 3904 
L 3750 3904 
L 3750 4448 
L 3328 4448 
L 3328 5120 
L 2259 5120 
L 2259 5440 
L 1606 5440 
L 1606 5120 
L 602 5120 
L 602 4448 
L 192 4448 
z
M 4051 2349 
C 4154 1901 4282 1478 4435 1101 
C 4160 659 3795 301 3302 38 
C 3149 128 2963 230 2765 326 
C 2925 525 3053 762 3136 1050 
L 3731 1062 
L 3757 1606 
L 1952 1581 
L 2086 1824 
L 2061 1830 
L 3456 1830 
L 3456 2304 
C 3590 2176 3738 2022 3802 1926 
C 3891 2054 3974 2202 4051 2349 
z
M 1235 4640 
L 1606 4640 
L 1606 4410 
L 1235 4410 
L 1235 4640 
z
M 1606 3712 
L 1235 3712 
L 1235 3942 
L 1606 3942 
L 1606 3712 
z
M 2259 4640 
L 2662 4640 
L 2662 4410 
L 2259 4410 
L 2259 4640 
z
M 2259 3712 
L 2259 3942 
L 2662 3942 
L 2662 3712 
L 2259 3712 
z
M 1101 2560 
L 1606 2560 
L 1606 2291 
L 1101 2291 
L 1101 2560 
z
M 2259 2560 
L 2790 2560 
L 2790 2291 
L 2259 2291 
L 2259 2560 
z
M 1638 1018 
L 2451 1037 
C 2374 864 2278 723 2163 602 
C 1952 685 1741 768 1530 845 
L 1638 1018 
z
" transform="scale(0.015625)"/>
     </defs>
     <use xlink:href="#NotoSansCJKjp-Bold-5168"/>
     <use xlink:href="#NotoSansCJKjp-Bold-53f0" transform="translate(99.999985 0)"/>
     <use xlink:href="#NotoSansCJKjp-Bold-5efa" transform="translate(199.999969 0)"/>
     <use xlink:href="#NotoSansCJKjp-Bold-7269" transform="translate(299.999954 0)"/>
     <use xlink:href="#NotoSansCJKjp-Bold-8cb7" transform="translate(399.999939 0)"/>
     <use xlink:href="#NotoSansCJKjp-Bold-8ce3" transform="translate(499.999924 0)"/>
     <use xlink:href="#NotoSansCJKjp-Bold-79fb" transform="translate(599.999908 0)"/>
     <use xlink:href="#NotoSansCJKjp-Bold-8f49" transform="translate(699.999893 0)"/>
     <use xlink:href="#NotoSansCJKjp-Bold-68df" transform="translate(799.999878 0)"/>
     <use xlink:href="#NotoSansCJKjp-Bold-6578" transform="translate(899.999863 0)"/>
    </g>
   </g>
   <g id="text_2">
    <!-- 目前無法取得資料，已保留上次可用輸出或等待下次更新。 -->
    <g style="fill: #444444" transform="translate(250 228.176125) scale(0.14 -0.14)">
     <defs>
      <path id="NotoSansCJKjp-Regular-76ee" d="M 1491 3008 
L 4858 3008 
L 4858 1952 
L 1491 1952 
L 1491 3008 
z
M 1491 3469 
L 1491 4506 
L 4858 4506 
L 4858 3469 
L 1491 3469 
z
M 1491 1491 
L 4858 1491 
L 4858 429 
L 1491 429 
L 1491 1491 
z
M 1011 4979 
L 1011 -474 
L 1491 -474 
L 1491 -38 
L 4858 -38 
L 4858 -474 
L 5357 -474 
L 5357 4979 
L 1011 4979 
z
" transform="scale(0.015625)"/>
      <path id="NotoSansCJKjp-Regular-524d" d="M 3866 3290 
L 3866 666 
L 4314 666 
L 4314 3290 
L 3866 3290 
z
M 5165 3482 
L 5165 90 
C 5165 -6 5133 -32 5030 -32 
C 4922 -38 4576 -38 4186 -26 
C 4256 -154 4333 -358 4358 -486 
C 4851 -493 5178 -480 5370 -403 
C 5568 -326 5638 -192 5638 83 
L 5638 3482 
L 5165 3482 
z
M 4627 5408 
C 4486 5094 4243 4672 4026 4365 
L 2106 4365 
L 2419 4480 
C 2298 4736 2022 5114 1779 5382 
L 1331 5222 
C 1562 4960 1798 4614 1920 4365 
L 339 4365 
L 339 3923 
L 6061 3923 
L 6061 4365 
L 4570 4365 
C 4755 4627 4960 4947 5139 5242 
L 4627 5408 
z
M 2618 1926 
L 2618 1280 
L 1197 1280 
L 1197 1926 
L 2618 1926 
z
M 2618 2304 
L 1197 2304 
L 1197 2938 
L 2618 2938 
L 2618 2304 
z
M 742 3347 
L 742 -480 
L 1197 -480 
L 1197 902 
L 2618 902 
L 2618 45 
C 2618 -38 2592 -64 2502 -64 
C 2419 -70 2125 -70 1798 -58 
C 1862 -179 1933 -365 1965 -486 
C 2394 -486 2682 -480 2854 -403 
C 3034 -333 3085 -205 3085 38 
L 3085 3347 
L 742 3347 
z
" transform="scale(0.015625)"/>
      <path id="NotoSansCJKjp-Regular-7121" d="M 2208 723 
C 2291 346 2336 -154 2342 -454 
L 2810 -390 
C 2803 -96 2733 390 2650 768 
L 2208 723 
z
M 3514 723 
C 3680 346 3840 -154 3904 -461 
L 4378 -358 
C 4314 -58 4134 435 3962 806 
L 3514 723 
z
M 4819 768 
C 5139 371 5504 -179 5664 -525 
L 6138 -352 
C 5971 -6 5594 531 5274 915 
L 4819 768 
z
M 1088 890 
C 934 422 634 -64 301 -333 
L 749 -518 
C 1094 -211 1382 294 1549 774 
L 1088 890 
z
M 442 1600 
L 442 1158 
L 5978 1158 
L 5978 1600 
L 5158 1600 
L 5158 2688 
L 6061 2688 
L 6061 3130 
L 5158 3130 
L 5158 4205 
L 5824 4205 
L 5824 4640 
L 1760 4640 
C 1888 4838 2003 5037 2106 5242 
L 1638 5376 
C 1331 4730 813 4102 269 3699 
C 384 3629 576 3469 659 3386 
C 851 3546 1050 3738 1242 3955 
L 1242 3130 
L 346 3130 
L 346 2688 
L 1242 2688 
L 1242 1600 
L 442 1600 
z
M 2381 4205 
L 2381 3130 
L 1670 3130 
L 1670 4205 
L 2381 4205 
z
M 2803 4205 
L 3539 4205 
L 3539 3130 
L 2803 3130 
L 2803 4205 
z
M 3955 4205 
L 4710 4205 
L 4710 3130 
L 3955 3130 
L 3955 4205 
z
M 2381 2688 
L 2381 1600 
L 1670 1600 
L 1670 2688 
L 2381 2688 
z
M 2803 2688 
L 3539 2688 
L 3539 1600 
L 2803 1600 
L 2803 2688 
z
M 3955 2688 
L 4710 2688 
L 4710 1600 
L 3955 1600 
L 3955 2688 
z
" transform="scale(0.015625)"/>
      <path id="NotoSansCJKjp-Regular-6cd5" d="M 589 4979 
C 1030 4800 1574 4499 1837 4275 
L 2118 4672 
C 1843 4896 1293 5171 851 5331 
L 589 4979 
z
M 250 3213 
C 691 3059 1242 2784 1517 2579 
L 1779 2989 
C 1491 3194 934 3443 493 3578 
L 250 3213 
z
M 467 -115 
L 883 -435 
C 1242 166 1664 960 1984 1638 
L 1626 1946 
C 1280 1222 800 378 467 -115 
z
M 4550 1363 
C 4781 1088 5018 768 5222 448 
L 3027 320 
C 3309 877 3616 1606 3846 2227 
L 6080 2227 
L 6080 2688 
L 4250 2688 
L 4250 3872 
L 5779 3872 
L 5779 4326 
L 4250 4326 
L 4250 5376 
L 3763 5376 
L 3763 4326 
L 2291 4326 
L 2291 3872 
L 3763 3872 
L 3763 2688 
L 1971 2688 
L 1971 2227 
L 3283 2227 
C 3091 1613 2784 838 2515 294 
L 1978 269 
L 2042 -218 
C 2938 -160 4230 -70 5472 26 
C 5587 -173 5677 -365 5741 -525 
L 6189 -275 
C 5978 243 5446 1011 4966 1581 
L 4550 1363 
z
" transform="scale(0.015625)"/>
      <path id="NotoSansCJKjp-Regular-53d6" d="M 3853 4000 
L 3392 3910 
C 3603 2854 3904 1926 4346 1165 
C 3968 634 3507 237 3002 -26 
C 3110 -122 3245 -301 3315 -422 
C 3808 -134 4256 243 4634 723 
C 4986 243 5408 -154 5920 -442 
C 5997 -320 6144 -134 6253 -45 
C 5722 230 5286 640 4928 1152 
C 5446 1971 5811 3046 5971 4429 
L 5664 4512 
L 5581 4493 
L 3270 4493 
L 3270 4026 
L 5440 4026 
C 5286 3078 5011 2272 4640 1619 
C 4275 2304 4019 3110 3853 4000 
z
M 173 787 
L 262 314 
C 870 403 1702 531 2515 666 
L 2515 -499 
L 2982 -499 
L 2982 4525 
L 3430 4525 
L 3430 4979 
L 307 4979 
L 307 4525 
L 800 4525 
L 800 870 
L 173 787 
z
M 1261 4525 
L 2515 4525 
L 2515 3674 
L 1261 3674 
L 1261 4525 
z
M 1261 3238 
L 2515 3238 
L 2515 2342 
L 1261 2342 
L 1261 3238 
z
M 1261 1907 
L 2515 1907 
L 2515 1114 
L 1261 934 
L 1261 1907 
z
" transform="scale(0.015625)"/>
      <path id="NotoSansCJKjp-Regular-5f97" d="M 3085 3949 
L 5203 3949 
L 5203 3424 
L 3085 3424 
L 3085 3949 
z
M 3085 4813 
L 5203 4813 
L 5203 4301 
L 3085 4301 
L 3085 4813 
z
M 2618 5178 
L 2618 3059 
L 5683 3059 
L 5683 5178 
L 2618 5178 
z
M 2630 922 
C 2918 640 3264 243 3424 -13 
L 3789 250 
C 3622 499 3270 877 2970 1146 
L 2630 922 
z
M 1606 5363 
C 1325 4909 749 4371 243 4045 
C 320 3949 442 3757 499 3648 
C 1069 4032 1683 4627 2061 5184 
L 1606 5363 
z
M 2074 1664 
L 2074 1248 
L 4659 1248 
L 4659 26 
C 4659 -58 4634 -77 4531 -83 
C 4435 -96 4122 -96 3757 -83 
C 3821 -211 3891 -384 3917 -518 
C 4390 -518 4698 -512 4890 -442 
C 5088 -371 5139 -243 5139 19 
L 5139 1248 
L 6099 1248 
L 6099 1664 
L 5139 1664 
L 5139 2214 
L 5990 2214 
L 5990 2624 
L 2221 2624 
L 2221 2214 
L 4659 2214 
L 4659 1664 
L 2074 1664 
z
M 1722 3949 
C 1338 3290 723 2630 141 2208 
C 218 2093 352 1843 390 1741 
C 640 1939 896 2182 1146 2445 
L 1146 -506 
L 1613 -506 
L 1613 2995 
C 1811 3251 1990 3514 2144 3782 
L 1722 3949 
z
" transform="scale(0.015625)"/>
      <path id="NotoSansCJKjp-Regular-8cc7" d="M 614 4902 
C 1069 4768 1664 4531 1965 4365 
L 2176 4742 
C 1862 4902 1274 5114 832 5235 
L 614 4902 
z
M 294 3552 
L 486 3136 
C 966 3283 1574 3475 2150 3661 
L 2099 4045 
C 1434 3859 762 3667 294 3552 
z
M 1626 2035 
L 4851 2035 
L 4851 1594 
L 1626 1594 
L 1626 2035 
z
M 1626 1286 
L 4851 1286 
L 4851 838 
L 1626 838 
L 1626 1286 
z
M 1626 2778 
L 4851 2778 
L 4851 2349 
L 1626 2349 
L 1626 2778 
z
M 1158 3104 
L 1158 518 
L 5331 518 
L 5331 3104 
L 1158 3104 
z
M 3738 186 
C 4435 -45 5126 -320 5530 -525 
L 6067 -282 
C 5600 -70 4826 211 4128 429 
L 3738 186 
z
M 2227 448 
C 1766 198 998 -32 339 -173 
C 448 -256 621 -435 698 -531 
C 1338 -358 2150 -58 2669 250 
L 2227 448 
z
M 3149 5376 
C 2976 4998 2656 4557 2176 4224 
C 2291 4179 2451 4077 2541 3987 
C 2765 4160 2950 4346 3110 4544 
L 3795 4544 
C 3642 3962 3251 3635 2202 3456 
C 2278 3373 2387 3206 2432 3110 
C 3347 3290 3821 3590 4064 4070 
C 4307 3603 4774 3187 5875 2995 
C 5920 3117 6035 3296 6125 3392 
C 4806 3584 4435 4045 4294 4544 
L 5325 4544 
C 5210 4358 5069 4179 4941 4051 
L 5325 3917 
C 5549 4134 5792 4499 5971 4832 
L 5645 4928 
L 5568 4909 
L 3366 4909 
C 3443 5043 3514 5178 3578 5312 
L 3149 5376 
z
" transform="scale(0.015625)"/>
      <path id="NotoSansCJKjp-Regular-6599" d="M 346 4877 
C 512 4429 666 3840 691 3456 
L 1075 3552 
C 1030 3936 883 4525 698 4973 
L 346 4877 
z
M 2413 4992 
C 2323 4557 2138 3923 1990 3539 
L 2304 3437 
C 2470 3802 2675 4403 2835 4883 
L 2413 4992 
z
M 3302 4589 
C 3674 4365 4115 4013 4314 3770 
L 4570 4134 
C 4358 4378 3917 4704 3546 4922 
L 3302 4589 
z
M 2976 2976 
C 3354 2771 3821 2438 4045 2208 
L 4282 2592 
C 4058 2822 3584 3123 3200 3315 
L 2976 2976 
z
M 301 3226 
L 301 2778 
L 1203 2778 
C 973 2067 570 1222 198 774 
C 282 653 397 448 448 307 
C 762 736 1088 1440 1331 2131 
L 1331 -506 
L 1779 -506 
L 1779 2138 
C 2016 1766 2310 1280 2426 1037 
L 2746 1414 
C 2605 1626 1965 2483 1779 2688 
L 1779 2778 
L 2829 2778 
L 2829 3226 
L 1779 3226 
L 1779 5357 
L 1331 5357 
L 1331 3226 
L 301 3226 
z
M 2816 1299 
L 2899 858 
L 4896 1222 
L 4896 -506 
L 5357 -506 
L 5357 1306 
L 6182 1453 
L 6106 1894 
L 5357 1760 
L 5357 5376 
L 4896 5376 
L 4896 1677 
L 2816 1299 
z
" transform="scale(0.015625)"/>
      <path id="NotoSansCJKjp-Regular-ff0c" d="M 1005 -685 
C 1677 -448 2112 77 2112 768 
C 2112 1216 1920 1504 1568 1504 
C 1306 1504 1082 1344 1082 1043 
C 1082 742 1299 589 1562 589 
L 1670 602 
C 1638 160 1357 -141 864 -346 
L 1005 -685 
z
" transform="scale(0.015625)"/>
      <path id="NotoSansCJKjp-Regular-5df2" d="M 595 4979 
L 595 4499 
L 4781 4499 
L 4781 2816 
L 1421 2816 
L 1421 3872 
L 934 3872 
L 934 653 
C 934 -141 1261 -333 2298 -333 
C 2541 -333 4448 -333 4704 -333 
C 5760 -333 5971 19 6093 1197 
C 5952 1222 5734 1306 5606 1395 
C 5517 365 5408 141 4710 141 
C 4275 141 2611 141 2272 141 
C 1568 141 1421 237 1421 646 
L 1421 2342 
L 4781 2342 
L 4781 2022 
L 5280 2022 
L 5280 4979 
L 595 4979 
z
" transform="scale(0.015625)"/>
      <path id="NotoSansCJKjp-Regular-4fdd" d="M 2893 4646 
L 5274 4646 
L 5274 3469 
L 2893 3469 
L 2893 4646 
z
M 2432 5075 
L 2432 3034 
L 3827 3034 
L 3827 2240 
L 1958 2240 
L 1958 1798 
L 3546 1798 
C 3110 1120 2432 474 1773 147 
C 1882 58 2029 -115 2106 -230 
C 2733 134 3379 774 3827 1485 
L 3827 -512 
L 4307 -512 
L 4307 1504 
C 4736 800 5350 128 5939 -243 
C 6022 -122 6170 45 6278 141 
C 5658 474 5005 1120 4595 1798 
L 6106 1798 
L 6106 2240 
L 4307 2240 
L 4307 3034 
L 5754 3034 
L 5754 5075 
L 2432 5075 
z
M 1773 5357 
C 1402 4390 787 3437 147 2822 
C 230 2714 371 2458 416 2349 
C 653 2586 883 2867 1107 3174 
L 1107 -493 
L 1568 -493 
L 1568 3885 
C 1818 4307 2042 4762 2221 5216 
L 1773 5357 
z
" transform="scale(0.015625)"/>
      <path id="NotoSansCJKjp-Regular-7559" d="M 1568 774 
L 2957 774 
L 2957 122 
L 1568 122 
L 1568 774 
z
M 1568 1152 
L 1568 1779 
L 2957 1779 
L 2957 1152 
L 1568 1152 
z
M 4864 774 
L 4864 122 
L 3418 122 
L 3418 774 
L 4864 774 
z
M 4864 1152 
L 3418 1152 
L 3418 1779 
L 4864 1779 
L 4864 1152 
z
M 1107 2176 
L 1107 -512 
L 1568 -512 
L 1568 -275 
L 4864 -275 
L 4864 -486 
L 5344 -486 
L 5344 2176 
L 1107 2176 
z
M 3206 5024 
L 3206 4614 
L 3962 4614 
C 3872 3744 3635 3072 2784 2701 
C 2886 2624 3014 2464 3072 2355 
C 4032 2803 4307 3584 4416 4614 
L 5389 4614 
C 5344 3533 5286 3123 5184 3014 
C 5139 2957 5082 2944 4986 2950 
C 4883 2950 4627 2950 4346 2976 
C 4416 2861 4467 2688 4474 2554 
C 4762 2541 5043 2534 5197 2547 
C 5370 2566 5478 2611 5587 2733 
C 5741 2912 5798 3424 5862 4819 
C 5869 4883 5869 5024 5869 5024 
L 3206 5024 
z
M 1888 3987 
C 2054 3814 2214 3610 2362 3398 
L 1299 3136 
L 1242 4499 
C 1837 4627 2496 4806 2982 5005 
L 2643 5357 
C 2298 5184 1715 4998 1171 4864 
L 755 4986 
L 832 3021 
L 262 2893 
L 384 2432 
L 2592 3021 
C 2656 2906 2707 2797 2739 2701 
L 3162 2925 
C 3014 3296 2637 3814 2278 4186 
L 1888 3987 
z
" transform="scale(0.015625)"/>
      <path id="NotoSansCJKjp-Regular-4e0a" d="M 2733 5280 
L 2733 275 
L 326 275 
L 326 -205 
L 6080 -205 
L 6080 275 
L 3238 275 
L 3238 2822 
L 5638 2822 
L 5638 3302 
L 3238 3302 
L 3238 5280 
L 2733 5280 
z
" transform="scale(0.015625)"/>
      <path id="NotoSansCJKjp-Regular-6b21" d="M 243 806 
L 557 410 
C 986 826 1530 1382 2003 1901 
L 1734 2310 
C 1197 1741 614 1158 243 806 
z
M 448 4602 
C 858 4314 1363 3891 1606 3610 
L 1965 4006 
C 1715 4282 1197 4685 787 4947 
L 448 4602 
z
M 2854 5363 
C 2630 4339 2240 3334 1696 2707 
C 1824 2650 2054 2515 2157 2438 
C 2426 2797 2662 3245 2874 3750 
L 3654 3750 
L 3654 2931 
C 3654 2330 3322 653 1370 -115 
C 1459 -211 1606 -403 1664 -512 
C 3206 141 3795 1427 3904 2029 
C 4000 1434 4544 102 5894 -512 
C 5965 -397 6112 -198 6208 -83 
C 4461 672 4147 2368 4154 2931 
L 4154 3750 
L 5485 3750 
C 5350 3322 5152 2848 4986 2547 
C 5101 2502 5286 2400 5389 2349 
C 5626 2778 5926 3443 6099 4058 
L 5747 4250 
L 5651 4224 
L 3053 4224 
C 3168 4557 3270 4915 3354 5274 
L 2854 5363 
z
" transform="scale(0.015625)"/>
      <path id="NotoSansCJKjp-Regular-53ef" d="M 358 4922 
L 358 4442 
L 4781 4442 
L 4781 186 
C 4781 51 4736 13 4595 0 
C 4442 0 3917 -6 3405 19 
C 3482 -122 3571 -358 3603 -499 
C 4237 -499 4685 -499 4941 -416 
C 5190 -333 5280 -166 5280 179 
L 5280 4442 
L 6067 4442 
L 6067 4922 
L 358 4922 
z
M 1478 3040 
L 3162 3040 
L 3162 1568 
L 1478 1568 
L 1478 3040 
z
M 1011 3501 
L 1011 595 
L 1478 595 
L 1478 1107 
L 3635 1107 
L 3635 3501 
L 1011 3501 
z
" transform="scale(0.015625)"/>
      <path id="NotoSansCJKjp-Regular-7528" d="M 979 4928 
L 979 2605 
C 979 1702 915 570 205 -230 
C 314 -288 506 -448 576 -544 
C 1069 0 1286 736 1382 1453 
L 2989 1453 
L 2989 -454 
L 3475 -454 
L 3475 1453 
L 5203 1453 
L 5203 141 
C 5203 26 5158 -13 5030 -19 
C 4909 -26 4474 -32 4026 -13 
C 4090 -141 4166 -352 4192 -474 
C 4794 -480 5165 -474 5382 -397 
C 5600 -320 5677 -173 5677 141 
L 5677 4928 
L 979 4928 
z
M 1453 4467 
L 2989 4467 
L 2989 3437 
L 1453 3437 
L 1453 4467 
z
M 5203 4467 
L 5203 3437 
L 3475 3437 
L 3475 4467 
L 5203 4467 
z
M 1453 2982 
L 2989 2982 
L 2989 1907 
L 1427 1907 
C 1446 2150 1453 2387 1453 2605 
L 1453 2982 
z
M 5203 2982 
L 5203 1907 
L 3475 1907 
L 3475 2982 
L 5203 2982 
z
" transform="scale(0.015625)"/>
      <path id="NotoSansCJKjp-Regular-8f38" d="M 3552 3744 
L 3552 3341 
L 5325 3341 
L 5325 3744 
L 3552 3744 
z
M 4730 2714 
L 4730 461 
L 5088 461 
L 5088 2714 
L 4730 2714 
z
M 4442 4902 
C 4806 4333 5434 3699 6029 3322 
C 6093 3450 6195 3629 6285 3738 
C 5683 4064 5043 4698 4646 5350 
L 4205 5350 
C 3910 4742 3290 4045 2643 3661 
C 2720 3552 2829 3386 2886 3264 
C 3533 3680 4122 4339 4442 4902 
z
M 5594 2957 
L 5594 -38 
C 5594 -102 5568 -128 5491 -128 
C 5421 -134 5184 -134 4915 -128 
C 4973 -237 5024 -390 5043 -493 
C 5421 -493 5651 -486 5798 -429 
C 5939 -365 5984 -256 5984 -38 
L 5984 2957 
L 5594 2957 
z
M 3283 1651 
L 4013 1651 
L 4013 1114 
L 3283 1114 
L 3283 1651 
z
M 3283 1990 
L 3283 2490 
L 4013 2490 
L 4013 1990 
L 3283 1990 
z
M 2931 2854 
L 2931 -493 
L 3283 -493 
L 3283 749 
L 4013 749 
L 4013 -90 
C 4013 -141 4000 -160 3949 -160 
C 3910 -160 3782 -160 3629 -160 
C 3674 -256 3718 -416 3731 -506 
C 3962 -506 4122 -506 4230 -442 
C 4339 -378 4371 -275 4371 -96 
L 4371 2854 
L 2931 2854 
z
M 429 3776 
L 429 1549 
L 1312 1549 
L 1312 1030 
L 250 1030 
L 250 602 
L 1312 602 
L 1312 -518 
L 1734 -518 
L 1734 602 
L 2746 602 
L 2746 1030 
L 1734 1030 
L 1734 1549 
L 2630 1549 
L 2630 3776 
L 1734 3776 
L 1734 4262 
L 2765 4262 
L 2765 4691 
L 1734 4691 
L 1734 5382 
L 1306 5382 
L 1306 4691 
L 326 4691 
L 326 4262 
L 1306 4262 
L 1306 3776 
L 429 3776 
z
M 781 2496 
L 1363 2496 
L 1363 1907 
L 781 1907 
L 781 2496 
z
M 1683 2496 
L 2259 2496 
L 2259 1907 
L 1683 1907 
L 1683 2496 
z
M 781 3418 
L 1363 3418 
L 1363 2842 
L 781 2842 
L 781 3418 
z
M 1683 3418 
L 2259 3418 
L 2259 2842 
L 1683 2842 
L 1683 3418 
z
" transform="scale(0.015625)"/>
      <path id="NotoSansCJKjp-Regular-51fa" d="M 966 4768 
L 966 2560 
L 2918 2560 
L 2918 365 
L 1203 365 
L 1203 2144 
L 723 2144 
L 723 -512 
L 1203 -512 
L 1203 -109 
L 5222 -109 
L 5222 -499 
L 5715 -499 
L 5715 2144 
L 5222 2144 
L 5222 365 
L 3418 365 
L 3418 2560 
L 5459 2560 
L 5459 4768 
L 4960 4768 
L 4960 3021 
L 3418 3021 
L 3418 5344 
L 2918 5344 
L 2918 3021 
L 1446 3021 
L 1446 4768 
L 966 4768 
z
" transform="scale(0.015625)"/>
      <path id="NotoSansCJKjp-Regular-6216" d="M 4429 5062 
C 4819 4870 5293 4576 5523 4358 
L 5818 4691 
C 5581 4909 5101 5190 4710 5357 
L 4429 5062 
z
M 397 422 
L 493 -70 
C 1235 90 2285 320 3270 538 
L 3232 992 
C 2189 774 1094 550 397 422 
z
M 1248 2893 
L 2554 2893 
L 2554 1779 
L 1248 1779 
L 1248 2893 
z
M 800 3315 
L 800 1363 
L 3021 1363 
L 3021 3315 
L 800 3315 
z
M 435 4352 
L 435 3878 
L 3590 3878 
C 3667 2835 3814 1875 4045 1120 
C 3616 602 3098 179 2502 -141 
C 2611 -230 2797 -416 2874 -512 
C 3379 -211 3834 160 4230 602 
C 4518 -96 4902 -518 5395 -518 
C 5888 -518 6067 -198 6157 902 
C 6022 954 5843 1062 5734 1178 
C 5696 320 5619 -19 5440 -19 
C 5120 -19 4832 378 4602 1050 
C 5075 1683 5459 2438 5741 3302 
L 5261 3418 
C 5056 2752 4774 2157 4429 1632 
C 4269 2259 4154 3027 4096 3878 
L 5990 3878 
L 5990 4352 
L 4064 4352 
C 4051 4678 4045 5018 4045 5363 
L 3533 5363 
C 3533 5024 3546 4685 3565 4352 
L 435 4352 
z
" transform="scale(0.015625)"/>
      <path id="NotoSansCJKjp-Regular-7b49" d="M 3699 5408 
C 3514 4864 3168 4352 2771 4019 
L 2944 3910 
L 2944 3469 
L 941 3469 
L 941 3066 
L 2944 3066 
L 2944 2490 
L 307 2490 
L 307 2067 
L 4256 2067 
L 4256 1504 
L 512 1504 
L 512 1082 
L 4256 1082 
L 4256 64 
C 4256 -26 4224 -51 4109 -58 
C 3994 -64 3616 -64 3181 -51 
C 3251 -179 3334 -371 3360 -506 
C 3885 -506 4243 -499 4461 -435 
C 4678 -358 4742 -224 4742 58 
L 4742 1082 
L 5946 1082 
L 5946 1504 
L 4742 1504 
L 4742 2067 
L 6118 2067 
L 6118 2490 
L 3437 2490 
L 3437 3066 
L 5510 3066 
L 5510 3469 
L 3437 3469 
L 3437 3910 
L 3334 3910 
C 3475 4064 3610 4237 3731 4429 
L 4166 4429 
C 4358 4179 4544 3878 4621 3667 
L 5037 3846 
C 4966 4013 4832 4224 4685 4429 
L 6048 4429 
L 6048 4838 
L 3962 4838 
C 4038 4986 4102 5139 4160 5299 
L 3699 5408 
z
M 1427 806 
C 1843 531 2304 122 2515 -179 
L 2886 122 
C 2669 422 2195 819 1779 1082 
L 1427 806 
z
M 1190 5408 
C 973 4838 614 4282 211 3904 
C 326 3846 525 3712 614 3635 
C 826 3846 1030 4122 1222 4429 
L 1478 4429 
C 1600 4179 1715 3891 1754 3699 
L 2182 3859 
C 2144 4006 2054 4224 1958 4429 
L 3123 4429 
L 3123 4838 
L 1446 4838 
C 1517 4986 1587 5133 1645 5286 
L 1190 5408 
z
" transform="scale(0.015625)"/>
      <path id="NotoSansCJKjp-Regular-5f85" d="M 2656 1306 
C 2957 960 3283 480 3418 166 
L 3827 410 
C 3686 717 3347 1178 3053 1510 
L 2656 1306 
z
M 1632 5363 
C 1357 4909 781 4371 282 4045 
C 352 3949 480 3757 531 3648 
C 1094 4032 1709 4627 2080 5184 
L 1632 5363 
z
M 3878 5344 
L 3878 4544 
L 2470 4544 
L 2470 4109 
L 3878 4109 
L 3878 3296 
L 2093 3296 
L 2093 2854 
L 4781 2854 
L 4781 2138 
L 2170 2138 
L 2170 1696 
L 4781 1696 
L 4781 70 
C 4781 -13 4749 -45 4646 -45 
C 4544 -51 4186 -58 3802 -38 
C 3866 -173 3942 -371 3962 -499 
C 4461 -499 4787 -499 4992 -422 
C 5190 -346 5254 -211 5254 70 
L 5254 1696 
L 6112 1696 
L 6112 2138 
L 5254 2138 
L 5254 2854 
L 6157 2854 
L 6157 3296 
L 4358 3296 
L 4358 4109 
L 5824 4109 
L 5824 4544 
L 4358 4544 
L 4358 5344 
L 3878 5344 
z
M 1741 3949 
C 1376 3290 762 2630 186 2208 
C 269 2093 403 1843 442 1734 
C 685 1939 941 2182 1184 2445 
L 1184 -506 
L 1645 -506 
L 1645 2995 
C 1837 3251 2016 3520 2163 3782 
L 1741 3949 
z
" transform="scale(0.015625)"/>
      <path id="NotoSansCJKjp-Regular-4e0b" d="M 352 4902 
L 352 4422 
L 2822 4422 
L 2822 -506 
L 3328 -506 
L 3328 2886 
C 4064 2490 4922 1958 5370 1600 
L 5709 2035 
C 5197 2426 4179 3002 3418 3373 
L 3328 3270 
L 3328 4422 
L 6054 4422 
L 6054 4902 
L 352 4902 
z
" transform="scale(0.015625)"/>
      <path id="NotoSansCJKjp-Regular-66f4" d="M 1613 1523 
L 1203 1357 
C 1421 986 1690 691 2003 454 
C 1613 230 1062 45 301 -96 
C 403 -205 531 -410 589 -518 
C 1421 -339 2016 -102 2445 179 
C 3328 -288 4506 -435 5997 -493 
C 6022 -333 6112 -128 6202 -19 
C 4768 19 3661 115 2835 486 
C 3168 813 3341 1184 3418 1581 
L 5587 1581 
L 5587 4058 
L 3488 4058 
L 3488 4602 
L 5984 4602 
L 5984 5037 
L 416 5037 
L 416 4602 
L 2989 4602 
L 2989 4058 
L 998 4058 
L 998 1581 
L 2912 1581 
C 2835 1274 2688 986 2394 730 
C 2086 934 1824 1190 1613 1523 
z
M 1459 2630 
L 2989 2630 
L 2989 2374 
C 2989 2240 2989 2106 2976 1978 
L 1459 1978 
L 1459 2630 
z
M 3475 1978 
C 3482 2106 3488 2234 3488 2368 
L 3488 2630 
L 5107 2630 
L 5107 1978 
L 3475 1978 
z
M 1459 3654 
L 2989 3654 
L 2989 3014 
L 1459 3014 
L 1459 3654 
z
M 3488 3654 
L 5107 3654 
L 5107 3014 
L 3488 3014 
L 3488 3654 
z
" transform="scale(0.015625)"/>
      <path id="NotoSansCJKjp-Regular-65b0" d="M 774 4179 
C 902 3891 1005 3501 1024 3251 
L 1434 3360 
C 1402 3610 1293 3987 1158 4269 
L 774 4179 
z
M 2419 4282 
C 2349 4013 2208 3610 2093 3360 
L 2483 3264 
C 2598 3501 2733 3859 2854 4186 
L 2419 4282 
z
M 5670 5306 
C 5254 5094 4538 4890 3872 4749 
L 3526 4851 
L 3526 2611 
C 3526 1709 3443 602 2624 -211 
C 2733 -275 2906 -435 2970 -538 
C 3866 352 3987 1645 3987 2605 
L 3987 2765 
L 4954 2765 
L 4954 -480 
L 5414 -480 
L 5414 2765 
L 6144 2765 
L 6144 3213 
L 3987 3213 
L 3987 4365 
C 4704 4506 5510 4704 6061 4954 
L 5670 5306 
z
M 1581 5350 
L 1581 4704 
L 390 4704 
L 390 4301 
L 3219 4301 
L 3219 4704 
L 2048 4704 
L 2048 5350 
L 1581 5350 
z
M 301 3245 
L 301 2835 
L 1581 2835 
L 1581 2170 
L 320 2170 
L 320 1747 
L 1472 1747 
C 1152 1184 640 595 179 301 
C 282 224 422 64 506 -45 
C 870 243 1267 698 1581 1197 
L 1581 -499 
L 2048 -499 
L 2048 1139 
C 2317 896 2637 576 2778 416 
L 3066 774 
C 2912 909 2291 1421 2048 1594 
L 2048 1747 
L 3245 1747 
L 3245 2170 
L 2048 2170 
L 2048 2835 
L 3296 2835 
L 3296 3245 
L 301 3245 
z
" transform="scale(0.015625)"/>
      <path id="NotoSansCJKjp-Regular-3002" d="M 1242 1562 
C 710 1562 269 1126 269 589 
C 269 45 710 -390 1242 -390 
C 1786 -390 2221 45 2221 589 
C 2221 1126 1786 1562 1242 1562 
z
M 1242 -64 
C 890 -64 595 224 595 589 
C 595 941 890 1235 1242 1235 
C 1606 1235 1894 941 1894 589 
C 1894 224 1606 -64 1242 -64 
z
" transform="scale(0.015625)"/>
     </defs>
     <use xlink:href="#NotoSansCJKjp-Regular-76ee"/>
     <use xlink:href="#NotoSansCJKjp-Regular-524d" transform="translate(99.999985 0)"/>
     <use xlink:href="#NotoSansCJKjp-Regular-7121" transform="translate(199.999969 0)"/>
     <use xlink:href="#NotoSansCJKjp-Regular-6cd5" transform="translate(299.999954 0)"/>
     <use xlink:href="#NotoSansCJKjp-Regular-53d6" transform="translate(399.999939 0)"/>
     <use xlink:href="#NotoSansCJKjp-Regular-5f97" transform="translate(499.999924 0)"/>
     <use xlink:href="#NotoSansCJKjp-Regular-8cc7" transform="translate(599.999908 0)"/>
     <use xlink:href="#NotoSansCJKjp-Regular-6599" transform="translate(699.999893 0)"/>
     <use xlink:href="#NotoSansCJKjp-Regular-ff0c" transform="translate(799.999878 0)"/>
     <use xlink:href="#NotoSansCJKjp-Regular-5df2" transform="translate(899.999863 0)"/>
     <use xlink:href="#NotoSansCJKjp-Regular-4fdd" transform="translate(999.999847 0)"/>
     <use xlink:href="#NotoSansCJKjp-Regular-7559" transform="translate(1099.999832 0)"/>
     <use xlink:href="#NotoSansCJKjp-Regular-4e0a" transform="translate(1199.999817 0)"/>
     <use xlink:href="#NotoSansCJKjp-Regular-6b21" transform="translate(1299.999802 0)"/>
     <use xlink:href="#NotoSansCJKjp-Regular-53ef" transform="translate(1399.999786 0)"/>
     <use xlink:href="#NotoSansCJKjp-Regular-7528" transform="translate(1499.999771 0)"/>
     <use xlink:href="#NotoSansCJKjp-Regular-8f38" transform="translate(1599.999756 0)"/>
     <use xlink:href="#NotoSansCJKjp-Regular-51fa" transform="translate(1699.999741 0)"/>
     <use xlink:href="#NotoSansCJKjp-Regular-6216" transform="translate(1799.999725 0)"/>
     <use xlink:href="#NotoSansCJKjp-Regular-7b49" transform="translate(1899.99971 0)"/>
     <use xlink:href="#NotoSansCJKjp-Regular-5f85" transform="translate(1999.999695 0)"/>
     <use xlink:href="#NotoSansCJKjp-Regular-4e0b" transform="translate(2099.99968 0)"/>
     <use xlink:href="#NotoSansCJKjp-Regular-6b21" transform="translate(2199.999664 0)"/>
     <use xlink:href="#NotoSansCJKjp-Regular-66f4" transform="translate(2299.999649 0)"/>
     <use xlink:href="#NotoSansCJKjp-Regular-65b0" transform="translate(2399.999634 0)"/>
     <use xlink:href="#NotoSansCJKjp-Regular-3002" transform="translate(2499.999619 0)"/>
    </g>
   </g>
   <g id="text_3">
    <!-- 錯誤訊息: 來源網站拒絕請求（Request Rejected / Access Denied）。 -->
    <g style="fill: #666666" transform="translate(260.929375 285.040484) scale(0.11 -0.11)">
     <defs>
      <path id="NotoSansCJKjp-Regular-932f" d="M 480 1830 
C 614 1446 717 960 736 634 
L 1101 730 
C 1069 1050 954 1536 819 1914 
L 480 1830 
z
M 2304 1990 
C 2246 1638 2112 1120 2010 800 
L 2310 698 
C 2432 998 2566 1478 2694 1882 
L 2304 1990 
z
M 4858 5376 
L 4858 4582 
L 4006 4582 
L 4006 5376 
L 3565 5376 
L 3565 4582 
L 2957 4582 
L 2957 4160 
L 3565 4160 
L 3565 3213 
L 2714 3213 
L 2714 2790 
L 6150 2790 
L 6150 3213 
L 5306 3213 
L 5306 4160 
L 6010 4160 
L 6010 4582 
L 5306 4582 
L 5306 5376 
L 4858 5376 
z
M 4006 4160 
L 4858 4160 
L 4858 3213 
L 4006 3213 
L 4006 4160 
z
M 3648 832 
L 5312 832 
L 5312 186 
L 3648 186 
L 3648 832 
z
M 3648 1210 
L 3648 1830 
L 5312 1830 
L 5312 1210 
L 3648 1210 
z
M 3206 2227 
L 3206 -512 
L 3648 -512 
L 3648 -224 
L 5312 -224 
L 5312 -499 
L 5773 -499 
L 5773 2227 
L 3206 2227 
z
M 1338 5376 
C 1120 4864 730 4211 160 3725 
C 256 3661 397 3514 467 3411 
L 672 3610 
L 672 3379 
L 1370 3379 
L 1370 2701 
L 346 2701 
L 346 2278 
L 1370 2278 
L 1370 314 
L 275 115 
L 390 -320 
C 1062 -192 1984 0 2854 179 
L 2829 589 
L 1798 397 
L 1798 2278 
L 2733 2278 
L 2733 2701 
L 1798 2701 
L 1798 3379 
L 2534 3379 
L 2534 3795 
L 845 3795 
C 1184 4179 1440 4582 1626 4928 
C 1990 4589 2394 4102 2598 3789 
L 2925 4154 
C 2682 4499 2176 5011 1766 5376 
L 1338 5376 
z
" transform="scale(0.015625)"/>
      <path id="NotoSansCJKjp-Regular-8aa4" d="M 4147 4781 
L 5382 4781 
L 5382 3706 
L 4147 3706 
L 4147 4781 
z
M 3725 5190 
L 3725 3296 
L 5830 3296 
L 5830 5190 
L 3725 5190 
z
M 4685 774 
C 5094 384 5568 -166 5766 -518 
L 6195 -269 
C 5971 83 5485 614 5082 992 
L 4685 774 
z
M 3546 1018 
C 3296 608 2790 96 2330 -205 
C 2445 -282 2605 -422 2682 -518 
C 3149 -198 3674 326 3994 787 
L 3546 1018 
z
M 518 3437 
L 518 3059 
L 2246 3059 
L 2246 3437 
L 518 3437 
z
M 557 5152 
L 557 4768 
L 2227 4768 
L 2227 5152 
L 557 5152 
z
M 518 2586 
L 518 2202 
L 2246 2202 
L 2246 2586 
L 518 2586 
z
M 243 4314 
L 243 3910 
L 2438 3910 
L 2438 4314 
L 243 4314 
z
M 2784 4685 
L 2784 2048 
L 3226 2048 
L 3226 2368 
L 5165 2368 
L 5165 1574 
L 2496 1574 
L 2496 1139 
L 6170 1139 
L 6170 1574 
L 5632 1574 
L 5632 2797 
L 3226 2797 
L 3226 4685 
L 2784 4685 
z
M 512 1722 
L 512 -442 
L 922 -442 
L 922 -141 
L 2253 -141 
L 2253 1722 
L 512 1722 
z
M 922 1325 
L 1843 1325 
L 1843 256 
L 922 256 
L 922 1325 
z
" transform="scale(0.015625)"/>
      <path id="NotoSansCJKjp-Regular-8a0a" d="M 544 3437 
L 544 3059 
L 2419 3059 
L 2419 3437 
L 544 3437 
z
M 570 5152 
L 570 4768 
L 2394 4768 
L 2394 5152 
L 570 5152 
z
M 544 2586 
L 544 2202 
L 2419 2202 
L 2419 2586 
L 544 2586 
z
M 243 4314 
L 243 3910 
L 2630 3910 
L 2630 4314 
L 243 4314 
z
M 2650 2867 
L 2650 2413 
L 3494 2413 
C 3418 1517 3181 582 2400 -198 
C 2515 -269 2675 -422 2752 -525 
C 3629 333 3885 1395 3955 2413 
L 4794 2413 
L 4794 2867 
L 3974 2867 
L 3981 3238 
L 3981 4595 
L 5011 4595 
C 5005 1856 4992 -256 5702 -480 
C 6035 -608 6246 -384 6317 672 
C 6240 736 6106 902 6022 1018 
C 6003 480 5946 0 5894 13 
C 5453 122 5466 2330 5498 5050 
L 2714 5050 
L 2714 4595 
L 3520 4595 
L 3520 3245 
L 3514 2867 
L 2650 2867 
z
M 538 1722 
L 538 -442 
L 960 -442 
L 960 -147 
L 2426 -147 
L 2426 1722 
L 538 1722 
z
M 960 1318 
L 2003 1318 
L 2003 250 
L 960 250 
L 960 1318 
z
" transform="scale(0.015625)"/>
      <path id="NotoSansCJKjp-Regular-606f" d="M 1914 1210 
L 1914 154 
C 1914 -346 2086 -474 2758 -474 
C 2899 -474 3859 -474 4013 -474 
C 4538 -474 4685 -301 4749 403 
C 4621 435 4416 506 4314 576 
C 4282 38 4237 -38 3968 -38 
C 3757 -38 2950 -38 2790 -38 
C 2445 -38 2387 -6 2387 154 
L 2387 1210 
L 1914 1210 
z
M 2573 1440 
C 2950 1178 3360 787 3546 506 
L 3917 781 
C 3725 1069 3302 1440 2925 1683 
L 2573 1440 
z
M 4640 1088 
C 5107 678 5594 102 5786 -301 
L 6202 -32 
C 5990 384 5491 941 5024 1331 
L 4640 1088 
z
M 1043 1261 
C 902 794 634 282 237 -19 
L 634 -301 
C 1050 51 1299 608 1466 1107 
L 1043 1261 
z
M 1741 3578 
L 4730 3578 
L 4730 3046 
L 1741 3046 
L 1741 3578 
z
M 1741 2675 
L 4730 2675 
L 4730 2150 
L 1741 2150 
L 1741 2675 
z
M 1741 4467 
L 4730 4467 
L 4730 3949 
L 1741 3949 
L 1741 4467 
z
M 2976 5440 
C 2931 5274 2848 5043 2771 4851 
L 1274 4851 
L 1274 1760 
L 5216 1760 
L 5216 4851 
L 3277 4851 
L 3539 5344 
L 2976 5440 
z
" transform="scale(0.015625)"/>
      <path id="NotoSansCJKjp-Regular-3a" d="M 890 2496 
C 1120 2496 1312 2675 1312 2944 
C 1312 3206 1120 3392 890 3392 
C 653 3392 467 3206 467 2944 
C 467 2675 653 2496 890 2496 
z
M 890 -83 
C 1120 -83 1312 96 1312 358 
C 1312 627 1120 806 890 806 
C 653 806 467 627 467 358 
C 467 96 653 -83 890 -83 
z
" transform="scale(0.015625)"/>
      <path id="NotoSansCJKjp-Regular-20" transform="scale(0.015625)"/>
      <path id="NotoSansCJKjp-Regular-4f86" d="M 2931 5370 
L 2931 4480 
L 461 4480 
L 461 4013 
L 2931 4013 
L 2931 2438 
C 2349 1504 1280 614 237 186 
C 346 90 499 -96 576 -218 
C 1427 179 2298 877 2931 1696 
L 2931 -512 
L 3430 -512 
L 3430 1709 
C 4058 877 4934 160 5818 -237 
C 5894 -102 6048 90 6170 198 
C 5082 608 3994 1517 3430 2483 
L 3430 4013 
L 5984 4013 
L 5984 4480 
L 3430 4480 
L 3430 5370 
L 2931 5370 
z
M 1581 3866 
C 1389 3034 992 2336 410 1901 
C 518 1830 704 1677 787 1587 
C 1101 1850 1376 2195 1600 2598 
C 1830 2381 2067 2144 2202 1978 
L 2528 2310 
C 2368 2496 2067 2771 1798 3014 
C 1901 3251 1990 3507 2054 3776 
L 1581 3866 
z
M 4614 3866 
C 4474 3142 4166 2522 3706 2125 
C 3821 2067 4019 1939 4109 1862 
C 4326 2067 4512 2330 4672 2624 
C 5050 2304 5459 1946 5677 1702 
L 6016 2035 
C 5760 2291 5267 2707 4858 3027 
C 4954 3264 5024 3514 5082 3782 
L 4614 3866 
z
" transform="scale(0.015625)"/>
      <path id="NotoSansCJKjp-Regular-6e90" d="M 3437 2650 
L 5395 2650 
L 5395 2080 
L 3437 2080 
L 3437 2650 
z
M 3437 3558 
L 5395 3558 
L 5395 3002 
L 3437 3002 
L 3437 3558 
z
M 3232 1357 
C 3053 896 2771 429 2451 109 
C 2560 51 2746 -77 2835 -147 
C 3142 198 3462 730 3661 1248 
L 3232 1357 
z
M 5043 1242 
C 5344 832 5658 282 5773 -64 
L 6214 134 
C 6080 486 5754 1018 5453 1408 
L 5043 1242 
z
M 557 4973 
C 941 4781 1395 4467 1619 4237 
L 1907 4621 
C 1683 4851 1216 5133 832 5312 
L 557 4973 
z
M 243 3245 
C 634 3072 1094 2784 1318 2566 
L 1600 2950 
C 1370 3162 896 3437 512 3597 
L 243 3245 
z
M 378 -154 
L 806 -422 
C 1114 179 1472 973 1734 1651 
L 1350 1920 
C 1062 1190 659 346 378 -154 
z
M 3002 3930 
L 3002 1709 
L 4154 1709 
L 4154 0 
C 4154 -70 4128 -96 4051 -102 
C 3968 -102 3686 -102 3386 -96 
C 3443 -218 3501 -390 3520 -506 
C 3942 -512 4224 -512 4397 -442 
C 4570 -371 4614 -250 4614 -13 
L 4614 1709 
L 5843 1709 
L 5843 3930 
L 4499 3930 
L 4704 4621 
L 4672 4627 
L 6086 4627 
L 6086 5062 
L 2163 5062 
L 2163 3309 
C 2163 2253 2093 800 1370 -230 
C 1478 -282 1683 -403 1766 -486 
C 2528 589 2630 2189 2630 3309 
L 2630 4627 
L 4166 4627 
C 4141 4416 4083 4147 4032 3930 
L 3002 3930 
z
" transform="scale(0.015625)"/>
      <path id="NotoSansCJKjp-Regular-7db2" d="M 1894 1632 
C 2048 1261 2182 774 2214 454 
L 2592 576 
C 2547 890 2413 1370 2246 1734 
L 1894 1632 
z
M 570 1715 
C 493 1158 378 582 166 192 
C 269 154 454 70 538 13 
C 736 422 890 1043 973 1651 
L 570 1715 
z
M 3270 2374 
L 3270 1990 
L 3546 1990 
L 3546 1088 
C 3546 634 3648 474 4102 474 
C 4179 474 4730 474 4851 474 
C 5005 474 5152 480 5235 506 
C 5222 602 5203 787 5197 896 
C 5107 877 4941 864 4845 864 
C 4730 864 4211 864 4102 864 
C 3981 864 3962 915 3962 1082 
L 3962 1990 
L 5325 1990 
L 5325 2374 
L 4480 2374 
L 4480 3040 
L 5280 3040 
L 5280 3418 
L 4794 3418 
C 4922 3654 5075 4013 5216 4320 
L 4826 4448 
C 4762 4173 4608 3763 4486 3507 
L 4730 3418 
L 3718 3418 
L 4019 3526 
C 3974 3763 3853 4128 3706 4403 
L 3398 4294 
C 3533 4026 3642 3661 3680 3418 
L 3322 3418 
L 3322 3040 
L 4064 3040 
L 4064 2374 
L 3270 2374 
z
M 179 2547 
L 237 2118 
L 1248 2182 
L 1248 -512 
L 1670 -512 
L 1670 2208 
L 2176 2240 
C 2234 2086 2285 1946 2310 1824 
L 2650 1984 
L 2650 -525 
L 3085 -525 
L 3085 4646 
L 5536 4646 
L 5536 32 
C 5536 -58 5504 -90 5421 -96 
C 5331 -96 5050 -96 4755 -83 
C 4813 -205 4877 -403 4896 -512 
C 5306 -518 5581 -506 5754 -435 
C 5920 -358 5971 -230 5971 32 
L 5971 5069 
L 2650 5069 
L 2650 2144 
C 2534 2490 2310 2957 2074 3322 
L 1722 3181 
C 1824 3014 1920 2829 2010 2637 
L 1088 2592 
C 1517 3136 2010 3866 2374 4454 
L 1971 4646 
C 1792 4301 1549 3878 1286 3475 
C 1190 3610 1075 3750 941 3898 
C 1178 4256 1459 4781 1677 5216 
L 1254 5376 
C 1120 5018 890 4531 685 4166 
L 486 4346 
L 237 4038 
C 525 3763 845 3398 1037 3104 
C 896 2912 762 2726 634 2566 
L 179 2547 
z
" transform="scale(0.015625)"/>
      <path id="NotoSansCJKjp-Regular-7ad9" d="M 614 3322 
C 762 2605 870 1683 870 1075 
L 1286 1152 
C 1280 1766 1171 2675 1005 3392 
L 614 3322 
z
M 1382 5293 
L 1382 4109 
L 365 4109 
L 365 3654 
L 2835 3654 
L 2835 4109 
L 1837 4109 
L 1837 5293 
L 1382 5293 
z
M 2989 2317 
L 2989 -506 
L 3456 -506 
L 3456 -198 
L 5389 -198 
L 5389 -480 
L 5875 -480 
L 5875 2317 
L 4557 2317 
L 4557 3590 
L 6144 3590 
L 6144 4051 
L 4557 4051 
L 4557 5382 
L 4064 5382 
L 4064 2317 
L 2989 2317 
z
M 3456 250 
L 3456 1862 
L 5389 1862 
L 5389 250 
L 3456 250 
z
M 2106 3462 
C 2042 2714 1882 1645 1734 1005 
C 1171 883 640 768 243 691 
L 352 211 
C 1056 371 2022 602 2931 819 
L 2886 1267 
L 2182 1107 
C 2317 1734 2477 2643 2573 3373 
L 2106 3462 
z
" transform="scale(0.015625)"/>
      <path id="NotoSansCJKjp-Regular-62d2" d="M 3258 3130 
L 5318 3130 
L 5318 1875 
L 3258 1875 
L 3258 3130 
z
M 2778 5043 
L 2778 -512 
L 3258 -512 
L 3258 -102 
L 6150 -102 
L 6150 346 
L 3258 346 
L 3258 1427 
L 5786 1427 
L 5786 3578 
L 3258 3578 
L 3258 4595 
L 6067 4595 
L 6067 5043 
L 2778 5043 
z
M 1210 5376 
L 1210 4083 
L 294 4083 
L 294 3635 
L 1210 3635 
L 1210 2253 
C 832 2150 480 2061 198 1990 
L 339 1523 
L 1210 1773 
L 1210 45 
C 1210 -45 1178 -77 1088 -77 
C 1005 -83 723 -83 429 -77 
C 486 -205 550 -397 570 -512 
C 1011 -518 1280 -506 1446 -429 
C 1613 -352 1677 -224 1677 51 
L 1677 1914 
L 2522 2170 
L 2464 2605 
L 1677 2381 
L 1677 3635 
L 2458 3635 
L 2458 4083 
L 1677 4083 
L 1677 5376 
L 1210 5376 
z
" transform="scale(0.015625)"/>
      <path id="NotoSansCJKjp-Regular-7d55" d="M 1907 1651 
C 2074 1274 2240 787 2304 467 
L 2669 595 
C 2605 909 2438 1395 2259 1760 
L 1907 1651 
z
M 582 1715 
C 506 1152 378 582 160 192 
C 269 154 454 64 544 6 
C 749 416 909 1037 992 1645 
L 582 1715 
z
M 4205 1869 
L 3366 1869 
L 3366 2874 
L 4205 2874 
L 4205 1869 
z
M 4614 1869 
L 4614 2874 
L 5485 2874 
L 5485 1869 
L 4614 1869 
z
M 2675 5037 
L 2675 4621 
L 3802 4621 
C 3597 4064 3123 3590 2445 3347 
C 2528 3264 2656 3104 2707 3008 
L 2925 3098 
L 2925 269 
C 2925 -339 3136 -480 3821 -480 
C 3981 -480 5146 -480 5312 -480 
C 5939 -480 6080 -237 6150 614 
C 6022 640 5843 717 5734 794 
C 5696 77 5638 -64 5293 -64 
C 5043 -64 4038 -64 3853 -64 
C 3443 -64 3366 0 3366 269 
L 3366 1440 
L 5485 1440 
L 5485 1197 
L 5933 1197 
L 5933 3296 
L 3270 3296 
C 3763 3622 4109 4090 4288 4621 
L 5382 4621 
C 5331 4128 5280 3917 5210 3840 
C 5158 3802 5107 3795 5024 3795 
C 4934 3795 4710 3795 4474 3821 
C 4538 3706 4582 3539 4589 3411 
C 4838 3398 5088 3398 5216 3411 
C 5370 3418 5472 3456 5574 3552 
C 5709 3693 5779 4038 5856 4851 
C 5862 4915 5875 5037 5875 5037 
L 2675 5037 
z
M 218 2509 
L 262 2074 
L 1267 2138 
L 1267 -525 
L 1696 -525 
L 1696 2163 
L 2202 2195 
C 2259 2054 2298 1926 2323 1818 
L 2688 1978 
C 2598 2330 2342 2880 2080 3296 
L 1741 3155 
C 1850 2982 1952 2778 2042 2579 
L 1088 2541 
C 1523 3104 2010 3853 2374 4461 
L 1971 4646 
C 1798 4301 1568 3891 1312 3494 
C 1216 3622 1082 3770 941 3917 
C 1178 4269 1453 4781 1670 5203 
L 1248 5376 
C 1114 5018 883 4538 678 4179 
L 486 4346 
L 243 4026 
C 538 3763 870 3398 1069 3117 
C 928 2899 781 2694 646 2522 
L 218 2509 
z
" transform="scale(0.015625)"/>
      <path id="NotoSansCJKjp-Regular-8acb" d="M 544 3437 
L 544 3059 
L 2419 3059 
L 2419 3437 
L 544 3437 
z
M 570 5152 
L 570 4768 
L 2394 4768 
L 2394 5152 
L 570 5152 
z
M 544 2586 
L 544 2202 
L 2419 2202 
L 2419 2586 
L 544 2586 
z
M 243 4314 
L 243 3910 
L 2630 3910 
L 2630 4314 
L 243 4314 
z
M 538 1722 
L 538 -442 
L 960 -442 
L 960 -147 
L 2426 -147 
L 2426 1722 
L 538 1722 
z
M 960 1318 
L 2003 1318 
L 2003 250 
L 960 250 
L 960 1318 
z
M 4134 5376 
L 4134 4947 
L 2778 4947 
L 2778 4576 
L 4134 4576 
L 4134 4192 
L 2944 4192 
L 2944 3840 
L 4134 3840 
L 4134 3418 
L 2611 3418 
L 2611 3046 
L 6138 3046 
L 6138 3418 
L 4595 3418 
L 4595 3840 
L 5901 3840 
L 5901 4192 
L 4595 4192 
L 4595 4576 
L 5990 4576 
L 5990 4947 
L 4595 4947 
L 4595 5376 
L 4134 5376 
z
M 5293 2304 
L 5293 1850 
L 3546 1850 
L 3546 2304 
L 5293 2304 
z
M 3098 2669 
L 3098 -499 
L 3546 -499 
L 3546 698 
L 5293 698 
L 5293 0 
C 5293 -70 5274 -96 5190 -96 
C 5107 -102 4845 -102 4550 -96 
C 4614 -205 4678 -378 4691 -493 
C 5094 -493 5363 -493 5530 -429 
C 5696 -358 5741 -237 5741 0 
L 5741 2669 
L 3098 2669 
z
M 3546 1504 
L 5293 1504 
L 5293 1037 
L 3546 1037 
L 3546 1504 
z
" transform="scale(0.015625)"/>
      <path id="NotoSansCJKjp-Regular-6c42" d="M 762 3213 
C 1152 2854 1600 2349 1792 2010 
L 2176 2291 
C 1978 2630 1523 3117 1126 3456 
L 762 3213 
z
M 237 544 
L 538 109 
C 1107 435 1862 883 2554 1306 
L 2400 1734 
C 1619 1286 781 813 237 544 
z
M 2944 5363 
L 2944 4301 
L 416 4301 
L 416 3834 
L 2944 3834 
L 2944 141 
C 2944 13 2899 -19 2778 -26 
C 2650 -26 2234 -32 1792 -13 
C 1869 -160 1939 -384 1971 -525 
C 2534 -525 2918 -512 3136 -429 
C 3347 -346 3437 -198 3437 141 
L 3437 2669 
C 3987 1472 4794 474 5843 -38 
C 5926 96 6080 282 6195 384 
C 5478 698 4858 1248 4365 1926 
C 4800 2291 5331 2822 5728 3277 
L 5312 3571 
C 5018 3168 4531 2650 4128 2285 
C 3840 2739 3610 3232 3437 3750 
L 3437 3834 
L 6010 3834 
L 6010 4301 
L 5222 4301 
L 5517 4634 
C 5248 4845 4723 5152 4326 5350 
L 4038 5050 
C 4435 4845 4941 4525 5197 4301 
L 3437 4301 
L 3437 5363 
L 2944 5363 
z
" transform="scale(0.015625)"/>
      <path id="NotoSansCJKjp-Regular-ff08" d="M 4448 2432 
C 4448 1184 4954 166 5722 -614 
L 6106 -416 
C 5370 346 4915 1293 4915 2432 
C 4915 3571 5370 4518 6106 5280 
L 5722 5478 
C 4954 4698 4448 3680 4448 2432 
z
" transform="scale(0.015625)"/>
      <path id="NotoSansCJKjp-Regular-52" d="M 1235 2464 
L 1235 4211 
L 2022 4211 
C 2758 4211 3162 3994 3162 3379 
C 3162 2765 2758 2464 2022 2464 
L 1235 2464 
z
M 3219 0 
L 3885 0 
L 2694 2054 
C 3328 2208 3750 2643 3750 3379 
C 3750 4352 3066 4691 2112 4691 
L 646 4691 
L 646 0 
L 1235 0 
L 1235 1990 
L 2080 1990 
L 3219 0 
z
" transform="scale(0.015625)"/>
      <path id="NotoSansCJKjp-Regular-65" d="M 1997 -83 
C 2464 -83 2835 70 3136 269 
L 2931 659 
C 2669 486 2400 384 2061 384 
C 1402 384 947 858 909 1600 
L 3251 1600 
C 3264 1690 3277 1805 3277 1933 
C 3277 2925 2778 3565 1888 3565 
C 1094 3565 333 2867 333 1734 
C 333 589 1069 -83 1997 -83 
z
M 902 2016 
C 973 2707 1408 3098 1901 3098 
C 2445 3098 2765 2720 2765 2016 
L 902 2016 
z
" transform="scale(0.015625)"/>
      <path id="NotoSansCJKjp-Regular-71" d="M 2790 -1466 
L 3379 -1466 
L 3379 3475 
L 2912 3475 
L 2854 3149 
L 2842 3149 
C 2534 3418 2253 3565 1843 3565 
C 1050 3565 339 2861 339 1734 
C 339 576 902 -83 1773 -83 
C 2176 -83 2541 128 2822 403 
L 2790 -230 
L 2790 -1466 
z
M 1901 410 
C 1293 410 941 902 941 1741 
C 941 2534 1389 3072 1946 3072 
C 2234 3072 2502 2970 2790 2707 
L 2790 883 
C 2502 563 2221 410 1901 410 
z
" transform="scale(0.015625)"/>
      <path id="NotoSansCJKjp-Regular-75" d="M 1606 -83 
C 2080 -83 2426 166 2752 544 
L 2771 544 
L 2816 0 
L 3302 0 
L 3302 3475 
L 2720 3475 
L 2720 1011 
C 2387 602 2138 422 1779 422 
C 1318 422 1126 698 1126 1344 
L 1126 3475 
L 538 3475 
L 538 1274 
C 538 384 870 -83 1606 -83 
z
" transform="scale(0.015625)"/>
      <path id="NotoSansCJKjp-Regular-73" d="M 1498 -83 
C 2317 -83 2758 384 2758 947 
C 2758 1606 2208 1811 1702 2003 
C 1312 2150 954 2278 954 2605 
C 954 2880 1158 3110 1600 3110 
C 1907 3110 2150 2976 2387 2803 
L 2669 3168 
C 2406 3386 2022 3565 1594 3565 
C 832 3565 397 3130 397 2579 
C 397 1984 922 1754 1408 1574 
C 1792 1434 2202 1267 2202 915 
C 2202 614 1978 371 1517 371 
C 1101 371 794 538 486 787 
L 205 397 
C 531 122 1005 -83 1498 -83 
z
" transform="scale(0.015625)"/>
      <path id="NotoSansCJKjp-Regular-74" d="M 1677 -83 
C 1894 -83 2125 -19 2323 45 
L 2208 486 
C 2093 435 1939 390 1811 390 
C 1408 390 1274 634 1274 1056 
L 1274 3002 
L 2221 3002 
L 2221 3475 
L 1274 3475 
L 1274 4454 
L 787 4454 
L 723 3475 
L 173 3443 
L 173 3002 
L 691 3002 
L 691 1075 
C 691 378 941 -83 1677 -83 
z
" transform="scale(0.015625)"/>
      <path id="NotoSansCJKjp-Regular-6a" d="M 224 -1549 
C 915 -1549 1178 -1107 1178 -397 
L 1178 3475 
L 595 3475 
L 595 -397 
C 595 -819 512 -1082 166 -1082 
C 45 -1082 -77 -1050 -166 -1018 
L -282 -1459 
C -160 -1510 19 -1549 224 -1549 
z
M 883 4192 
C 1107 4192 1274 4346 1274 4582 
C 1274 4806 1107 4960 883 4960 
C 653 4960 493 4806 493 4582 
C 493 4346 653 4192 883 4192 
z
" transform="scale(0.015625)"/>
      <path id="NotoSansCJKjp-Regular-63" d="M 1958 -83 
C 2374 -83 2771 83 3085 352 
L 2829 749 
C 2611 557 2330 403 2010 403 
C 1370 403 934 934 934 1734 
C 934 2534 1395 3072 2029 3072 
C 2298 3072 2522 2950 2720 2771 
L 3014 3155 
C 2771 3373 2458 3565 2003 3565 
C 1107 3565 333 2893 333 1734 
C 333 582 1037 -83 1958 -83 
z
" transform="scale(0.015625)"/>
      <path id="NotoSansCJKjp-Regular-64" d="M 1773 -83 
C 2189 -83 2560 141 2829 410 
L 2848 410 
L 2899 0 
L 3379 0 
L 3379 5094 
L 2790 5094 
L 2790 3757 
L 2822 3162 
C 2515 3411 2253 3565 1843 3565 
C 1050 3565 339 2861 339 1734 
C 339 576 902 -83 1773 -83 
z
M 1901 410 
C 1293 410 941 902 941 1741 
C 941 2534 1389 3072 1946 3072 
C 2234 3072 2502 2970 2790 2707 
L 2790 883 
C 2502 563 2221 410 1901 410 
z
" transform="scale(0.015625)"/>
      <path id="NotoSansCJKjp-Regular-2f" d="M 70 -1146 
L 499 -1146 
L 2413 5082 
L 1990 5082 
L 70 -1146 
z
" transform="scale(0.015625)"/>
      <path id="NotoSansCJKjp-Regular-41" d="M 26 0 
L 621 0 
L 1075 1434 
L 2790 1434 
L 3238 0 
L 3866 0 
L 2272 4691 
L 1613 4691 
L 26 0 
z
M 1222 1901 
L 1453 2624 
C 1619 3155 1773 3661 1920 4211 
L 1946 4211 
C 2099 3667 2246 3155 2419 2624 
L 2643 1901 
L 1222 1901 
z
" transform="scale(0.015625)"/>
      <path id="NotoSansCJKjp-Regular-44" d="M 646 0 
L 1843 0 
C 3258 0 4026 877 4026 2362 
C 4026 3859 3258 4691 1818 4691 
L 646 4691 
L 646 0 
z
M 1235 486 
L 1235 4211 
L 1766 4211 
C 2874 4211 3418 3552 3418 2362 
C 3418 1178 2874 486 1766 486 
L 1235 486 
z
" transform="scale(0.015625)"/>
      <path id="NotoSansCJKjp-Regular-6e" d="M 589 0 
L 1178 0 
L 1178 2522 
C 1523 2874 1766 3053 2125 3053 
C 2586 3053 2784 2778 2784 2125 
L 2784 0 
L 3366 0 
L 3366 2202 
C 3366 3085 3034 3565 2304 3565 
C 1830 3565 1466 3302 1139 2970 
L 1126 2970 
L 1069 3475 
L 589 3475 
L 589 0 
z
" transform="scale(0.015625)"/>
      <path id="NotoSansCJKjp-Regular-69" d="M 589 0 
L 1178 0 
L 1178 3475 
L 589 3475 
L 589 0 
z
M 883 4192 
C 1114 4192 1274 4346 1274 4582 
C 1274 4806 1114 4960 883 4960 
C 653 4960 499 4806 499 4582 
C 499 4346 653 4192 883 4192 
z
" transform="scale(0.015625)"/>
      <path id="NotoSansCJKjp-Regular-ff09" d="M 1952 2432 
C 1952 3680 1446 4698 678 5478 
L 294 5280 
C 1030 4518 1485 3571 1485 2432 
C 1485 1293 1030 346 294 -416 
L 678 -614 
C 1446 166 1952 1184 1952 2432 
z
" transform="scale(0.015625)"/>
     </defs>
     <use xlink:href="#NotoSansCJKjp-Regular-932f"/>
     <use xlink:href="#NotoSansCJKjp-Regular-8aa4" transform="translate(99.999985 0)"/>
     <use xlink:href="#NotoSansCJKjp-Regular-8a0a" transform="translate(199.999969 0)"/>
     <use xlink:href="#NotoSansCJKjp-Regular-606f" transform="translate(299.999954 0)"/>
     <use xlink:href="#NotoSansCJKjp-Regular-3a" transform="translate(399.999939 0)"/>
     <use xlink:href="#NotoSansCJKjp-Regular-20" transform="translate(427.799927 0)"/>
     <use xlink:href="#NotoSansCJKjp-Regular-4f86" transform="translate(450.199921 0)"/>
     <use xlink:href="#NotoSansCJKjp-Regular-6e90" transform="translate(550.199905 0)"/>
     <use xlink:href="#NotoSansCJKjp-Regular-7db2" transform="translate(650.19989 0)"/>
     <use xlink:href="#NotoSansCJKjp-Regular-7ad9" transform="translate(750.199875 0)"/>
     <use xlink:href="#NotoSansCJKjp-Regular-62d2" transform="translate(850.19986 0)"/>
     <use xlink:href="#NotoSansCJKjp-Regular-7d55" transform="translate(950.199844 0)"/>
     <use xlink:href="#NotoSansCJKjp-Regular-8acb" transform="translate(1050.199829 0)"/>
     <use xlink:href="#NotoSansCJKjp-Regular-6c42" transform="translate(1150.199814 0)"/>
     <use xlink:href="#NotoSansCJKjp-Regular-ff08" transform="translate(1250.199799 0)"/>
     <use xlink:href="#NotoSansCJKjp-Regular-52" transform="translate(1350.199783 0)"/>
     <use xlink:href="#NotoSansCJKjp-Regular-65" transform="translate(1413.699768 0)"/>
     <use xlink:href="#NotoSansCJKjp-Regular-71" transform="translate(1469.099762 0)"/>
     <use xlink:href="#NotoSansCJKjp-Regular-75" transform="translate(1531.099747 0)"/>
     <use xlink:href="#NotoSansCJKjp-Regular-65" transform="translate(1591.799744 0)"/>
     <use xlink:href="#NotoSansCJKjp-Regular-73" transform="translate(1647.199738 0)"/>
     <use xlink:href="#NotoSansCJKjp-Regular-74" transform="translate(1693.999725 0)"/>
     <use xlink:href="#NotoSansCJKjp-Regular-20" transform="translate(1731.699722 0)"/>
     <use xlink:href="#NotoSansCJKjp-Regular-52" transform="translate(1754.099716 0)"/>
     <use xlink:href="#NotoSansCJKjp-Regular-65" transform="translate(1817.599701 0)"/>
     <use xlink:href="#NotoSansCJKjp-Regular-6a" transform="translate(1872.999695 0)"/>
     <use xlink:href="#NotoSansCJKjp-Regular-65" transform="translate(1900.49968 0)"/>
     <use xlink:href="#NotoSansCJKjp-Regular-63" transform="translate(1955.899673 0)"/>
     <use xlink:href="#NotoSansCJKjp-Regular-74" transform="translate(2006.899658 0)"/>
     <use xlink:href="#NotoSansCJKjp-Regular-65" transform="translate(2044.599655 0)"/>
     <use xlink:href="#NotoSansCJKjp-Regular-64" transform="translate(2099.999649 0)"/>
     <use xlink:href="#NotoSansCJKjp-Regular-20" transform="translate(2161.999634 0)"/>
     <use xlink:href="#NotoSansCJKjp-Regular-2f" transform="translate(2184.399628 0)"/>
     <use xlink:href="#NotoSansCJKjp-Regular-20" transform="translate(2223.599625 0)"/>
     <use xlink:href="#NotoSansCJKjp-Regular-41" transform="translate(2245.999619 0)"/>
     <use xlink:href="#NotoSansCJKjp-Regular-63" transform="translate(2306.799606 0)"/>
     <use xlink:href="#NotoSansCJKjp-Regular-63" transform="translate(2357.799591 0)"/>
     <use xlink:href="#NotoSansCJKjp-Regular-65" transform="translate(2408.799576 0)"/>
     <use xlink:href="#NotoSansCJKjp-Regular-73" transform="translate(2464.19957 0)"/>
     <use xlink:href="#NotoSansCJKjp-Regular-73" transform="translate(2510.999557 0)"/>
     <use xlink:href="#NotoSansCJKjp-Regular-20" transform="translate(2557.799545 0)"/>
     <use xlink:href="#NotoSansCJKjp-Regular-44" transform="translate(2580.199539 0)"/>
     <use xlink:href="#NotoSansCJKjp-Regular-65" transform="translate(2648.999527 0)"/>
     <use xlink:href="#NotoSansCJKjp-Regular-6e" transform="translate(2704.399521 0)"/>
     <use xlink:href="#NotoSansCJKjp-Regular-69" transform="translate(2765.399506 0)"/>
     <use xlink:href="#NotoSansCJKjp-Regular-65" transform="translate(2792.89949 0)"/>
     <use xlink:href="#NotoSansCJKjp-Regular-64" transform="translate(2848.299484 0)"/>
     <use xlink:href="#NotoSansCJKjp-Regular-ff09" transform="translate(2910.299469 0)"/>
     <use xlink:href="#NotoSansCJKjp-Regular-3002" transform="translate(3010.299454 0)"/>
    </g>
   </g>
  </g>
 </g>
</svg>
