<?xml version="1.0" encoding="utf-8" standalone="no"?>
<!DOCTYPE svg PUBLIC "-//W3C//DTD SVG 1.1//EN"
  "http://www.w3.org/Graphics/SVG/1.1/DTD/svg11.dtd">
<svg xmlns:xlink="http://www.w3.org/1999/xlink" width="864pt" height="432pt" viewBox="0 0 864 432" xmlns="http://www.w3.org/2000/svg" version="1.1">
 <metadata>
  <rdf:RDF xmlns:dc="http://purl.org/dc/elements/1.1/" xmlns:cc="http://creativecommons.org/ns#" xmlns:rdf="http://www.w3.org/1999/02/22-rdf-syntax-ns#">
   <cc:Work>
    <dc:type rdf:resource="http://purl.org/dc/dcmitype/StillImage"/>
    <dc:date>2026-02-16T19:18:22.593792</dc:date>
    <dc:format>image/svg+xml</dc:format>
    <dc:creator>
     <cc:Agent>
      <dc:title>Matplotlib v3.10.7, https://matplotlib.org/</dc:title>
     </cc:Agent>
    </dc:creator>
   </cc:Work>
  </rdf:RDF>
 </metadata>
 <defs>
  <style type="text/css">*{stroke-linejoin: round; stroke-linecap: butt}</style>
 </defs>
 <g id="figure_1">
  <g id="patch_1">
   <path d="M 0 432 
L 864 432 
L 864 0 
L 0 0 
z
" style="fill: #ffffff"/>
  </g>
  <g id="axes_1">
   <g id="text_1">
    <!-- 全台建物買賣移轉棟數 -->
    <g style="fill: #0d3b66" transform="translate(312 160.63875) scale(0.24 -0.24)">
     <defs>
      <path id="ArialUnicodeMS-5168" d="M 5984 2963 
L 5703 2522 
Q 5419 2628 4872 2869 
L 4872 2613 
L 3366 2613 
L 3366 1728 
L 4691 1728 
L 4691 1259 
L 3366 1259 
L 3366 319 
L 5678 319 
L 5678 -147 
L 603 -147 
L 603 319 
L 2881 319 
L 2881 1259 
L 1556 1259 
L 1556 1728 
L 2881 1728 
L 2881 2613 
L 1344 2613 
L 1344 2841 
Q 1250 2766 544 2491 
L 256 2925 
Q 2109 3556 3066 5141 
L 3531 4928 
L 3419 4738 
Q 4144 3581 5984 2963 
z
M 4603 3072 
Q 3694 3488 3097 4313 
Q 2572 3578 1703 3072 
L 4603 3072 
z
" transform="scale(0.015625)"/>
      <path id="ArialUnicodeMS-53f0" d="M 5784 2656 
L 5369 2322 
Q 5228 2594 4928 3016 
L 978 2834 
L 794 3334 
L 1697 3359 
Q 2372 4347 2797 5375 
L 3322 5147 
Q 2744 3988 2272 3372 
L 4575 3463 
Q 4197 3850 3719 4166 
L 4109 4469 
Q 5166 3766 5784 2656 
z
M 5044 -325 
L 4556 -325 
L 4556 159 
L 1791 159 
L 1791 -325 
L 1288 -325 
L 1288 2322 
L 5044 2322 
L 5044 -325 
z
M 4556 628 
L 4556 1856 
L 1791 1856 
L 1791 628 
L 4556 628 
z
" transform="scale(0.015625)"/>
      <path id="ArialUnicodeMS-5efa" d="M 5900 972 
L 4225 972 
L 4225 366 
L 3738 366 
L 3738 972 
L 2253 972 
L 2253 1434 
L 3738 1434 
L 3738 1813 
L 2534 1813 
L 2534 2272 
L 3738 2272 
L 3738 2656 
L 2656 2656 
L 2656 3116 
L 3738 3116 
L 3738 3506 
L 2234 3506 
L 2234 3969 
L 3738 3969 
L 3738 4319 
L 2656 4319 
L 2656 4781 
L 3738 4781 
L 3738 5288 
L 4225 5288 
L 4225 4781 
L 5478 4781 
L 5478 3969 
L 5900 3969 
L 5900 3506 
L 5478 3506 
L 5478 2656 
L 4225 2656 
L 4225 2272 
L 5556 2272 
L 5556 1813 
L 4225 1813 
L 4225 1434 
L 5900 1434 
L 5900 972 
z
M 4991 3969 
L 4991 4319 
L 4225 4319 
L 4225 3969 
L 4991 3969 
z
M 4991 3116 
L 4991 3506 
L 4225 3506 
L 4225 3116 
L 4991 3116 
z
M 6075 359 
L 5850 -166 
L 3309 -166 
Q 2181 -166 1600 347 
Q 1228 -56 538 -397 
L 213 0 
Q 781 225 1253 684 
Q 966 994 716 1606 
L 1100 1844 
Q 1231 1413 1522 1063 
Q 1828 1709 1900 2541 
L 1306 2541 
L 1159 2253 
L 738 2444 
L 1600 4275 
L 403 4275 
L 403 4756 
L 2144 4756 
L 2144 4313 
L 1503 3009 
L 2419 3009 
Q 2319 1475 1875 728 
Q 2397 300 3378 300 
L 5247 300 
L 6075 359 
z
" transform="scale(0.015625)"/>
      <path id="ArialUnicodeMS-7269" d="M 5894 4372 
Q 5778 2013 5592 1016 
Q 5406 19 5240 -150 
Q 5075 -319 4794 -319 
Q 4650 -319 4091 -172 
L 3994 325 
Q 4588 141 4688 141 
Q 4888 141 4963 342 
Q 5038 544 5184 1453 
Q 5331 2363 5394 3903 
L 5063 3903 
Q 4900 1088 3278 -319 
L 2841 -38 
Q 4422 1244 4616 3903 
L 4213 3903 
Q 3875 1706 2631 556 
L 2216 825 
Q 3500 2034 3756 3903 
L 3425 3903 
Q 3147 3078 2675 2484 
L 2222 2688 
Q 3091 3713 3225 5306 
L 3659 5191 
Q 3641 4784 3541 4372 
L 5894 4372 
z
M 2778 1894 
L 2081 1625 
L 2081 -469 
L 1594 -469 
L 1594 1422 
L 788 1100 
L 453 1478 
L 1594 1913 
L 1594 3366 
L 1247 3366 
Q 1128 2781 891 2369 
L 434 2541 
Q 863 3241 831 4622 
L 1319 4525 
Q 1334 4269 1334 4109 
Q 1334 3941 1319 3834 
L 1594 3834 
L 1594 5269 
L 2081 5269 
L 2081 3834 
L 2650 3834 
L 2650 3366 
L 2081 3366 
L 2081 2106 
L 2778 2369 
L 2778 1894 
z
" transform="scale(0.015625)"/>
      <path id="ArialUnicodeMS-8cb7" d="M 5522 3531 
L 838 3531 
L 838 5006 
L 5522 5006 
L 5522 3531 
z
M 5038 4000 
L 5038 4538 
L 4103 4538 
L 4103 4000 
L 5038 4000 
z
M 3641 4000 
L 3641 4538 
L 2713 4538 
L 2713 4000 
L 3641 4000 
z
M 2228 4000 
L 2228 4538 
L 1325 4538 
L 1325 4000 
L 2228 4000 
z
M 5094 634 
L 2572 634 
L 2816 353 
Q 2022 -216 659 -428 
L 416 19 
Q 1559 125 2478 628 
L 2463 634 
L 1363 634 
L 1363 3297 
L 5094 3297 
L 5094 634 
z
M 4609 2528 
L 4609 2828 
L 1850 2828 
L 1850 2528 
L 4609 2528 
z
M 4609 1831 
L 4609 2131 
L 1850 2131 
L 1850 1831 
L 4609 1831 
z
M 4609 1100 
L 4609 1416 
L 1850 1416 
L 1850 1100 
L 4609 1100 
z
M 6075 -13 
L 5747 -397 
Q 4750 169 3603 238 
L 3872 609 
Q 4969 550 6075 -13 
z
" transform="scale(0.015625)"/>
      <path id="ArialUnicodeMS-8ce3" d="M 5906 4500 
L 3444 4500 
L 3444 4288 
L 5369 4288 
L 5369 3891 
L 1100 3891 
L 1100 4288 
L 2963 4288 
L 2963 4500 
L 550 4500 
L 550 4916 
L 2963 4916 
L 2963 5288 
L 3444 5288 
L 3444 4916 
L 5906 4916 
L 5906 4500 
z
M 5656 2650 
L 794 2650 
L 794 3738 
L 5656 3738 
L 5656 2650 
z
M 5172 3041 
L 5172 3322 
L 4178 3322 
L 4178 3041 
L 5172 3041 
z
M 3719 3041 
L 3719 3322 
L 2725 3322 
L 2725 3041 
L 3719 3041 
z
M 2266 3041 
L 2266 3322 
L 1281 3322 
L 1281 3041 
L 2266 3041 
z
M 6047 -25 
L 5831 -403 
Q 4947 -41 3488 6 
L 3681 372 
L 2681 372 
L 2888 84 
Q 1856 -422 588 -441 
L 306 0 
Q 441 -6 578 -6 
Q 1603 -6 2528 366 
L 2528 372 
L 1228 372 
L 1228 2509 
L 5228 2509 
L 5228 372 
L 4319 372 
L 4319 366 
Q 5250 306 6047 -25 
z
M 4750 2113 
L 1716 2113 
L 1716 1900 
L 4744 1900 
L 4750 2113 
z
M 4750 1569 
L 1716 1569 
L 1716 1363 
L 4744 1363 
L 4750 1569 
z
M 4744 788 
L 4744 1019 
L 1716 1019 
L 1716 788 
L 4744 788 
z
" transform="scale(0.015625)"/>
      <path id="ArialUnicodeMS-79fb" d="M 5850 4738 
Q 5391 3000 2944 2216 
L 2613 2613 
Q 3381 2819 3922 3122 
Q 3778 3431 3366 3659 
L 3769 3969 
Q 4094 3703 4319 3353 
Q 4928 3797 5178 4269 
L 3944 4269 
Q 3500 3816 3009 3547 
L 2644 3847 
Q 3731 4491 4159 5369 
L 4538 5159 
Q 4456 4969 4294 4738 
L 5850 4738 
z
M 2963 1881 
L 2578 1606 
Q 2259 2219 1997 2369 
L 1997 -434 
L 1509 -434 
L 1509 2119 
Q 1288 1622 678 966 
L 313 1294 
Q 1256 2263 1484 3219 
L 628 3219 
L 628 3688 
L 1516 3688 
L 1516 4459 
Q 1300 4403 794 4347 
L 519 4775 
Q 1806 4909 2528 5281 
L 2784 4897 
Q 2313 4684 1997 4588 
L 1997 3688 
L 2747 3688 
L 2747 3219 
L 1997 3219 
L 1997 2747 
L 2125 2797 
Q 2606 2503 2963 1881 
z
M 5984 2450 
Q 5534 247 2450 -447 
L 2113 -13 
Q 3400 200 4084 628 
Q 3922 950 3559 1234 
L 3944 1503 
Q 4241 1294 4453 863 
Q 5084 1331 5375 1984 
L 4331 1984 
Q 3672 1322 2713 856 
L 2338 1203 
Q 3816 1831 4594 2963 
L 4959 2759 
L 4738 2450 
L 5984 2450 
z
" transform="scale(0.015625)"/>
      <path id="ArialUnicodeMS-8f49" d="M 5978 4459 
L 4603 4459 
L 4603 4141 
L 5644 4141 
L 5644 2259 
L 5441 2259 
Q 5703 2006 5941 1503 
L 5516 1319 
Q 5481 1516 5409 1650 
L 3078 1478 
Q 2978 1625 2834 1947 
Q 3444 1938 4141 1978 
L 4141 2259 
L 3091 2259 
L 3091 4141 
L 4141 4141 
L 4141 4459 
L 2981 4459 
L 2981 4897 
L 4141 4897 
L 4141 5300 
L 4603 5300 
L 4603 4897 
L 5978 4897 
L 5978 4459 
z
M 5209 3413 
L 5209 3706 
L 4603 3706 
L 4603 3413 
L 5209 3413 
z
M 4141 3413 
L 4141 3706 
L 3525 3706 
L 3525 3413 
L 4141 3413 
z
M 5209 2694 
L 5209 3003 
L 4603 3003 
L 4603 2694 
L 5209 2694 
z
M 4141 2694 
L 4141 3003 
L 3525 3003 
L 3525 2694 
L 4141 2694 
z
M 5350 2253 
L 4603 2259 
L 4603 2009 
L 5094 2034 
L 5013 2119 
L 5350 2253 
z
M 2925 722 
L 1972 722 
L 1972 -453 
L 1509 -453 
L 1509 722 
L 359 722 
L 359 1184 
L 1509 1184 
L 1509 1575 
L 728 1575 
L 728 3866 
L 1509 3866 
L 1509 4206 
L 428 4206 
L 428 4666 
L 1509 4666 
L 1509 5300 
L 1972 5300 
L 1972 4666 
L 2925 4666 
L 2925 4206 
L 1972 4206 
L 1972 3866 
L 2797 3866 
L 2797 1575 
L 1972 1575 
L 1972 1184 
L 2925 1184 
L 2925 722 
z
M 2338 2931 
L 2338 3431 
L 1972 3431 
L 1972 2931 
L 2338 2931 
z
M 1509 2931 
L 1509 3431 
L 1166 3431 
L 1166 2931 
L 1509 2931 
z
M 2338 2009 
L 2338 2497 
L 1972 2497 
L 1972 2009 
L 2338 2009 
z
M 1509 2009 
L 1509 2497 
L 1166 2497 
L 1166 2009 
L 1509 2009 
z
M 6059 850 
L 5259 850 
L 5259 63 
Q 5259 -409 4831 -409 
L 4422 -409 
L 4206 50 
Q 4431 19 4538 19 
Q 4819 19 4813 238 
L 4800 850 
L 2969 850 
L 2969 1288 
L 4800 1288 
L 4800 1563 
L 5259 1563 
L 5259 1288 
L 6059 1288 
L 6059 850 
z
M 4313 231 
L 4013 -91 
Q 3541 363 3022 428 
L 3328 756 
Q 3831 666 4313 231 
z
" transform="scale(0.015625)"/>
      <path id="ArialUnicodeMS-68df" d="M 6228 366 
Q 6103 203 5856 -6 
Q 4919 434 4447 1606 
L 4441 1606 
L 4441 -409 
L 3956 -409 
L 3956 1663 
L 3944 1663 
Q 3456 538 2547 6 
Q 2466 53 2325 175 
Q 2184 297 2125 341 
Q 2950 756 3500 1791 
L 2725 1791 
L 2725 3938 
L 3956 3938 
L 3956 4294 
L 2381 4294 
L 2381 4763 
L 3956 4763 
L 3956 5344 
L 4441 5344 
L 4441 4763 
L 6034 4763 
L 6034 4294 
L 4441 4294 
L 4441 3938 
L 5672 3938 
L 5672 1791 
L 4878 1791 
Q 5313 747 6228 366 
z
M 5209 3103 
L 5209 3469 
L 4441 3469 
L 4441 3103 
L 5209 3103 
z
M 3956 3103 
L 3956 3469 
L 3188 3469 
L 3188 3103 
L 3956 3103 
z
M 5209 2259 
L 5209 2638 
L 4441 2638 
L 4441 2259 
L 5209 2259 
z
M 3956 2259 
L 3956 2638 
L 3188 2638 
L 3188 2259 
L 3956 2259 
z
M 2706 2047 
L 2266 1838 
Q 2197 2209 1925 2578 
L 1913 2578 
L 1913 -391 
L 1428 -391 
L 1428 2150 
L 1416 2150 
Q 1228 1656 697 1125 
L 319 1434 
Q 1125 2200 1403 3622 
L 575 3622 
L 575 4109 
L 1428 4109 
L 1428 5325 
L 1913 5325 
L 1913 4109 
L 2606 4109 
L 2606 3622 
L 1913 3622 
L 1913 3072 
L 2059 3128 
Q 2591 2600 2706 2047 
z
" transform="scale(0.015625)"/>
      <path id="ArialUnicodeMS-6578" d="M 6138 -97 
L 5806 -447 
Q 5234 -31 4831 684 
Q 4488 72 3903 -434 
L 3584 -109 
Q 4138 300 4594 1159 
Q 4334 1825 4191 2631 
Q 4050 2391 3963 2291 
L 3706 2463 
L 3706 1844 
L 2194 1844 
L 2194 1838 
L 2472 1728 
L 2375 1550 
L 4097 1550 
L 4097 1106 
L 3322 1106 
Q 3203 806 2834 475 
L 3553 109 
L 3284 -281 
L 2431 172 
Q 1694 -306 581 -441 
L 384 0 
Q 1425 106 1869 353 
Q 1497 472 928 513 
Q 1366 934 1484 1106 
L 513 1106 
L 513 1550 
L 1806 1550 
L 1997 1844 
L 891 1844 
L 891 2900 
L 2041 2900 
L 2041 3103 
L 891 3103 
L 891 3816 
L 428 3816 
L 428 4256 
L 891 4256 
L 891 4891 
L 2041 4891 
L 2041 5319 
L 2522 5319 
L 2522 4891 
L 3694 4891 
L 3694 4256 
L 4078 4256 
L 4078 3816 
L 3694 3816 
L 3694 3103 
L 2522 3103 
L 2522 2900 
L 3706 2900 
L 3706 2759 
L 3719 2759 
Q 4363 3613 4391 5331 
L 4825 5228 
Q 4844 4650 4728 4122 
L 5953 4122 
L 5953 3653 
L 5644 3653 
Q 5550 2091 5088 1159 
Q 5441 403 6138 -97 
z
M 3231 4256 
L 3231 4481 
L 2522 4481 
L 2522 4256 
L 3231 4256 
z
M 2041 4256 
L 2041 4481 
L 1344 4481 
L 1344 4256 
L 2041 4256 
z
M 3231 3513 
L 3231 3816 
L 2522 3816 
L 2522 3513 
L 3231 3513 
z
M 2041 3513 
L 2041 3816 
L 1344 3816 
L 1344 3513 
L 2041 3513 
z
M 5197 3653 
L 4641 3653 
Q 4634 3628 4573 3467 
Q 4513 3306 4513 3278 
L 4609 2700 
Q 4706 2119 4850 1734 
L 4863 1734 
Q 5178 2703 5197 3653 
z
M 3231 2253 
L 3231 2491 
L 2522 2491 
L 2522 2253 
L 3231 2253 
z
M 2047 2491 
L 1344 2491 
L 1344 2253 
L 2041 2253 
L 2047 2491 
z
M 2797 1106 
L 2059 1106 
L 1813 813 
L 2394 659 
Q 2609 816 2797 1106 
z
" transform="scale(0.015625)"/>
     </defs>
     <use xlink:href="#ArialUnicodeMS-5168"/>
     <use xlink:href="#ArialUnicodeMS-53f0" transform="translate(100 0)"/>
     <use xlink:href="#ArialUnicodeMS-5efa" transform="translate(200 0)"/>
     <use xlink:href="#ArialUnicodeMS-7269" transform="translate(300 0)"/>
     <use xlink:href="#ArialUnicodeMS-8cb7" transform="translate(400 0)"/>
     <use xlink:href="#ArialUnicodeMS-8ce3" transform="translate(500 0)"/>
     <use xlink:href="#ArialUnicodeMS-79fb" transform="translate(600 0)"/>
     <use xlink:href="#ArialUnicodeMS-8f49" transform="translate(700 0)"/>
     <use xlink:href="#ArialUnicodeMS-68df" transform="translate(800 0)"/>
     <use xlink:href="#ArialUnicodeMS-6578" transform="translate(900 0)"/>
    </g>
   </g>
   <g id="text_2">
    <!-- 目前無法取得資料，已保留上次可用輸出或等待下次更新。 -->
    <g style="fill: #444444" transform="translate(250 228.357687) scale(0.14 -0.14)">
     <defs>
      <path id="ArialUnicodeMS-76ee" d="M 4909 -269 
L 4403 -269 
L 4403 288 
L 1825 288 
L 1825 -269 
L 1319 -269 
L 1319 4934 
L 4909 4934 
L 4909 -269 
z
M 4403 3609 
L 4403 4469 
L 1825 4469 
L 1825 3609 
L 4403 3609 
z
M 4403 2228 
L 4403 3144 
L 1825 3144 
L 1825 2228 
L 4403 2228 
z
M 4403 775 
L 4403 1759 
L 1825 1759 
L 1825 775 
L 4403 775 
z
" transform="scale(0.015625)"/>
      <path id="ArialUnicodeMS-524d" d="M 5913 3975 
L 488 3975 
L 488 4434 
L 2047 4434 
Q 1791 4891 1394 5131 
L 1869 5403 
Q 2231 5181 2663 4434 
L 3669 4434 
Q 4044 4813 4281 5441 
L 4744 5191 
Q 4538 4744 4269 4434 
L 5913 4434 
L 5913 3975 
z
M 5369 128 
Q 5369 -369 4709 -378 
L 4231 -384 
L 4078 91 
Q 4647 91 4755 127 
Q 4863 163 4863 281 
L 4863 3700 
L 5369 3700 
L 5369 128 
z
M 3206 244 
Q 3206 -19 3014 -153 
Q 2822 -288 2528 -281 
L 2100 -275 
L 1941 191 
L 2591 172 
Q 2719 194 2719 294 
L 2719 1038 
L 1544 1038 
L 1544 -231 
L 1056 -231 
L 1056 3469 
L 3206 3469 
L 3206 244 
z
M 2719 2491 
L 2719 3009 
L 1544 3009 
L 1544 2491 
L 2719 2491 
z
M 2719 1497 
L 2719 2059 
L 1544 2059 
L 1544 1497 
L 2719 1497 
z
M 4281 763 
L 3794 763 
L 3794 3278 
L 4281 3278 
L 4281 763 
z
" transform="scale(0.015625)"/>
      <path id="ArialUnicodeMS-7121" d="M 5978 2713 
L 5119 2713 
L 5119 1728 
L 5869 1728 
L 5869 1259 
L 634 1259 
L 634 1728 
L 1375 1728 
L 1375 2713 
L 459 2713 
L 459 3181 
L 1375 3181 
L 1375 3884 
Q 984 3494 684 3316 
L 347 3688 
Q 1338 4344 1850 5403 
L 2284 5184 
Q 2091 4813 1959 4616 
L 5703 4616 
L 5703 4147 
L 5119 4147 
L 5119 3181 
L 5978 3181 
L 5978 2713 
z
M 4634 3181 
L 4634 4147 
L 4038 4147 
L 4038 3181 
L 4634 3181 
z
M 3553 3181 
L 3553 4147 
L 2938 4147 
L 2938 3181 
L 3553 3181 
z
M 2450 3181 
L 2450 4147 
L 1863 4147 
L 1863 3181 
L 2450 3181 
z
M 4634 1728 
L 4634 2713 
L 4038 2713 
L 4038 1728 
L 4634 1728 
z
M 3553 1728 
L 3553 2713 
L 2938 2713 
L 2938 1728 
L 3553 1728 
z
M 2450 1728 
L 2450 2713 
L 1863 2713 
L 1863 1728 
L 2450 1728 
z
M 1678 909 
Q 1497 366 716 -403 
L 288 -116 
Q 1013 534 1300 1153 
L 1678 909 
z
M 6088 -159 
Q 6025 -188 5875 -273 
Q 5725 -359 5638 -391 
Q 5241 441 4653 884 
L 5044 1119 
Q 5656 672 6088 -159 
z
M 4434 -116 
L 3950 -281 
Q 3725 422 3291 916 
Q 3694 1059 3750 1069 
Q 4159 603 4434 -116 
z
M 3028 -141 
L 2547 -313 
Q 2344 425 1919 878 
L 2363 1038 
Q 2784 613 3028 -141 
z
" transform="scale(0.015625)"/>
      <path id="ArialUnicodeMS-6cd5" d="M 6047 -103 
L 5600 -366 
Q 5428 69 5288 244 
L 2266 -31 
L 2041 475 
L 2772 506 
Q 3134 1244 3456 2188 
L 2041 2188 
L 2041 2656 
L 3719 2656 
L 3719 3738 
L 2394 3738 
L 2394 4206 
L 3719 4206 
L 3719 5253 
L 4206 5253 
L 4206 4206 
L 5538 4206 
L 5538 3738 
L 4206 3738 
L 4206 2656 
L 5894 2656 
L 5894 2188 
L 3975 2188 
Q 3681 1241 3291 531 
L 5013 653 
Q 4669 1025 4325 1228 
L 4738 1472 
Q 5541 953 6047 -103 
z
M 2284 4166 
L 1941 3822 
Q 1597 4384 838 4703 
L 1141 5031 
Q 1869 4756 2284 4166 
z
M 1888 2772 
L 1550 2425 
Q 1203 3003 409 3291 
L 738 3609 
Q 1547 3316 1888 2772 
z
M 2169 1753 
Q 1872 553 978 -378 
L 544 -84 
Q 1469 878 1753 1925 
L 2169 1753 
z
" transform="scale(0.015625)"/>
      <path id="ArialUnicodeMS-53d6" d="M 3744 4525 
L 3188 4525 
L 3188 -447 
L 2700 -447 
L 2700 684 
L 544 213 
L 275 653 
Q 531 691 959 781 
L 959 4525 
L 331 4525 
L 331 4991 
L 3744 4991 
L 3744 4525 
z
M 2700 3725 
L 2700 4525 
L 1447 4525 
L 1447 3725 
L 2700 3725 
z
M 2700 2406 
L 2700 3256 
L 1447 3256 
L 1447 2406 
L 2700 2406 
z
M 2700 1153 
L 2700 1941 
L 1447 1941 
L 1447 897 
L 2700 1153 
z
M 6144 84 
L 5791 -263 
Q 5134 138 4653 756 
Q 4391 313 3609 -294 
L 3272 63 
Q 4041 588 4372 1191 
Q 3725 2328 3609 3950 
L 3419 3950 
L 3419 4416 
L 5741 4416 
Q 5616 2397 4928 1184 
Q 5372 544 6144 84 
z
M 5216 3950 
L 4078 3950 
Q 4200 2622 4647 1663 
Q 5128 2553 5216 3950 
z
" transform="scale(0.015625)"/>
      <path id="ArialUnicodeMS-5f97" d="M 2228 5069 
Q 1656 4028 806 3384 
L 422 3719 
Q 1328 4325 1819 5331 
L 2228 5069 
z
M 5472 2869 
L 2572 2869 
L 2572 5013 
L 5472 5013 
L 5472 2869 
z
M 4984 4184 
L 4984 4544 
L 3059 4544 
L 3059 4184 
L 4984 4184 
z
M 4984 3334 
L 4984 3719 
L 3059 3719 
L 3059 3334 
L 4984 3334 
z
M 2316 3525 
Q 2188 3231 1778 2669 
L 1778 -447 
L 1294 -447 
L 1294 2119 
Q 906 1772 709 1644 
L 319 1931 
Q 1450 2694 1947 3847 
L 2316 3525 
z
M 6059 1228 
L 5191 1228 
L 5191 147 
Q 5191 -66 5030 -241 
Q 4869 -416 4666 -416 
L 4025 -416 
L 3822 84 
Q 4109 44 4513 44 
Q 4703 44 4703 269 
L 4703 1228 
L 2053 1228 
L 2053 1697 
L 4703 1697 
L 4703 2094 
L 2413 2094 
L 2413 2559 
L 5797 2559 
L 5797 2094 
L 5191 2094 
L 5191 1697 
L 6059 1697 
L 6059 1228 
z
M 3981 475 
L 3653 122 
Q 3106 681 2478 850 
L 2784 1166 
Q 3431 1013 3981 475 
z
" transform="scale(0.015625)"/>
      <path id="ArialUnicodeMS-8cc7" d="M 6028 3397 
L 5784 2950 
Q 4516 3134 3891 3756 
Q 3394 3222 2509 3078 
L 2509 3072 
L 5113 3072 
L 5113 531 
L 4244 531 
L 4231 525 
Q 5103 406 6003 -44 
L 5734 -447 
Q 4766 78 3553 166 
L 3803 531 
L 2656 531 
L 2925 225 
Q 1916 -338 653 -434 
L 403 25 
Q 1672 84 2553 525 
L 2553 531 
L 1363 531 
L 1363 3072 
L 2253 3072 
L 2028 3475 
Q 3522 3600 3781 4409 
L 3097 4409 
Q 2806 4009 2484 3803 
L 2075 4091 
Q 2716 4453 3109 5356 
L 3481 5191 
Q 3444 5003 3378 4878 
L 5734 4878 
Q 5625 4378 5300 3803 
L 4884 4013 
Q 5078 4266 5113 4409 
L 4263 4409 
Q 4178 4219 4128 4128 
Q 4722 3494 6028 3397 
z
M 4628 2363 
L 4628 2606 
L 1850 2606 
L 1850 2363 
L 4628 2363 
z
M 4628 1650 
L 4628 1959 
L 1850 1959 
L 1850 1650 
L 4628 1650 
z
M 4628 972 
L 4628 1247 
L 1850 1247 
L 1850 972 
L 4628 972 
z
M 1953 4494 
L 1663 4128 
Q 1097 4675 569 4781 
L 872 5147 
Q 1441 4966 1953 4494 
z
M 2088 3706 
Q 1491 3091 684 2688 
L 391 3091 
Q 1153 3313 1759 4006 
L 2088 3706 
z
" transform="scale(0.015625)"/>
      <path id="ArialUnicodeMS-6599" d="M 6119 1753 
L 5422 1556 
L 5422 -397 
L 4934 -397 
L 4934 1416 
L 2809 825 
L 2669 1288 
L 4934 1906 
L 4934 5350 
L 5422 5350 
L 5422 2041 
L 5991 2209 
L 6119 1753 
z
M 4581 2344 
L 4197 2028 
Q 3888 2750 3244 3163 
L 3244 2725 
L 2169 2725 
L 2169 2431 
L 2338 2547 
Q 2863 2338 3366 1709 
L 2981 1422 
Q 2591 1975 2169 2131 
L 2169 -434 
L 1684 -434 
L 1684 1728 
Q 1419 1159 628 513 
L 244 844 
Q 703 1163 1150 1752 
Q 1597 2341 1678 2725 
L 544 2725 
L 544 3194 
L 1684 3194 
L 1684 5325 
L 2169 5325 
L 2169 3194 
L 3194 3194 
L 3156 3213 
L 3559 3494 
Q 4153 3153 4581 2344 
z
M 4728 3884 
L 4325 3591 
Q 3997 4306 3334 4634 
L 3713 4941 
Q 4278 4644 4728 3884 
z
M 3225 4763 
Q 3081 3803 2613 3378 
L 2194 3584 
Q 2719 4247 2797 4941 
L 3225 4763 
z
M 1516 3603 
L 1069 3372 
Q 994 4184 550 4703 
L 978 4922 
Q 1419 4278 1516 3603 
z
" transform="scale(0.015625)"/>
      <path id="ArialUnicodeMS-ff0c" d="M 3544 0 
Q 3544 -397 3392 -606 
Q 3241 -816 3019 -903 
L 2866 -666 
Q 3216 -516 3219 0 
L 2903 0 
L 2903 641 
L 3544 641 
L 3544 0 
z
" transform="scale(0.015625)"/>
      <path id="ArialUnicodeMS-5df2" d="M 5978 1203 
Q 5803 406 5581 148 
Q 5359 -109 4934 -109 
L 1716 -109 
Q 1434 -109 1282 66 
Q 1131 241 1131 525 
L 1131 3572 
L 1631 3572 
L 1631 2956 
L 4616 2956 
L 4616 4422 
L 884 4422 
L 884 4891 
L 5119 4891 
L 5119 2106 
L 4616 2106 
L 4616 2484 
L 1631 2484 
L 1631 609 
Q 1631 378 1863 378 
L 4928 378 
Q 5369 334 5453 1403 
L 5978 1203 
z
" transform="scale(0.015625)"/>
      <path id="ArialUnicodeMS-4fdd" d="M 2125 5125 
Q 2084 4753 1897 4197 
L 1709 3653 
L 1709 -469 
L 1222 -469 
L 1222 2803 
Q 831 2284 581 2053 
L 225 2400 
Q 1444 3638 1684 5325 
L 2125 5125 
z
M 6175 366 
L 5797 6 
Q 4650 559 4122 1869 
L 4122 -447 
L 3634 -447 
L 3634 1753 
Q 3206 625 2100 -13 
L 1741 359 
Q 2656 794 3231 1972 
L 1925 1972 
L 1925 2438 
L 3634 2438 
L 3634 2950 
L 2375 2950 
L 2375 5019 
L 5325 5019 
L 5325 2950 
L 4122 2950 
L 4122 2438 
L 5797 2438 
L 5797 1972 
L 4575 1972 
Q 4928 988 6175 366 
z
M 4838 3419 
L 4838 4550 
L 2859 4550 
L 2859 3419 
L 4838 3419 
z
" transform="scale(0.015625)"/>
      <path id="ArialUnicodeMS-7559" d="M 5741 5019 
Q 5666 3128 5442 2879 
Q 5219 2631 4959 2631 
Q 4856 2631 4331 2772 
L 4275 3278 
Q 4738 3097 4909 3097 
Q 5153 3097 5184 3641 
L 5241 4550 
L 4391 4550 
Q 4303 3022 3109 2547 
L 2869 2847 
L 2528 2688 
Q 2475 2938 2431 3003 
L 728 2559 
L 481 3028 
L 891 3116 
L 891 4666 
Q 2113 4803 2809 5234 
L 3138 4897 
Q 2259 4422 1369 4288 
L 1369 3194 
L 2297 3406 
Q 2109 3738 1953 3884 
L 2363 4091 
Q 2756 3669 2963 3003 
Q 3841 3400 3909 4550 
L 3250 4550 
L 3250 5019 
L 5741 5019 
z
M 5269 -403 
L 4781 -403 
L 4781 -25 
L 1625 -25 
L 1625 -434 
L 1141 -434 
L 1141 2463 
L 5269 2463 
L 5269 -403 
z
M 4781 1472 
L 4781 1997 
L 3450 1997 
L 3450 1472 
L 4781 1472 
z
M 2963 1472 
L 2963 1997 
L 1625 1997 
L 1625 1472 
L 2963 1472 
z
M 4781 441 
L 4781 1006 
L 3450 1006 
L 3450 441 
L 4781 441 
z
M 2963 441 
L 2963 1006 
L 1625 1006 
L 1625 441 
L 2963 441 
z
" transform="scale(0.015625)"/>
      <path id="ArialUnicodeMS-4e0a" d="M 5931 63 
L 588 63 
L 588 531 
L 2688 531 
L 2688 5209 
L 3175 5209 
L 3175 3353 
L 5369 3353 
L 5369 2888 
L 3175 2888 
L 3175 531 
L 5931 531 
L 5931 63 
z
" transform="scale(0.015625)"/>
      <path id="ArialUnicodeMS-6b21" d="M 5759 4372 
Q 5653 3369 5281 2706 
L 4813 2881 
Q 5088 3478 5153 3903 
L 3169 3903 
Q 2906 3159 2381 2472 
L 1925 2731 
Q 2813 3800 3003 5259 
L 3494 5184 
Q 3444 4863 3316 4372 
L 5759 4372 
z
M 1941 3847 
L 1528 3541 
Q 1138 4263 409 4697 
L 788 4984 
Q 1597 4534 1941 3847 
z
M 6100 25 
L 5797 -397 
Q 4350 116 3803 1516 
Q 3500 447 1797 -422 
L 1459 -72 
Q 2197 300 2676 751 
Q 3156 1203 3348 1704 
Q 3541 2206 3572 3272 
L 4050 3163 
L 3988 2256 
Q 3988 2041 4461 1228 
Q 4934 416 6100 25 
z
M 1894 2431 
Q 1541 669 716 -231 
L 313 84 
Q 1200 1106 1459 2650 
L 1894 2431 
z
" transform="scale(0.015625)"/>
      <path id="ArialUnicodeMS-53ef" d="M 5925 4434 
L 5113 4434 
L 5113 306 
Q 5113 -88 4969 -248 
Q 4825 -409 4678 -409 
L 3700 -409 
L 3513 122 
Q 3706 100 3872 103 
L 4481 116 
Q 4609 116 4609 269 
L 4609 4434 
L 628 4434 
L 628 4922 
L 5925 4922 
L 5925 4434 
z
M 3756 813 
L 3250 813 
L 3250 1288 
L 1925 1288 
L 1925 813 
L 1441 813 
L 1441 3681 
L 3756 3681 
L 3756 813 
z
M 3250 1772 
L 3250 3194 
L 1925 3194 
L 1925 1772 
L 3250 1772 
z
" transform="scale(0.015625)"/>
      <path id="ArialUnicodeMS-7528" d="M 5472 159 
Q 5472 -66 5340 -219 
Q 5209 -372 5013 -372 
L 4347 -372 
L 4191 128 
L 4722 113 
Q 4966 113 4966 256 
L 4966 1722 
L 3572 1722 
L 3572 13 
L 3084 13 
L 3084 1722 
L 1678 1722 
Q 1584 466 744 -469 
L 331 -159 
Q 794 394 1001 936 
Q 1209 1478 1209 2194 
L 1209 5044 
L 5472 5044 
L 5472 159 
z
M 4966 3641 
L 4966 4575 
L 3572 4575 
L 3572 3641 
L 4966 3641 
z
M 3084 3641 
L 3084 4575 
L 1697 4575 
L 1697 3641 
L 3084 3641 
z
M 4966 2188 
L 4966 3175 
L 3572 3175 
L 3572 2188 
L 4966 2188 
z
M 3084 2188 
L 3084 3175 
L 1697 3175 
L 1697 2188 
L 3084 2188 
z
" transform="scale(0.015625)"/>
      <path id="ArialUnicodeMS-8f38" d="M 6144 3641 
L 5844 3244 
Q 5378 3419 5081 3675 
L 5081 3475 
L 3303 3475 
L 3303 3688 
Q 3084 3478 2625 3169 
L 2516 3244 
L 2516 1538 
L 1806 1538 
L 1806 1178 
L 2706 1178 
L 2706 744 
L 1806 744 
L 1806 -447 
L 1331 -447 
L 1331 744 
L 288 744 
L 288 1178 
L 1331 1178 
L 1338 1544 
L 628 1538 
L 628 3841 
L 1338 3841 
L 1338 4206 
L 397 4206 
L 397 4647 
L 1338 4647 
L 1338 5300 
L 1806 5300 
L 1806 4647 
L 2688 4647 
L 2688 4206 
L 1806 4206 
L 1806 3841 
L 2503 3841 
L 2509 3659 
Q 3575 4400 4006 5434 
L 4409 5253 
L 4378 5153 
Q 5178 3928 6144 3641 
z
M 4788 3916 
Q 4569 4106 4166 4709 
Q 3859 4241 3547 3916 
L 4788 3916 
z
M 2088 2894 
L 2088 3397 
L 1806 3397 
L 1806 2894 
L 2088 2894 
z
M 1338 2894 
L 1331 3397 
L 1063 3397 
L 1063 2894 
L 1338 2894 
z
M 2088 1972 
L 2088 2484 
L 1806 2484 
L 1806 1972 
L 2088 1972 
z
M 1338 1972 
L 1338 2484 
L 1063 2484 
L 1063 1972 
L 1338 1972 
z
M 5613 84 
Q 5613 -409 5141 -409 
L 4819 -409 
L 4659 50 
Q 4775 47 4873 30 
Q 4972 13 5013 13 
Q 5178 13 5178 206 
L 5178 3309 
L 5613 3309 
L 5613 84 
z
M 4366 91 
Q 4366 -288 4031 -288 
L 3616 -288 
L 3450 109 
Q 3622 97 3794 97 
Q 3909 97 3909 206 
L 3909 794 
L 3250 794 
L 3250 -434 
L 2803 -434 
L 2803 3059 
L 4366 3059 
L 4366 91 
z
M 3909 2188 
L 3909 2625 
L 3250 2625 
L 3250 2188 
L 3909 2188 
z
M 3909 1228 
L 3909 1753 
L 3250 1753 
L 3250 1228 
L 3909 1228 
z
M 4978 563 
L 4556 563 
L 4556 2847 
L 4978 2847 
L 4978 563 
z
" transform="scale(0.015625)"/>
      <path id="ArialUnicodeMS-51fa" d="M 5556 -416 
L 5050 -416 
L 5050 97 
L 1428 97 
L 1428 -416 
L 922 -416 
L 922 2113 
L 1428 2113 
L 1428 581 
L 2981 581 
L 2981 2591 
L 1075 2591 
L 1075 4738 
L 1581 4738 
L 1581 3059 
L 2981 3059 
L 2981 5363 
L 3513 5363 
L 3513 3059 
L 4934 3059 
L 4934 4738 
L 5441 4738 
L 5441 2591 
L 3513 2591 
L 3513 581 
L 5050 581 
L 5050 2094 
L 5556 2094 
L 5556 -416 
z
" transform="scale(0.015625)"/>
      <path id="ArialUnicodeMS-6216" d="M 6119 922 
Q 5831 -372 5394 -372 
Q 5150 -372 4840 -44 
Q 4531 284 4325 641 
Q 3850 153 3231 -341 
L 2772 -13 
Q 3619 556 4063 1131 
Q 3656 2034 3531 3725 
L 447 3725 
L 447 4184 
L 3481 4184 
L 3463 5363 
L 3969 5363 
Q 3969 4575 4000 4184 
L 5031 4184 
Q 4716 4597 4103 4788 
L 4447 5141 
Q 4994 5034 5569 4384 
L 5300 4178 
L 5797 4184 
L 5797 3725 
L 4038 3725 
Q 4125 2434 4403 1638 
Q 4891 2409 5063 3322 
L 5544 3163 
Q 5266 1919 4666 1088 
Q 4884 684 5081 475 
Q 5278 266 5347 266 
Q 5481 266 5650 1300 
L 6119 922 
z
M 3213 1338 
L 1038 1338 
L 1038 3175 
L 3213 3175 
L 3213 1338 
z
M 2725 1797 
L 2725 2694 
L 1522 2694 
L 1522 1797 
L 2725 1797 
z
M 3572 697 
L 806 91 
L 506 525 
Q 1769 759 3547 1172 
L 3572 697 
z
" transform="scale(0.015625)"/>
      <path id="ArialUnicodeMS-7b49" d="M 5978 2022 
L 453 2022 
L 453 2491 
L 2963 2491 
L 2963 2956 
L 1241 2956 
L 1241 3425 
L 2963 3425 
L 2963 3891 
L 3406 3891 
L 3406 3903 
L 3175 4072 
Q 3672 4559 3866 5363 
L 4319 5209 
Q 4300 5084 4191 4788 
L 5931 4788 
L 5931 4319 
L 4978 4319 
Q 5216 4075 5331 3878 
L 4872 3647 
Q 4728 4000 4391 4319 
L 3975 4319 
Q 3828 4044 3572 3775 
L 3469 3847 
L 3469 3425 
L 5234 3425 
L 5234 2956 
L 3469 2956 
L 3469 2491 
L 5978 2491 
L 5978 2022 
z
M 3309 4294 
L 2444 4294 
Q 2634 4106 2778 3841 
L 2309 3622 
Q 2231 3881 1856 4294 
L 1522 4294 
Q 1281 3872 788 3488 
L 416 3788 
Q 1263 4450 1447 5350 
L 1919 5197 
Q 1847 4928 1747 4763 
L 3309 4763 
L 3309 4294 
z
M 5838 1106 
L 4684 1106 
L 4684 63 
Q 4684 -69 4553 -219 
Q 4422 -369 4214 -403 
Q 4006 -438 3475 -428 
L 3297 78 
Q 3803 44 3972 44 
Q 4178 44 4178 206 
L 4178 1106 
L 647 1106 
L 647 1575 
L 4178 1575 
L 4178 1991 
L 4684 1991 
L 4684 1575 
L 5838 1575 
L 5838 1106 
z
M 3066 416 
L 2753 6 
Q 2194 503 1241 697 
L 1509 1088 
Q 2469 906 3066 416 
z
" transform="scale(0.015625)"/>
      <path id="ArialUnicodeMS-5f85" d="M 2388 5113 
Q 1866 4088 831 3353 
L 441 3688 
Q 1509 4438 1978 5381 
L 2388 5113 
z
M 5997 2713 
L 2388 2713 
L 2388 3181 
L 3922 3181 
L 3922 3975 
L 2644 3975 
L 2644 4441 
L 3922 4441 
L 3922 5344 
L 4409 5344 
L 4409 4441 
L 5656 4441 
L 5656 3975 
L 4409 3975 
L 4409 3181 
L 5997 3181 
L 5997 2713 
z
M 2463 3559 
Q 2241 3103 1819 2631 
L 1819 -428 
L 1331 -428 
L 1331 2150 
Q 1013 1900 691 1716 
L 238 2016 
Q 1516 2800 2088 3847 
L 2463 3559 
z
M 6059 1606 
L 5106 1606 
L 5106 225 
Q 5106 0 4945 -189 
Q 4784 -378 4569 -378 
L 3969 -378 
L 3681 91 
L 4428 91 
Q 4622 91 4622 313 
L 4622 1606 
L 2272 1606 
L 2272 2075 
L 4622 2075 
L 4622 2619 
L 5106 2619 
L 5106 2075 
L 6059 2075 
L 6059 1606 
z
M 4031 647 
L 3706 263 
Q 3119 856 2478 1031 
L 2791 1409 
Q 3463 1216 4031 647 
z
" transform="scale(0.015625)"/>
      <path id="ArialUnicodeMS-4e0b" d="M 5863 4453 
L 3200 4453 
L 3200 -378 
L 2694 -378 
L 2694 4453 
L 538 4453 
L 538 4941 
L 5863 4941 
L 5863 4453 
z
M 5403 1709 
L 5044 1331 
Q 4494 2084 3384 2700 
L 3681 3028 
Q 4625 2644 5403 1709 
z
" transform="scale(0.015625)"/>
      <path id="ArialUnicodeMS-66f4" d="M 6156 91 
L 5856 -403 
Q 3731 -288 2663 275 
Q 1750 -366 594 -459 
L 306 -31 
Q 1325 128 2169 531 
Q 1684 841 1241 1350 
L 1613 1600 
Q 2159 1119 2547 872 
Q 2813 1200 2900 1678 
L 1159 1678 
L 1159 4050 
L 2994 4050 
L 2994 4506 
L 494 4506 
L 494 4972 
L 5953 4972 
L 5953 4506 
L 3481 4506 
L 3481 4050 
L 5253 4050 
L 5253 1678 
L 3384 1678 
Q 3300 1066 2969 628 
Q 3900 156 6156 91 
z
M 4794 3103 
L 4794 3584 
L 3481 3584 
L 3481 3103 
L 4794 3103 
z
M 2994 3103 
L 2994 3584 
L 1644 3584 
L 1644 3103 
L 2994 3103 
z
M 4794 2144 
L 4794 2638 
L 3469 2638 
L 3438 2144 
L 4794 2144 
z
M 2988 2638 
L 1644 2638 
L 1644 2144 
L 2963 2144 
L 2988 2638 
z
" transform="scale(0.015625)"/>
      <path id="ArialUnicodeMS-65b0" d="M 6041 2938 
L 5300 2938 
L 5300 -397 
L 4813 -397 
L 4813 2938 
L 4109 2938 
L 4109 2216 
Q 4109 700 3334 -359 
L 2906 -72 
Q 3622 853 3622 2456 
L 3622 4709 
Q 4644 4825 5544 5313 
L 5850 4916 
Q 5141 4503 4109 4319 
L 4109 3406 
L 6041 3406 
L 6041 2938 
z
M 3353 4184 
L 525 4184 
L 525 4653 
L 1716 4653 
L 1716 5281 
L 2222 5281 
L 2222 4653 
L 3353 4653 
L 3353 4184 
z
M 3406 2719 
L 2203 2719 
L 2203 2144 
L 3250 2144 
L 3250 1678 
L 2203 1678 
L 2203 1428 
L 2456 1619 
Q 2981 1281 3309 744 
L 2950 416 
Q 2672 931 2203 1281 
L 2203 -397 
L 1716 -397 
L 1716 1253 
Q 1316 625 703 178 
L 347 550 
Q 1003 959 1409 1678 
L 628 1678 
L 628 2144 
L 1716 2144 
L 1716 2719 
L 453 2719 
L 453 3188 
L 1325 3188 
Q 1147 3659 884 3975 
L 1306 4147 
Q 1631 3813 1806 3188 
L 2228 3188 
Q 2422 3559 2584 4147 
L 3047 3969 
Q 2906 3544 2719 3188 
L 3406 3188 
L 3406 2719 
z
" transform="scale(0.015625)"/>
      <path id="ArialUnicodeMS-3002" d="M 1466 1503 
Q 1847 1503 2117 1231 
Q 2388 959 2388 575 
Q 2388 194 2119 -76 
Q 1850 -347 1472 -347 
Q 1091 -347 820 -76 
Q 550 194 550 575 
Q 550 959 819 1231 
Q 1088 1503 1466 1503 
z
M 1469 44 
Q 1691 44 1845 201 
Q 2000 359 2000 581 
Q 2000 803 1844 958 
Q 1688 1113 1469 1113 
Q 1250 1113 1094 958 
Q 938 803 938 581 
Q 938 359 1092 201 
Q 1247 44 1469 44 
z
" transform="scale(0.015625)"/>
     </defs>
     <use xlink:href="#ArialUnicodeMS-76ee"/>
     <use xlink:href="#ArialUnicodeMS-524d" transform="translate(100 0)"/>
     <use xlink:href="#ArialUnicodeMS-7121" transform="translate(200 0)"/>
     <use xlink:href="#ArialUnicodeMS-6cd5" transform="translate(300 0)"/>
     <use xlink:href="#ArialUnicodeMS-53d6" transform="translate(400 0)"/>
     <use xlink:href="#ArialUnicodeMS-5f97" transform="translate(500 0)"/>
     <use xlink:href="#ArialUnicodeMS-8cc7" transform="translate(600 0)"/>
     <use xlink:href="#ArialUnicodeMS-6599" transform="translate(700 0)"/>
     <use xlink:href="#ArialUnicodeMS-ff0c" transform="translate(800 0)"/>
     <use xlink:href="#ArialUnicodeMS-5df2" transform="translate(900 0)"/>
     <use xlink:href="#ArialUnicodeMS-4fdd" transform="translate(1000 0)"/>
     <use xlink:href="#ArialUnicodeMS-7559" transform="translate(1100 0)"/>
     <use xlink:href="#ArialUnicodeMS-4e0a" transform="translate(1200 0)"/>
     <use xlink:href="#ArialUnicodeMS-6b21" transform="translate(1300 0)"/>
     <use xlink:href="#ArialUnicodeMS-53ef" transform="translate(1400 0)"/>
     <use xlink:href="#ArialUnicodeMS-7528" transform="translate(1500 0)"/>
     <use xlink:href="#ArialUnicodeMS-8f38" transform="translate(1600 0)"/>
     <use xlink:href="#ArialUnicodeMS-51fa" transform="translate(1700 0)"/>
     <use xlink:href="#ArialUnicodeMS-6216" transform="translate(1800 0)"/>
     <use xlink:href="#ArialUnicodeMS-7b49" transform="translate(1900 0)"/>
     <use xlink:href="#ArialUnicodeMS-5f85" transform="translate(2000 0)"/>
     <use xlink:href="#ArialUnicodeMS-4e0b" transform="translate(2100 0)"/>
     <use xlink:href="#ArialUnicodeMS-6b21" transform="translate(2200 0)"/>
     <use xlink:href="#ArialUnicodeMS-66f4" transform="translate(2300 0)"/>
     <use xlink:href="#ArialUnicodeMS-65b0" transform="translate(2400 0)"/>
     <use xlink:href="#ArialUnicodeMS-3002" transform="translate(2500 0)"/>
    </g>
   </g>
   <g id="text_3">
    <!-- 錯誤訊息: Message: element click intercepted: Element is not clickable at point (640, 587) -->
    <g style="fill: #666666" transform="translate(214.357266 285.144469) scale(0.11 -0.11)">
     <defs>
      <path id="ArialUnicodeMS-932f" d="M 2925 4006 
L 2541 3706 
Q 2088 4322 1672 4475 
Q 1469 4084 1125 3694 
L 2497 3694 
L 2497 3244 
L 1931 3244 
L 1931 2650 
L 2694 2650 
L 2694 2209 
L 1931 2209 
L 1931 922 
L 1947 922 
Q 2263 1519 2291 2059 
L 2706 1913 
Q 2600 1219 2322 691 
L 1931 863 
L 1931 538 
L 2828 738 
L 2828 300 
L 678 -184 
L 384 231 
Q 900 288 1453 422 
L 1453 2203 
L 622 2203 
L 622 2650 
L 1453 2650 
L 1453 3244 
L 813 3244 
L 813 3359 
L 628 3194 
L 250 3519 
Q 1288 4394 1478 5350 
L 1906 5153 
Q 1891 5034 1844 4903 
Q 2481 4613 2925 4006 
z
M 6113 2888 
L 2572 2888 
L 2572 3322 
L 3419 3322 
L 3419 4128 
L 2869 4128 
L 2869 4588 
L 3419 4588 
L 3419 5331 
L 3903 5331 
L 3903 4588 
L 4744 4588 
L 4744 5325 
L 5222 5325 
L 5228 4588 
L 5791 4588 
L 5784 4128 
L 5222 4128 
L 5222 3322 
L 6106 3322 
L 6113 2888 
z
M 4744 3322 
L 4744 4128 
L 3903 4128 
L 3903 3322 
L 4744 3322 
z
M 5556 -409 
L 5069 -409 
L 5069 0 
L 3603 0 
L 3603 -409 
L 3116 -409 
L 3116 2400 
L 5556 2400 
L 5556 -409 
z
M 5069 1459 
L 5069 1972 
L 3603 1972 
L 3603 1459 
L 5069 1459 
z
M 5069 434 
L 5069 1031 
L 3603 1031 
L 3603 434 
L 5069 434 
z
M 1331 794 
L 884 594 
Q 853 1366 459 1875 
L 884 2028 
Q 1225 1431 1331 794 
z
" transform="scale(0.015625)"/>
      <path id="ArialUnicodeMS-8aa4" d="M 2516 4750 
L 641 4750 
L 641 5216 
L 2516 5216 
L 2516 4750 
z
M 5631 3366 
L 3750 3366 
L 3750 5172 
L 5631 5172 
L 5631 3366 
z
M 5153 3822 
L 5153 4716 
L 4225 4716 
L 4225 3822 
L 5153 3822 
z
M 6041 1253 
L 2631 1253 
L 2631 1728 
L 5113 1728 
L 5113 2419 
L 3419 2419 
L 3419 2216 
L 2931 2216 
L 2931 4672 
L 3419 4672 
L 3419 2888 
L 5588 2888 
L 5588 1728 
L 6041 1728 
L 6041 1253 
z
M 2713 3891 
L 378 3891 
L 378 4359 
L 2713 4359 
L 2713 3891 
z
M 2522 3028 
L 581 3028 
L 581 3494 
L 2522 3494 
L 2522 3028 
z
M 2503 2188 
L 581 2188 
L 581 2656 
L 2503 2656 
L 2503 2188 
z
M 4172 794 
Q 3691 -6 2731 -391 
L 2444 -31 
L 2444 -372 
L 1972 -372 
L 1972 0 
L 1125 0 
L 1125 -391 
L 653 -391 
L 653 1703 
L 2444 1703 
L 2444 31 
Q 3300 297 3763 1056 
L 3934 947 
Q 4159 800 4172 794 
z
M 1972 469 
L 1972 1234 
L 1125 1234 
L 1125 469 
L 1972 469 
z
M 6028 -84 
Q 5991 -100 5837 -247 
Q 5684 -394 5678 -397 
Q 5172 394 4453 794 
L 4838 1081 
Q 5644 569 6028 -84 
z
" transform="scale(0.015625)"/>
      <path id="ArialUnicodeMS-8a0a" d="M 2541 4763 
L 628 4763 
L 628 5228 
L 2541 5228 
L 2541 4763 
z
M 6138 1063 
L 6081 428 
Q 6053 88 5903 -148 
Q 5753 -384 5509 -384 
Q 5184 -384 5026 94 
Q 4869 572 4869 2669 
Q 4869 3459 4891 4525 
L 3922 4525 
L 3922 2778 
L 4691 3091 
L 4691 2559 
L 3916 2241 
Q 3916 756 2906 -397 
L 2503 -72 
Q 3406 919 3419 2100 
L 2841 1869 
L 2584 2303 
L 3438 2619 
L 3438 4525 
L 2747 4525 
L 2747 4991 
L 5388 4991 
Q 5350 3388 5350 2416 
Q 5350 250 5556 250 
Q 5631 250 5678 1253 
L 6138 1063 
z
M 2747 3928 
L 384 3928 
L 384 4397 
L 2747 4397 
L 2747 3928 
z
M 2541 3066 
L 628 3066 
L 628 3541 
L 2541 3541 
L 2541 3066 
z
M 2541 2194 
L 628 2194 
L 628 2663 
L 2541 2663 
L 2541 2194 
z
M 2478 -391 
L 1991 -391 
L 1991 50 
L 1106 50 
L 1106 -391 
L 628 -391 
L 628 1741 
L 2478 1741 
L 2478 -391 
z
M 1991 513 
L 1991 1281 
L 1106 1281 
L 1106 513 
L 1991 513 
z
" transform="scale(0.015625)"/>
      <path id="ArialUnicodeMS-606f" d="M 4959 1759 
L 1338 1759 
L 1338 4756 
L 2753 4756 
Q 3038 5041 3219 5394 
L 3653 5159 
Q 3509 4919 3347 4756 
L 4959 4756 
L 4959 1759 
z
M 4475 3938 
L 4475 4288 
L 1825 4288 
L 1825 3938 
L 4475 3938 
z
M 4475 3084 
L 4475 3469 
L 1825 3469 
L 1825 3084 
L 4475 3084 
z
M 4475 2228 
L 4475 2644 
L 1825 2644 
L 1825 2228 
L 4475 2228 
z
M 3916 928 
L 3591 594 
Q 3144 1119 2497 1350 
L 2809 1697 
Q 3447 1484 3916 928 
z
M 4703 844 
Q 4519 194 4395 17 
Q 4272 -159 4025 -159 
L 2456 -159 
Q 1925 -159 1925 269 
L 1925 1409 
L 2413 1409 
L 2413 500 
Q 2413 306 2566 306 
L 3928 306 
Q 4038 306 4097 475 
L 4250 903 
L 4703 844 
z
M 6075 353 
L 5663 72 
Q 5256 788 4506 1081 
L 4884 1375 
Q 5578 1100 6075 353 
z
M 1766 1088 
Q 1378 425 616 0 
L 275 359 
Q 1034 734 1403 1350 
L 1766 1088 
z
" transform="scale(0.015625)"/>
      <path id="ArialUnicodeMS-3a" d="M 1216 2675 
L 575 2675 
L 575 3316 
L 1216 3316 
L 1216 2675 
z
M 1216 0 
L 575 0 
L 575 641 
L 1216 641 
L 1216 0 
z
" transform="scale(0.015625)"/>
      <path id="ArialUnicodeMS-20" transform="scale(0.015625)"/>
      <path id="ArialUnicodeMS-4d" d="M 4844 0 
L 4269 0 
L 4269 3834 
L 4256 3834 
L 2938 0 
L 2394 0 
L 1081 3897 
L 1063 3897 
L 1063 0 
L 488 0 
L 488 4581 
L 1394 4581 
L 2478 1338 
Q 2659 797 2688 659 
L 2700 659 
Q 2784 925 2944 1394 
L 4038 4581 
L 4844 4581 
L 4844 0 
z
" transform="scale(0.015625)"/>
      <path id="ArialUnicodeMS-65" d="M 3309 1516 
L 825 1516 
Q 859 966 1139 675 
Q 1419 384 1838 384 
Q 2159 384 2378 554 
Q 2597 725 2713 1069 
L 3291 997 
Q 3150 478 2775 200 
Q 2400 -78 1838 -78 
Q 1091 -78 670 380 
Q 250 838 250 1631 
Q 250 2416 658 2903 
Q 1066 3391 1806 3391 
Q 2169 3391 2505 3231 
Q 2841 3072 3075 2689 
Q 3309 2306 3309 1516 
z
M 2731 1978 
Q 2697 2484 2417 2707 
Q 2138 2931 1806 2931 
Q 1409 2931 1153 2665 
Q 897 2400 856 1978 
L 2731 1978 
z
" transform="scale(0.015625)"/>
      <path id="ArialUnicodeMS-73" d="M 2278 2388 
Q 2241 2659 2058 2795 
Q 1875 2931 1550 2931 
Q 1228 2931 1029 2822 
Q 831 2713 831 2503 
Q 831 2306 989 2222 
Q 1147 2138 1613 2016 
Q 2138 1881 2398 1778 
Q 2659 1675 2804 1489 
Q 2950 1303 2950 972 
Q 2950 528 2587 225 
Q 2225 -78 1619 -78 
Q 988 -78 633 189 
Q 278 456 197 991 
L 756 1075 
Q 800 728 1014 556 
Q 1228 384 1613 384 
Q 1981 384 2178 539 
Q 2375 694 2375 916 
Q 2375 1066 2284 1156 
Q 2194 1247 2058 1292 
Q 1922 1338 1447 1453 
Q 741 1622 514 1862 
Q 288 2103 288 2438 
Q 288 2853 619 3122 
Q 950 3391 1509 3391 
Q 2103 3391 2433 3158 
Q 2763 2925 2828 2463 
L 2278 2388 
z
" transform="scale(0.015625)"/>
      <path id="ArialUnicodeMS-61" d="M 3303 0 
L 2713 0 
Q 2631 156 2597 409 
Q 2031 -78 1375 -78 
Q 850 -78 547 184 
Q 244 447 244 878 
Q 244 1291 536 1558 
Q 828 1825 1550 1913 
L 2075 1991 
Q 2369 2038 2559 2106 
Q 2559 2359 2543 2464 
Q 2528 2569 2451 2681 
Q 2375 2794 2206 2862 
Q 2038 2931 1753 2931 
Q 1391 2931 1180 2797 
Q 969 2663 891 2297 
L 341 2369 
Q 431 2878 806 3134 
Q 1181 3391 1838 3391 
Q 2434 3391 2714 3214 
Q 2994 3038 3058 2788 
Q 3122 2538 3122 2144 
L 3122 1388 
Q 3122 697 3148 461 
Q 3175 225 3303 0 
z
M 2559 1459 
L 2559 1663 
Q 2119 1516 1481 1430 
Q 844 1344 844 891 
Q 844 663 1016 514 
Q 1188 366 1509 366 
Q 1925 366 2242 614 
Q 2559 863 2559 1459 
z
" transform="scale(0.015625)"/>
      <path id="ArialUnicodeMS-67" d="M 3144 447 
Q 3144 -259 3003 -607 
Q 2863 -956 2503 -1150 
Q 2144 -1344 1644 -1344 
Q 1081 -1344 706 -1094 
Q 331 -844 331 -275 
L 878 -359 
Q 909 -622 1098 -753 
Q 1288 -884 1638 -884 
Q 2075 -884 2278 -706 
Q 2481 -528 2526 -272 
Q 2572 -16 2572 434 
Q 2206 0 1650 0 
Q 1003 0 611 478 
Q 219 956 219 1684 
Q 219 2416 600 2903 
Q 981 3391 1656 3391 
Q 2244 3391 2613 2919 
L 2625 2919 
L 2625 3316 
L 3144 3316 
L 3144 447 
z
M 1703 459 
Q 2063 459 2341 745 
Q 2619 1031 2619 1703 
Q 2619 2297 2353 2614 
Q 2088 2931 1697 2931 
Q 1297 2931 1045 2606 
Q 794 2281 794 1716 
Q 794 1063 1058 761 
Q 1322 459 1703 459 
z
" transform="scale(0.015625)"/>
      <path id="ArialUnicodeMS-6c" d="M 991 0 
L 428 0 
L 428 4581 
L 991 4581 
L 991 0 
z
" transform="scale(0.015625)"/>
      <path id="ArialUnicodeMS-6d" d="M 4922 0 
L 4359 0 
L 4359 2094 
Q 4359 2325 4328 2489 
Q 4297 2653 4167 2779 
Q 4038 2906 3763 2906 
Q 3431 2906 3190 2675 
Q 2950 2444 2950 1925 
L 2950 0 
L 2388 0 
L 2388 2156 
Q 2388 2588 2236 2747 
Q 2084 2906 1806 2906 
Q 1444 2906 1211 2656 
Q 978 2406 978 1722 
L 978 0 
L 416 0 
L 416 3316 
L 922 3316 
L 922 2853 
L 934 2853 
Q 1272 3391 1925 3391 
Q 2291 3391 2527 3245 
Q 2763 3100 2869 2809 
Q 3238 3391 3891 3391 
Q 4406 3391 4664 3112 
Q 4922 2834 4922 2278 
L 4922 0 
z
" transform="scale(0.015625)"/>
      <path id="ArialUnicodeMS-6e" d="M 3138 0 
L 2572 0 
L 2572 2016 
Q 2572 2525 2389 2715 
Q 2206 2906 1881 2906 
Q 1631 2906 1407 2784 
Q 1184 2663 1090 2441 
Q 997 2219 997 1813 
L 997 0 
L 434 0 
L 434 3316 
L 941 3316 
L 941 2847 
L 953 2847 
Q 1131 3119 1392 3255 
Q 1653 3391 1997 3391 
Q 2259 3391 2515 3297 
Q 2772 3203 2917 3015 
Q 3063 2828 3100 2615 
Q 3138 2403 3138 2041 
L 3138 0 
z
" transform="scale(0.015625)"/>
      <path id="ArialUnicodeMS-74" d="M 1722 6 
Q 1472 -44 1300 -44 
Q 931 -44 762 86 
Q 594 216 556 416 
Q 519 616 519 972 
L 519 2881 
L 109 2881 
L 109 3316 
L 519 3316 
L 519 4141 
L 1081 4481 
L 1081 3316 
L 1644 3316 
L 1644 2881 
L 1081 2881 
L 1081 941 
Q 1081 691 1132 586 
Q 1184 481 1394 481 
Q 1516 481 1644 506 
L 1722 6 
z
" transform="scale(0.015625)"/>
      <path id="ArialUnicodeMS-63" d="M 3144 1147 
Q 3034 513 2643 217 
Q 2253 -78 1759 -78 
Q 1038 -78 644 395 
Q 250 869 250 1650 
Q 250 2297 476 2686 
Q 703 3075 1043 3233 
Q 1384 3391 1759 3391 
Q 2272 3391 2636 3125 
Q 3000 2859 3084 2344 
L 2541 2259 
Q 2456 2594 2267 2762 
Q 2078 2931 1784 2931 
Q 1313 2931 1069 2597 
Q 825 2263 825 1663 
Q 825 1050 1064 717 
Q 1303 384 1753 384 
Q 2116 384 2323 592 
Q 2531 800 2584 1216 
L 3144 1147 
z
" transform="scale(0.015625)"/>
      <path id="ArialUnicodeMS-69" d="M 991 0 
L 428 0 
L 428 3316 
L 991 3316 
L 991 0 
z
M 991 3944 
L 428 3944 
L 428 4581 
L 991 4581 
L 991 3944 
z
" transform="scale(0.015625)"/>
      <path id="ArialUnicodeMS-6b" d="M 3175 0 
L 2484 0 
L 1381 1697 
L 984 1319 
L 984 0 
L 422 0 
L 422 4581 
L 984 4581 
L 984 1972 
L 2316 3316 
L 3047 3316 
L 1778 2088 
L 3175 0 
z
" transform="scale(0.015625)"/>
      <path id="ArialUnicodeMS-72" d="M 2216 3213 
L 2022 2694 
Q 1813 2816 1613 2816 
Q 1297 2816 1134 2533 
Q 972 2250 972 1741 
L 972 0 
L 409 0 
L 409 3316 
L 922 3316 
L 922 2816 
L 934 2816 
Q 1203 3391 1638 3391 
Q 1925 3391 2216 3213 
z
" transform="scale(0.015625)"/>
      <path id="ArialUnicodeMS-70" d="M 959 2888 
Q 1275 3391 1906 3391 
Q 2559 3391 2937 2917 
Q 3316 2444 3316 1684 
Q 3316 875 2897 398 
Q 2478 -78 1869 -78 
Q 1334 -78 1013 347 
L 997 347 
L 997 -1275 
L 434 -1275 
L 434 3316 
L 947 3316 
L 947 2888 
L 959 2888 
z
M 1831 384 
Q 2225 384 2483 711 
Q 2741 1038 2741 1684 
Q 2741 2294 2492 2622 
Q 2244 2950 1856 2950 
Q 1456 2950 1198 2584 
Q 941 2219 941 1638 
Q 941 1022 1187 703 
Q 1434 384 1831 384 
z
" transform="scale(0.015625)"/>
      <path id="ArialUnicodeMS-64" d="M 3109 0 
L 2584 0 
L 2584 422 
L 2572 422 
Q 2269 -78 1656 -78 
Q 1047 -78 639 405 
Q 231 888 231 1656 
Q 231 2459 615 2925 
Q 1000 3391 1631 3391 
Q 2225 3391 2534 2938 
L 2547 2938 
L 2547 4581 
L 3109 4581 
L 3109 0 
z
M 1716 384 
Q 2084 384 2340 687 
Q 2597 991 2597 1606 
Q 2597 2213 2362 2572 
Q 2128 2931 1691 2931 
Q 1253 2931 1029 2579 
Q 806 2228 806 1656 
Q 806 1244 926 958 
Q 1047 672 1262 528 
Q 1478 384 1716 384 
z
" transform="scale(0.015625)"/>
      <path id="ArialUnicodeMS-45" d="M 3928 0 
L 506 0 
L 506 4581 
L 3822 4581 
L 3822 4038 
L 1113 4038 
L 1113 2638 
L 3647 2638 
L 3647 2094 
L 1113 2094 
L 1113 544 
L 3928 544 
L 3928 0 
z
" transform="scale(0.015625)"/>
      <path id="ArialUnicodeMS-6f" d="M 1778 3391 
Q 2450 3391 2892 2953 
Q 3334 2516 3334 1709 
Q 3334 731 2856 326 
Q 2378 -78 1778 -78 
Q 1150 -78 687 337 
Q 225 753 225 1656 
Q 225 2531 672 2961 
Q 1119 3391 1778 3391 
z
M 1778 384 
Q 2259 384 2509 740 
Q 2759 1097 2759 1678 
Q 2759 2300 2476 2615 
Q 2194 2931 1778 2931 
Q 1350 2931 1075 2611 
Q 800 2291 800 1656 
Q 800 1025 1079 704 
Q 1359 384 1778 384 
z
" transform="scale(0.015625)"/>
      <path id="ArialUnicodeMS-62" d="M 1006 2944 
Q 1319 3391 1900 3391 
Q 2541 3391 2925 2925 
Q 3309 2459 3309 1709 
Q 3309 844 2879 383 
Q 2450 -78 1875 -78 
Q 1291 -78 966 416 
L 953 416 
L 953 0 
L 428 0 
L 428 4581 
L 991 4581 
L 991 2944 
L 1006 2944 
z
M 1831 384 
Q 2222 384 2476 720 
Q 2731 1056 2731 1663 
Q 2731 2247 2497 2589 
Q 2263 2931 1850 2931 
Q 1444 2931 1195 2578 
Q 947 2225 947 1684 
Q 947 1156 1050 932 
Q 1153 709 1361 546 
Q 1569 384 1831 384 
z
" transform="scale(0.015625)"/>
      <path id="ArialUnicodeMS-28" d="M 1900 -1344 
L 1497 -1344 
Q 978 -681 681 103 
Q 384 888 384 1656 
Q 384 2528 700 3275 
Q 1016 4022 1497 4659 
L 1900 4659 
Q 1344 3747 1155 3059 
Q 966 2372 966 1663 
Q 966 153 1900 -1344 
z
" transform="scale(0.015625)"/>
      <path id="ArialUnicodeMS-36" d="M 838 2363 
Q 1225 2969 1941 2969 
Q 2503 2969 2897 2553 
Q 3291 2138 3291 1491 
Q 3291 838 2898 380 
Q 2506 -78 1856 -78 
Q 1197 -78 733 409 
Q 269 897 269 2144 
Q 269 3369 689 3986 
Q 1109 4603 1906 4603 
Q 2422 4603 2778 4315 
Q 3134 4028 3213 3463 
L 2650 3413 
Q 2497 4141 1875 4141 
Q 1444 4141 1134 3712 
Q 825 3284 825 2363 
L 838 2363 
z
M 1844 384 
Q 2231 384 2472 696 
Q 2713 1009 2713 1453 
Q 2713 1897 2472 2187 
Q 2231 2478 1825 2478 
Q 1453 2478 1184 2204 
Q 916 1931 916 1484 
Q 916 1028 1180 706 
Q 1444 384 1844 384 
z
" transform="scale(0.015625)"/>
      <path id="ArialUnicodeMS-34" d="M 3263 1094 
L 2644 1094 
L 2644 0 
L 2081 0 
L 2081 1094 
L 97 1094 
L 97 1613 
L 2181 4581 
L 2644 4581 
L 2644 1613 
L 3263 1613 
L 3263 1094 
z
M 2081 1613 
L 2081 3681 
L 2069 3681 
L 647 1613 
L 2081 1613 
z
" transform="scale(0.015625)"/>
      <path id="ArialUnicodeMS-30" d="M 1778 4603 
Q 3272 4603 3272 2259 
Q 3272 1075 2886 498 
Q 2500 -78 1778 -78 
Q 288 -78 288 2259 
Q 288 3444 673 4023 
Q 1059 4603 1778 4603 
z
M 1778 384 
Q 2231 384 2462 823 
Q 2694 1263 2694 2259 
Q 2694 2953 2592 3351 
Q 2491 3750 2286 3945 
Q 2081 4141 1772 4141 
Q 1319 4141 1091 3694 
Q 863 3247 863 2259 
Q 863 1575 966 1175 
Q 1069 775 1272 579 
Q 1475 384 1778 384 
z
" transform="scale(0.015625)"/>
      <path id="ArialUnicodeMS-2c" d="M 1216 0 
Q 1216 -397 1064 -606 
Q 913 -816 691 -903 
L 538 -666 
Q 888 -516 891 0 
L 575 0 
L 575 641 
L 1216 641 
L 1216 0 
z
" transform="scale(0.015625)"/>
      <path id="ArialUnicodeMS-35" d="M 1013 2753 
Q 1431 3041 1881 3041 
Q 2453 3041 2878 2636 
Q 3303 2231 3303 1556 
Q 3303 875 2872 398 
Q 2441 -78 1741 -78 
Q 1169 -78 750 245 
Q 331 569 269 1203 
L 856 1247 
Q 928 813 1162 598 
Q 1397 384 1741 384 
Q 2169 384 2434 707 
Q 2700 1031 2700 1503 
Q 2700 1984 2428 2262 
Q 2156 2541 1728 2541 
Q 1188 2541 897 2100 
L 366 2163 
L 813 4519 
L 3084 4519 
L 3084 3975 
L 1259 3975 
L 1013 2753 
z
" transform="scale(0.015625)"/>
      <path id="ArialUnicodeMS-38" d="M 2425 2478 
Q 3284 2203 3284 1306 
Q 3284 716 2862 319 
Q 2441 -78 1778 -78 
Q 1109 -78 689 322 
Q 269 722 269 1325 
Q 269 1759 505 2084 
Q 741 2409 1141 2478 
L 1141 2491 
Q 453 2703 453 3419 
Q 453 3925 815 4264 
Q 1178 4603 1766 4603 
Q 2363 4603 2730 4253 
Q 3097 3903 3097 3406 
Q 3097 2731 2425 2491 
L 2425 2478 
z
M 1778 2700 
Q 2094 2700 2308 2901 
Q 2522 3103 2522 3406 
Q 2522 3716 2305 3928 
Q 2088 4141 1772 4141 
Q 1450 4141 1240 3931 
Q 1031 3722 1031 3438 
Q 1031 3097 1247 2898 
Q 1463 2700 1778 2700 
z
M 1778 384 
Q 2175 384 2440 640 
Q 2706 897 2706 1306 
Q 2706 1716 2432 1978 
Q 2159 2241 1766 2241 
Q 1356 2241 1100 1970 
Q 844 1700 844 1319 
Q 844 922 1108 653 
Q 1372 384 1778 384 
z
" transform="scale(0.015625)"/>
      <path id="ArialUnicodeMS-37" d="M 3272 4084 
Q 2597 3344 2103 2253 
Q 1609 1163 1522 0 
L 947 0 
Q 969 934 1408 2051 
Q 1847 3169 2547 3975 
L 306 3975 
L 306 4519 
L 3272 4519 
L 3272 4084 
z
" transform="scale(0.015625)"/>
      <path id="ArialUnicodeMS-29" d="M 634 4659 
Q 1153 3997 1450 3212 
Q 1747 2428 1747 1656 
Q 1747 788 1431 41 
Q 1116 -706 634 -1344 
L 231 -1344 
Q 788 -431 977 255 
Q 1166 941 1166 1650 
Q 1166 3163 231 4659 
L 634 4659 
z
" transform="scale(0.015625)"/>
     </defs>
     <use xlink:href="#ArialUnicodeMS-932f"/>
     <use xlink:href="#ArialUnicodeMS-8aa4" transform="translate(100 0)"/>
     <use xlink:href="#ArialUnicodeMS-8a0a" transform="translate(200 0)"/>
     <use xlink:href="#ArialUnicodeMS-606f" transform="translate(300 0)"/>
     <use xlink:href="#ArialUnicodeMS-3a" transform="translate(400 0)"/>
     <use xlink:href="#ArialUnicodeMS-20" transform="translate(427.783203 0)"/>
     <use xlink:href="#ArialUnicodeMS-4d" transform="translate(455.566406 0)"/>
     <use xlink:href="#ArialUnicodeMS-65" transform="translate(538.867188 0)"/>
     <use xlink:href="#ArialUnicodeMS-73" transform="translate(594.482422 0)"/>
     <use xlink:href="#ArialUnicodeMS-73" transform="translate(644.482422 0)"/>
     <use xlink:href="#ArialUnicodeMS-61" transform="translate(694.482422 0)"/>
     <use xlink:href="#ArialUnicodeMS-67" transform="translate(750.097656 0)"/>
     <use xlink:href="#ArialUnicodeMS-65" transform="translate(805.712891 0)"/>
     <use xlink:href="#ArialUnicodeMS-3a" transform="translate(861.328125 0)"/>
     <use xlink:href="#ArialUnicodeMS-20" transform="translate(889.111328 0)"/>
     <use xlink:href="#ArialUnicodeMS-65" transform="translate(916.894531 0)"/>
     <use xlink:href="#ArialUnicodeMS-6c" transform="translate(972.509766 0)"/>
     <use xlink:href="#ArialUnicodeMS-65" transform="translate(994.726562 0)"/>
     <use xlink:href="#ArialUnicodeMS-6d" transform="translate(1050.341797 0)"/>
     <use xlink:href="#ArialUnicodeMS-65" transform="translate(1133.642578 0)"/>
     <use xlink:href="#ArialUnicodeMS-6e" transform="translate(1189.257812 0)"/>
     <use xlink:href="#ArialUnicodeMS-74" transform="translate(1244.873047 0)"/>
     <use xlink:href="#ArialUnicodeMS-20" transform="translate(1272.65625 0)"/>
     <use xlink:href="#ArialUnicodeMS-63" transform="translate(1300.439453 0)"/>
     <use xlink:href="#ArialUnicodeMS-6c" transform="translate(1350.439453 0)"/>
     <use xlink:href="#ArialUnicodeMS-69" transform="translate(1372.65625 0)"/>
     <use xlink:href="#ArialUnicodeMS-63" transform="translate(1394.873047 0)"/>
     <use xlink:href="#ArialUnicodeMS-6b" transform="translate(1444.873047 0)"/>
     <use xlink:href="#ArialUnicodeMS-20" transform="translate(1494.873047 0)"/>
     <use xlink:href="#ArialUnicodeMS-69" transform="translate(1522.65625 0)"/>
     <use xlink:href="#ArialUnicodeMS-6e" transform="translate(1544.873047 0)"/>
     <use xlink:href="#ArialUnicodeMS-74" transform="translate(1600.488281 0)"/>
     <use xlink:href="#ArialUnicodeMS-65" transform="translate(1628.271484 0)"/>
     <use xlink:href="#ArialUnicodeMS-72" transform="translate(1683.886719 0)"/>
     <use xlink:href="#ArialUnicodeMS-63" transform="translate(1717.1875 0)"/>
     <use xlink:href="#ArialUnicodeMS-65" transform="translate(1767.1875 0)"/>
     <use xlink:href="#ArialUnicodeMS-70" transform="translate(1822.802734 0)"/>
     <use xlink:href="#ArialUnicodeMS-74" transform="translate(1878.417969 0)"/>
     <use xlink:href="#ArialUnicodeMS-65" transform="translate(1906.201172 0)"/>
     <use xlink:href="#ArialUnicodeMS-64" transform="translate(1961.816406 0)"/>
     <use xlink:href="#ArialUnicodeMS-3a" transform="translate(2017.431641 0)"/>
     <use xlink:href="#ArialUnicodeMS-20" transform="translate(2045.214844 0)"/>
     <use xlink:href="#ArialUnicodeMS-45" transform="translate(2072.998047 0)"/>
     <use xlink:href="#ArialUnicodeMS-6c" transform="translate(2139.697266 0)"/>
     <use xlink:href="#ArialUnicodeMS-65" transform="translate(2161.914062 0)"/>
     <use xlink:href="#ArialUnicodeMS-6d" transform="translate(2217.529297 0)"/>
     <use xlink:href="#ArialUnicodeMS-65" transform="translate(2300.830078 0)"/>
     <use xlink:href="#ArialUnicodeMS-6e" transform="translate(2356.445312 0)"/>
     <use xlink:href="#ArialUnicodeMS-74" transform="translate(2412.060547 0)"/>
     <use xlink:href="#ArialUnicodeMS-20" transform="translate(2439.84375 0)"/>
     <use xlink:href="#ArialUnicodeMS-69" transform="translate(2467.626953 0)"/>
     <use xlink:href="#ArialUnicodeMS-73" transform="translate(2489.84375 0)"/>
     <use xlink:href="#ArialUnicodeMS-20" transform="translate(2539.84375 0)"/>
     <use xlink:href="#ArialUnicodeMS-6e" transform="translate(2567.626953 0)"/>
     <use xlink:href="#ArialUnicodeMS-6f" transform="translate(2623.242188 0)"/>
     <use xlink:href="#ArialUnicodeMS-74" transform="translate(2678.857422 0)"/>
     <use xlink:href="#ArialUnicodeMS-20" transform="translate(2706.640625 0)"/>
     <use xlink:href="#ArialUnicodeMS-63" transform="translate(2734.423828 0)"/>
     <use xlink:href="#ArialUnicodeMS-6c" transform="translate(2784.423828 0)"/>
     <use xlink:href="#ArialUnicodeMS-69" transform="translate(2806.640625 0)"/>
     <use xlink:href="#ArialUnicodeMS-63" transform="translate(2828.857422 0)"/>
     <use xlink:href="#ArialUnicodeMS-6b" transform="translate(2878.857422 0)"/>
     <use xlink:href="#ArialUnicodeMS-61" transform="translate(2928.857422 0)"/>
     <use xlink:href="#ArialUnicodeMS-62" transform="translate(2984.472656 0)"/>
     <use xlink:href="#ArialUnicodeMS-6c" transform="translate(3040.087891 0)"/>
     <use xlink:href="#ArialUnicodeMS-65" transform="translate(3062.304688 0)"/>
     <use xlink:href="#ArialUnicodeMS-20" transform="translate(3117.919922 0)"/>
     <use xlink:href="#ArialUnicodeMS-61" transform="translate(3145.703125 0)"/>
     <use xlink:href="#ArialUnicodeMS-74" transform="translate(3201.318359 0)"/>
     <use xlink:href="#ArialUnicodeMS-20" transform="translate(3229.101562 0)"/>
     <use xlink:href="#ArialUnicodeMS-70" transform="translate(3256.884766 0)"/>
     <use xlink:href="#ArialUnicodeMS-6f" transform="translate(3312.5 0)"/>
     <use xlink:href="#ArialUnicodeMS-69" transform="translate(3368.115234 0)"/>
     <use xlink:href="#ArialUnicodeMS-6e" transform="translate(3390.332031 0)"/>
     <use xlink:href="#ArialUnicodeMS-74" transform="translate(3445.947266 0)"/>
     <use xlink:href="#ArialUnicodeMS-20" transform="translate(3473.730469 0)"/>
     <use xlink:href="#ArialUnicodeMS-28" transform="translate(3501.513672 0)"/>
     <use xlink:href="#ArialUnicodeMS-36" transform="translate(3534.814453 0)"/>
     <use xlink:href="#ArialUnicodeMS-34" transform="translate(3590.429688 0)"/>
     <use xlink:href="#ArialUnicodeMS-30" transform="translate(3646.044922 0)"/>
     <use xlink:href="#ArialUnicodeMS-2c" transform="translate(3701.660156 0)"/>
     <use xlink:href="#ArialUnicodeMS-20" transform="translate(3729.443359 0)"/>
     <use xlink:href="#ArialUnicodeMS-35" transform="translate(3757.226562 0)"/>
     <use xlink:href="#ArialUnicodeMS-38" transform="translate(3812.841797 0)"/>
     <use xlink:href="#ArialUnicodeMS-37" transform="translate(3868.457031 0)"/>
     <use xlink:href="#ArialUnicodeMS-29" transform="translate(3924.072266 0)"/>
    </g>
   </g>
  </g>
 </g>
</svg>
