<?xml version="1.0" encoding="utf-8" standalone="no"?>
<!DOCTYPE svg PUBLIC "-//W3C//DTD SVG 1.1//EN"
  "http://www.w3.org/Graphics/SVG/1.1/DTD/svg11.dtd">
<svg xmlns:xlink="http://www.w3.org/1999/xlink" width="864pt" height="432pt" viewBox="0 0 864 432" xmlns="http://www.w3.org/2000/svg" version="1.1">
 <metadata>
  <rdf:RDF xmlns:dc="http://purl.org/dc/elements/1.1/" xmlns:cc="http://creativecommons.org/ns#" xmlns:rdf="http://www.w3.org/1999/02/22-rdf-syntax-ns#">
   <cc:Work>
    <dc:type rdf:resource="http://purl.org/dc/dcmitype/StillImage"/>
    <dc:date>2026-02-16T20:14:36.398464</dc:date>
    <dc:format>image/svg+xml</dc:format>
    <dc:creator>
     <cc:Agent>
      <dc:title>Matplotlib v3.10.8, https://matplotlib.org/</dc:title>
     </cc:Agent>
    </dc:creator>
   </cc:Work>
  </rdf:RDF>
 </metadata>
 <defs>
  <style type="text/css">*{stroke-linejoin: round; stroke-linecap: butt}</style>
 </defs>
 <g id="figure_1">
  <g id="patch_1">
   <path d="M 0 432 
L 864 432 
L 864 0 
L 0 0 
z
" style="fill: #ffffff"/>
  </g>
  <g id="axes_1">
   <g id="patch_2">
    <path d="M 71.48 360.523692 
L 853.2 360.523692 
L 853.2 43.36 
L 71.48 43.36 
z
" style="fill: #ffffff"/>
   </g>
   <g id="FillBetweenPolyCollection_1">
    <defs>
     <path id="me997d3e507" d="M 107.012727 -85.89284 
L 107.012727 -374.223469 
L 119.05772 -350.733111 
L 131.102712 -313.911505 
L 143.147704 -302.420097 
L 155.192696 -262.172585 
L 167.237689 -345.588733 
L 179.282681 -316.087867 
L 191.327673 -326.881405 
L 203.372666 -304.886088 
L 215.417658 -362.387263 
L 227.46265 -351.174451 
L 239.507643 -350.942747 
L 251.552635 -303.286228 
L 263.597627 -322.699702 
L 275.642619 -296.815071 
L 287.687612 -305.101242 
L 299.732604 -260.986482 
L 311.777596 -281.106101 
L 323.822589 -264.773737 
L 335.867581 -343.668901 
L 347.912573 -205.303079 
L 359.957565 -266.288087 
L 372.002558 -271.272478 
L 384.04755 -277.900864 
L 396.092542 -250.609459 
L 408.137535 -277.310571 
L 420.182527 -273.241961 
L 432.227519 -276.37548 
L 444.272512 -268.111376 
L 456.317504 -279.172477 
L 468.362496 -278.157393 
L 480.407488 -284.86853 
L 492.452481 -263.046991 
L 504.497473 -303.603442 
L 516.542465 -294.536649 
L 528.587458 -310.656618 
L 540.63245 -277.216786 
L 552.677442 -281.784662 
L 564.722435 -338.651409 
L 576.767427 -346.774836 
L 588.812419 -308.855396 
L 600.857411 -346.046624 
L 612.902404 -289.279178 
L 624.947396 -359.841279 
L 636.992388 -319.737202 
L 649.037381 -323.185177 
L 661.082373 -297.968073 
L 673.127365 -290.481832 
L 685.172357 -263.231803 
L 697.21735 -291.808612 
L 709.262342 -306.044608 
L 721.307334 -329.228786 
L 733.352327 -309.357421 
L 745.397319 -350.049032 
L 757.442311 -346.145926 
L 769.487304 -304.89988 
L 781.532296 -259.949331 
L 793.577288 -270.842171 
L 805.62228 -264.704777 
L 817.667273 -268.861655 
L 817.667273 -85.89284 
L 817.667273 -85.89284 
L 805.62228 -85.89284 
L 793.577288 -85.89284 
L 781.532296 -85.89284 
L 769.487304 -85.89284 
L 757.442311 -85.89284 
L 745.397319 -85.89284 
L 733.352327 -85.89284 
L 721.307334 -85.89284 
L 709.262342 -85.89284 
L 697.21735 -85.89284 
L 685.172357 -85.89284 
L 673.127365 -85.89284 
L 661.082373 -85.89284 
L 649.037381 -85.89284 
L 636.992388 -85.89284 
L 624.947396 -85.89284 
L 612.902404 -85.89284 
L 600.857411 -85.89284 
L 588.812419 -85.89284 
L 576.767427 -85.89284 
L 564.722435 -85.89284 
L 552.677442 -85.89284 
L 540.63245 -85.89284 
L 528.587458 -85.89284 
L 516.542465 -85.89284 
L 504.497473 -85.89284 
L 492.452481 -85.89284 
L 480.407488 -85.89284 
L 468.362496 -85.89284 
L 456.317504 -85.89284 
L 444.272512 -85.89284 
L 432.227519 -85.89284 
L 420.182527 -85.89284 
L 408.137535 -85.89284 
L 396.092542 -85.89284 
L 384.04755 -85.89284 
L 372.002558 -85.89284 
L 359.957565 -85.89284 
L 347.912573 -85.89284 
L 335.867581 -85.89284 
L 323.822589 -85.89284 
L 311.777596 -85.89284 
L 299.732604 -85.89284 
L 287.687612 -85.89284 
L 275.642619 -85.89284 
L 263.597627 -85.89284 
L 251.552635 -85.89284 
L 239.507643 -85.89284 
L 227.46265 -85.89284 
L 215.417658 -85.89284 
L 203.372666 -85.89284 
L 191.327673 -85.89284 
L 179.282681 -85.89284 
L 167.237689 -85.89284 
L 155.192696 -85.89284 
L 143.147704 -85.89284 
L 131.102712 -85.89284 
L 119.05772 -85.89284 
L 107.012727 -85.89284 
z
" style="stroke: #9ec5e5; stroke-opacity: 0.35"/>
    </defs>
    <g clip-path="url(#p2ad32f0bc8)">
     <use xlink:href="#me997d3e507" x="0" y="432" style="fill: #9ec5e5; fill-opacity: 0.35; stroke: #9ec5e5; stroke-opacity: 0.35"/>
    </g>
   </g>
   <g id="matplotlib.axis_1">
    <g id="xtick_1">
     <g id="line2d_1">
      <path d="M 107.012727 360.523692 
L 107.012727 43.36 
" clip-path="url(#p2ad32f0bc8)" style="fill: none; stroke-dasharray: 2.96,1.28; stroke-dashoffset: 0; stroke: #b0b0b0; stroke-opacity: 0.4; stroke-width: 0.8"/>
     </g>
     <g id="line2d_2">
      <defs>
       <path id="mf4de8a4192" d="M 0 0 
L 0 3.5 
" style="stroke: #000000; stroke-width: 0.8"/>
      </defs>
      <g>
       <use xlink:href="#mf4de8a4192" x="107.012727" y="360.523692" style="stroke: #000000; stroke-width: 0.8"/>
      </g>
     </g>
     <g id="text_1">
      <!-- 2011Q1 -->
      <g transform="translate(79.010194 399.420837) rotate(-45) scale(0.1 -0.1)">
       <defs>
        <path id="MicrosoftJhengHeiRegular-32" d="M 3219 0 
L 322 0 
L 322 472 
L 1731 1891 
Q 2431 2597 2592 2914 
Q 2753 3231 2753 3588 
Q 2753 4016 2511 4247 
Q 2269 4478 1816 4478 
Q 1169 4478 572 3919 
L 572 4475 
Q 1131 4922 1884 4922 
Q 2509 4922 2886 4575 
Q 3263 4228 3263 3634 
Q 3263 3178 3014 2736 
Q 2766 2294 2075 1603 
L 947 488 
L 947 475 
L 3219 475 
L 3219 0 
z
" transform="scale(0.015625)"/>
        <path id="MicrosoftJhengHeiRegular-30" d="M 294 2322 
Q 294 3603 711 4262 
Q 1128 4922 1916 4922 
Q 3425 4922 3425 2441 
Q 3425 1234 3011 576 
Q 2597 -81 1806 -81 
Q 1069 -81 681 550 
Q 294 1181 294 2322 
z
M 825 2350 
Q 825 363 1863 363 
Q 2891 363 2891 2378 
Q 2891 4475 1888 4475 
Q 825 4475 825 2350 
z
" transform="scale(0.015625)"/>
        <path id="MicrosoftJhengHeiRegular-31" d="M 3313 0 
L 594 0 
L 594 466 
L 1694 466 
L 1694 4272 
L 566 3931 
L 566 4434 
L 2216 4950 
L 2216 466 
L 3313 466 
L 3313 0 
z
" transform="scale(0.015625)"/>
        <path id="MicrosoftJhengHeiRegular-51" d="M 3138 -19 
L 4309 -1191 
L 3566 -1191 
L 2556 -78 
Q 1475 -59 898 617 
Q 322 1294 322 2363 
Q 322 3519 923 4217 
Q 1525 4916 2669 4916 
Q 3716 4916 4302 4242 
Q 4888 3569 4888 2484 
Q 4888 1478 4456 814 
Q 4025 150 3138 -19 
z
M 2625 4441 
Q 1806 4441 1342 3880 
Q 878 3319 878 2413 
Q 878 1503 1328 950 
Q 1778 397 2581 397 
Q 3413 397 3872 939 
Q 4331 1481 4331 2413 
Q 4331 3369 3901 3905 
Q 3472 4441 2625 4441 
z
" transform="scale(0.015625)"/>
       </defs>
       <use xlink:href="#MicrosoftJhengHeiRegular-32"/>
       <use xlink:href="#MicrosoftJhengHeiRegular-30" transform="translate(57.958984 0)"/>
       <use xlink:href="#MicrosoftJhengHeiRegular-31" transform="translate(115.917969 0)"/>
       <use xlink:href="#MicrosoftJhengHeiRegular-31" transform="translate(173.876953 0)"/>
       <use xlink:href="#MicrosoftJhengHeiRegular-51" transform="translate(231.835938 0)"/>
       <use xlink:href="#MicrosoftJhengHeiRegular-31" transform="translate(313.232422 0)"/>
      </g>
     </g>
    </g>
    <g id="xtick_2">
     <g id="line2d_3">
      <path d="M 167.237689 360.523692 
L 167.237689 43.36 
" clip-path="url(#p2ad32f0bc8)" style="fill: none; stroke-dasharray: 2.96,1.28; stroke-dashoffset: 0; stroke: #b0b0b0; stroke-opacity: 0.4; stroke-width: 0.8"/>
     </g>
     <g id="line2d_4">
      <g>
       <use xlink:href="#mf4de8a4192" x="167.237689" y="360.523692" style="stroke: #000000; stroke-width: 0.8"/>
      </g>
     </g>
     <g id="text_2">
      <!-- 2012Q2 -->
      <g transform="translate(139.235155 399.420837) rotate(-45) scale(0.1 -0.1)">
       <use xlink:href="#MicrosoftJhengHeiRegular-32"/>
       <use xlink:href="#MicrosoftJhengHeiRegular-30" transform="translate(57.958984 0)"/>
       <use xlink:href="#MicrosoftJhengHeiRegular-31" transform="translate(115.917969 0)"/>
       <use xlink:href="#MicrosoftJhengHeiRegular-32" transform="translate(173.876953 0)"/>
       <use xlink:href="#MicrosoftJhengHeiRegular-51" transform="translate(231.835938 0)"/>
       <use xlink:href="#MicrosoftJhengHeiRegular-32" transform="translate(313.232422 0)"/>
      </g>
     </g>
    </g>
    <g id="xtick_3">
     <g id="line2d_5">
      <path d="M 227.46265 360.523692 
L 227.46265 43.36 
" clip-path="url(#p2ad32f0bc8)" style="fill: none; stroke-dasharray: 2.96,1.28; stroke-dashoffset: 0; stroke: #b0b0b0; stroke-opacity: 0.4; stroke-width: 0.8"/>
     </g>
     <g id="line2d_6">
      <g>
       <use xlink:href="#mf4de8a4192" x="227.46265" y="360.523692" style="stroke: #000000; stroke-width: 0.8"/>
      </g>
     </g>
     <g id="text_3">
      <!-- 2013Q3 -->
      <g transform="translate(199.460117 399.420837) rotate(-45) scale(0.1 -0.1)">
       <defs>
        <path id="MicrosoftJhengHeiRegular-33" d="M 438 756 
Q 934 363 1556 363 
Q 2056 363 2370 616 
Q 2684 869 2684 1313 
Q 2684 2281 1319 2281 
L 919 2281 
L 919 2728 
L 1300 2728 
Q 2513 2728 2513 3634 
Q 2513 4475 1588 4475 
Q 1075 4475 625 4122 
L 625 4644 
Q 1088 4922 1719 4922 
Q 2294 4922 2670 4606 
Q 3047 4291 3047 3769 
Q 3047 2819 2075 2538 
L 2075 2525 
Q 2591 2481 2905 2162 
Q 3219 1844 3219 1369 
Q 3219 706 2742 312 
Q 2266 -81 1525 -81 
Q 844 -81 438 178 
L 438 756 
z
" transform="scale(0.015625)"/>
       </defs>
       <use xlink:href="#MicrosoftJhengHeiRegular-32"/>
       <use xlink:href="#MicrosoftJhengHeiRegular-30" transform="translate(57.958984 0)"/>
       <use xlink:href="#MicrosoftJhengHeiRegular-31" transform="translate(115.917969 0)"/>
       <use xlink:href="#MicrosoftJhengHeiRegular-33" transform="translate(173.876953 0)"/>
       <use xlink:href="#MicrosoftJhengHeiRegular-51" transform="translate(231.835938 0)"/>
       <use xlink:href="#MicrosoftJhengHeiRegular-33" transform="translate(313.232422 0)"/>
      </g>
     </g>
    </g>
    <g id="xtick_4">
     <g id="line2d_7">
      <path d="M 287.687612 360.523692 
L 287.687612 43.36 
" clip-path="url(#p2ad32f0bc8)" style="fill: none; stroke-dasharray: 2.96,1.28; stroke-dashoffset: 0; stroke: #b0b0b0; stroke-opacity: 0.4; stroke-width: 0.8"/>
     </g>
     <g id="line2d_8">
      <g>
       <use xlink:href="#mf4de8a4192" x="287.687612" y="360.523692" style="stroke: #000000; stroke-width: 0.8"/>
      </g>
     </g>
     <g id="text_4">
      <!-- 2014Q4 -->
      <g transform="translate(259.685078 399.420837) rotate(-45) scale(0.1 -0.1)">
       <defs>
        <path id="MicrosoftJhengHeiRegular-34" d="M 3472 1300 
L 2847 1300 
L 2847 0 
L 2328 0 
L 2328 1300 
L 41 1300 
L 41 1644 
L 2203 4841 
L 2847 4841 
L 2847 1731 
L 3472 1731 
L 3472 1300 
z
M 2328 1731 
L 2328 3863 
Q 2328 4084 2341 4366 
L 2328 4366 
Q 2303 4297 2144 3994 
L 622 1731 
L 2328 1731 
z
" transform="scale(0.015625)"/>
       </defs>
       <use xlink:href="#MicrosoftJhengHeiRegular-32"/>
       <use xlink:href="#MicrosoftJhengHeiRegular-30" transform="translate(57.958984 0)"/>
       <use xlink:href="#MicrosoftJhengHeiRegular-31" transform="translate(115.917969 0)"/>
       <use xlink:href="#MicrosoftJhengHeiRegular-34" transform="translate(173.876953 0)"/>
       <use xlink:href="#MicrosoftJhengHeiRegular-51" transform="translate(231.835938 0)"/>
       <use xlink:href="#MicrosoftJhengHeiRegular-34" transform="translate(313.232422 0)"/>
      </g>
     </g>
    </g>
    <g id="xtick_5">
     <g id="line2d_9">
      <path d="M 347.912573 360.523692 
L 347.912573 43.36 
" clip-path="url(#p2ad32f0bc8)" style="fill: none; stroke-dasharray: 2.96,1.28; stroke-dashoffset: 0; stroke: #b0b0b0; stroke-opacity: 0.4; stroke-width: 0.8"/>
     </g>
     <g id="line2d_10">
      <g>
       <use xlink:href="#mf4de8a4192" x="347.912573" y="360.523692" style="stroke: #000000; stroke-width: 0.8"/>
      </g>
     </g>
     <g id="text_5">
      <!-- 2016Q1 -->
      <g transform="translate(319.91004 399.420837) rotate(-45) scale(0.1 -0.1)">
       <defs>
        <path id="MicrosoftJhengHeiRegular-36" d="M 3138 4284 
Q 2756 4475 2347 4475 
Q 1681 4475 1297 3892 
Q 913 3309 916 2328 
L 931 2328 
Q 1266 3022 2041 3022 
Q 2675 3022 3053 2609 
Q 3431 2197 3431 1525 
Q 3431 834 3006 376 
Q 2581 -81 1922 -81 
Q 1166 -81 770 509 
Q 375 1100 375 2125 
Q 375 3353 890 4137 
Q 1406 4922 2338 4922 
Q 2844 4922 3138 4781 
L 3138 4284 
z
M 953 1584 
Q 953 1072 1226 717 
Q 1500 363 1941 363 
Q 2369 363 2631 675 
Q 2894 988 2894 1459 
Q 2894 1988 2637 2281 
Q 2381 2575 1934 2575 
Q 1525 2575 1239 2287 
Q 953 2000 953 1584 
z
" transform="scale(0.015625)"/>
       </defs>
       <use xlink:href="#MicrosoftJhengHeiRegular-32"/>
       <use xlink:href="#MicrosoftJhengHeiRegular-30" transform="translate(57.958984 0)"/>
       <use xlink:href="#MicrosoftJhengHeiRegular-31" transform="translate(115.917969 0)"/>
       <use xlink:href="#MicrosoftJhengHeiRegular-36" transform="translate(173.876953 0)"/>
       <use xlink:href="#MicrosoftJhengHeiRegular-51" transform="translate(231.835938 0)"/>
       <use xlink:href="#MicrosoftJhengHeiRegular-31" transform="translate(313.232422 0)"/>
      </g>
     </g>
    </g>
    <g id="xtick_6">
     <g id="line2d_11">
      <path d="M 408.137535 360.523692 
L 408.137535 43.36 
" clip-path="url(#p2ad32f0bc8)" style="fill: none; stroke-dasharray: 2.96,1.28; stroke-dashoffset: 0; stroke: #b0b0b0; stroke-opacity: 0.4; stroke-width: 0.8"/>
     </g>
     <g id="line2d_12">
      <g>
       <use xlink:href="#mf4de8a4192" x="408.137535" y="360.523692" style="stroke: #000000; stroke-width: 0.8"/>
      </g>
     </g>
     <g id="text_6">
      <!-- 2017Q2 -->
      <g transform="translate(380.135001 399.420837) rotate(-45) scale(0.1 -0.1)">
       <defs>
        <path id="MicrosoftJhengHeiRegular-37" d="M 3391 4688 
L 1459 0 
L 922 0 
L 2741 4366 
L 288 4366 
L 288 4841 
L 3391 4841 
L 3391 4688 
z
" transform="scale(0.015625)"/>
       </defs>
       <use xlink:href="#MicrosoftJhengHeiRegular-32"/>
       <use xlink:href="#MicrosoftJhengHeiRegular-30" transform="translate(57.958984 0)"/>
       <use xlink:href="#MicrosoftJhengHeiRegular-31" transform="translate(115.917969 0)"/>
       <use xlink:href="#MicrosoftJhengHeiRegular-37" transform="translate(173.876953 0)"/>
       <use xlink:href="#MicrosoftJhengHeiRegular-51" transform="translate(231.835938 0)"/>
       <use xlink:href="#MicrosoftJhengHeiRegular-32" transform="translate(313.232422 0)"/>
      </g>
     </g>
    </g>
    <g id="xtick_7">
     <g id="line2d_13">
      <path d="M 468.362496 360.523692 
L 468.362496 43.36 
" clip-path="url(#p2ad32f0bc8)" style="fill: none; stroke-dasharray: 2.96,1.28; stroke-dashoffset: 0; stroke: #b0b0b0; stroke-opacity: 0.4; stroke-width: 0.8"/>
     </g>
     <g id="line2d_14">
      <g>
       <use xlink:href="#mf4de8a4192" x="468.362496" y="360.523692" style="stroke: #000000; stroke-width: 0.8"/>
      </g>
     </g>
     <g id="text_7">
      <!-- 2018Q3 -->
      <g transform="translate(440.359963 399.420837) rotate(-45) scale(0.1 -0.1)">
       <defs>
        <path id="MicrosoftJhengHeiRegular-38" d="M 1394 2550 
Q 519 2963 519 3731 
Q 519 4263 925 4592 
Q 1331 4922 1931 4922 
Q 2469 4922 2841 4614 
Q 3213 4306 3213 3806 
Q 3213 3000 2313 2550 
L 2313 2538 
Q 3372 2138 3372 1225 
Q 3372 606 2931 262 
Q 2491 -81 1753 -81 
Q 1150 -81 745 267 
Q 341 616 341 1178 
Q 341 2109 1394 2538 
L 1394 2550 
z
M 2672 3738 
Q 2672 4081 2455 4276 
Q 2238 4472 1878 4472 
Q 1547 4472 1303 4267 
Q 1059 4063 1059 3750 
Q 1059 3106 1856 2778 
Q 2672 3122 2672 3738 
z
M 1819 2284 
Q 878 1909 878 1203 
Q 878 813 1159 589 
Q 1441 366 1875 366 
Q 2294 366 2566 589 
Q 2838 813 2838 1181 
Q 2838 1919 1819 2284 
z
" transform="scale(0.015625)"/>
       </defs>
       <use xlink:href="#MicrosoftJhengHeiRegular-32"/>
       <use xlink:href="#MicrosoftJhengHeiRegular-30" transform="translate(57.958984 0)"/>
       <use xlink:href="#MicrosoftJhengHeiRegular-31" transform="translate(115.917969 0)"/>
       <use xlink:href="#MicrosoftJhengHeiRegular-38" transform="translate(173.876953 0)"/>
       <use xlink:href="#MicrosoftJhengHeiRegular-51" transform="translate(231.835938 0)"/>
       <use xlink:href="#MicrosoftJhengHeiRegular-33" transform="translate(313.232422 0)"/>
      </g>
     </g>
    </g>
    <g id="xtick_8">
     <g id="line2d_15">
      <path d="M 528.587458 360.523692 
L 528.587458 43.36 
" clip-path="url(#p2ad32f0bc8)" style="fill: none; stroke-dasharray: 2.96,1.28; stroke-dashoffset: 0; stroke: #b0b0b0; stroke-opacity: 0.4; stroke-width: 0.8"/>
     </g>
     <g id="line2d_16">
      <g>
       <use xlink:href="#mf4de8a4192" x="528.587458" y="360.523692" style="stroke: #000000; stroke-width: 0.8"/>
      </g>
     </g>
     <g id="text_8">
      <!-- 2019Q4 -->
      <g transform="translate(500.584924 399.420837) rotate(-45) scale(0.1 -0.1)">
       <defs>
        <path id="MicrosoftJhengHeiRegular-39" d="M 584 591 
Q 994 363 1438 363 
Q 2097 363 2469 902 
Q 2841 1441 2841 2434 
Q 2834 2428 2828 2434 
Q 2516 1803 1741 1803 
Q 1116 1803 719 2231 
Q 322 2659 322 3309 
Q 322 4000 745 4461 
Q 1169 4922 1866 4922 
Q 2594 4922 2981 4351 
Q 3369 3781 3369 2713 
Q 3369 1394 2861 656 
Q 2353 -81 1416 -81 
Q 931 -81 584 81 
L 584 591 
z
M 856 3388 
Q 856 2881 1122 2576 
Q 1388 2272 1853 2272 
Q 2266 2272 2536 2545 
Q 2806 2819 2806 3206 
Q 2806 3747 2536 4111 
Q 2266 4475 1816 4475 
Q 1394 4475 1125 4158 
Q 856 3841 856 3388 
z
" transform="scale(0.015625)"/>
       </defs>
       <use xlink:href="#MicrosoftJhengHeiRegular-32"/>
       <use xlink:href="#MicrosoftJhengHeiRegular-30" transform="translate(57.958984 0)"/>
       <use xlink:href="#MicrosoftJhengHeiRegular-31" transform="translate(115.917969 0)"/>
       <use xlink:href="#MicrosoftJhengHeiRegular-39" transform="translate(173.876953 0)"/>
       <use xlink:href="#MicrosoftJhengHeiRegular-51" transform="translate(231.835938 0)"/>
       <use xlink:href="#MicrosoftJhengHeiRegular-34" transform="translate(313.232422 0)"/>
      </g>
     </g>
    </g>
    <g id="xtick_9">
     <g id="line2d_17">
      <path d="M 588.812419 360.523692 
L 588.812419 43.36 
" clip-path="url(#p2ad32f0bc8)" style="fill: none; stroke-dasharray: 2.96,1.28; stroke-dashoffset: 0; stroke: #b0b0b0; stroke-opacity: 0.4; stroke-width: 0.8"/>
     </g>
     <g id="line2d_18">
      <g>
       <use xlink:href="#mf4de8a4192" x="588.812419" y="360.523692" style="stroke: #000000; stroke-width: 0.8"/>
      </g>
     </g>
     <g id="text_9">
      <!-- 2021Q1 -->
      <g transform="translate(560.809886 399.420837) rotate(-45) scale(0.1 -0.1)">
       <use xlink:href="#MicrosoftJhengHeiRegular-32"/>
       <use xlink:href="#MicrosoftJhengHeiRegular-30" transform="translate(57.958984 0)"/>
       <use xlink:href="#MicrosoftJhengHeiRegular-32" transform="translate(115.917969 0)"/>
       <use xlink:href="#MicrosoftJhengHeiRegular-31" transform="translate(173.876953 0)"/>
       <use xlink:href="#MicrosoftJhengHeiRegular-51" transform="translate(231.835938 0)"/>
       <use xlink:href="#MicrosoftJhengHeiRegular-31" transform="translate(313.232422 0)"/>
      </g>
     </g>
    </g>
    <g id="xtick_10">
     <g id="line2d_19">
      <path d="M 649.037381 360.523692 
L 649.037381 43.36 
" clip-path="url(#p2ad32f0bc8)" style="fill: none; stroke-dasharray: 2.96,1.28; stroke-dashoffset: 0; stroke: #b0b0b0; stroke-opacity: 0.4; stroke-width: 0.8"/>
     </g>
     <g id="line2d_20">
      <g>
       <use xlink:href="#mf4de8a4192" x="649.037381" y="360.523692" style="stroke: #000000; stroke-width: 0.8"/>
      </g>
     </g>
     <g id="text_10">
      <!-- 2022Q2 -->
      <g transform="translate(621.034847 399.420837) rotate(-45) scale(0.1 -0.1)">
       <use xlink:href="#MicrosoftJhengHeiRegular-32"/>
       <use xlink:href="#MicrosoftJhengHeiRegular-30" transform="translate(57.958984 0)"/>
       <use xlink:href="#MicrosoftJhengHeiRegular-32" transform="translate(115.917969 0)"/>
       <use xlink:href="#MicrosoftJhengHeiRegular-32" transform="translate(173.876953 0)"/>
       <use xlink:href="#MicrosoftJhengHeiRegular-51" transform="translate(231.835938 0)"/>
       <use xlink:href="#MicrosoftJhengHeiRegular-32" transform="translate(313.232422 0)"/>
      </g>
     </g>
    </g>
    <g id="xtick_11">
     <g id="line2d_21">
      <path d="M 709.262342 360.523692 
L 709.262342 43.36 
" clip-path="url(#p2ad32f0bc8)" style="fill: none; stroke-dasharray: 2.96,1.28; stroke-dashoffset: 0; stroke: #b0b0b0; stroke-opacity: 0.4; stroke-width: 0.8"/>
     </g>
     <g id="line2d_22">
      <g>
       <use xlink:href="#mf4de8a4192" x="709.262342" y="360.523692" style="stroke: #000000; stroke-width: 0.8"/>
      </g>
     </g>
     <g id="text_11">
      <!-- 2023Q3 -->
      <g transform="translate(681.259809 399.420837) rotate(-45) scale(0.1 -0.1)">
       <use xlink:href="#MicrosoftJhengHeiRegular-32"/>
       <use xlink:href="#MicrosoftJhengHeiRegular-30" transform="translate(57.958984 0)"/>
       <use xlink:href="#MicrosoftJhengHeiRegular-32" transform="translate(115.917969 0)"/>
       <use xlink:href="#MicrosoftJhengHeiRegular-33" transform="translate(173.876953 0)"/>
       <use xlink:href="#MicrosoftJhengHeiRegular-51" transform="translate(231.835938 0)"/>
       <use xlink:href="#MicrosoftJhengHeiRegular-33" transform="translate(313.232422 0)"/>
      </g>
     </g>
    </g>
    <g id="xtick_12">
     <g id="line2d_23">
      <path d="M 769.487304 360.523692 
L 769.487304 43.36 
" clip-path="url(#p2ad32f0bc8)" style="fill: none; stroke-dasharray: 2.96,1.28; stroke-dashoffset: 0; stroke: #b0b0b0; stroke-opacity: 0.4; stroke-width: 0.8"/>
     </g>
     <g id="line2d_24">
      <g>
       <use xlink:href="#mf4de8a4192" x="769.487304" y="360.523692" style="stroke: #000000; stroke-width: 0.8"/>
      </g>
     </g>
     <g id="text_12">
      <!-- 2024Q4 -->
      <g transform="translate(741.48477 399.420837) rotate(-45) scale(0.1 -0.1)">
       <use xlink:href="#MicrosoftJhengHeiRegular-32"/>
       <use xlink:href="#MicrosoftJhengHeiRegular-30" transform="translate(57.958984 0)"/>
       <use xlink:href="#MicrosoftJhengHeiRegular-32" transform="translate(115.917969 0)"/>
       <use xlink:href="#MicrosoftJhengHeiRegular-34" transform="translate(173.876953 0)"/>
       <use xlink:href="#MicrosoftJhengHeiRegular-51" transform="translate(231.835938 0)"/>
       <use xlink:href="#MicrosoftJhengHeiRegular-34" transform="translate(313.232422 0)"/>
      </g>
     </g>
    </g>
    <g id="text_13">
     <!-- 期別 -->
     <g transform="translate(448.34 416.36991) scale(0.14 -0.14)">
      <defs>
       <path id="MicrosoftJhengHeiRegular-671f" d="M 3531 4244 
L 2975 4244 
L 2975 1606 
L 3463 1606 
L 3463 1294 
L 447 1294 
L 447 1606 
L 1088 1606 
L 1088 4244 
L 544 4244 
L 544 4556 
L 1088 4556 
L 1088 5281 
L 1428 5281 
L 1428 4556 
L 2638 4556 
L 2638 5281 
L 2975 5281 
L 2975 4556 
L 3531 4556 
L 3531 4244 
z
M 2638 3603 
L 2638 4244 
L 1428 4244 
L 1428 3603 
L 2638 3603 
z
M 2638 2619 
L 2638 3284 
L 1428 3284 
L 1428 2619 
L 2638 2619 
z
M 2638 1606 
L 2638 2303 
L 1428 2303 
L 1428 1606 
L 2638 1606 
z
M 5753 109 
Q 5753 -103 5601 -212 
Q 5450 -322 5019 -322 
Q 4853 -322 4678 -306 
L 4556 44 
Q 4884 16 5103 16 
Q 5422 16 5422 184 
L 5422 1728 
L 4109 1728 
Q 4003 541 3391 -331 
L 3103 -109 
Q 3497 384 3659 1029 
Q 3822 1675 3822 2841 
L 3822 5141 
L 5753 5141 
L 5753 109 
z
M 5422 3591 
L 5422 4813 
L 4153 4813 
L 4153 3591 
L 5422 3591 
z
M 5422 2047 
L 5422 3272 
L 4147 3272 
Q 4166 2703 4128 2047 
L 5422 2047 
z
M 1759 903 
Q 1397 278 813 -288 
L 538 -56 
Q 1119 494 1484 1094 
L 1759 903 
z
M 3059 288 
L 2784 72 
Q 2569 478 2222 856 
L 2463 1069 
Q 2809 706 3059 288 
z
" transform="scale(0.015625)"/>
       <path id="MicrosoftJhengHeiRegular-5225" d="M 5838 178 
Q 5838 -313 5281 -313 
L 4441 -306 
L 4306 25 
L 5338 31 
Q 5400 31 5451 106 
Q 5503 181 5503 250 
L 5503 5269 
L 5838 5269 
L 5838 178 
z
M 3525 2259 
Q 3534 1569 3506 928 
Q 3478 288 3434 128 
Q 3391 -31 3284 -131 
Q 3178 -231 3053 -270 
Q 2928 -309 2547 -309 
Q 2378 -309 2106 -300 
L 1991 38 
L 2797 19 
Q 3038 19 3122 244 
Q 3206 469 3194 1931 
L 1722 1931 
Q 1522 600 616 -325 
L 391 -38 
Q 1509 1019 1472 3200 
L 878 3200 
L 878 5125 
L 3513 5125 
L 3513 3200 
L 1813 3200 
Q 1813 2722 1759 2259 
L 3525 2259 
z
M 3181 3531 
L 3181 4794 
L 1203 4794 
L 1203 3531 
L 3181 3531 
z
M 4594 872 
L 4281 872 
L 4281 4831 
L 4594 4831 
L 4594 872 
z
" transform="scale(0.015625)"/>
      </defs>
      <use xlink:href="#MicrosoftJhengHeiRegular-671f"/>
      <use xlink:href="#MicrosoftJhengHeiRegular-5225" transform="translate(100 0)"/>
     </g>
    </g>
   </g>
   <g id="matplotlib.axis_2">
    <g id="ytick_1">
     <g id="line2d_25">
      <path d="M 71.48 346.10716 
L 853.2 346.10716 
" clip-path="url(#p2ad32f0bc8)" style="fill: none; stroke-dasharray: 2.96,1.28; stroke-dashoffset: 0; stroke: #b0b0b0; stroke-opacity: 0.4; stroke-width: 0.8"/>
     </g>
     <g id="line2d_26">
      <defs>
       <path id="m32a1b5c035" d="M 0 0 
L -3.5 0 
" style="stroke: #000000; stroke-width: 0.8"/>
      </defs>
      <g>
       <use xlink:href="#m32a1b5c035" x="71.48" y="346.10716" style="stroke: #000000; stroke-width: 0.8"/>
      </g>
     </g>
     <g id="text_14">
      <!-- 0 -->
      <g transform="translate(58.684687 350.104035) scale(0.1 -0.1)">
       <use xlink:href="#MicrosoftJhengHeiRegular-30"/>
      </g>
     </g>
    </g>
    <g id="ytick_2">
     <g id="line2d_27">
      <path d="M 71.48 290.939574 
L 853.2 290.939574 
" clip-path="url(#p2ad32f0bc8)" style="fill: none; stroke-dasharray: 2.96,1.28; stroke-dashoffset: 0; stroke: #b0b0b0; stroke-opacity: 0.4; stroke-width: 0.8"/>
     </g>
     <g id="line2d_28">
      <g>
       <use xlink:href="#m32a1b5c035" x="71.48" y="290.939574" style="stroke: #000000; stroke-width: 0.8"/>
      </g>
     </g>
     <g id="text_15">
      <!-- 20000 -->
      <g transform="translate(35.503437 294.936449) scale(0.1 -0.1)">
       <use xlink:href="#MicrosoftJhengHeiRegular-32"/>
       <use xlink:href="#MicrosoftJhengHeiRegular-30" transform="translate(57.958984 0)"/>
       <use xlink:href="#MicrosoftJhengHeiRegular-30" transform="translate(115.917969 0)"/>
       <use xlink:href="#MicrosoftJhengHeiRegular-30" transform="translate(173.876953 0)"/>
       <use xlink:href="#MicrosoftJhengHeiRegular-30" transform="translate(231.835938 0)"/>
      </g>
     </g>
    </g>
    <g id="ytick_3">
     <g id="line2d_29">
      <path d="M 71.48 235.771989 
L 853.2 235.771989 
" clip-path="url(#p2ad32f0bc8)" style="fill: none; stroke-dasharray: 2.96,1.28; stroke-dashoffset: 0; stroke: #b0b0b0; stroke-opacity: 0.4; stroke-width: 0.8"/>
     </g>
     <g id="line2d_30">
      <g>
       <use xlink:href="#m32a1b5c035" x="71.48" y="235.771989" style="stroke: #000000; stroke-width: 0.8"/>
      </g>
     </g>
     <g id="text_16">
      <!-- 40000 -->
      <g transform="translate(35.503437 239.768864) scale(0.1 -0.1)">
       <use xlink:href="#MicrosoftJhengHeiRegular-34"/>
       <use xlink:href="#MicrosoftJhengHeiRegular-30" transform="translate(57.958984 0)"/>
       <use xlink:href="#MicrosoftJhengHeiRegular-30" transform="translate(115.917969 0)"/>
       <use xlink:href="#MicrosoftJhengHeiRegular-30" transform="translate(173.876953 0)"/>
       <use xlink:href="#MicrosoftJhengHeiRegular-30" transform="translate(231.835938 0)"/>
      </g>
     </g>
    </g>
    <g id="ytick_4">
     <g id="line2d_31">
      <path d="M 71.48 180.604403 
L 853.2 180.604403 
" clip-path="url(#p2ad32f0bc8)" style="fill: none; stroke-dasharray: 2.96,1.28; stroke-dashoffset: 0; stroke: #b0b0b0; stroke-opacity: 0.4; stroke-width: 0.8"/>
     </g>
     <g id="line2d_32">
      <g>
       <use xlink:href="#m32a1b5c035" x="71.48" y="180.604403" style="stroke: #000000; stroke-width: 0.8"/>
      </g>
     </g>
     <g id="text_17">
      <!-- 60000 -->
      <g transform="translate(35.503437 184.601278) scale(0.1 -0.1)">
       <use xlink:href="#MicrosoftJhengHeiRegular-36"/>
       <use xlink:href="#MicrosoftJhengHeiRegular-30" transform="translate(57.958984 0)"/>
       <use xlink:href="#MicrosoftJhengHeiRegular-30" transform="translate(115.917969 0)"/>
       <use xlink:href="#MicrosoftJhengHeiRegular-30" transform="translate(173.876953 0)"/>
       <use xlink:href="#MicrosoftJhengHeiRegular-30" transform="translate(231.835938 0)"/>
      </g>
     </g>
    </g>
    <g id="ytick_5">
     <g id="line2d_33">
      <path d="M 71.48 125.436817 
L 853.2 125.436817 
" clip-path="url(#p2ad32f0bc8)" style="fill: none; stroke-dasharray: 2.96,1.28; stroke-dashoffset: 0; stroke: #b0b0b0; stroke-opacity: 0.4; stroke-width: 0.8"/>
     </g>
     <g id="line2d_34">
      <g>
       <use xlink:href="#m32a1b5c035" x="71.48" y="125.436817" style="stroke: #000000; stroke-width: 0.8"/>
      </g>
     </g>
     <g id="text_18">
      <!-- 80000 -->
      <g transform="translate(35.503437 129.433692) scale(0.1 -0.1)">
       <use xlink:href="#MicrosoftJhengHeiRegular-38"/>
       <use xlink:href="#MicrosoftJhengHeiRegular-30" transform="translate(57.958984 0)"/>
       <use xlink:href="#MicrosoftJhengHeiRegular-30" transform="translate(115.917969 0)"/>
       <use xlink:href="#MicrosoftJhengHeiRegular-30" transform="translate(173.876953 0)"/>
       <use xlink:href="#MicrosoftJhengHeiRegular-30" transform="translate(231.835938 0)"/>
      </g>
     </g>
    </g>
    <g id="ytick_6">
     <g id="line2d_35">
      <path d="M 71.48 70.269231 
L 853.2 70.269231 
" clip-path="url(#p2ad32f0bc8)" style="fill: none; stroke-dasharray: 2.96,1.28; stroke-dashoffset: 0; stroke: #b0b0b0; stroke-opacity: 0.4; stroke-width: 0.8"/>
     </g>
     <g id="line2d_36">
      <g>
       <use xlink:href="#m32a1b5c035" x="71.48" y="70.269231" style="stroke: #000000; stroke-width: 0.8"/>
      </g>
     </g>
     <g id="text_19">
      <!-- 100000 -->
      <g transform="translate(29.708125 74.266106) scale(0.1 -0.1)">
       <use xlink:href="#MicrosoftJhengHeiRegular-31"/>
       <use xlink:href="#MicrosoftJhengHeiRegular-30" transform="translate(57.958984 0)"/>
       <use xlink:href="#MicrosoftJhengHeiRegular-30" transform="translate(115.917969 0)"/>
       <use xlink:href="#MicrosoftJhengHeiRegular-30" transform="translate(173.876953 0)"/>
       <use xlink:href="#MicrosoftJhengHeiRegular-30" transform="translate(231.835938 0)"/>
       <use xlink:href="#MicrosoftJhengHeiRegular-30" transform="translate(289.794922 0)"/>
      </g>
     </g>
    </g>
    <g id="text_20">
     <!-- 棟數 -->
     <g transform="translate(22.227812 215.941846) rotate(-90) scale(0.14 -0.14)">
      <defs>
       <path id="MicrosoftJhengHeiRegular-68df" d="M 6041 116 
L 5831 -147 
Q 4841 481 4313 1344 
L 4313 -325 
L 3994 -325 
L 3994 1350 
Q 3366 531 2297 -128 
L 2059 116 
Q 3291 863 3775 1606 
L 2644 1606 
L 2644 3853 
L 3994 3853 
L 3994 4422 
L 2406 4422 
L 2406 4738 
L 3994 4738 
L 3994 5247 
L 4313 5247 
L 4313 4738 
L 5919 4738 
L 5919 4422 
L 4313 4422 
L 4313 3853 
L 5656 3853 
L 5656 1606 
L 4538 1606 
Q 4944 791 6041 116 
z
M 5338 2913 
L 5338 3547 
L 4313 3547 
L 4313 2913 
L 5338 2913 
z
M 3994 2913 
L 3994 3547 
L 2969 3547 
L 2969 2913 
L 3994 2913 
z
M 5338 1913 
L 5338 2597 
L 4313 2597 
L 4313 1913 
L 5338 1913 
z
M 3994 1913 
L 3994 2597 
L 2969 2597 
L 2969 1913 
L 3994 1913 
z
M 2444 2328 
L 2194 2106 
Q 1847 2709 1619 2988 
L 1619 -325 
L 1288 -325 
L 1288 2834 
Q 975 1931 622 1338 
L 416 1650 
Q 913 2491 1275 3775 
L 519 3775 
L 519 4097 
L 1288 4097 
L 1288 5247 
L 1619 5247 
L 1619 4097 
L 2328 4097 
L 2328 3775 
L 1619 3775 
L 1619 3469 
Q 2069 2947 2444 2328 
z
" transform="scale(0.015625)"/>
       <path id="MicrosoftJhengHeiRegular-6578" d="M 6000 3928 
L 5706 3928 
Q 5641 1925 5031 834 
Q 5369 344 5988 -81 
L 5800 -344 
Q 5184 41 4816 563 
Q 4359 53 3719 -344 
L 3525 -81 
Q 4228 369 4625 841 
Q 4188 1703 4091 2634 
L 4391 2738 
Q 4563 1675 4841 1150 
Q 5134 1669 5266 2466 
Q 5356 3009 5397 3928 
L 4525 3928 
Q 4219 3150 3831 2666 
L 3578 2853 
Q 4194 3653 4563 5291 
L 4872 5234 
Q 4806 4831 4625 4244 
L 6000 4244 
L 6000 3928 
z
M 3863 3947 
L 3428 3947 
L 3428 3216 
L 2322 3216 
L 2322 2838 
L 3431 2838 
L 3431 1856 
L 2306 1856 
Q 2128 1569 1978 1378 
L 2759 1378 
Q 2813 1469 2853 1606 
L 3172 1528 
Q 3159 1447 3128 1378 
L 3806 1378 
L 3806 1094 
L 2997 1094 
Q 2766 650 2416 375 
Q 2963 128 3338 -81 
L 3128 -319 
Q 2663 -56 2125 166 
Q 1525 -203 603 -319 
L 484 -16 
Q 1294 88 1753 319 
Q 1278 519 900 634 
Q 1069 813 1313 1094 
L 428 1094 
L 428 1378 
L 1559 1378 
Q 1756 1628 1906 1856 
L 881 1856 
L 881 2838 
L 2006 2838 
L 2006 3216 
L 881 3216 
L 881 3947 
L 428 3947 
L 428 4244 
L 881 4244 
L 881 4919 
L 2006 4919 
L 2006 5266 
L 2322 5266 
L 2322 4919 
L 3428 4919 
L 3428 4244 
L 3863 4244 
L 3863 3947 
z
M 3113 4244 
L 3113 4641 
L 2322 4641 
L 2322 4244 
L 3113 4244 
z
M 3113 3506 
L 3113 3947 
L 2322 3947 
L 2322 3506 
L 3113 3506 
z
M 2006 4244 
L 2006 4641 
L 1200 4641 
L 1200 4244 
L 2006 4244 
z
M 2006 3506 
L 2006 3947 
L 1200 3947 
L 1200 3506 
L 2006 3506 
z
M 3113 2147 
L 3113 2547 
L 2322 2547 
L 2322 2147 
L 3113 2147 
z
M 2006 2147 
L 2006 2547 
L 1203 2547 
L 1203 2147 
L 2006 2147 
z
M 2606 1094 
L 1744 1094 
Q 1672 1000 1463 753 
Q 1738 669 2072 531 
Q 2388 731 2606 1094 
z
" transform="scale(0.015625)"/>
      </defs>
      <use xlink:href="#MicrosoftJhengHeiRegular-68df"/>
      <use xlink:href="#MicrosoftJhengHeiRegular-6578" transform="translate(100 0)"/>
     </g>
    </g>
   </g>
   <g id="line2d_37">
    <path d="M 107.012727 57.776531 
L 119.05772 81.266889 
L 131.102712 118.088495 
L 143.147704 129.579903 
L 155.192696 169.827415 
L 167.237689 86.411267 
L 179.282681 115.912133 
L 191.327673 105.118595 
L 203.372666 127.113912 
L 215.417658 69.612737 
L 227.46265 80.825549 
L 239.507643 81.057253 
L 251.552635 128.713772 
L 263.597627 109.300298 
L 275.642619 135.184929 
L 287.687612 126.898758 
L 299.732604 171.013518 
L 311.777596 150.893899 
L 323.822589 167.226263 
L 335.867581 88.331099 
L 347.912573 226.696921 
L 359.957565 165.711913 
L 372.002558 160.727522 
L 384.04755 154.099136 
L 396.092542 181.390541 
L 408.137535 154.689429 
L 420.182527 158.758039 
L 432.227519 155.62452 
L 444.272512 163.888624 
L 456.317504 152.827523 
L 468.362496 153.842607 
L 480.407488 147.13147 
L 492.452481 168.953009 
L 504.497473 128.396558 
L 516.542465 137.463351 
L 528.587458 121.343382 
L 540.63245 154.783214 
L 552.677442 150.215338 
L 564.722435 93.348591 
L 576.767427 85.225164 
L 588.812419 123.144604 
L 600.857411 85.953376 
L 612.902404 142.720822 
L 624.947396 72.158721 
L 636.992388 112.262798 
L 649.037381 108.814823 
L 661.082373 134.031927 
L 673.127365 141.518168 
L 685.172357 168.768197 
L 697.21735 140.191388 
L 709.262342 125.955392 
L 721.307334 102.771214 
L 733.352327 122.642579 
L 745.397319 81.950968 
L 757.442311 85.854074 
L 769.487304 127.10012 
L 781.532296 172.050669 
L 793.577288 161.157829 
L 805.62228 167.295223 
L 817.667273 163.138345 
" clip-path="url(#p2ad32f0bc8)" style="fill: none; stroke: #1f6aa5; stroke-width: 2.2; stroke-linecap: square"/>
    <defs>
     <path id="m3267368f04" d="M 0 1.9 
C 0.503886 1.9 0.987202 1.699804 1.343503 1.343503 
C 1.699804 0.987202 1.9 0.503886 1.9 0 
C 1.9 -0.503886 1.699804 -0.987202 1.343503 -1.343503 
C 0.987202 -1.699804 0.503886 -1.9 0 -1.9 
C -0.503886 -1.9 -0.987202 -1.699804 -1.343503 -1.343503 
C -1.699804 -0.987202 -1.9 -0.503886 -1.9 0 
C -1.9 0.503886 -1.699804 0.987202 -1.343503 1.343503 
C -0.987202 1.699804 -0.503886 1.9 0 1.9 
z
" style="stroke: #1f6aa5"/>
    </defs>
    <g clip-path="url(#p2ad32f0bc8)">
     <use xlink:href="#m3267368f04" x="107.012727" y="57.776531" style="fill: #1f6aa5; stroke: #1f6aa5"/>
     <use xlink:href="#m3267368f04" x="119.05772" y="81.266889" style="fill: #1f6aa5; stroke: #1f6aa5"/>
     <use xlink:href="#m3267368f04" x="131.102712" y="118.088495" style="fill: #1f6aa5; stroke: #1f6aa5"/>
     <use xlink:href="#m3267368f04" x="143.147704" y="129.579903" style="fill: #1f6aa5; stroke: #1f6aa5"/>
     <use xlink:href="#m3267368f04" x="155.192696" y="169.827415" style="fill: #1f6aa5; stroke: #1f6aa5"/>
     <use xlink:href="#m3267368f04" x="167.237689" y="86.411267" style="fill: #1f6aa5; stroke: #1f6aa5"/>
     <use xlink:href="#m3267368f04" x="179.282681" y="115.912133" style="fill: #1f6aa5; stroke: #1f6aa5"/>
     <use xlink:href="#m3267368f04" x="191.327673" y="105.118595" style="fill: #1f6aa5; stroke: #1f6aa5"/>
     <use xlink:href="#m3267368f04" x="203.372666" y="127.113912" style="fill: #1f6aa5; stroke: #1f6aa5"/>
     <use xlink:href="#m3267368f04" x="215.417658" y="69.612737" style="fill: #1f6aa5; stroke: #1f6aa5"/>
     <use xlink:href="#m3267368f04" x="227.46265" y="80.825549" style="fill: #1f6aa5; stroke: #1f6aa5"/>
     <use xlink:href="#m3267368f04" x="239.507643" y="81.057253" style="fill: #1f6aa5; stroke: #1f6aa5"/>
     <use xlink:href="#m3267368f04" x="251.552635" y="128.713772" style="fill: #1f6aa5; stroke: #1f6aa5"/>
     <use xlink:href="#m3267368f04" x="263.597627" y="109.300298" style="fill: #1f6aa5; stroke: #1f6aa5"/>
     <use xlink:href="#m3267368f04" x="275.642619" y="135.184929" style="fill: #1f6aa5; stroke: #1f6aa5"/>
     <use xlink:href="#m3267368f04" x="287.687612" y="126.898758" style="fill: #1f6aa5; stroke: #1f6aa5"/>
     <use xlink:href="#m3267368f04" x="299.732604" y="171.013518" style="fill: #1f6aa5; stroke: #1f6aa5"/>
     <use xlink:href="#m3267368f04" x="311.777596" y="150.893899" style="fill: #1f6aa5; stroke: #1f6aa5"/>
     <use xlink:href="#m3267368f04" x="323.822589" y="167.226263" style="fill: #1f6aa5; stroke: #1f6aa5"/>
     <use xlink:href="#m3267368f04" x="335.867581" y="88.331099" style="fill: #1f6aa5; stroke: #1f6aa5"/>
     <use xlink:href="#m3267368f04" x="347.912573" y="226.696921" style="fill: #1f6aa5; stroke: #1f6aa5"/>
     <use xlink:href="#m3267368f04" x="359.957565" y="165.711913" style="fill: #1f6aa5; stroke: #1f6aa5"/>
     <use xlink:href="#m3267368f04" x="372.002558" y="160.727522" style="fill: #1f6aa5; stroke: #1f6aa5"/>
     <use xlink:href="#m3267368f04" x="384.04755" y="154.099136" style="fill: #1f6aa5; stroke: #1f6aa5"/>
     <use xlink:href="#m3267368f04" x="396.092542" y="181.390541" style="fill: #1f6aa5; stroke: #1f6aa5"/>
     <use xlink:href="#m3267368f04" x="408.137535" y="154.689429" style="fill: #1f6aa5; stroke: #1f6aa5"/>
     <use xlink:href="#m3267368f04" x="420.182527" y="158.758039" style="fill: #1f6aa5; stroke: #1f6aa5"/>
     <use xlink:href="#m3267368f04" x="432.227519" y="155.62452" style="fill: #1f6aa5; stroke: #1f6aa5"/>
     <use xlink:href="#m3267368f04" x="444.272512" y="163.888624" style="fill: #1f6aa5; stroke: #1f6aa5"/>
     <use xlink:href="#m3267368f04" x="456.317504" y="152.827523" style="fill: #1f6aa5; stroke: #1f6aa5"/>
     <use xlink:href="#m3267368f04" x="468.362496" y="153.842607" style="fill: #1f6aa5; stroke: #1f6aa5"/>
     <use xlink:href="#m3267368f04" x="480.407488" y="147.13147" style="fill: #1f6aa5; stroke: #1f6aa5"/>
     <use xlink:href="#m3267368f04" x="492.452481" y="168.953009" style="fill: #1f6aa5; stroke: #1f6aa5"/>
     <use xlink:href="#m3267368f04" x="504.497473" y="128.396558" style="fill: #1f6aa5; stroke: #1f6aa5"/>
     <use xlink:href="#m3267368f04" x="516.542465" y="137.463351" style="fill: #1f6aa5; stroke: #1f6aa5"/>
     <use xlink:href="#m3267368f04" x="528.587458" y="121.343382" style="fill: #1f6aa5; stroke: #1f6aa5"/>
     <use xlink:href="#m3267368f04" x="540.63245" y="154.783214" style="fill: #1f6aa5; stroke: #1f6aa5"/>
     <use xlink:href="#m3267368f04" x="552.677442" y="150.215338" style="fill: #1f6aa5; stroke: #1f6aa5"/>
     <use xlink:href="#m3267368f04" x="564.722435" y="93.348591" style="fill: #1f6aa5; stroke: #1f6aa5"/>
     <use xlink:href="#m3267368f04" x="576.767427" y="85.225164" style="fill: #1f6aa5; stroke: #1f6aa5"/>
     <use xlink:href="#m3267368f04" x="588.812419" y="123.144604" style="fill: #1f6aa5; stroke: #1f6aa5"/>
     <use xlink:href="#m3267368f04" x="600.857411" y="85.953376" style="fill: #1f6aa5; stroke: #1f6aa5"/>
     <use xlink:href="#m3267368f04" x="612.902404" y="142.720822" style="fill: #1f6aa5; stroke: #1f6aa5"/>
     <use xlink:href="#m3267368f04" x="624.947396" y="72.158721" style="fill: #1f6aa5; stroke: #1f6aa5"/>
     <use xlink:href="#m3267368f04" x="636.992388" y="112.262798" style="fill: #1f6aa5; stroke: #1f6aa5"/>
     <use xlink:href="#m3267368f04" x="649.037381" y="108.814823" style="fill: #1f6aa5; stroke: #1f6aa5"/>
     <use xlink:href="#m3267368f04" x="661.082373" y="134.031927" style="fill: #1f6aa5; stroke: #1f6aa5"/>
     <use xlink:href="#m3267368f04" x="673.127365" y="141.518168" style="fill: #1f6aa5; stroke: #1f6aa5"/>
     <use xlink:href="#m3267368f04" x="685.172357" y="168.768197" style="fill: #1f6aa5; stroke: #1f6aa5"/>
     <use xlink:href="#m3267368f04" x="697.21735" y="140.191388" style="fill: #1f6aa5; stroke: #1f6aa5"/>
     <use xlink:href="#m3267368f04" x="709.262342" y="125.955392" style="fill: #1f6aa5; stroke: #1f6aa5"/>
     <use xlink:href="#m3267368f04" x="721.307334" y="102.771214" style="fill: #1f6aa5; stroke: #1f6aa5"/>
     <use xlink:href="#m3267368f04" x="733.352327" y="122.642579" style="fill: #1f6aa5; stroke: #1f6aa5"/>
     <use xlink:href="#m3267368f04" x="745.397319" y="81.950968" style="fill: #1f6aa5; stroke: #1f6aa5"/>
     <use xlink:href="#m3267368f04" x="757.442311" y="85.854074" style="fill: #1f6aa5; stroke: #1f6aa5"/>
     <use xlink:href="#m3267368f04" x="769.487304" y="127.10012" style="fill: #1f6aa5; stroke: #1f6aa5"/>
     <use xlink:href="#m3267368f04" x="781.532296" y="172.050669" style="fill: #1f6aa5; stroke: #1f6aa5"/>
     <use xlink:href="#m3267368f04" x="793.577288" y="161.157829" style="fill: #1f6aa5; stroke: #1f6aa5"/>
     <use xlink:href="#m3267368f04" x="805.62228" y="167.295223" style="fill: #1f6aa5; stroke: #1f6aa5"/>
     <use xlink:href="#m3267368f04" x="817.667273" y="163.138345" style="fill: #1f6aa5; stroke: #1f6aa5"/>
    </g>
   </g>
   <g id="patch_3">
    <path d="M 71.48 360.523692 
L 71.48 43.36 
" style="fill: none; stroke: #000000; stroke-width: 0.8; stroke-linejoin: miter; stroke-linecap: square"/>
   </g>
   <g id="patch_4">
    <path d="M 853.2 360.523692 
L 853.2 43.36 
" style="fill: none; stroke: #000000; stroke-width: 0.8; stroke-linejoin: miter; stroke-linecap: square"/>
   </g>
   <g id="patch_5">
    <path d="M 71.48 360.523692 
L 853.2 360.523692 
" style="fill: none; stroke: #000000; stroke-width: 0.8; stroke-linejoin: miter; stroke-linecap: square"/>
   </g>
   <g id="patch_6">
    <path d="M 71.48 43.36 
L 853.2 43.36 
" style="fill: none; stroke: #000000; stroke-width: 0.8; stroke-linejoin: miter; stroke-linecap: square"/>
   </g>
   <g id="text_21">
    <!-- 最新：2025Q4 / 66,332 棟 -->
    <g style="fill: #0d3b66" transform="translate(675.593366 151.138345) scale(0.11 -0.11)">
     <defs>
      <path id="MicrosoftJhengHeiRegular-6700" d="M 5153 3278 
L 4825 3278 
L 4825 4806 
L 1581 4806 
L 1581 3278 
L 1253 3278 
L 1253 5119 
L 5153 5119 
L 5153 3278 
z
M 4422 4109 
L 1966 4109 
L 1966 4422 
L 4422 4422 
L 4422 4109 
z
M 4422 3406 
L 1966 3406 
L 1966 3713 
L 4422 3713 
L 4422 3406 
z
M 5984 2631 
L 3122 2631 
L 3122 -319 
L 2803 -319 
L 2803 378 
Q 1531 178 481 91 
L 359 397 
Q 509 403 947 447 
L 947 2631 
L 422 2631 
L 422 2938 
L 5984 2938 
L 5984 2631 
z
M 2803 2216 
L 2803 2631 
L 1269 2631 
L 1269 2216 
L 2803 2216 
z
M 2803 1441 
L 2803 1900 
L 1269 1900 
L 1269 1441 
L 2803 1441 
z
M 2803 709 
L 2803 1141 
L 1269 1141 
L 1269 494 
Q 2241 600 2803 709 
z
M 6009 -72 
L 5844 -347 
Q 5203 -106 4678 306 
Q 4103 -125 3531 -319 
L 3309 -84 
Q 3897 116 4422 506 
Q 3825 1116 3500 1888 
L 3378 1888 
L 3378 2203 
L 5728 2203 
Q 5534 1147 4922 519 
Q 5347 181 6009 -72 
z
M 5338 1888 
L 3853 1888 
Q 4163 1203 4672 722 
Q 5109 1150 5338 1888 
z
" transform="scale(0.015625)"/>
      <path id="MicrosoftJhengHeiRegular-65b0" d="M 3341 2009 
L 2047 2009 
L 2047 -341 
L 1728 -341 
L 1728 2009 
L 422 2009 
L 422 2316 
L 1728 2316 
L 1728 2944 
L 494 2944 
L 494 3263 
L 1275 3263 
Q 1219 3563 941 4213 
L 1166 4366 
L 538 4366 
L 538 4697 
L 1716 4697 
Q 1622 4919 1447 5159 
L 1753 5294 
Q 1906 5084 2081 4697 
L 3200 4697 
L 3200 4366 
L 2688 4366 
L 2925 4219 
Q 2809 3866 2528 3263 
L 3272 3263 
L 3272 2944 
L 2047 2944 
L 2047 2316 
L 3341 2316 
L 3341 2009 
z
M 2591 4366 
L 1259 4366 
Q 1516 3741 1625 3263 
L 2163 3263 
Q 2434 3800 2591 4366 
z
M 5959 2881 
L 5269 2881 
L 5269 -347 
L 4941 -347 
L 4941 2881 
L 3988 2881 
Q 3988 741 3175 -366 
L 2906 -159 
Q 3322 459 3498 1103 
Q 3675 1747 3675 2803 
L 3675 4722 
Q 4884 4888 5644 5269 
L 5894 5006 
Q 5044 4613 3994 4447 
L 3994 3200 
L 5959 3200 
L 5959 2881 
z
M 3150 781 
L 2853 603 
Q 2706 994 2413 1509 
L 2681 1663 
Q 2950 1256 3150 781 
z
M 1388 1497 
Q 1088 734 659 184 
L 378 378 
Q 738 809 1094 1644 
L 1388 1497 
z
" transform="scale(0.015625)"/>
      <path id="MicrosoftJhengHeiRegular-ff1a" d="M 3206 3531 
Q 3363 3531 3467 3425 
Q 3572 3319 3572 3169 
Q 3572 3019 3467 2914 
Q 3363 2809 3206 2809 
Q 3056 2809 2948 2912 
Q 2841 3016 2841 3169 
Q 2841 3322 2948 3426 
Q 3056 3531 3206 3531 
z
M 3206 653 
Q 3363 653 3467 548 
Q 3572 444 3572 288 
Q 3572 138 3469 30 
Q 3366 -78 3206 -78 
Q 3053 -78 2947 28 
Q 2841 134 2841 288 
Q 2841 447 2948 550 
Q 3056 653 3206 653 
z
" transform="scale(0.015625)"/>
      <path id="MicrosoftJhengHeiRegular-35" d="M 553 684 
Q 1047 363 1559 363 
Q 2072 363 2394 658 
Q 2716 953 2716 1441 
Q 2716 1931 2394 2200 
Q 2072 2469 1466 2469 
Q 1275 2469 706 2431 
L 706 4841 
L 3025 4841 
L 3025 4366 
L 1203 4366 
L 1203 2916 
Q 1475 2931 1616 2931 
Q 2378 2931 2811 2548 
Q 3244 2166 3244 1472 
Q 3244 750 2775 334 
Q 2306 -81 1544 -81 
Q 875 -81 553 119 
L 553 684 
z
" transform="scale(0.015625)"/>
      <path id="MicrosoftJhengHeiRegular-20" transform="scale(0.015625)"/>
      <path id="MicrosoftJhengHeiRegular-2f" d="M 2719 4841 
L 397 -803 
L -88 -803 
L 2225 4841 
L 2719 4841 
z
" transform="scale(0.015625)"/>
      <path id="MicrosoftJhengHeiRegular-2c" d="M 1041 763 
L 497 -894 
L 131 -894 
L 528 763 
L 1041 763 
z
" transform="scale(0.015625)"/>
     </defs>
     <use xlink:href="#MicrosoftJhengHeiRegular-6700"/>
     <use xlink:href="#MicrosoftJhengHeiRegular-65b0" transform="translate(100 0)"/>
     <use xlink:href="#MicrosoftJhengHeiRegular-ff1a" transform="translate(200 0)"/>
     <use xlink:href="#MicrosoftJhengHeiRegular-32" transform="translate(300 0)"/>
     <use xlink:href="#MicrosoftJhengHeiRegular-30" transform="translate(357.958984 0)"/>
     <use xlink:href="#MicrosoftJhengHeiRegular-32" transform="translate(415.917969 0)"/>
     <use xlink:href="#MicrosoftJhengHeiRegular-35" transform="translate(473.876953 0)"/>
     <use xlink:href="#MicrosoftJhengHeiRegular-51" transform="translate(531.835938 0)"/>
     <use xlink:href="#MicrosoftJhengHeiRegular-34" transform="translate(613.232422 0)"/>
     <use xlink:href="#MicrosoftJhengHeiRegular-20" transform="translate(671.191406 0)"/>
     <use xlink:href="#MicrosoftJhengHeiRegular-2f" transform="translate(696.191406 0)"/>
     <use xlink:href="#MicrosoftJhengHeiRegular-20" transform="translate(737.890625 0)"/>
     <use xlink:href="#MicrosoftJhengHeiRegular-36" transform="translate(762.890625 0)"/>
     <use xlink:href="#MicrosoftJhengHeiRegular-36" transform="translate(820.849609 0)"/>
     <use xlink:href="#MicrosoftJhengHeiRegular-2c" transform="translate(878.808594 0)"/>
     <use xlink:href="#MicrosoftJhengHeiRegular-33" transform="translate(901.855469 0)"/>
     <use xlink:href="#MicrosoftJhengHeiRegular-33" transform="translate(959.814453 0)"/>
     <use xlink:href="#MicrosoftJhengHeiRegular-32" transform="translate(1017.773438 0)"/>
     <use xlink:href="#MicrosoftJhengHeiRegular-20" transform="translate(1075.732422 0)"/>
     <use xlink:href="#MicrosoftJhengHeiRegular-68df" transform="translate(1100.732422 0)"/>
    </g>
   </g>
   <g id="text_22">
    <!-- 全台建物買賣移轉棟數監控趨勢 -->
    <g transform="translate(322.34 27.36) scale(0.2 -0.2)">
     <defs>
      <path id="MicrosoftJhengHeiRegular-5168" d="M 5978 3341 
L 5797 3041 
Q 3966 3847 3194 4800 
Q 2434 3763 556 3041 
L 384 3359 
Q 2028 3941 2772 4825 
L 2150 4825 
L 2150 5153 
L 3366 5153 
Q 4072 4116 5978 3341 
z
M 5825 -184 
L 544 -184 
L 544 134 
L 3022 134 
L 3022 1363 
L 1259 1363 
L 1259 1684 
L 3022 1684 
L 3022 2869 
L 1269 2869 
L 1269 3181 
L 5100 3181 
L 5100 2869 
L 3353 2869 
L 3353 1684 
L 5094 1684 
L 5094 1363 
L 3353 1363 
L 3353 134 
L 5825 134 
L 5825 -184 
z
" transform="scale(0.015625)"/>
      <path id="MicrosoftJhengHeiRegular-53f0" d="M 6028 2875 
L 5753 2663 
Q 5538 2975 5216 3309 
Q 3238 2900 594 2803 
L 500 3109 
Q 1922 4216 2484 5294 
L 2828 5178 
Q 2303 4231 1100 3169 
Q 3203 3241 4934 3609 
Q 4547 4038 3903 4575 
L 4197 4794 
Q 5281 3844 6028 2875 
z
M 5416 -341 
L 5063 -341 
L 5063 56 
L 1369 56 
L 1369 -331 
L 1019 -331 
L 1019 2175 
L 5416 2175 
L 5416 -341 
z
M 5063 397 
L 5063 1831 
L 1369 1831 
L 1369 397 
L 5063 397 
z
" transform="scale(0.015625)"/>
      <path id="MicrosoftJhengHeiRegular-5efa" d="M 5959 3559 
L 5503 3559 
L 5503 2650 
L 4044 2650 
L 4044 2119 
L 5631 2119 
L 5631 1806 
L 4044 1806 
L 4044 1281 
L 5850 1281 
L 5850 966 
L 4044 966 
L 4044 331 
L 3725 331 
L 3725 966 
L 2138 966 
L 2138 1281 
L 3725 1281 
L 3725 1806 
L 2381 1806 
L 2381 2119 
L 3725 2119 
L 3725 2650 
L 2503 2650 
L 2503 2969 
L 3725 2969 
L 3725 3559 
L 2144 3559 
L 2144 3884 
L 3725 3884 
L 3725 4441 
L 2509 4441 
L 2509 4756 
L 3725 4756 
L 3725 5234 
L 4044 5234 
L 4044 4756 
L 5503 4756 
L 5503 3884 
L 5959 3884 
L 5959 3559 
z
M 5178 3884 
L 5178 4428 
L 4044 4428 
L 4044 3884 
L 5178 3884 
z
M 5178 2969 
L 5178 3559 
L 4044 3559 
L 4044 2969 
L 5178 2969 
z
M 6009 91 
L 5931 -250 
Q 5353 -266 4831 -266 
Q 3703 -266 3223 -208 
Q 2744 -150 2276 14 
Q 1809 178 1447 550 
Q 991 -25 581 -347 
L 353 -84 
Q 831 291 1203 800 
Q 847 1281 603 2059 
L 903 2181 
Q 1084 1503 1381 1113 
Q 1719 1813 1759 2753 
L 575 2753 
L 575 3053 
Q 1169 3800 1759 4775 
L 447 4775 
L 447 5094 
L 2119 5094 
L 2119 4775 
Q 1534 3791 997 3078 
L 2106 3078 
Q 2044 1666 1613 838 
Q 1916 528 2295 353 
Q 2675 178 3106 123 
Q 3538 69 4806 69 
Q 5438 69 6009 91 
z
" transform="scale(0.015625)"/>
      <path id="MicrosoftJhengHeiRegular-7269" d="M 5856 4359 
Q 5850 2981 5772 1659 
Q 5694 338 5603 116 
Q 5513 -106 5327 -228 
Q 5141 -350 4669 -350 
Q 4434 -350 4184 -325 
L 4063 0 
Q 4344 -31 4606 -31 
Q 5019 -31 5150 55 
Q 5281 141 5334 317 
Q 5388 494 5458 1684 
Q 5528 2875 5528 4050 
L 5141 4050 
Q 4881 1434 3084 -103 
L 2816 109 
Q 4616 1556 4831 4050 
L 4325 4050 
Q 3984 2334 2803 1147 
L 2541 1338 
Q 3713 2494 4006 4050 
L 3488 4050 
Q 3125 3284 2784 2888 
L 2516 3072 
Q 3219 3872 3553 5288 
L 3859 5228 
Q 3719 4650 3609 4359 
L 5856 4359 
z
M 2681 2125 
Q 2266 1922 1953 1797 
L 1953 -331 
L 1631 -331 
L 1631 1672 
Q 1022 1422 538 1281 
L 453 1606 
Q 1100 1791 1631 2009 
L 1631 3634 
L 1081 3634 
Q 959 2978 769 2516 
L 475 2638 
Q 875 3681 922 4775 
L 1228 4722 
Q 1209 4372 1131 3950 
L 1631 3950 
L 1631 5281 
L 1953 5281 
L 1953 3950 
L 2619 3950 
L 2619 3634 
L 1953 3634 
L 1953 2144 
Q 2306 2278 2681 2472 
L 2681 2125 
z
" transform="scale(0.015625)"/>
      <path id="MicrosoftJhengHeiRegular-8cb7" d="M 5644 3653 
L 813 3653 
L 813 5100 
L 5644 5100 
L 5644 3653 
z
M 5325 3963 
L 5325 4806 
L 4128 4806 
L 4128 3963 
L 5325 3963 
z
M 3809 3963 
L 3809 4806 
L 2625 4806 
L 2625 3963 
L 3809 3963 
z
M 2297 3963 
L 2297 4806 
L 1141 4806 
L 1141 3963 
L 2297 3963 
z
M 5141 684 
L 2419 684 
L 2638 447 
Q 1656 -44 697 -256 
L 513 31 
Q 1366 213 2328 684 
L 1319 684 
L 1319 3200 
L 5141 3200 
L 5141 684 
z
M 4806 2456 
L 4806 2900 
L 1644 2900 
L 1644 2456 
L 4806 2456 
z
M 4806 1741 
L 4806 2188 
L 1644 2188 
L 1644 1741 
L 4806 1741 
z
M 4806 984 
L 4806 1459 
L 1644 1459 
L 1644 984 
L 4806 984 
z
M 5925 -13 
L 5784 -325 
Q 4931 6 3700 191 
L 3866 513 
Q 4944 322 5925 -13 
z
" transform="scale(0.015625)"/>
      <path id="MicrosoftJhengHeiRegular-8ce3" d="M 5931 4678 
L 3406 4678 
L 3406 4313 
L 5728 4313 
L 5728 4031 
L 744 4031 
L 744 4313 
L 3066 4313 
L 3066 4678 
L 506 4678 
L 506 4972 
L 3066 4972 
L 3066 5288 
L 3406 5288 
L 3406 4972 
L 5931 4972 
L 5931 4678 
z
M 5650 2725 
L 806 2725 
L 806 3719 
L 5650 3719 
L 5650 2725 
z
M 5319 2994 
L 5319 3444 
L 4134 3444 
L 4134 2994 
L 5319 2994 
z
M 3803 2994 
L 3803 3444 
L 2644 3444 
L 2644 2994 
L 3803 2994 
z
M 2309 2994 
L 2309 3444 
L 1131 3444 
L 1131 2994 
L 2309 2994 
z
M 5197 488 
L 2509 488 
L 2706 313 
Q 1934 -97 653 -331 
L 453 -44 
Q 1613 144 2350 488 
L 1259 488 
L 1259 2388 
L 5197 2388 
L 5197 488 
z
M 4856 1838 
L 4856 2119 
L 1588 2119 
L 1588 1838 
L 4856 1838 
z
M 4856 1294 
L 4856 1588 
L 1588 1588 
L 1588 1294 
L 4856 1294 
z
M 4856 763 
L 4856 1050 
L 1588 1050 
L 1588 763 
L 4856 763 
z
M 6022 -72 
L 5863 -359 
Q 4694 -13 3828 63 
L 3963 353 
Q 4972 244 6022 -72 
z
" transform="scale(0.015625)"/>
      <path id="MicrosoftJhengHeiRegular-79fb" d="M 5728 4447 
Q 4609 2950 2803 2350 
L 2619 2644 
Q 3541 2928 4103 3303 
Q 3819 3659 3316 4072 
Q 3000 3847 2759 3713 
L 2559 3975 
Q 3634 4559 4122 5300 
L 4409 5159 
Q 4275 4934 4103 4781 
L 5728 4781 
L 5728 4447 
z
M 5344 4447 
L 3788 4447 
Q 3616 4291 3553 4250 
Q 4113 3788 4359 3481 
Q 4869 3878 5344 4447 
z
M 2597 1941 
L 2363 1703 
Q 2072 2256 1791 2619 
L 1791 -300 
L 1466 -300 
L 1466 2675 
Q 1081 1766 594 1106 
L 353 1388 
Q 972 2116 1416 3397 
L 434 3397 
L 434 3713 
L 1466 3713 
L 1466 4672 
Q 838 4563 678 4544 
L 544 4844 
Q 1550 4969 2344 5281 
L 2534 5006 
Q 2172 4850 1791 4763 
L 1791 3713 
L 2491 3713 
L 2491 3397 
L 1791 3397 
L 1791 3072 
Q 2169 2663 2597 1941 
z
M 5913 2119 
Q 5913 2038 5728 1694 
Q 5544 1350 5376 1134 
Q 5209 919 4979 716 
Q 4750 513 4395 313 
Q 4041 113 3595 -37 
Q 3150 -188 2591 -325 
L 2394 -19 
Q 3691 222 4403 691 
Q 4066 1097 3500 1528 
Q 3084 1272 2650 1069 
L 2438 1325 
Q 3897 2013 4659 3053 
L 4953 2894 
Q 4794 2666 4569 2431 
L 5913 2431 
L 5913 2119 
z
M 5544 2119 
L 4256 2119 
Q 3884 1803 3763 1716 
Q 4319 1263 4659 884 
Q 5241 1319 5544 2119 
z
" transform="scale(0.015625)"/>
      <path id="MicrosoftJhengHeiRegular-8f49" d="M 5972 1650 
L 5734 1453 
Q 5666 1588 5569 1709 
Q 4331 1591 2969 1528 
L 2881 1825 
Q 3744 1850 4178 1869 
L 4178 2328 
L 3059 2328 
L 3059 4097 
L 4178 4097 
L 4178 4531 
L 2925 4531 
L 2925 4831 
L 4178 4831 
L 4178 5259 
L 4513 5259 
L 4513 4831 
L 5831 4831 
L 5831 4531 
L 4513 4531 
L 4513 4097 
L 5638 4097 
L 5638 2328 
L 5422 2328 
Q 5769 1978 5972 1650 
z
M 5319 3384 
L 5319 3803 
L 4513 3803 
L 4513 3384 
L 5319 3384 
z
M 4178 3384 
L 4178 3803 
L 3378 3803 
L 3378 3384 
L 4178 3384 
z
M 5319 2631 
L 5319 3103 
L 4513 3103 
L 4513 2631 
L 5319 2631 
z
M 4178 2631 
L 4178 3103 
L 3378 3103 
L 3378 2631 
L 4178 2631 
z
M 5363 2328 
L 4513 2328 
L 4513 1900 
Q 4922 1928 5344 1978 
Q 5209 2131 5166 2175 
L 5363 2328 
z
M 2669 556 
L 1813 556 
L 1813 -306 
L 1497 -306 
L 1497 556 
L 447 556 
L 447 878 
L 1497 878 
L 1497 1472 
L 709 1472 
L 709 3872 
L 1497 3872 
L 1497 4397 
L 538 4397 
L 538 4697 
L 1497 4697 
L 1497 5259 
L 1813 5259 
L 1813 4697 
L 2663 4697 
L 2663 4397 
L 1813 4397 
L 1813 3872 
L 2613 3872 
L 2613 1472 
L 1813 1472 
L 1813 878 
L 2669 878 
L 2669 556 
z
M 2284 2853 
L 2284 3572 
L 1813 3572 
L 1813 2853 
L 2284 2853 
z
M 1497 2853 
L 1497 3572 
L 1025 3572 
L 1025 2853 
L 1497 2853 
z
M 2284 1772 
L 2284 2541 
L 1813 2541 
L 1813 1772 
L 2284 1772 
z
M 1497 1772 
L 1497 2541 
L 1025 2541 
L 1025 1772 
L 1497 1772 
z
M 5997 909 
L 5259 909 
L 5259 116 
Q 5259 -72 5151 -186 
Q 5044 -300 4948 -309 
Q 4853 -319 4353 -319 
L 4256 -19 
Q 4716 -19 4780 -12 
Q 4844 -6 4895 47 
Q 4947 100 4947 153 
L 4947 909 
L 2900 909 
L 2900 1209 
L 4947 1209 
L 4947 1453 
L 5259 1453 
L 5259 1209 
L 5997 1209 
L 5997 909 
z
M 3938 84 
L 3669 -91 
Q 3478 241 3156 544 
L 3397 716 
Q 3744 413 3938 84 
z
" transform="scale(0.015625)"/>
      <path id="MicrosoftJhengHeiRegular-76e3" d="M 5978 4050 
L 4197 4050 
Q 3950 3597 3622 3250 
L 3359 3463 
Q 3972 4063 4372 5306 
L 4684 5203 
Q 4528 4700 4353 4366 
L 5978 4366 
L 5978 4050 
z
M 3506 4819 
L 2278 4819 
L 2278 4288 
L 3175 4288 
L 3175 3066 
L 2284 3066 
L 2284 2497 
L 3438 2497 
L 3438 2181 
L 722 2181 
L 722 5131 
L 3506 5131 
L 3506 4819 
z
M 1966 4288 
L 1966 4819 
L 1056 4819 
L 1056 4288 
L 1966 4288 
z
M 2841 3372 
L 2841 3975 
L 1056 3975 
L 1056 3372 
L 2841 3372 
z
M 1966 2497 
L 1966 3066 
L 1056 3066 
L 1056 2497 
L 1966 2497 
z
M 5825 2606 
L 3788 2606 
L 3788 2931 
L 5825 2931 
L 5825 2606 
z
M 5997 -166 
L 441 -166 
L 441 159 
L 1131 159 
L 1131 1703 
L 5300 1703 
L 5300 159 
L 5997 159 
L 5997 -166 
z
M 4959 159 
L 4959 1375 
L 4025 1375 
L 4025 159 
L 4959 159 
z
M 3700 159 
L 3700 1375 
L 2731 1375 
L 2731 159 
L 3700 159 
z
M 2413 159 
L 2413 1375 
L 1459 1375 
L 1459 159 
L 2413 159 
z
" transform="scale(0.015625)"/>
      <path id="MicrosoftJhengHeiRegular-63a7" d="M 5997 2484 
L 5013 2484 
Q 4525 2484 4525 2956 
L 4525 4244 
L 3903 4244 
Q 3822 2897 2741 2247 
L 2503 2503 
Q 3500 3044 3566 4244 
L 2784 4244 
L 2784 3488 
L 2456 3488 
L 2456 4569 
L 4025 4569 
Q 3881 4888 3706 5159 
L 4006 5288 
Q 4225 4969 4378 4569 
L 5913 4569 
L 5913 3475 
L 5594 3475 
L 5594 4244 
L 4844 4244 
L 4844 2994 
Q 4844 2809 5050 2809 
L 5997 2809 
L 5997 2484 
z
M 2322 2484 
Q 1891 2291 1613 2181 
L 1613 191 
Q 1613 -103 1477 -217 
Q 1341 -331 916 -331 
Q 781 -331 628 -325 
L 519 13 
Q 719 0 891 0 
Q 1141 0 1211 47 
Q 1281 94 1281 206 
L 1281 2034 
Q 969 1906 513 1747 
L 403 2081 
Q 819 2216 1281 2400 
L 1281 3822 
L 441 3822 
L 441 4141 
L 1281 4141 
L 1281 5275 
L 1613 5275 
L 1613 4141 
L 2222 4141 
L 2222 3822 
L 1613 3822 
L 1613 2534 
Q 2013 2697 2266 2816 
L 2322 2484 
z
M 6003 -213 
L 2209 -213 
L 2209 103 
L 4013 103 
L 4013 1575 
L 2491 1575 
L 2491 1906 
L 5913 1906 
L 5913 1575 
L 4341 1575 
L 4341 103 
L 6003 103 
L 6003 -213 
z
" transform="scale(0.015625)"/>
      <path id="MicrosoftJhengHeiRegular-8da8" d="M 5741 4769 
Q 5719 3316 5587 3042 
Q 5456 2769 4978 2769 
Q 4894 2769 4738 2778 
L 4634 3078 
Q 4959 3059 5031 3059 
Q 5297 3059 5356 3325 
Q 5416 3591 5416 4475 
L 3406 4475 
Q 3172 4181 2875 3981 
L 2694 4213 
Q 3278 4628 3591 5294 
L 3853 5153 
Q 3759 4938 3628 4769 
L 5741 4769 
z
M 6022 44 
L 5913 -250 
L 4172 -250 
Q 2647 -250 1969 79 
Q 1291 409 959 947 
Q 872 334 684 -306 
L 397 -147 
Q 738 975 744 2547 
L 1044 2503 
Q 1044 2113 991 1416 
Q 1253 969 1594 672 
L 1594 2988 
L 441 2988 
L 441 3309 
L 1538 3309 
L 1538 4206 
L 588 4206 
L 588 4506 
L 1538 4506 
L 1538 5281 
L 1856 5281 
L 1856 4506 
L 2534 4506 
L 2534 4206 
L 1856 4206 
L 1856 3309 
L 2797 3309 
L 2797 2988 
L 1913 2988 
L 1913 1919 
L 2528 1919 
L 2528 1606 
L 1913 1606 
L 1913 447 
Q 2609 44 3963 44 
L 6022 44 
z
M 4997 3450 
L 4206 3450 
Q 4003 2834 3109 2766 
L 3003 3041 
Q 3688 3091 3866 3450 
L 3169 3450 
L 3169 4128 
L 3463 4128 
L 3463 3738 
L 3950 3738 
Q 3981 3956 3981 4275 
L 4269 4275 
Q 4278 4088 4250 3738 
L 4697 3738 
L 4697 4128 
L 4997 4128 
L 4997 3450 
z
M 5741 2484 
Q 5741 950 5583 644 
Q 5425 338 4863 338 
Q 4759 338 4609 347 
L 4500 641 
Q 4681 631 4822 631 
Q 5128 631 5220 707 
Q 5313 784 5336 839 
Q 5359 894 5387 1378 
Q 5416 1863 5416 2188 
L 3469 2188 
Q 3150 1891 2847 1753 
L 2656 1991 
Q 3253 2278 3628 2809 
L 3903 2681 
Q 3859 2616 3756 2484 
L 5741 2484 
z
M 4991 1094 
L 4147 1094 
Q 4019 484 3059 319 
L 2894 594 
Q 3634 675 3822 1094 
L 3059 1094 
L 3059 1825 
L 3347 1825 
L 3347 1381 
L 3878 1381 
Q 3909 1653 3909 1991 
L 4206 1984 
Q 4206 1638 4184 1381 
L 4703 1381 
L 4703 1825 
L 4991 1825 
L 4991 1094 
z
" transform="scale(0.015625)"/>
      <path id="MicrosoftJhengHeiRegular-52e2" d="M 6009 2725 
Q 5884 1703 5494 1703 
Q 5247 1703 5094 2061 
Q 4941 2419 4941 3078 
L 4941 4178 
L 4459 4178 
Q 4403 3503 4319 3091 
Q 4553 2794 4788 2444 
L 4556 2241 
Q 4422 2469 4206 2747 
Q 4009 2219 3681 1838 
L 3391 1978 
Q 3841 2516 3975 3022 
Q 3791 3272 3463 3591 
L 3688 3803 
Q 3878 3619 4063 3413 
Q 4128 3797 4147 4178 
L 3500 4178 
L 3500 4494 
L 4159 4494 
Q 4166 4672 4166 5253 
L 4494 5253 
Q 4488 4716 4475 4494 
L 5253 4494 
L 5253 3109 
Q 5253 2656 5334 2343 
Q 5416 2031 5491 2031 
Q 5609 2031 5703 2869 
L 6009 2725 
z
M 3328 3188 
L 2725 3188 
Q 2338 3188 2338 3572 
L 2338 3909 
L 1709 3909 
Q 1450 3231 594 2881 
L 441 3144 
Q 1144 3422 1375 3909 
L 447 3909 
L 447 4206 
L 1766 4206 
L 1766 4609 
L 769 4609 
L 769 4903 
L 1766 4903 
L 1766 5253 
L 2081 5253 
L 2081 4903 
L 3181 4903 
L 3181 4609 
L 2081 4609 
L 2081 4206 
L 3278 4206 
L 3278 3909 
L 2644 3909 
L 2644 3572 
Q 2644 3469 2766 3469 
L 3328 3469 
L 3328 3188 
z
M 3225 1984 
Q 1888 1800 563 1691 
L 531 2003 
Q 1291 2056 1766 2113 
L 1766 2606 
L 825 2606 
L 825 2900 
L 1766 2900 
L 1766 3413 
L 2081 3413 
L 2081 2900 
L 3084 2900 
L 3084 2606 
L 2081 2606 
L 2081 2144 
Q 2484 2184 3225 2291 
L 3225 1984 
z
M 5466 1338 
Q 5425 494 5319 178 
Q 5213 -138 5025 -236 
Q 4838 -334 4431 -334 
L 3891 -325 
L 3763 13 
Q 4044 -6 4653 -6 
Q 4925 -6 5015 275 
Q 5106 556 5106 1025 
L 3188 1025 
Q 2603 -238 781 -353 
L 616 -31 
Q 2356 88 2816 1025 
L 856 1025 
L 856 1338 
L 2956 1338 
Q 3034 1541 3091 1784 
L 3419 1753 
Q 3397 1569 3322 1338 
L 5466 1338 
z
" transform="scale(0.015625)"/>
     </defs>
     <use xlink:href="#MicrosoftJhengHeiRegular-5168"/>
     <use xlink:href="#MicrosoftJhengHeiRegular-53f0" transform="translate(100 0)"/>
     <use xlink:href="#MicrosoftJhengHeiRegular-5efa" transform="translate(200 0)"/>
     <use xlink:href="#MicrosoftJhengHeiRegular-7269" transform="translate(300 0)"/>
     <use xlink:href="#MicrosoftJhengHeiRegular-8cb7" transform="translate(400 0)"/>
     <use xlink:href="#MicrosoftJhengHeiRegular-8ce3" transform="translate(500 0)"/>
     <use xlink:href="#MicrosoftJhengHeiRegular-79fb" transform="translate(600 0)"/>
     <use xlink:href="#MicrosoftJhengHeiRegular-8f49" transform="translate(700 0)"/>
     <use xlink:href="#MicrosoftJhengHeiRegular-68df" transform="translate(800 0)"/>
     <use xlink:href="#MicrosoftJhengHeiRegular-6578" transform="translate(900 0)"/>
     <use xlink:href="#MicrosoftJhengHeiRegular-76e3" transform="translate(1000 0)"/>
     <use xlink:href="#MicrosoftJhengHeiRegular-63a7" transform="translate(1100 0)"/>
     <use xlink:href="#MicrosoftJhengHeiRegular-8da8" transform="translate(1200 0)"/>
     <use xlink:href="#MicrosoftJhengHeiRegular-52e2" transform="translate(1300 0)"/>
    </g>
   </g>
  </g>
 </g>
 <defs>
  <clipPath id="p2ad32f0bc8">
   <rect x="71.48" y="43.36" width="781.72" height="317.163692"/>
  </clipPath>
 </defs>
</svg>
